<svg width="4" height="20" viewBox="0 0 4 20" fill="none" xmlns="http://www.w3.org/2000/svg">
<path d="M6.99382e-07 18C6.511e-07 16.8954 0.895431 16 2 16C3.10457 16 4 16.8954 4 18C4 19.1046 3.10457 20 2 20C0.895431 20 7.47665e-07 19.1046 6.99382e-07 18Z" fill="#555770"/>
<path d="M3.49691e-07 10C3.01409e-07 8.89543 0.895431 8 2 8C3.10457 8 4 8.89543 4 10C4 11.1046 3.10457 12 2 12C0.895431 12 3.97973e-07 11.1046 3.49691e-07 10Z" fill="#555770"/>
<path d="M2 0C0.89543 0 -4.82819e-08 0.89543 0 2C4.82828e-08 3.10457 0.895431 4 2 4C3.10457 4 4 3.10457 4 2C4 0.89543 3.10457 0 2 0Z" fill="#555770"/>
</svg>
