<svg width="140" height="143" viewBox="0 0 140 143" fill="none" xmlns="http://www.w3.org/2000/svg">
<path d="M1.23465 74.5251L1.24567 74.5141C1.25676 74.5141 1.25676 74.503 1.26784 74.503L3.33922 73.2956C3.54968 73.1738 3.83769 73.1959 4.15891 73.3843L27.0217 86.5768L31.6297 78.5904C31.6186 78.535 31.5965 78.4796 31.5965 78.4242L31.5743 75.0458L24.8506 78.8784L19.0463 75.5332V74.8021L20.298 74.0821L25.8364 77.2723L29.2592 75.3338L24.3078 72.4759L24.3189 71.7448L25.5595 71.0138L31.1091 74.215L31.5632 73.9602L31.5411 71.2574C31.5411 71.0692 31.6297 70.8698 31.7737 70.6926L29.5805 69.4187V68.6877L30.8321 67.9566L33.5681 69.5405L36.9687 67.58L34.842 66.3615L34.8531 65.6304L36.1048 64.8993L38.8518 66.4944L42.2524 64.5338L40.1146 63.3042V62.5732L41.3663 61.8421L44.1355 63.4482L47.5362 61.4877L45.3872 60.247V59.5159L46.6389 58.7849L49.4303 60.4021L52.8198 58.4415L50.6488 57.1898V56.4587L51.9005 55.7277L52.8531 56.2815C52.6648 56.0267 52.5097 55.7941 52.3989 55.6168C52.266 55.3732 52.1885 55.2292 52.1885 55.2292C48.7768 54.1104 47.1706 52.2162 46.5725 50.0563C46.0962 48.2397 46.3731 46.2458 46.9712 44.3516L4.14781 69.0753C3.72696 69.319 3.38351 69.2415 3.18413 68.9756C3.22849 69.0421 3.27277 69.1196 3.33922 69.1529L1.23465 67.9234C1.02419 67.8015 0.89119 67.5578 0.89119 67.2033L0.791534 29.8298C0.780441 29.0987 1.3011 28.2126 1.93242 27.847L49.3195 0.498066C49.6407 0.309781 49.9177 0.287671 50.1281 0.409495L52.2217 1.62793H52.2328C52.2328 1.62793 52.2328 1.63902 52.2439 1.63902C52.4432 1.76086 52.5762 2.00458 52.5762 2.37007L52.6648 33.6514C53.3516 32.9424 54.1048 32.2999 54.6032 31.9012C54.9798 31.6243 55.1903 31.447 55.1903 31.447C55.3897 31.0371 55.6999 30.6384 56.0875 30.2286C57.7712 28.5006 60.906 26.9055 62.4789 26.1633C63.066 25.9085 63.4204 25.7535 63.4204 25.7535C63.6088 25.6649 63.786 25.5541 63.9854 25.4655C74.7411 20.215 81.4758 23.0507 84.5331 25.1886C85.7958 26.0636 86.4272 26.8279 86.4272 26.8279C86.4272 26.8279 86.6931 26.8501 87.1029 26.9719C87.1805 27.0052 87.2691 27.0384 87.3577 27.0717L87.4242 2.37006C87.4242 2.00456 87.5571 1.76084 87.7565 1.63901H87.7676V1.62791H87.7786L89.8722 0.409473C90.0826 0.287638 90.3595 0.309748 90.6918 0.498044L138.079 27.847C138.699 28.2125 139.22 29.0987 139.209 29.8298L139.109 67.2033C139.109 67.5578 138.976 67.8014 138.766 67.9233L136.661 69.1529C136.728 69.1196 136.772 69.0421 136.827 68.9756C136.617 69.2415 136.273 69.319 135.852 69.0753L91.0131 43.1886C89.7725 44.7172 88.3103 45.703 87.5128 46.1793L87.5903 58.1091L89.8168 59.3941L90.8802 58.7849L92.1319 59.5159V60.247L91.6999 60.4907L95.0783 62.4623L96.1417 61.842L97.3934 62.5731V63.3042L96.9614 63.5479L100.351 65.5196L101.414 64.8993L102.666 65.6304V66.3614L102.234 66.6051L105.612 68.5768L106.676 67.9565L107.928 68.6876V69.4187L107.496 69.6734L108.592 70.3048C109.024 70.5595 109.235 70.8919 109.246 71.2131V71.2685L109.257 72.5755L111.948 71.0137L113.2 71.7448V72.4759L109.279 74.7356L109.29 75.9208L111.672 77.2722L117.21 74.0821L118.462 74.802L118.473 75.5331L112.668 78.8783L109.29 76.962L109.312 78.3909C109.312 78.6568 109.19 78.9116 108.936 79.1441C108.858 79.2217 108.747 79.2881 108.636 79.3546L106.908 80.3516L111.118 87.6513L135.841 73.3842C136.163 73.1959 136.451 73.1737 136.661 73.2956L138.732 74.503C138.744 74.503 138.744 74.514 138.755 74.514L138.766 74.5251C138.976 74.6469 139.098 74.9017 139.109 75.2562L139.209 112.63C139.209 113.35 138.699 114.236 138.068 114.601L90.6808 141.961C90.2599 142.205 89.9054 142.139 89.706 141.862C89.7614 141.928 89.7946 142.006 89.861 142.039L87.7565 140.821C87.546 140.699 87.4242 140.444 87.4242 140.089L87.3355 108.686L85.0648 107.368L78.8285 96.5571L75.2506 98.6174L81.3097 109.118L86.8592 112.331V113.062L85.6076 113.782L79.7922 110.425L73.5448 99.6032L71.9275 100.534C71.0525 101.032 69.5903 101.032 68.7153 100.534L64.7608 98.2408H64.7497L57.7159 110.425L52.6537 113.35L52.5762 140.089C52.5762 140.444 52.4543 140.699 52.2439 140.82L50.1392 142.039C50.2057 142.006 50.25 141.928 50.2943 141.862C50.0949 142.139 49.7405 142.205 49.3195 141.961L1.93243 114.601C1.3011 114.236 0.79155 113.35 0.79155 112.63L0.902298 75.2562C0.902283 74.9018 1.02417 74.647 1.23465 74.5251ZM109.412 88.6371L105.203 81.3375L101.625 83.3978L105.845 90.6975L109.412 88.6371ZM104.139 91.6833L99.93 84.3836L96.3522 86.4439L100.561 93.7437L104.139 91.6833ZM98.8666 94.7294L94.6463 87.4298L91.0795 89.4901L95.2888 96.7898L98.8666 94.7294ZM90.0161 99.836L93.594 97.7756L89.3737 90.4648L85.8069 92.5362L90.0161 99.836ZM86.5712 106.061L87.3355 106.504L87.3244 102.716C87.3134 102.04 87.7565 101.243 88.3214 100.844L84.1011 93.511L80.5232 95.5713L86.5712 106.061ZM56.2094 109.118L63.0549 97.2439L59.4881 95.1836H59.4771L52.6648 106.992L52.6537 111.168L56.2094 109.118ZM51.546 100.733C52.1774 101.099 52.6869 101.985 52.6758 102.716V103.048L57.7823 94.1867L54.2266 92.1153L54.2155 92.1264L49.818 99.7362L51.546 100.733ZM48.1232 98.7615L52.5208 91.1294L48.954 89.0581L48.9429 89.0692L44.5454 96.6901L48.1232 98.7615ZM42.8396 95.7153L47.2481 88.0723L43.6924 86.0008L43.6703 86.0119L39.2728 93.655L42.8396 95.7153ZM37.5669 92.6692L41.9866 85.015L38.4198 82.9436L38.4088 82.9547L33.989 90.6088L37.5669 92.6692ZM32.2943 89.623L36.714 81.9578L33.1583 79.8864L33.1362 79.8975L28.7165 87.5627L32.2943 89.623Z" fill="white"/>
<path d="M87.7581 1.6379C87.9675 1.51634 88.2579 1.52982 88.5754 1.7122L135.963 29.0738C136.598 29.4385 137.105 30.3233 137.105 31.0528L136.997 68.4175C136.997 68.7823 136.869 69.0322 136.666 69.1537L138.77 67.9283C138.98 67.8067 139.108 67.5568 139.108 67.1988L139.209 29.8274C139.216 29.0979 138.703 28.2131 138.074 27.8483L90.6864 0.493481C90.3622 0.304387 90.0785 0.290862 89.8691 0.412431L87.7581 1.6379Z" fill="#9AD898"/>
<path d="M88.5769 1.71527C87.943 1.34928 87.4282 1.64267 87.4261 2.37109L87.3202 39.7387C87.3181 40.4621 87.8296 41.3481 88.4635 41.7141L135.852 69.074C136.482 69.4375 136.997 69.1441 136.999 68.4206L137.105 31.0531C137.107 30.3246 136.595 29.4387 135.966 29.0752L88.5769 1.71527Z" fill="#75CA75"/>
<path d="M134.024 31.2365C134.013 31.2035 133.928 31.0558 133.869 31.0062L90.5548 6.00195L90.46 39.5209C90.471 39.5505 90.5574 39.6981 90.6161 39.7468L133.929 64.7507L134.024 31.2365Z" fill="white"/>
<path d="M119.982 52.783C119.982 53.1081 120.208 53.5039 120.49 53.6735L128.004 58.0116C128.287 58.167 128.513 58.0399 128.513 57.7006L128.584 44.4102C128.584 44.0851 128.358 43.6893 128.075 43.5339L120.575 39.1958C120.278 39.0262 120.052 39.1533 120.052 39.4926L119.982 52.783Z" fill="#D4DAE8"/>
<path d="M106.269 44.6882C106.269 45.0132 106.495 45.409 106.778 45.5786L114.292 49.9167C114.574 50.0722 114.8 49.945 114.8 49.6057L114.871 36.3153C114.871 35.9903 114.645 35.5945 114.362 35.439L106.863 31.1009C106.566 30.9313 106.34 31.0585 106.34 31.3978L106.269 44.6882Z" fill="#D4DAE8"/>
<path d="M92.5564 36.5932C92.5564 36.9182 92.7825 37.314 93.0652 37.4837L100.579 41.8217C100.862 41.9772 101.088 41.85 101.088 41.5107L101.158 28.2204C101.158 27.8953 100.932 27.4995 100.65 27.344L93.15 23.006C92.8532 22.8363 92.627 22.9635 92.627 23.3028L92.5564 36.5932Z" fill="#D4DAE8"/>
<path d="M111.507 25.94C111.405 26.0394 111.361 26.2222 111.36 26.4881C111.359 26.754 111.402 26.9868 111.503 27.2032C111.604 27.4195 111.748 27.5778 111.951 27.6947C112.146 27.8075 112.298 27.8203 112.392 27.7167C112.494 27.6173 112.545 27.4388 112.546 27.1728C112.547 26.9069 112.497 26.6699 112.396 26.4536C112.303 26.2414 112.151 26.0789 111.956 25.9662C111.753 25.8493 111.608 25.8406 111.507 25.94ZM111.684 27.133C111.627 26.9833 111.598 26.817 111.599 26.6259C111.599 26.4348 111.629 26.3018 111.687 26.2189C111.738 26.1401 111.832 26.1362 111.955 26.2072C112.078 26.2782 112.164 26.3865 112.222 26.5362C112.28 26.6776 112.308 26.8522 112.307 27.0351C112.307 27.2262 112.278 27.3591 112.219 27.4337C112.161 27.5167 112.074 27.5247 111.951 27.4537C111.828 27.3827 111.735 27.2703 111.684 27.133Z" fill="#4C7891"/>
<path d="M112.29 22.7194C112.323 22.8229 112.341 22.927 112.341 23.0255C112.34 23.1618 112.304 23.2688 112.244 23.3422C113.585 24.3678 114.643 26.2018 114.857 27.8691C114.95 27.8531 115.061 27.8759 115.181 27.9448C115.266 27.9943 115.348 28.0625 115.421 28.1428C115.184 26.1448 113.906 23.9314 112.29 22.7194Z" fill="#4562EF"/>
<path d="M112.729 26.4546L112.728 26.7039L113.339 28.4798L113.607 28.6343L113.01 26.8668L113.531 27.1674L113.53 27.4L113.747 27.5253L113.749 27.0433L112.729 26.4546Z" fill="#4C7891"/>
<path d="M109.776 25.7899C109.717 25.8313 109.688 25.906 109.688 26.0058C109.688 26.1137 109.716 26.2219 109.774 26.3301C109.832 26.4383 109.911 26.5175 109.998 26.5676C110.092 26.6219 110.164 26.6303 110.222 26.589C110.28 26.5475 110.317 26.477 110.317 26.369C110.317 26.2693 110.282 26.157 110.224 26.0488C110.166 25.9406 110.087 25.8531 110 25.803C109.913 25.7529 109.834 25.7485 109.776 25.7899ZM109.912 26.2681L109.876 26.1226L109.912 26.0271L109.999 26.0274L110.086 26.1274L110.115 26.2604L110.078 26.3642L109.991 26.3639L109.912 26.2681Z" fill="#4C7891"/>
<path d="M110.024 24.893L109.757 24.7385L110.822 27.0269L111.09 27.1813L110.024 24.893Z" fill="#4C7891"/>
<path d="M110.832 26.0837C110.919 26.1338 110.991 26.134 111.057 26.0968C111.115 26.0554 111.144 25.989 111.144 25.881C111.145 25.773 111.116 25.6649 111.051 25.5525C110.993 25.4443 110.921 25.3693 110.827 25.315C110.74 25.2649 110.668 25.2564 110.603 25.2936C110.545 25.335 110.515 25.4097 110.515 25.5178C110.515 25.6175 110.544 25.7256 110.601 25.8338C110.666 25.9461 110.738 26.0294 110.832 26.0837ZM110.92 25.6352L110.949 25.7683L110.913 25.872L110.826 25.8718L110.746 25.776L110.71 25.6305L110.747 25.535L110.834 25.5353L110.92 25.6352Z" fill="#4C7891"/>
<path d="M111.735 21.9852C109.5 20.6949 107.672 21.7369 107.664 24.3047C107.657 26.8809 109.474 30.0189 111.708 31.3091C113.95 32.6035 115.772 31.5657 115.779 28.9895C115.78 28.7058 115.633 28.3738 115.421 28.1429C115.347 28.0627 115.266 27.9944 115.181 27.9449C115.061 27.876 114.95 27.8533 114.857 27.8692C114.69 27.8978 114.579 28.0513 114.578 28.2964C114.573 30.108 113.289 30.8398 111.712 29.9296C110.136 29.0194 108.86 26.8095 108.865 24.9978C108.87 23.1862 110.154 22.4627 111.731 23.3729C111.945 23.4965 112.135 23.4748 112.244 23.3423C112.304 23.2689 112.34 23.1619 112.34 23.0256C112.341 22.9271 112.322 22.823 112.29 22.7195C112.196 22.4212 111.982 22.1277 111.735 21.9852Z" fill="#576CFB"/>
<path d="M125.521 34.0306C125.419 34.13 125.375 34.3127 125.374 34.5786C125.374 34.8363 125.416 35.0773 125.517 35.2937C125.618 35.5101 125.762 35.6684 125.965 35.7853C126.16 35.898 126.312 35.9109 126.407 35.8073C126.508 35.7078 126.56 35.521 126.56 35.2634C126.561 34.9975 126.511 34.7605 126.41 34.5442C126.317 34.332 126.165 34.1612 125.97 34.0485C125.767 33.9316 125.622 33.9311 125.521 34.0306ZM125.698 35.2153C125.641 35.0738 125.612 34.8992 125.613 34.7164C125.613 34.5253 125.643 34.3924 125.701 34.3094C125.752 34.2223 125.846 34.2268 125.969 34.2977C126.085 34.3645 126.179 34.4687 126.236 34.6184C126.294 34.7682 126.322 34.9345 126.322 35.1256C126.321 35.3084 126.292 35.4413 126.234 35.5242C126.175 35.6071 126.081 35.6111 125.966 35.5443C125.843 35.4733 125.749 35.3608 125.698 35.2153Z" fill="#416E84"/>
<path d="M123.79 33.8802C123.732 33.9133 123.702 33.988 123.702 34.096C123.702 34.2041 123.731 34.3039 123.788 34.412C123.846 34.5203 123.925 34.6077 124.012 34.6578C124.106 34.7121 124.178 34.7206 124.237 34.6793C124.295 34.6379 124.331 34.5673 124.331 34.4593C124.332 34.3595 124.296 34.2473 124.238 34.1391C124.18 34.0309 124.101 33.9434 124.014 33.8933C123.92 33.839 123.848 33.8388 123.79 33.8802ZM123.926 34.3584L123.89 34.2129L123.927 34.1174L124.014 34.1177L124.1 34.2177L124.129 34.3507L124.092 34.4545L124.005 34.4542L123.926 34.3584Z" fill="#4C7891"/>
<path d="M124.039 32.9752L123.771 32.8207L124.837 35.1173L125.104 35.2718L124.039 32.9752Z" fill="#416E84"/>
<path d="M124.839 34.1615C124.933 34.2158 125.006 34.2243 125.064 34.183C125.129 34.1457 125.158 34.071 125.159 33.9713C125.159 33.8633 125.13 33.7551 125.065 33.6428C125.008 33.5346 124.936 33.4513 124.842 33.397C124.755 33.3469 124.682 33.3467 124.617 33.3839C124.559 33.4253 124.53 33.5 124.53 33.5997C124.529 33.7078 124.558 33.8159 124.616 33.9241C124.68 34.0365 124.753 34.1114 124.839 34.1615ZM124.928 33.713L124.963 33.8586L124.927 33.954L124.84 33.9538L124.761 33.858L124.725 33.7208L124.761 33.617L124.848 33.6172L124.928 33.713Z" fill="#416E84"/>
<path d="M126.312 30.8134C126.344 30.917 126.362 31.0212 126.362 31.1202C126.361 31.2569 126.326 31.3638 126.267 31.4365C127.61 32.461 128.671 34.2972 128.885 35.9665C128.98 35.9518 129.091 35.9751 129.209 36.0436C129.295 36.0931 129.376 36.1613 129.45 36.2416C129.212 34.2409 127.931 32.0243 126.312 30.8134Z" fill="#6EBA6E"/>
<path d="M125.764 30.0838C123.522 28.7895 121.693 29.8231 121.686 32.3992C121.679 34.9671 123.495 38.1134 125.737 39.4078C127.972 40.698 129.8 39.6561 129.808 37.0882C129.808 36.8045 129.662 36.4725 129.45 36.2415C129.376 36.1613 129.295 36.0931 129.209 36.0436C129.091 35.9751 128.98 35.9518 128.885 35.9664C128.715 35.9929 128.601 36.1449 128.6 36.3909C128.595 38.1942 127.318 38.9385 125.741 38.0283C124.165 37.1181 122.889 34.8998 122.894 33.0965C122.899 31.2849 124.183 30.5531 125.76 31.4633C125.973 31.5866 126.16 31.5671 126.267 31.4365C126.326 31.3638 126.362 31.2569 126.362 31.1201C126.362 31.0212 126.344 30.9169 126.312 30.8133C126.22 30.5168 126.01 30.2262 125.764 30.0838Z" fill="#75CA75"/>
<path d="M96.0209 16.8125C95.9628 16.8539 95.9336 16.9286 95.9333 17.0284C95.933 17.1363 95.9617 17.2444 96.0266 17.3569C96.0842 17.465 96.1564 17.5401 96.2504 17.5943C96.3372 17.6445 96.4096 17.6529 96.4749 17.6157C96.533 17.5743 96.5622 17.4996 96.5625 17.3916C96.5628 17.2919 96.5341 17.1838 96.4765 17.0756C96.4116 16.9632 96.3394 16.8799 96.2454 16.8256C96.1586 16.7755 96.0862 16.7753 96.0209 16.8125ZM96.1572 17.2907L96.1286 17.1494L96.1578 17.0497L96.2448 17.05L96.3314 17.15L96.3672 17.2872L96.3307 17.3909L96.2438 17.3907L96.1572 17.2907Z" fill="#4C7891"/>
<path d="M96.2771 15.9199L96.0095 15.7654L97.0679 18.0495L97.3354 18.204L96.2771 15.9199Z" fill="#4C7891"/>
<path d="M97.7588 16.967C97.6572 17.0665 97.606 17.245 97.6052 17.5109C97.6044 17.7769 97.6545 18.0138 97.7553 18.2302C97.8488 18.4423 98.0005 18.6048 98.1958 18.7176C98.3983 18.8345 98.5431 18.8432 98.6448 18.7438C98.7393 18.6401 98.7905 18.4616 98.7913 18.1957C98.792 17.9298 98.742 17.6928 98.6484 17.4806C98.5476 17.2643 98.4032 17.106 98.2007 16.989C98.0054 16.8763 97.8533 16.8634 97.7588 16.967ZM97.9293 18.1558C97.8718 18.0061 97.8505 17.844 97.8511 17.6529C97.8516 17.4618 97.8737 17.3247 97.9319 17.2417C97.9901 17.1671 98.0771 17.1591 98.2 17.23C98.323 17.301 98.4168 17.4134 98.4671 17.559C98.5246 17.7005 98.5531 17.875 98.5526 18.0579C98.552 18.249 98.5227 18.3819 98.4645 18.4565C98.4136 18.5436 98.3194 18.5475 98.1964 18.4765C98.0735 18.4055 97.9869 18.2973 97.9293 18.1558Z" fill="#4C7891"/>
<path d="M99.2472 18.384C99.1023 18.4085 99.0368 18.5122 99.0363 18.695C99.0359 18.8446 99.0862 18.9901 99.1799 19.1442C99.2809 19.294 99.4109 19.4191 99.5773 19.5151C99.7363 19.607 99.8667 19.6322 99.9682 19.5993C100.07 19.558 100.121 19.4709 100.121 19.3213C100.122 19.1385 100.05 18.9555 99.9126 18.7681C100.014 18.7269 100.072 18.6522 100.073 18.5192C100.073 18.3945 100.023 18.2574 99.9289 18.12C99.8351 17.9825 99.7195 17.8742 99.5821 17.7949C99.4375 17.7114 99.3216 17.6861 99.2274 17.715C99.1404 17.748 99.0895 17.8267 99.0891 17.9514C99.0887 18.0844 99.1391 18.2216 99.2472 18.384ZM99.3757 19.0824C99.3107 19.0033 99.2747 18.9159 99.2749 18.8244C99.2752 18.7414 99.3116 18.6875 99.3695 18.6793C99.4348 18.667 99.4999 18.6797 99.5795 18.7256C99.659 18.7715 99.7241 18.8341 99.789 18.9215C99.8467 18.9964 99.8755 19.088 99.8752 19.171C99.875 19.2624 99.8458 19.3122 99.7806 19.3162L99.5779 19.274L99.3757 19.0824ZM99.7621 18.1901L99.8412 18.4106L99.7611 18.5475L99.5801 18.5179L99.3923 18.3345L99.3204 18.1099L99.3933 17.9771L99.5815 18.0109L99.7621 18.1901Z" fill="#4C7891"/>
<path d="M98.0598 13.0538C95.8179 11.7594 93.9895 12.8013 93.9822 15.3691C93.9749 17.9453 95.7914 21.0833 98.0334 22.3777C100.268 23.6679 102.096 22.6343 102.104 20.0581C102.105 19.6755 101.838 19.2053 101.505 19.0135C101.178 18.8244 100.897 18.975 100.896 19.3608C100.891 21.1725 99.6066 21.9043 98.0373 20.9982C96.4607 20.088 95.1848 17.8781 95.1899 16.0664C95.1951 14.2548 96.4793 13.5313 98.0559 14.4415C98.39 14.6345 98.657 14.4681 98.6581 14.09C98.6592 13.7132 98.3961 13.2479 98.0598 13.0538Z" fill="#F9BB4A"/>
<path d="M98.6084 13.7833C98.6405 13.8869 98.6585 13.9911 98.6582 14.09C98.6578 14.226 98.6232 14.3332 98.5643 14.4073C99.9067 15.4318 100.967 17.2674 101.182 18.9364C101.276 18.9217 101.387 18.9451 101.506 19.0135C101.588 19.0613 101.667 19.1264 101.739 19.203C101.501 17.2043 100.225 14.9928 98.6084 13.7833Z" fill="#EFAC41"/>
<path d="M97.0776 17.1064C97.1644 17.1565 97.2441 17.1609 97.3021 17.1195C97.3602 17.0781 97.3893 17.0117 97.3896 16.9037C97.3899 16.7956 97.3613 16.6875 97.3036 16.5794C97.246 16.4712 97.1665 16.392 97.0798 16.3419C96.9857 16.2876 96.9133 16.2791 96.8552 16.3205C96.7972 16.3619 96.7608 16.4324 96.7605 16.5404C96.7602 16.6401 96.7961 16.7524 96.8537 16.8606C96.9114 16.9688 96.9908 17.0563 97.0776 17.1064ZM97.1658 16.6579L97.2016 16.7951L97.1651 16.8989L97.0782 16.8986L96.9915 16.7986L96.9629 16.6573L96.9922 16.5577L97.0791 16.558L97.1658 16.6579Z" fill="#4C7891"/>
<path d="M126.873 34.6119L126.873 34.8695L127.487 35.2244L127.486 35.6316C127.429 35.565 127.356 35.5067 127.284 35.4649C127.147 35.3856 127.031 35.3603 126.929 35.4015C126.828 35.4345 126.784 35.5341 126.783 35.7003C126.783 35.8582 126.833 36.0204 126.934 36.1869C127.035 36.3534 127.165 36.4784 127.31 36.5619C127.505 36.6746 127.664 36.6917 127.781 36.6089L127.651 36.326L127.607 36.3508L127.491 36.3505L127.296 36.2793L127.108 36.1043C127.051 36.021 127.022 35.9378 127.022 35.8464C127.022 35.755 127.051 35.6969 127.117 35.6846C127.175 35.6682 127.254 35.6892 127.341 35.7393C127.435 35.7936 127.522 35.8686 127.608 35.9686L127.71 35.9024L127.712 35.0963L126.873 34.6119Z" fill="#416E84"/>
<path d="M52.2432 1.6379C52.0338 1.51634 51.7433 1.52982 51.4259 1.7122L4.03783 29.0738C3.40292 29.4385 2.89635 30.3233 2.89635 31.0528L3.00441 68.4175C3.00441 68.7823 3.13273 69.0322 3.33535 69.1537L1.23113 67.9283C1.02174 67.8067 0.893398 67.5568 0.893398 67.1988L0.792114 29.8274C0.785358 29.0979 1.29868 28.2131 1.92683 27.8484L49.3149 0.493481C49.6391 0.304387 49.9228 0.290862 50.1322 0.412431L52.2432 1.6379Z" fill="#F9607F"/>
<path d="M51.4241 1.71527C52.0581 1.34928 52.5729 1.64267 52.575 2.37109L52.6809 39.7387C52.683 40.4621 52.1715 41.3481 51.5375 41.7141L4.14877 69.074C3.51916 69.4375 3.00431 69.1441 3.00227 68.4206L2.89634 31.0531C2.89428 30.3246 3.40577 29.4387 4.03539 29.0752L51.4241 1.71527Z" fill="#F34858"/>
<path d="M5.97755 31.2365C5.98855 31.2035 6.07368 31.0558 6.13243 31.0062L49.4464 6.00195L49.5413 39.5209C49.5303 39.5505 49.4439 39.6981 49.3851 39.7468L6.07243 64.7507L5.97755 31.2365Z" fill="white"/>
<path d="M38.3367 18.4849C38.34 19.6568 39.0774 20.2079 40.0408 19.8651L40.0866 36.0002L40.0869 36.1243L40.8785 35.6673L40.8769 35.0724L40.8324 19.4081C41.8018 18.635 42.5265 17.2397 42.5232 16.0679C42.5194 14.7402 41.5749 14.202 40.4267 14.8649C39.2713 15.532 38.3329 17.1573 38.3367 18.4849ZM40.4377 18.7741C39.7174 19.1899 39.1307 18.8555 39.1284 18.0279C39.126 17.2001 39.7089 16.1905 40.4292 15.7746C41.1425 15.3628 41.7292 15.6972 41.7315 16.5249C41.7339 17.3526 41.151 18.3623 40.4377 18.7741Z" fill="#748BFD"/>
<path d="M28.4234 24.2085C28.4267 25.3803 29.157 25.9355 30.1275 25.5886L30.1748 42.2853L30.1826 45.0358L30.9742 44.5787L30.9643 41.0574L30.9191 25.1316C31.8813 24.3626 32.6132 22.9632 32.6099 21.7914C32.6061 20.4637 31.6616 19.9255 30.5062 20.5925C29.358 21.2555 28.4196 22.8808 28.4234 24.2085ZM30.5173 24.5017C29.8041 24.9134 29.2174 24.5791 29.2151 23.7514C29.2127 22.9237 29.7956 21.914 30.5088 21.5022C31.2292 21.0863 31.8088 21.4248 31.8111 22.2526C31.8134 23.0802 31.2376 24.0858 30.5173 24.5017Z" fill="#E4E8F4"/>
<path d="M18.5027 29.9361C18.5061 31.1079 19.2434 31.6591 20.2068 31.3163L20.2602 50.1354L20.2619 50.7634L21.0536 50.3063L21.0459 47.6061L20.9985 30.8592C21.9607 30.0902 22.6925 28.6909 22.6892 27.519C22.6854 26.1914 21.7481 25.649 20.5927 26.3161C19.4373 26.9831 18.499 28.6084 18.5027 29.9361ZM20.6038 30.2252C19.8834 30.6411 19.3038 30.3026 19.3015 29.4749C19.2992 28.6472 19.875 27.6416 20.5953 27.2258C21.3085 26.814 21.8952 27.1484 21.8975 27.9761C21.8999 28.8038 21.317 29.8134 20.6038 30.2252Z" fill="#F9607F"/>
<path d="M8.58939 35.6596C8.59272 36.8315 9.33009 37.3826 10.2935 37.0398L10.3465 55.7176L10.3512 57.3884L11.1428 56.9314L11.1404 56.0853L11.0851 36.5828C12.0474 35.8138 12.7792 34.4144 12.7759 33.2426C12.7721 31.9149 11.8276 31.3767 10.6723 32.0437C9.52399 32.7067 8.58563 34.332 8.58939 35.6596ZM10.6834 35.9528C9.97013 36.3646 9.38342 36.0302 9.38107 35.2025C9.37872 34.3748 9.96162 33.3651 10.6748 32.9534C11.3952 32.5375 11.9819 32.8719 11.9842 33.6996C11.9866 34.5273 11.4037 35.537 10.6834 35.9528Z" fill="#9AD898"/>
<path d="M7.39858 61.7401L48.5 38.0156C48.1451 37.0191 47.7765 32.5555 47.4216 31.5589C47.1759 30.8764 46.9166 30.153 46.4114 29.7571C45.6198 29.1429 44.3503 29.4841 43.1081 30.2076C42.7531 30.4124 42.3982 30.6444 42.0706 30.8901C39.5727 32.733 37.2384 35.5858 35.6003 38.7254C35.1635 39.6127 34.6721 40.6092 33.9759 41.087C33.935 41.1143 33.9077 41.1279 33.8804 41.1552C33.2388 41.5238 32.6791 41.2645 32.1877 41.0051C31.437 40.5683 30.6725 40.1588 29.9355 39.6946C29.5805 39.4899 29.2119 39.2988 28.7342 39.3807C28.5158 39.408 28.2974 39.4899 28.0926 39.6128C27.0825 40.1997 26.1133 41.674 25.5536 43.039C24.8711 44.7043 24.5298 46.397 23.6425 47.9805C23.4787 48.3217 23.2604 48.6357 23.0147 48.7858C22.9737 48.7995 22.9463 48.8268 22.9054 48.8404C22.5915 48.9906 22.3867 48.7722 22.2229 48.5401C21.7042 47.8439 21.1991 47.1341 20.6804 46.438C20.4347 46.1104 20.148 45.7554 19.7522 45.7145C19.4928 45.7009 19.2198 45.7964 18.9468 45.9466C18.5236 46.1923 18.1005 46.6154 17.7455 47.0932C17.1449 47.8849 16.7491 48.8268 16.3396 49.7141C15.7253 51.0927 15.1383 52.4578 14.4968 53.8501C14.2375 54.4234 13.9098 55.1196 13.3911 55.4745C12.8178 55.8021 12.4083 55.2834 12.2445 54.7238C12.1216 54.1368 12.0943 53.3861 11.6848 53.0857C11.4118 52.8946 11.0296 52.9628 10.6201 53.195C10.2242 53.427 9.81466 53.8228 9.50073 54.2733C8.84553 55.1879 8.49061 56.2663 8.21759 57.2901C7.98555 58.3275 7.80807 60.7163 7.39858 61.7401Z" fill="#9AD898"/>
<path d="M19.0451 74.804L20.2963 74.0769L25.8389 77.2769L24.5877 78.004L19.0451 74.804Z" fill="#E4E8F4"/>
<path d="M24.5875 78.0039L25.8387 77.2768L32.9231 73.2396L31.6719 73.9667L24.5875 78.0039Z" fill="#666970"/>
<path d="M34.6983 75.714L35.9495 74.9869L35.9474 75.7163L34.6962 76.4434L34.6983 75.714Z" fill="#9CA0AB"/>
<path d="M31.672 73.9667L32.9232 73.2396L35.9495 74.9869L34.6983 75.714L31.672 73.9667Z" fill="#E4E8F4"/>
<path d="M34.6982 75.714L34.6962 76.4434L31.9305 74.8467L24.8462 78.8839L19.043 75.5334L19.045 74.804L24.5876 78.004L31.6719 73.9668L34.6982 75.714Z" fill="#CAD0DD"/>
<path d="M24.3132 71.7459L25.5644 71.0188L31.1069 74.2188L29.8557 74.9459L24.3132 71.7459Z" fill="#E4E8F4"/>
<path d="M29.8556 74.946L31.1068 74.2188L38.1912 70.1816L36.94 70.9087L29.8556 74.946Z" fill="#666970"/>
<path d="M39.9663 72.6559L41.2175 71.9288L41.2155 72.6582L39.9643 73.3853L39.9663 72.6559Z" fill="#9CA0AB"/>
<path d="M36.94 70.9087L38.1912 70.1816L41.2175 71.9289L39.9663 72.656L36.94 70.9087Z" fill="#E4E8F4"/>
<path d="M39.9663 72.6559L39.9642 73.3853L37.1986 71.7886L30.1142 75.8258L24.311 72.4753L24.3131 71.7459L29.8556 74.9459L36.94 70.9087L39.9663 72.6559Z" fill="#CAD0DD"/>
<path d="M29.5813 68.6879L30.8325 67.9608L36.375 71.1608L35.1238 71.8879L29.5813 68.6879Z" fill="#E4E8F4"/>
<path d="M35.1237 71.888L36.3749 71.1609L43.4592 67.1237L42.208 67.8508L35.1237 71.888Z" fill="#666970"/>
<path d="M45.2344 69.598L46.4856 68.8708L46.4835 69.6002L45.2323 70.3274L45.2344 69.598Z" fill="#9CA0AB"/>
<path d="M42.2081 67.8508L43.4593 67.1237L46.4856 68.8709L45.2344 69.598L42.2081 67.8508Z" fill="#E4E8F4"/>
<path d="M45.2344 69.5981L45.2323 70.3275L42.4667 68.7307L35.3823 72.7679L29.5791 69.4174L29.5812 68.688L35.1237 71.888L42.2081 67.8508L45.2344 69.5981Z" fill="#CAD0DD"/>
<path d="M34.8491 65.63L36.1003 64.9028L41.6428 68.1028L40.3916 68.8299L34.8491 65.63Z" fill="#E4E8F4"/>
<path d="M40.3915 68.83L41.6427 68.1029L48.7271 64.0657L47.4759 64.7928L40.3915 68.83Z" fill="#666970"/>
<path d="M50.5022 66.54L51.7534 65.8129L51.7513 66.5423L50.5001 67.2694L50.5022 66.54Z" fill="#9CA0AB"/>
<path d="M47.4759 64.7928L48.7271 64.0657L51.7534 65.8129L50.5022 66.54L47.4759 64.7928Z" fill="#E4E8F4"/>
<path d="M50.5022 66.54L50.5001 67.2694L47.7345 65.6726L40.6501 69.7098L34.8469 66.3593L34.849 65.6299L40.3915 68.8299L47.4759 64.7927L50.5022 66.54Z" fill="#CAD0DD"/>
<path d="M40.1171 62.5719L41.3683 61.8447L46.9109 65.0447L45.6597 65.7718L40.1171 62.5719Z" fill="#E4E8F4"/>
<path d="M45.6596 65.7719L46.9108 65.0448L53.9951 61.0076L52.7439 61.7347L45.6596 65.7719Z" fill="#666970"/>
<path d="M55.7703 63.4819L57.0215 62.7548L57.0194 63.4842L55.7682 64.2113L55.7703 63.4819Z" fill="#9CA0AB"/>
<path d="M52.744 61.7347L53.9952 61.0076L57.0215 62.7548L55.7703 63.4819L52.744 61.7347Z" fill="#E4E8F4"/>
<path d="M55.7703 63.482L55.7682 64.2114L53.0026 62.6146L45.9182 66.6518L40.115 63.3013L40.117 62.572L45.6596 65.7719L52.7439 61.7347L55.7703 63.482Z" fill="#CAD0DD"/>
<path d="M45.385 59.5139L46.6362 58.7867L52.1787 61.9867L50.9275 62.7139L45.385 59.5139Z" fill="#E4E8F4"/>
<path d="M50.9274 62.7139L52.1786 61.9868L59.2629 57.9496L58.0117 58.6767L50.9274 62.7139Z" fill="#666970"/>
<path d="M61.0381 60.4239L62.2893 59.6968L62.2873 60.4262L61.036 61.1533L61.0381 60.4239Z" fill="#9CA0AB"/>
<path d="M58.0118 58.6767L59.263 57.9496L62.2893 59.6968L61.0381 60.4239L58.0118 58.6767Z" fill="#E4E8F4"/>
<path d="M61.0381 60.424L61.036 61.1534L58.2704 59.5567L51.186 63.5938L45.3828 60.2433L45.3849 59.514L50.9274 62.714L58.0118 58.6768L61.0381 60.424Z" fill="#CAD0DD"/>
<path d="M50.653 56.456L51.9042 55.7289L57.4468 58.9289L56.1956 59.656L50.653 56.456Z" fill="#E4E8F4"/>
<path d="M56.1955 59.6559L57.4467 58.9288L64.531 54.8916L63.2798 55.6187L56.1955 59.6559Z" fill="#666970"/>
<path d="M66.3062 57.3659L67.5574 56.6388L67.5553 57.3682L66.3041 58.0953L66.3062 57.3659Z" fill="#9CA0AB"/>
<path d="M63.2799 55.6187L64.5311 54.8916L67.5574 56.6389L66.3062 57.366L63.2799 55.6187Z" fill="#E4E8F4"/>
<path d="M66.3062 57.366L66.3041 58.0954L63.5384 56.4987L56.4541 60.5358L50.6509 57.1853L50.6529 56.456L56.1955 59.656L63.2798 55.6188L66.3062 57.366Z" fill="#CAD0DD"/>
<path d="M31.5422 71.2472L31.6006 78.4204C31.6006 78.7705 31.8049 79.0915 32.2425 79.3542L68.7172 100.539C69.5928 101.035 71.0518 101.035 71.9271 100.539L108.635 79.3542C109.102 79.0915 109.306 78.7413 109.306 78.3912L109.248 71.2181C109.248 71.5683 109.044 71.9184 108.577 72.1519H32.1843C31.7465 71.9184 31.5422 71.5683 31.5422 71.2472Z" fill="#416E84"/>
<path d="M67.5095 95.9186L66.2583 95.1915L63.232 96.9388L64.4832 97.6659L67.5095 95.9186Z" fill="#E4E8F4"/>
<path d="M64.4832 97.666L63.232 96.9388L56.205 109.123L57.4562 109.85L64.4832 97.666Z" fill="#D4DAE8"/>
<path d="M51.9022 113.057L50.651 112.33L50.6531 113.059L51.9043 113.786L51.9022 113.057Z" fill="#9CA0AB"/>
<path d="M57.4561 109.85L56.2048 109.123L50.6509 112.33L51.9021 113.057L57.4561 109.85Z" fill="#E4E8F4"/>
<path d="M64.4831 97.6659L57.4561 109.85L51.9022 113.057L51.9043 113.786L57.7188 110.429L64.7458 98.2448L67.5115 96.6481L67.5094 95.9187L64.4831 97.6659Z" fill="#CAD0DD"/>
<path d="M118.466 74.8039L117.215 74.0768L111.672 77.2768L112.924 78.0039L118.466 74.8039Z" fill="#E4E8F4"/>
<path d="M112.923 78.0039L111.672 77.2768L104.588 73.2396L105.839 73.9667L112.923 78.0039Z" fill="#666970"/>
<path d="M102.813 75.714L101.561 74.9869L101.563 75.7163L102.815 76.4434L102.813 75.714Z" fill="#9CA0AB"/>
<path d="M105.839 73.9667L104.588 73.2396L101.562 74.9869L102.813 75.714L105.839 73.9667Z" fill="#E4E8F4"/>
<path d="M102.813 75.714L102.815 76.4434L105.58 74.8467L112.665 78.8839L118.468 75.5334L118.466 74.804L112.923 78.004L105.839 73.9668L102.813 75.714Z" fill="#CAD0DD"/>
<path d="M62.2415 92.8607L60.9903 92.1335L57.9639 93.8808L59.2151 94.6079L62.2415 92.8607Z" fill="#E4E8F4"/>
<path d="M59.2151 94.608L57.9639 93.8809L50.9369 106.065L52.1881 106.792L59.2151 94.608Z" fill="#D4DAE8"/>
<path d="M46.6342 109.999L45.383 109.272L45.385 110.001L46.6362 110.728L46.6342 109.999Z" fill="#9CA0AB"/>
<path d="M52.188 106.792L50.9368 106.065L45.3829 109.272L46.6341 109.999L52.188 106.792Z" fill="#E4E8F4"/>
<path d="M59.215 94.608L52.1881 106.792L46.6341 109.999L46.6362 110.728L52.4508 107.371L59.4778 95.1868L62.2434 93.5901L62.2413 92.8607L59.215 94.608Z" fill="#CAD0DD"/>
<path d="M113.198 71.7459L111.947 71.0188L106.404 74.2188L107.655 74.9459L113.198 71.7459Z" fill="#E4E8F4"/>
<path d="M107.655 74.946L106.404 74.2188L99.3197 70.1816L100.571 70.9087L107.655 74.946Z" fill="#666970"/>
<path d="M97.5446 72.6559L96.2934 71.9288L96.2954 72.6582L97.5466 73.3853L97.5446 72.6559Z" fill="#9CA0AB"/>
<path d="M100.571 70.9087L99.3199 70.1816L96.2935 71.9289L97.5447 72.656L100.571 70.9087Z" fill="#E4E8F4"/>
<path d="M97.5447 72.6559L97.5467 73.3853L100.312 71.7886L107.397 75.8258L113.2 72.4753L113.198 71.7459L107.655 74.9459L100.571 70.9087L97.5447 72.6559Z" fill="#CAD0DD"/>
<path d="M56.9736 89.8025L55.7224 89.0754L52.6961 90.8227L53.9473 91.5498L56.9736 89.8025Z" fill="#E4E8F4"/>
<path d="M53.9473 91.5497L52.6961 90.8226L45.6691 103.007L46.9203 103.734L53.9473 91.5497Z" fill="#D4DAE8"/>
<path d="M41.3663 106.941L40.1151 106.214L40.1172 106.943L41.3684 107.67L41.3663 106.941Z" fill="#9CA0AB"/>
<path d="M46.9202 103.734L45.669 103.007L40.115 106.214L41.3662 106.941L46.9202 103.734Z" fill="#E4E8F4"/>
<path d="M53.9472 91.5497L46.9202 103.734L41.3663 106.941L41.3684 107.67L47.1829 104.313L54.21 92.1286L56.9756 90.5319L56.9735 89.8025L53.9472 91.5497Z" fill="#CAD0DD"/>
<path d="M107.93 68.6878L106.679 67.9607L101.136 71.1607L102.388 71.8878L107.93 68.6878Z" fill="#E4E8F4"/>
<path d="M102.387 71.8878L101.136 71.1607L94.0519 67.1235L95.3031 67.8506L102.387 71.8878Z" fill="#666970"/>
<path d="M92.2768 69.5978L91.0255 68.8707L91.0276 69.6001L92.2788 70.3272L92.2768 69.5978Z" fill="#9CA0AB"/>
<path d="M95.3032 67.8506L94.052 67.1235L91.0257 68.8708L92.2769 69.5979L95.3032 67.8506Z" fill="#E4E8F4"/>
<path d="M92.2768 69.598L92.2789 70.3273L95.0445 68.7306L102.129 72.7678L107.932 69.4173L107.93 68.6879L102.388 71.8879L95.3032 67.8507L92.2768 69.598Z" fill="#CAD0DD"/>
<path d="M51.7053 86.7446L50.4541 86.0175L47.4278 87.7647L48.679 88.4918L51.7053 86.7446Z" fill="#E4E8F4"/>
<path d="M48.6792 88.4919L47.428 87.7648L40.401 99.9492L41.6522 100.676L48.6792 88.4919Z" fill="#D4DAE8"/>
<path d="M36.0983 103.883L34.8471 103.156L34.8491 103.885L36.1003 104.612L36.0983 103.883Z" fill="#9CA0AB"/>
<path d="M41.6521 100.676L40.4009 99.9491L34.847 103.156L36.0982 103.883L41.6521 100.676Z" fill="#E4E8F4"/>
<path d="M48.6791 88.4919L41.6521 100.676L36.0982 103.883L36.1003 104.612L41.9149 101.255L48.9419 89.0708L51.7075 87.474L51.7054 86.7446L48.6791 88.4919Z" fill="#CAD0DD"/>
<path d="M102.662 65.6298L101.411 64.9027L95.8684 68.1027L97.1196 68.8298L102.662 65.6298Z" fill="#E4E8F4"/>
<path d="M97.1194 68.8299L95.8682 68.1028L88.7838 64.0656L90.035 64.7927L97.1194 68.8299Z" fill="#666970"/>
<path d="M87.0087 66.5399L85.7575 65.8127L85.7596 66.5421L87.0107 67.2692L87.0087 66.5399Z" fill="#9CA0AB"/>
<path d="M90.0352 64.7927L88.784 64.0656L85.7576 65.8128L87.0088 66.5399L90.0352 64.7927Z" fill="#E4E8F4"/>
<path d="M87.0088 66.5398L87.0108 67.2692L89.7765 65.6725L96.8608 69.7097L102.664 66.3592L102.662 65.6298L97.1195 68.8298L90.0351 64.7926L87.0088 66.5398Z" fill="#CAD0DD"/>
<path d="M46.4377 83.6866L45.1866 82.9595L42.1602 84.7067L43.4114 85.4338L46.4377 83.6866Z" fill="#E4E8F4"/>
<path d="M43.4114 85.4339L42.1602 84.7068L35.1332 96.8912L36.3844 97.6183L43.4114 85.4339Z" fill="#D4DAE8"/>
<path d="M30.8304 100.825L29.5792 100.098L29.5813 100.827L30.8325 101.554L30.8304 100.825Z" fill="#9CA0AB"/>
<path d="M36.3843 97.6182L35.1331 96.8911L29.5792 100.098L30.8304 100.825L36.3843 97.6182Z" fill="#E4E8F4"/>
<path d="M43.4113 85.4339L36.3843 97.6183L30.8304 100.825L30.8325 101.554L36.6471 98.1971L43.6741 86.0128L46.4397 84.416L46.4376 83.6866L43.4113 85.4339Z" fill="#CAD0DD"/>
<path d="M97.394 62.5719L96.1429 61.8447L90.6003 65.0447L91.8515 65.7718L97.394 62.5719Z" fill="#E4E8F4"/>
<path d="M91.8516 65.7719L90.6004 65.0448L83.516 61.0076L84.7672 61.7347L91.8516 65.7719Z" fill="#666970"/>
<path d="M81.7408 63.4819L80.4897 62.7548L80.4917 63.4842L81.7429 64.2113L81.7408 63.4819Z" fill="#9CA0AB"/>
<path d="M84.7673 61.7347L83.5161 61.0076L80.4898 62.7548L81.741 63.4819L84.7673 61.7347Z" fill="#E4E8F4"/>
<path d="M81.7409 63.482L81.743 64.2114L84.5086 62.6146L91.593 66.6518L97.3962 63.3013L97.3942 62.572L91.8516 65.7719L84.7673 61.7347L81.7409 63.482Z" fill="#CAD0DD"/>
<path d="M41.1694 80.6286L39.9182 79.9015L36.8919 81.6487L38.1431 82.3759L41.1694 80.6286Z" fill="#E4E8F4"/>
<path d="M38.1433 82.3759L36.8921 81.6488L29.8651 93.8332L31.1163 94.5603L38.1433 82.3759Z" fill="#D4DAE8"/>
<path d="M25.5624 97.7669L24.3112 97.0398L24.3133 97.7691L25.5645 98.4963L25.5624 97.7669Z" fill="#9CA0AB"/>
<path d="M31.1162 94.5602L29.865 93.8331L24.3111 97.0397L25.5623 97.7668L31.1162 94.5602Z" fill="#E4E8F4"/>
<path d="M38.1432 82.3759L31.1163 94.5603L25.5623 97.7669L25.5644 98.4962L31.379 95.1391L38.406 82.9548L41.1716 81.3581L41.1696 80.6287L38.1432 82.3759Z" fill="#CAD0DD"/>
<path d="M92.1262 59.5139L90.875 58.7867L85.3325 61.9867L86.5837 62.7139L92.1262 59.5139Z" fill="#E4E8F4"/>
<path d="M86.5835 62.7139L85.3323 61.9868L78.2479 57.9496L79.4991 58.6767L86.5835 62.7139Z" fill="#666970"/>
<path d="M76.4728 60.4239L75.2216 59.6968L75.2237 60.4262L76.4749 61.1533L76.4728 60.4239Z" fill="#9CA0AB"/>
<path d="M79.4993 58.6767L78.2481 57.9496L75.2218 59.6968L76.473 60.4239L79.4993 58.6767Z" fill="#E4E8F4"/>
<path d="M76.4729 60.424L76.475 61.1534L79.2406 59.5567L86.3249 63.5938L92.1282 60.2433L92.1261 59.514L86.5836 62.714L79.4992 58.6768L76.4729 60.424Z" fill="#CAD0DD"/>
<path d="M35.9016 77.5706L34.6504 76.8435L31.6241 78.5907L32.8753 79.3179L35.9016 77.5706Z" fill="#E4E8F4"/>
<path d="M32.8752 79.3178L31.624 78.5907L24.5971 90.7751L25.8483 91.5022L32.8752 79.3178Z" fill="#D4DAE8"/>
<path d="M20.2943 94.7088L19.0431 93.9817L19.0452 94.711L20.2964 95.4381L20.2943 94.7088Z" fill="#9CA0AB"/>
<path d="M25.8481 91.5022L24.5969 90.775L19.043 93.9816L20.2942 94.7087L25.8481 91.5022Z" fill="#E4E8F4"/>
<path d="M32.8752 79.3178L25.8482 91.5022L20.2943 94.7087L20.2964 95.4381L26.1109 92.0811L33.1379 79.8967L35.9036 78.3L35.9015 77.5706L32.8752 79.3178Z" fill="#CAD0DD"/>
<path d="M86.8582 56.4559L85.607 55.7288L80.0644 58.9287L81.3156 59.6559L86.8582 56.4559Z" fill="#E4E8F4"/>
<path d="M81.3154 59.6559L80.0642 58.9288L72.9799 54.8916L74.2311 55.6187L81.3154 59.6559Z" fill="#666970"/>
<path d="M71.2047 57.3659L69.9535 56.6388L69.9556 57.3682L71.2068 58.0953L71.2047 57.3659Z" fill="#9CA0AB"/>
<path d="M74.2312 55.6187L72.98 54.8916L69.9537 56.6389L71.2049 57.366L74.2312 55.6187Z" fill="#E4E8F4"/>
<path d="M71.2048 57.366L71.2069 58.0954L73.9725 56.4987L81.0569 60.5358L86.8601 57.1853L86.858 56.456L81.3155 59.656L74.2311 55.6188L71.2048 57.366Z" fill="#CAD0DD"/>
<path d="M32.2131 72.195L68.667 93.3688C69.5672 93.8616 71.0031 93.8616 71.8817 93.3688L108.593 72.195C109.472 71.6592 109.472 70.8234 108.593 70.3091L72.1175 49.1138C71.2388 48.5995 69.8244 48.5995 68.9242 49.1567L32.2344 70.3091C31.3129 70.8448 31.3129 71.6592 32.2131 72.195Z" fill="#4C7891"/>
<path d="M84.7565 85.9288L108.577 72.1518C109.044 71.9183 109.248 71.5683 109.248 71.2181L109.307 78.3912C109.307 78.7413 109.102 79.0914 108.635 79.3541L84.7565 93.1347L84.7565 85.9288Z" fill="#416E84"/>
<path d="M70.0018 95.9186L71.253 95.1915L74.2793 96.9388L73.0281 97.6659L70.0018 95.9186Z" fill="#E4E8F4"/>
<path d="M73.028 97.666L74.2792 96.9388L81.3062 109.123L80.055 109.85L73.028 97.666Z" fill="#D4DAE8"/>
<path d="M85.6089 113.057L86.8601 112.33L86.858 113.059L85.6068 113.786L85.6089 113.057Z" fill="#9CA0AB"/>
<path d="M80.055 109.85L81.3062 109.123L86.8601 112.33L85.6089 113.057L80.055 109.85Z" fill="#E4E8F4"/>
<path d="M73.028 97.6659L80.055 109.85L85.6089 113.057L85.6068 113.786L79.7922 110.429L72.7652 98.2448L69.9996 96.6481L70.0017 95.9187L73.028 97.6659Z" fill="#CAD0DD"/>
<path d="M75.2699 92.8607L76.521 92.1335L79.5474 93.8808L78.2962 94.6079L75.2699 92.8607Z" fill="#E4E8F4"/>
<path d="M78.296 94.608L79.5472 93.8809L86.5742 106.065L85.323 106.792L78.296 94.608Z" fill="#D4DAE8"/>
<path d="M90.877 109.999L92.1282 109.272L92.1261 110.001L90.8749 110.728L90.877 109.999Z" fill="#9CA0AB"/>
<path d="M85.323 106.792L86.5742 106.065L92.1282 109.272L90.877 109.999L85.323 106.792Z" fill="#E4E8F4"/>
<path d="M78.2961 94.608L85.323 106.792L90.877 109.999L90.8749 110.728L85.0603 107.371L78.0333 95.1868L75.2677 93.5901L75.2697 92.8607L78.2961 94.608Z" fill="#CAD0DD"/>
<path d="M80.5379 89.8027L81.7891 89.0756L84.8154 90.8228L83.5642 91.5499L80.5379 89.8027Z" fill="#E4E8F4"/>
<path d="M83.5641 91.5499L84.8153 90.8228L91.8423 103.007L90.5911 103.734L83.5641 91.5499Z" fill="#D4DAE8"/>
<path d="M96.145 106.941L97.3962 106.214L97.3942 106.943L96.143 107.67L96.145 106.941Z" fill="#9CA0AB"/>
<path d="M90.5911 103.734L91.8423 103.007L97.3962 106.214L96.145 106.941L90.5911 103.734Z" fill="#E4E8F4"/>
<path d="M83.5641 91.5499L90.5911 103.734L96.145 106.941L96.143 107.67L90.3284 104.313L83.3014 92.1287L80.5357 90.532L80.5378 89.8026L83.5641 91.5499Z" fill="#CAD0DD"/>
<path d="M85.8057 86.7447L87.0569 86.0176L90.0833 87.7648L88.832 88.492L85.8057 86.7447Z" fill="#E4E8F4"/>
<path d="M88.8319 88.492L90.0831 87.7649L97.1101 99.9493L95.8589 100.676L88.8319 88.492Z" fill="#D4DAE8"/>
<path d="M101.413 103.883L102.664 103.156L102.662 103.885L101.411 104.612L101.413 103.883Z" fill="#9CA0AB"/>
<path d="M95.8589 100.676L97.1101 99.9492L102.664 103.156L101.413 103.883L95.8589 100.676Z" fill="#E4E8F4"/>
<path d="M88.8319 88.492L95.8589 100.676L101.413 103.883L101.411 104.612L95.5962 101.255L88.5692 89.0709L85.8036 87.4742L85.8056 86.7448L88.8319 88.492Z" fill="#CAD0DD"/>
<path d="M91.0738 83.6867L92.325 82.9596L95.3513 84.7068L94.1001 85.434L91.0738 83.6867Z" fill="#E4E8F4"/>
<path d="M94.1 85.434L95.3512 84.7069L102.378 96.8913L101.127 97.6184L94.1 85.434Z" fill="#D4DAE8"/>
<path d="M106.681 100.825L107.932 100.098L107.93 100.827L106.679 101.554L106.681 100.825Z" fill="#9CA0AB"/>
<path d="M101.127 97.6184L102.378 96.8912L107.932 100.098L106.681 100.825L101.127 97.6184Z" fill="#E4E8F4"/>
<path d="M94.1 85.434L101.127 97.6184L106.681 100.825L106.679 101.554L100.864 98.1973L93.8372 86.0129L91.0716 84.4162L91.0737 83.6868L94.1 85.434Z" fill="#CAD0DD"/>
<path d="M96.3416 80.6287L97.5928 79.9016L100.619 81.6489L99.3679 82.376L96.3416 80.6287Z" fill="#E4E8F4"/>
<path d="M99.3678 82.3761L100.619 81.6489L107.646 93.8333L106.395 94.5604L99.3678 82.3761Z" fill="#D4DAE8"/>
<path d="M111.949 97.767L113.2 97.0399L113.198 97.7693L111.947 98.4964L111.949 97.767Z" fill="#9CA0AB"/>
<path d="M106.395 94.5604L107.646 93.8333L113.2 97.0398L111.949 97.7669L106.395 94.5604Z" fill="#E4E8F4"/>
<path d="M99.3678 82.376L106.395 94.5604L111.949 97.767L111.947 98.4963L106.132 95.1393L99.1051 82.9549L96.3395 81.3582L96.3415 80.6288L99.3678 82.376Z" fill="#CAD0DD"/>
<path d="M101.61 77.5707L102.861 76.8436L105.887 78.5909L104.636 79.318L101.61 77.5707Z" fill="#E4E8F4"/>
<path d="M104.636 79.3179L105.887 78.5908L112.914 90.7752L111.663 91.5023L104.636 79.3179Z" fill="#D4DAE8"/>
<path d="M117.217 94.7089L118.468 93.9818L118.466 94.7112L117.215 95.4383L117.217 94.7089Z" fill="#9CA0AB"/>
<path d="M111.663 91.5023L112.914 90.7751L118.468 93.9817L117.217 94.7088L111.663 91.5023Z" fill="#E4E8F4"/>
<path d="M104.636 79.3179L111.663 91.5023L117.217 94.7089L117.215 95.4382L111.4 92.0812L104.373 79.8968L101.608 78.3001L101.61 77.5707L104.636 79.3179Z" fill="#CAD0DD"/>
<path d="M58.2146 64.2293C65.0496 60.2724 75.9722 60.3376 82.6437 64.2293C86.3065 66.355 87.9416 69.2002 87.5164 71.9799C87.124 69.8216 85.4889 67.6958 82.6437 66.0279C75.9722 62.1362 65.0495 62.071 58.2146 66.0279C55.3041 67.7285 53.669 69.8543 53.2764 72.078C52.8514 69.2657 54.4866 66.355 58.2146 64.2293Z" fill="#31323D"/>
<path d="M58.2145 66.0279C65.0495 62.0709 75.9721 62.1362 82.6437 66.0279C85.4888 67.6957 87.1239 69.8215 87.5164 71.9798V72.0126C87.4509 72.307 87.3856 72.5685 87.3201 72.8301C86.7642 74.825 85.1291 76.7218 82.4147 78.2915C75.7106 82.1506 64.9187 82.1506 58.2472 78.2915C55.6637 76.7873 54.0613 74.8904 53.4727 72.9283C53.3745 72.6667 53.309 72.3723 53.2763 72.078C53.6689 69.8543 55.3041 67.7285 58.2145 66.0279Z" fill="#464957"/>
<path d="M58.1062 35.7051C51.3995 39.5772 51.4926 45.9064 58.1553 49.7784C64.8182 53.6504 75.6164 53.6506 82.3231 49.7785C89.1584 45.8321 89.1934 39.5774 82.5305 35.7053C75.8678 31.8334 64.9414 31.7588 58.1062 35.7051Z" fill="#D4DAE8"/>
<g opacity="0.4">
<path d="M53.1095 42.7257L53.296 71.2276C53.3166 73.7753 54.9944 76.3438 58.35 78.2909C64.9991 82.1437 75.8116 82.1437 82.502 78.2909C85.9612 76.2817 87.6804 73.6925 87.6804 71.1241L87.4939 42.6222C87.4939 45.1907 85.7748 47.7798 82.3156 49.7684C75.6251 53.6418 64.8127 53.6418 58.1636 49.7684C54.8081 47.842 53.1303 45.2735 53.1095 42.7257Z" fill="#CAD0DD"/>
</g>
<path d="M86.9315 46.4986C84.6848 52.9335 73.7127 55.5293 73.7127 55.5293C70.4844 60.699 63.6134 58.6704 63.6134 58.6704C60.036 60.4809 57.3094 59.8484 55.4116 58.6704C53.8192 57.6671 52.8159 56.2928 52.4014 55.6166C52.2705 55.3766 52.1832 55.2239 52.1832 55.2239C48.7804 54.1115 47.1662 52.2138 46.5772 50.0542C45.1813 44.8191 50.0674 38.0134 50.9181 36.8791C51.0053 36.7701 51.049 36.7046 51.049 36.7046C51.0053 36.4865 51.0272 36.2466 51.0925 35.9848C51.507 34.5233 53.5793 32.7129 54.6046 31.9057C54.9753 31.6222 55.1934 31.4477 55.1934 31.4477C55.3898 31.0332 55.6952 30.6406 56.0878 30.2261C57.7674 28.5028 60.9084 26.9105 62.4791 26.1689C63.068 25.907 63.417 25.7545 63.417 25.7545C63.6134 25.6671 63.7878 25.5581 63.9842 25.4709C74.738 20.2139 81.4782 23.0495 84.5321 25.1873C85.7973 26.0597 86.4298 26.8233 86.4298 26.8233C86.4298 26.8233 86.6916 26.8451 87.106 26.976C87.7604 27.1941 88.8293 27.7394 89.8982 29.0046C90.9451 30.1825 91.9921 32.0148 92.7775 34.8723C94.937 42.6813 86.9315 46.4986 86.9315 46.4986Z" fill="#FED57A"/>
<path d="M79.9733 27.5649C77.552 26.1253 73.7129 28.7864 72.3824 29.4409C71.03 30.0953 67.3871 33.2799 66.7109 34.0216C66.0565 34.7633 66.2747 36.7701 66.4928 37.2499C66.7109 37.7298 69.6557 38.5806 69.8303 38.9295C70.0265 39.3003 69.5902 41.5907 68.7396 41.7652C67.9107 41.9398 69.2413 40.2166 69.2413 39.1041C69.2413 37.9916 66.58 38.4279 65.7076 38.1006C64.8568 37.7734 65.7076 38.6241 64.7041 38.9514C63.7225 39.2785 63.6571 39.4967 62.8064 39.4312C61.9338 39.344 63.8534 38.5806 64.7478 37.5771C65.6202 36.5518 64.8131 34.2615 64.8131 34.2615C62.9154 35.0686 57.4186 42.2887 57.1567 42.4414C56.9605 42.5723 56.8296 43.314 56.8078 43.4885C56.8078 43.314 59.6434 44.0339 59.5126 44.7536C59.3817 45.4516 58.9454 44.2738 58.2038 44.47C57.4403 44.6664 55.6953 44.5574 55.6953 44.5574C54.1466 45.6915 52.5106 51.363 52.5106 51.363C52.5106 51.363 53.6885 51.0576 53.9721 50.8395C54.2556 50.5995 55.4117 48.2219 55.7171 48.6364C56.0007 49.029 54.8445 51.2975 54.8445 51.2975C54.8445 51.2975 56.0225 52.6718 56.1097 53.457C56.1752 54.2424 54.7791 52.1701 54.7791 52.1701C51.5508 50.4686 52.6415 55.4421 52.6415 55.4421L52.4015 55.6166C52.2706 55.3766 52.1834 55.2239 52.1834 55.2239C48.7805 54.1115 47.1664 52.2138 46.5774 50.0542L47.0137 51.1013C47.0137 50.3214 49.9771 44.8608 47.9516 49.9233C47.8208 50.2505 48.7587 49.7489 49.5876 49.7271C50.3947 49.7052 48.9333 50.5123 48.9333 50.5123C48.9333 50.5123 47.4282 50.4251 47.7771 51.6248C48.148 52.8463 50.8964 53.9588 50.8964 53.9588C50.8964 53.9588 53.0123 47.7857 53.0123 46.7387C53.0123 45.7134 52.467 44.7318 51.8998 44.2083C51.3545 43.6629 50.1985 45.1027 49.5004 44.6446C48.7806 44.1864 51.2018 43.5102 50.7655 43.0522C50.3075 42.5941 50.8746 40.7836 51.1581 40.3474C51.4417 39.9111 51.7471 40.042 51.6599 40.2601C51.5509 40.5 51.0272 42.3105 51.7034 42.8122C52.4015 43.314 53.9284 45.1245 53.9284 45.1245L57.7457 39.0604C57.7457 39.0604 57.702 38.1225 57.4403 37.0536C57.2004 35.9848 58.073 35.7884 58.0293 34.676C57.9639 33.5416 56.1316 35.1559 55.9789 34.218C55.8261 33.2582 58.0948 33.4326 58.0948 33.4326L58.1383 33.629C58.2492 33.5455 57.6755 33.4968 60.2324 32.102C58.0261 34.3083 59.447 34.6584 58.5746 38.2533L64.6604 32.2547C64.5295 32.0148 64.8786 31.0114 64.835 30.1825C64.8131 29.3536 62.61 30.8587 62.1957 29.6808C61.7812 28.5028 64.7913 29.3754 64.7913 29.2445C64.7913 29.0918 64.0934 28.1539 63.897 27.914C63.7006 27.6957 63.7443 27.6522 63.7443 27.6522C65.5767 27.3686 65.7729 31.4695 65.7729 31.4695C65.7729 31.4695 71.5534 28.0884 71.8806 27.7831C72.2297 27.4995 72.2078 27.0195 72.1424 26.0381C72.0551 25.0783 70.1355 25.8198 68.8705 25.4272C67.5834 25.0128 72.0769 24.5546 72.0769 24.5546C72.2078 23.9658 73.364 23.6822 73.364 23.6822C73.364 23.6822 73.5602 23.3331 73.931 23.5732C74.3237 23.8349 73.0367 24.8601 73.0367 24.8601C73.3203 25.4927 73.2985 27.1069 73.2985 27.1069C77.9883 24.5546 84.4231 25.2091 84.4231 25.2091L84.5323 25.1873C85.7973 26.0597 86.43 26.8233 86.43 26.8233C86.43 26.8233 86.6917 26.8451 87.1062 26.976L87.0625 27.0632C87.0625 27.0632 81.6311 26.3215 80.6713 26.278C79.0111 26.2024 85.6563 30.923 79.9733 27.5649Z" fill="#F9BB4A"/>
<path d="M86.9316 46.4986C84.6849 52.9335 73.7129 55.5292 73.7129 55.5292C70.4846 60.6989 63.6134 58.6703 63.6134 58.6703C60.036 60.4809 57.3094 59.8483 55.4117 58.6703C57.2659 58.5395 62.3047 57.6015 63.1117 56.1836C63.9188 54.744 63.8316 54.0896 63.2426 51.7993C62.6536 49.5306 60.5814 50.9267 58.989 49.7924C57.3967 48.6582 60.625 49.247 61.8029 49.0943C62.959 48.9199 63.4607 47.5892 64.0715 46.4986C64.6822 45.3862 63.3953 43.1176 63.3953 43.1176C67.169 42.9213 65.2494 49.247 65.2494 49.247C66.0129 51.6684 69.023 47.7419 69.023 47.7419C70.2229 48.3964 68.1506 51.0794 66.4709 51.363C64.7696 51.6466 64.944 51.9301 65.6857 53.217C66.4273 54.5041 64.7913 57.4488 64.7913 57.4488C73.2766 57.7979 73.8874 51.1448 73.8656 49.1598C73.8656 47.1966 72.775 47.393 71.4444 46.6731C70.1137 45.9532 71.0953 43.3139 71.5534 42.7686C71.9897 42.2015 72.0769 43.5539 71.5971 44.3391C71.1171 45.1245 71.3352 45.6698 72.3168 45.8224C73.2984 45.9969 74.8035 47.6984 75.3707 47.6984C75.916 47.6984 75.8942 45.4516 76.4614 44.8626C77.0503 44.2519 76.4614 43.5539 76.5922 42.7905C76.7013 42.0051 78.2719 44.3391 78.3591 45.1462C78.4681 45.9532 81.5438 46.1715 81.6747 46.7605C81.8056 47.3712 79.0571 46.5204 77.7482 45.9316C76.4177 45.3426 74.7599 53.2389 74.7599 53.2389C74.7599 53.2389 79.7987 50.6868 82.3728 50.0541C84.9684 49.4216 86.2772 45.9969 86.0809 43.8374C85.8628 41.6561 82.2417 43.3139 82.2417 42.9213C82.2417 42.5069 85.6883 41.6998 86.1464 41.4162C86.6044 41.1545 85.5137 39.2784 84.6631 38.5805C83.7905 37.9042 84.0304 35.1559 83.3542 34.6322C82.6999 34.1306 81.6964 34.545 81.0639 33.7816C80.4313 33.0181 78.4027 32.8218 78.4027 33.1708C78.4027 33.5199 77.7701 34.7632 77.7701 36.181C77.7701 37.5989 76.854 39.0167 76.1996 39.1259C75.5452 39.2131 75.3488 38.6241 76.1559 38.1006C76.963 37.5989 76.963 36.0938 76.614 35.3303C75.9868 34.0393 79.7894 32.926 75.5669 33.3235C73.7128 33.498 73.3856 35.0031 71.9897 34.6105C70.6154 34.2396 76.8539 31.8184 79.0353 31.8184C81.2166 31.8184 83.0706 33.3453 83.3542 33.5416C83.6378 33.7598 84.7066 31.4694 85.7756 30.8804C86.8444 30.2914 85.95 27.9792 86.9534 27.9792C87.9569 27.9792 86.2991 31.4694 84.9902 33.0836C83.6596 34.7196 85.7756 37.3153 86.19 38.5587C86.6043 39.802 87.0843 38.9731 87.8477 39.562C88.6112 40.1292 87.3679 44.6663 88.1313 44.8409C88.8948 45.0153 91.207 39.6275 91.5123 36.7045C91.8177 33.8034 90.1817 34.3051 89.331 32.9745C88.4804 31.6657 91.5123 33.2363 91.5123 33.2363L89.8981 29.0045C90.9453 30.1824 91.9922 32.0147 92.7775 34.8723C94.937 42.6813 86.9316 46.4986 86.9316 46.4986Z" fill="#F9BB4A"/>
<path d="M53.8845 39.3004C53.6949 39.4662 53.2327 39.498 53.0555 39.4094C52.7023 39.1746 52.8884 37.9117 52.772 37.6208C52.6574 37.3151 51.9123 36.8625 51.5068 36.8355C51.3105 36.8136 51.1142 36.8791 50.9179 36.8791C51.0051 36.7701 51.0488 36.7046 51.0488 36.7046C51.0051 36.4865 51.0269 36.2466 51.0923 35.9849C51.136 36.0066 51.1796 36.0284 51.2015 36.0502C53.2612 36.9655 52.9145 36.1196 53.7317 37.0537C53.8845 37.2281 54.0372 37.4245 54.1244 37.6425C54.2358 37.9214 54.2966 38.9834 53.8845 39.3004Z" fill="#F9BB4A"/>
<path d="M59.5558 29.8553C59.5123 29.8335 59.4686 29.8335 59.425 29.8117C58.7561 29.7764 55.9474 32.0978 54.6044 31.9056C54.9752 31.6222 55.1932 31.4476 55.1932 31.4476C55.3896 31.0332 55.695 30.6406 56.0877 30.2261C57.2559 29.9509 58.5932 27.9111 59.8176 29.1355C60.2993 29.6162 59.7258 30.1942 59.5558 29.8553Z" fill="#F9BB4A"/>
<path d="M66.6452 26.3871C66.4925 26.4307 66.3616 26.278 66.2089 26.2344C66.0818 26.1835 65.3705 26.2334 65.0965 26.4524C64.8785 26.5978 64.9106 26.6488 64.5729 26.6488C63.6247 26.6488 62.7218 26.6546 62.4789 26.169C64.2498 25.3816 63.5436 25.6665 63.984 25.4709C64.0059 25.5145 64.0276 25.58 64.0712 25.6237C64.6207 25.557 66.4276 25.5025 66.7325 25.9289C66.8634 26.0817 66.8197 26.3434 66.6452 26.3871Z" fill="#F9BB4A"/>
<path d="M138.771 74.5262C138.562 74.4046 138.272 74.4181 137.954 74.6005L90.5661 101.962C89.9312 102.327 89.4247 103.212 89.4247 103.941L89.5327 141.306C89.5327 141.671 89.6611 141.92 89.8637 142.042L87.7595 140.817C87.5501 140.695 87.4217 140.445 87.4217 140.087L87.3205 102.716C87.3137 101.986 87.827 101.101 88.4552 100.737L135.843 73.3818C136.167 73.1927 136.451 73.1792 136.66 73.3007L138.771 74.5262Z" fill="#748BFD"/>
<path d="M137.952 74.6036C138.586 74.2376 139.101 74.531 139.103 75.2594L139.209 112.627C139.211 113.35 138.7 114.236 138.066 114.602L90.6771 141.962C90.0475 142.326 89.5326 142.032 89.5306 141.309L89.4246 103.941C89.4226 103.213 89.9341 102.327 90.5637 101.963L137.952 74.6036Z" fill="#4562EF"/>
<path d="M92.5059 104.125C92.5169 104.092 92.602 103.944 92.6608 103.894L135.975 78.8903L136.07 112.409C136.059 112.439 135.972 112.586 135.913 112.635L92.6007 137.639L92.5059 104.125Z" fill="white"/>
<path d="M129.866 88.7791L129.921 112.253L132.851 110.561L132.797 87.0872L129.866 88.7791Z" fill="#5B5E71"/>
<path d="M123.062 98.3428L123.101 116.19L126.031 114.498L125.993 96.6509L123.062 98.3428Z" fill="#3E60DD"/>
<path d="M116.227 96.654L116.281 120.128L119.211 118.436L119.157 94.962L116.227 96.654Z" fill="#75CA75"/>
<path d="M109.438 111.837L109.461 124.065L112.391 122.373L112.369 110.145L109.438 111.837Z" fill="#F9607F"/>
<path d="M102.587 104.529L102.641 128.003L105.572 126.311L105.517 102.837L102.587 104.529Z" fill="#EFAC41"/>
<path d="M95.7828 114.093L95.8212 131.94L98.7517 130.248L98.7134 112.401L95.7828 114.093Z" fill="#AFB5BF"/>
<path d="M1.22979 74.5262C1.43918 74.4046 1.72961 74.4181 2.04707 74.6005L49.4351 101.962C50.07 102.327 50.5766 103.212 50.5766 103.941L50.4686 141.306C50.4686 141.671 50.3402 141.92 50.1376 142.042L52.2418 140.817C52.4512 140.695 52.5795 140.445 52.5795 140.087L52.6808 102.716C52.6876 101.986 52.1743 101.101 51.5461 100.737L4.15808 73.3818C3.83388 73.1927 3.55016 73.1792 3.34079 73.3007L1.22979 74.5262Z" fill="#5B5E71"/>
<path d="M2.04861 74.6036C1.41468 74.2376 0.899841 74.531 0.89777 75.2594L0.79184 112.627C0.789787 113.35 1.30129 114.236 1.93521 114.602L49.324 141.962C49.9536 142.326 50.4684 142.032 50.4705 141.309L50.5764 103.941C50.5785 103.213 50.067 102.327 49.4374 101.963L2.04861 74.6036Z" fill="#474B59"/>
<path d="M47.4954 104.125C47.4844 104.092 47.3992 103.944 47.3405 103.894L4.02654 78.8903L3.93166 112.409C3.94266 112.439 4.02904 112.586 4.0878 112.635L47.4005 137.639L47.4954 104.125Z" fill="white"/>
<path d="M16.8965 90.8528C11.3807 87.6682 6.89208 90.2262 6.87411 96.5642L16.8639 102.332L16.8965 90.8528Z" fill="#F9BB4A"/>
<path d="M18.621 93.8503L18.5885 105.319L8.59866 99.5511C8.5807 105.889 13.0402 113.613 18.556 116.798C24.0718 119.982 28.5603 117.424 28.5783 111.086C28.5963 104.748 24.1368 97.0349 18.621 93.8503Z" fill="#6EBA6E"/>
<path d="M33.0265 124.491C33.0265 124.816 33.2526 125.212 33.5353 125.382L43.91 131.375C44.1926 131.53 44.4188 131.403 44.4188 131.064L44.4895 106.71C44.4895 106.385 44.2634 105.989 43.9807 105.834L33.6201 99.8409C33.3232 99.6713 33.0971 99.7985 33.0971 100.138L33.0265 124.491Z" fill="#748BFD"/>
<path d="M34.6577 119.242L34.6562 119.766L42.8322 124.487L42.8337 123.963L34.6577 119.242Z" fill="white"/>
<path d="M34.6697 115.063L34.6682 115.598L42.8442 120.318L42.8457 119.784L34.6697 115.063Z" fill="white"/>
<path d="M34.6873 108.8L34.6857 109.335L42.8618 114.055L42.8633 113.521L34.6873 108.8Z" fill="white"/>
<path d="M34.6992 104.632L34.6977 105.155L42.8738 109.876L42.8752 109.352L34.6992 104.632Z" fill="white"/>
<path d="M34.7051 102.537L34.7036 103.071L42.8796 107.792L42.8811 107.257L34.7051 102.537Z" fill="white"/>
<path d="M34.646 123.411L34.6445 123.945L42.8205 128.666L42.822 128.131L34.646 123.411Z" fill="white"/>
<path d="M34.6519 121.327L34.6503 121.861L42.8264 126.581L42.8279 126.047L34.6519 121.327Z" fill="white"/>
<path d="M34.6636 117.148L34.6621 117.682L42.8381 122.402L42.8396 121.868L34.6636 117.148Z" fill="white"/>
<path d="M34.6755 112.979L34.674 113.514L42.85 118.234L42.8516 117.7L34.6755 112.979Z" fill="white"/>
<path d="M34.6814 110.884L34.6799 111.419L42.8559 116.139L42.8574 115.605L34.6814 110.884Z" fill="white"/>
<path d="M34.6931 106.716L34.6916 107.25L42.8676 111.971L42.8691 111.436L34.6931 106.716Z" fill="white"/>
</svg>
