<svg width="142" height="128" viewBox="0 0 142 128" fill="none" xmlns="http://www.w3.org/2000/svg">
<path d="M117.441 114.143L104.131 121.885C100.501 119.759 98.6859 116.967 98.6749 114.187L98.6528 111.573C98.6528 111.75 98.6749 111.927 98.6969 112.105C98.4438 109.114 100.259 106.068 104.186 103.786L117.419 111.54L117.441 114.143Z" fill="#E29C40"/>
<path d="M67.2699 110.232L67.3029 112.381C67.3029 112.758 67.0719 113.112 66.5989 113.4L43.0699 127.091C42.1349 127.612 40.6059 127.623 39.6709 127.091L1.30289 104.628C0.829899 104.351 0.598877 103.996 0.598877 103.642V101.293C0.598877 100.928 0.829899 100.562 1.30289 100.285L24.6669 86.705C25.6019 86.1623 27.1199 86.1623 28.0549 86.705L66.5659 109.247C67.0389 109.523 67.2699 109.878 67.2699 110.232Z" fill="#E29C40"/>
<path d="M141.388 78.4084L60.5819 31.121L47.9319 38.4761C44.3349 38.1771 39.9019 38.7862 35.4249 40.1598C30.6949 38.166 24.1389 38.3986 19.8489 40.8909C17.4399 42.2866 16.2519 44.1031 16.2629 45.9309V48.0244C16.2739 49.1099 16.6919 50.1843 17.5389 51.1703C16.1529 53.0201 15.4489 54.8145 15.5149 56.3875C15.5039 56.3321 15.5039 56.2655 15.5039 56.1991V57.329L0.598877 65.9911L0.609888 68.2287L81.4159 115.516L141.399 80.6459L141.388 78.4084ZM30.3539 47.0386C28.9459 47.8583 26.9439 48.1463 25.1179 47.8694C24.0839 47.7364 23.1269 47.4483 22.3569 46.9943L22.0489 46.7838C21.5979 46.4848 21.2679 46.1303 21.0479 45.7646C21.3119 45.2995 21.7299 44.8675 22.3679 44.502C24.4799 43.2723 27.8019 43.2392 29.9689 44.3136L30.3099 44.502C30.9479 44.8786 31.4099 45.3217 31.6739 45.809C31.3989 46.2521 30.9699 46.6841 30.3539 47.0386Z" fill="#E29C40"/>
<path d="M140.981 111.517L141.003 114.098C141.003 114.22 141.003 114.342 140.992 114.464L140.409 114.419L140.431 116.768C139.628 118.662 137.967 120.423 135.47 121.874C128.111 126.15 116.231 126.15 108.916 121.874L108.894 119.26L120.07 112.769L119.883 112.758L109.004 106.389L108.982 103.775C116.33 99.4989 128.21 99.4989 135.525 103.786C139.155 105.912 140.97 108.693 140.981 111.484V111.517Z" fill="#E29C40"/>
<path d="M91.5041 40.4406L91.49 44.2985L98.5562 48.4068L101.876 46.4637L101.856 50.3252L108.922 54.4334L112.217 56.0938L112.215 56.3478L119.281 60.4559L122.638 58.4915L122.581 62.3746L129.647 66.4828L136.668 62.3745L136.761 56.0224L129.695 51.9143L126.324 53.887L126.395 46.0816L119.329 41.9735L115.994 43.925L116.036 32.4133L108.97 28.3051L105.628 30.2609L105.67 18.7407L98.6038 14.6324L95.2714 16.5825L95.3038 5.06819L88.2448 0.964233L81.2246 5.07238L81.1311 38.276L88.1901 42.3799L91.5041 40.4406Z" fill="#E29C40"/>
<path d="M0.601074 65.9942L81.41 113.284L141.391 78.4111L60.5825 31.1217L0.601074 65.9942Z" fill="#F9BB4A"/>
<path d="M20.7119 44.6869L20.7489 46.8051C20.7489 45.9506 21.2655 45.1332 22.3724 44.501C24.4756 43.2754 27.7965 43.2382 29.9734 44.3159L30.3055 44.501C31.0802 44.9473 31.5969 45.5043 31.8183 46.0993C31.9291 46.3588 32.0027 46.6191 32.0027 46.8795V44.7613C32.0027 44.501 31.9291 44.2415 31.8183 43.9812C31.5599 43.387 31.0802 42.8291 30.3055 42.3837L29.9734 42.1978C27.7965 41.1201 24.4756 41.1573 22.3724 42.3837C21.2655 43.0151 20.7119 43.8324 20.7119 44.6869Z" fill="#416E84"/>
<path d="M16.261 45.9095L16.267 48.0297C16.271 49.4593 17.0202 50.8893 18.5138 52.1146L18.5079 49.9944C17.0142 48.7691 16.265 47.3392 16.261 45.9095Z" fill="#37617B"/>
<path d="M18.0974 60.335L18.1034 62.4552L53.205 42.0475L53.199 39.9274L18.0974 60.335Z" fill="#F9BB4A"/>
<path d="M15.499 56.2025L15.505 58.3227C15.5097 59.9898 16.3484 61.4282 18.1034 62.4552L18.0975 60.3351C16.3424 59.308 15.5037 57.8697 15.499 56.2025Z" fill="#37617B"/>
<path d="M19.85 40.8861C24.1376 38.3934 30.6901 38.1605 35.4226 40.1604C42.5026 37.9826 49.4544 37.736 53.1991 39.9274L18.0975 60.335C14.3763 58.1574 14.7745 54.1307 18.5079 49.9944C15.1182 47.2138 15.5624 43.3788 19.85 40.8861ZM25.1178 47.8713C26.9476 48.1452 28.9454 47.8576 30.3588 47.0359C31.7724 46.2141 32.2953 45.0361 31.8084 43.9815C31.577 43.3791 31.087 42.8174 30.3144 42.3652L29.9631 42.1872C27.7856 41.1053 24.4743 41.1462 22.3775 42.3652C20.2809 43.5842 20.1999 45.5155 22.0476 46.7892L22.3517 46.9947C23.1243 47.4468 24.0855 47.7345 25.1178 47.8713Z" fill="#4C7891"/>
<path d="M8.48779 65.9927L81.4379 108.685L133.51 78.4122L60.5544 35.7201L8.48779 65.9927Z" fill="white"/>
<path d="M0.601074 65.9941L0.610732 68.2265L81.4196 115.516L81.41 113.284L0.601074 65.9941Z" fill="#E29C40"/>
<path d="M81.4102 113.284L81.4198 115.516L141.401 80.6435L141.392 78.4111L81.4102 113.284Z" fill="#EFAC41"/>
<path d="M42.3669 49.1692L60.9884 60.0665L77.6675 50.3694L59.0461 39.4722L42.3669 49.1692Z" fill="#F9607F"/>
<path d="M18.21 68.2289L19.639 69.0651L45.93 53.7799L44.501 52.9436L18.21 68.2289Z" fill="#CAD0DD"/>
<path d="M56.782 71.1533L58.267 72.0224L86.5599 55.5733L85.0748 54.7042L56.782 71.1533Z" fill="#CAD0DD"/>
<path d="M60.356 73.2449L61.8439 74.1157L90.1368 57.6665L88.6488 56.7958L60.356 73.2449Z" fill="#CAD0DD"/>
<path d="M97.4141 66.8829L112.838 75.909L117.088 73.4382L101.664 64.4121L97.4141 66.8829Z" fill="#9AD898"/>
<path d="M82.4705 70.0603L102.618 81.8507L106.868 79.3799L86.7203 67.5895L82.4705 70.0603Z" fill="#748BFD"/>
<path d="M42.2491 82.6944C45.8681 84.8087 51.7722 84.8087 55.4144 82.6944C59.0683 80.5686 59.0799 77.1346 55.4609 75.0087C51.8302 72.8944 45.9377 72.8944 42.2954 75.0087C38.6416 77.1346 38.6184 80.5686 42.2491 82.6944Z" fill="#748BFD"/>
<path d="M81.6953 81.5324L92.3955 87.7941L96.6484 85.3216L85.9481 79.0598L81.6953 81.5324Z" fill="#F9607F"/>
<path d="M62.0278 81.9454L82.1755 93.7359L86.4254 91.2651L66.2777 79.4746L62.0278 81.9454Z" fill="#BAC1CE"/>
<path d="M56.5288 90.6532L71.9528 99.6793L76.2056 97.2068L60.7816 88.1807L56.5288 90.6532Z" fill="#4C7891"/>
<path d="M75.0906 101.516L76.5786 102.386L121.714 76.1453L120.226 75.2745L75.0906 101.516Z" fill="#CAD0DD"/>
<path d="M13.9109 65.7131L15.3399 66.5494L41.6309 51.2641L40.2019 50.4279L13.9109 65.7131Z" fill="#CAD0DD"/>
<path d="M53.2051 69.0601L54.693 69.9308L82.9859 53.4817L81.4979 52.611L53.2051 69.0601Z" fill="#CAD0DD"/>
<path d="M22.5056 70.7428L23.9346 71.5791L50.2256 56.2938L48.7966 55.4575L22.5056 70.7428Z" fill="#CAD0DD"/>
<path d="M26.8044 73.2584L28.2335 74.0947L54.5245 58.8094L53.0955 57.9731L26.8044 73.2584Z" fill="#CAD0DD"/>
<path d="M63.9329 75.338L65.4179 76.2071L93.7107 59.7579L92.2257 58.8889L63.9329 75.338Z" fill="#CAD0DD"/>
<path d="M31.1003 75.7724L32.5323 76.6104L58.8233 61.3252L57.3913 60.4872L31.1003 75.7724Z" fill="#CAD0DD"/>
<path d="M79.7195 104.224L81.2045 105.093L126.34 78.8524L124.855 77.9834L79.7195 104.224Z" fill="#CAD0DD"/>
<path d="M0.603271 101.279V103.643C0.603271 103.997 0.830047 104.351 1.30642 104.625L39.6741 127.09C40.6041 127.626 42.1352 127.615 43.0652 127.09L66.5984 113.396C67.0748 113.111 67.3017 112.757 67.3017 112.38L67.2676 110.233C67.2676 110.587 0.603271 101.633 0.603271 101.279Z" fill="#37617B"/>
<path d="M1.30703 100.289C0.374439 100.831 0.360843 101.72 1.29596 102.267L39.807 124.804C40.7421 125.351 42.2656 125.346 43.1982 124.804L66.5561 111.224C67.4973 110.677 67.5023 109.793 66.5672 109.246L28.0561 86.709C27.121 86.1618 25.6062 86.1618 24.665 86.709L1.30703 100.289Z" fill="#4C7891"/>
<path d="M51.6348 116.038C51.0908 116.354 51.0878 116.876 51.6283 117.192C52.1774 117.514 53.0553 117.504 53.5994 117.187C54.1434 116.871 54.1548 116.364 53.6057 116.043C53.0653 115.726 52.1788 115.721 51.6348 116.038Z" fill="#37617B"/>
<path d="M14.1789 94.1184C13.8076 94.3343 13.8057 94.6757 14.1746 94.8915C14.5435 95.1074 15.1288 95.1074 15.5001 94.8915C15.8627 94.6807 15.8733 94.3343 15.5044 94.1184C15.1355 93.9025 14.5416 93.9076 14.1789 94.1184Z" fill="#37617B"/>
<path d="M42.384 121.876C42.0473 122.072 42.0541 122.378 42.3801 122.569C42.7061 122.76 43.2312 122.765 43.5679 122.569L45.5972 121.389C45.9253 121.198 45.9271 120.887 45.6011 120.696C45.2751 120.506 44.7414 120.506 44.4133 120.696L42.384 121.876Z" fill="#37617B"/>
<path d="M59.3867 111.991C59.0585 112.182 59.0568 112.493 59.3828 112.684C59.7088 112.875 60.2424 112.875 60.5706 112.684L62.6084 111.499C62.9366 111.308 62.9383 110.997 62.6123 110.806C62.2863 110.616 61.7527 110.616 61.4245 110.806L59.3867 111.991Z" fill="#37617B"/>
<path d="M61.8736 108.635L38.9576 121.961L5.00757 102.086L27.9235 88.7601L61.8736 108.635Z" fill="white"/>
<path d="M5.61816 105.786C5.6891 105.743 5.78839 105.751 5.89473 105.808L8.74532 107.471C8.95804 107.593 9.12113 107.886 9.12113 108.128C9.12113 108.25 9.07858 108.335 9.01479 108.378L9.16367 108.285C9.22751 108.25 9.27005 108.164 9.27005 108.043C9.27005 107.8 9.10698 107.5 8.90131 107.379L6.04365 105.722C5.93727 105.658 5.83803 105.658 5.76709 105.693L5.61816 105.786Z" fill="#BAC1CE"/>
<path d="M5.89559 105.81C5.68281 105.687 5.51021 105.786 5.50952 106.027C5.50883 106.273 5.68032 106.567 5.89312 106.69L8.74536 108.349C8.95362 108.47 9.12167 108.373 9.12236 108.127C9.12304 107.886 8.9561 107.59 8.74783 107.469L5.89559 105.81Z" fill="#D4DAE8"/>
<path d="M9.85742 108.356C9.92836 108.313 10.0276 108.32 10.134 108.377L12.9846 110.041C13.1973 110.163 13.3604 110.455 13.3604 110.698C13.3604 110.82 13.3178 110.905 13.254 110.948L13.4029 110.855C13.4668 110.82 13.5093 110.734 13.5093 110.613C13.5093 110.37 13.3462 110.07 13.1406 109.948L10.2829 108.292C10.1765 108.228 10.0773 108.228 10.0064 108.263L9.85742 108.356Z" fill="#BAC1CE"/>
<path d="M10.1348 108.38C9.92206 108.256 9.74946 108.356 9.74878 108.597C9.74809 108.843 9.91958 109.137 10.1324 109.26L12.9846 110.919C13.1929 111.04 13.3609 110.943 13.3616 110.697C13.3623 110.456 13.1954 110.16 12.9871 110.038L10.1348 108.38Z" fill="#D4DAE8"/>
<path d="M37.0315 116.359L38.4589 117.195L55.1033 107.518L53.6759 106.683L37.0315 116.359Z" fill="#D4DAE8"/>
<path d="M33.4836 114.283L34.9194 115.124L51.5638 105.447L50.1281 104.606L33.4836 114.283Z" fill="#D4DAE8"/>
<path d="M16.7451 102.402C17.1827 103.53 18.1398 104.6 19.6424 105.479C23.5657 107.775 29.804 107.946 34.0776 105.987L31.2563 104.336C28.5536 105.411 24.8361 105.245 22.4486 103.848C21.6389 103.374 21.0726 102.817 20.7577 102.221L16.7451 102.402Z" fill="#9AD898"/>
<path d="M29.936 112.207L31.3718 113.047L48.0162 103.371L46.5805 102.53L29.936 112.207Z" fill="#D4DAE8"/>
<path d="M32.321 98.1082C34.7084 99.5053 34.9812 101.674 33.1216 103.252L35.9428 104.903C39.3235 102.412 39.0423 98.7773 35.119 96.4814C34.3009 96.0027 33.3904 95.6168 32.4205 95.3237L31.1516 97.561C31.578 97.7125 31.9537 97.8932 32.321 98.1082Z" fill="#F9607F"/>
<path d="M16.4773 100.873L20.4562 100.692C20.5621 99.7443 21.254 98.826 22.4806 98.1128C24.1694 97.131 26.5082 96.7549 28.6926 96.9844L29.936 94.791C26.3795 94.3075 22.4822 94.8693 19.701 96.4862C17.6089 97.7025 16.5366 99.2803 16.4773 100.873Z" fill="#748BFD"/>
<path d="M95.3039 5.06824L95.2104 38.2717L88.1902 42.38L88.2837 9.17649L95.3039 5.06824Z" fill="#CAD0DD"/>
<path d="M88.2836 9.17652L88.1901 42.38L81.1311 38.276L81.2246 5.07251L88.2836 9.17652Z" fill="#D4DAE8"/>
<path d="M95.3038 5.06823L88.2836 9.17649L81.2246 5.07248L88.2448 0.964233L95.3038 5.06823Z" fill="#E4E8F4"/>
<path d="M105.67 18.7407L105.576 44.2984L98.5562 48.4067L98.6496 22.849L105.67 18.7407Z" fill="#4562EF"/>
<path d="M98.6496 22.849L98.5562 48.4067L91.49 44.2986L91.5835 18.7408L98.6496 22.849Z" fill="#576CFB"/>
<path d="M105.67 18.7408L98.6497 22.849L91.5835 18.7408L98.6038 14.6326L105.67 18.7408Z" fill="#748BFD"/>
<path d="M116.036 32.4133L115.943 57.971L108.922 54.4335L109.016 36.5216L116.036 32.4133Z" fill="#6EBA6E"/>
<path d="M109.016 36.5216L108.922 54.4335L101.856 50.3253L101.95 32.4135L109.016 36.5216Z" fill="#75CA75"/>
<path d="M116.036 32.4134L109.016 36.5216L101.95 32.4134L108.97 28.3052L116.036 32.4134Z" fill="#9AD898"/>
<path d="M126.395 46.0818L126.301 56.3479L119.281 60.4561L119.375 50.19L126.395 46.0818Z" fill="#EFAC41"/>
<path d="M119.375 50.19L119.281 60.4561L112.215 56.3479L112.309 46.0818L119.375 50.19Z" fill="#F9BB4A"/>
<path d="M126.395 46.0817L119.375 50.19L112.309 46.0818L119.329 41.9735L126.395 46.0817Z" fill="#FED57A"/>
<path d="M136.761 56.0225L136.668 62.3745L129.647 66.4827L129.741 60.1307L136.761 56.0225Z" fill="#37617B"/>
<path d="M129.741 60.1308L129.647 66.4828L122.581 62.3746L122.675 56.0226L129.741 60.1308Z" fill="#416E84"/>
<path d="M136.761 56.0225L129.741 60.1308L122.675 56.0226L129.695 51.9143L136.761 56.0225Z" fill="#4C7891"/>
<path d="M108.979 103.774L109.002 106.384L119.885 112.753L119.862 110.143L108.979 103.774Z" fill="#CAD0DD"/>
<path d="M119.862 110.143L119.885 112.752L140.992 114.467L140.968 111.858L119.862 110.143Z" fill="#BAC1CE"/>
<path d="M141.001 114.097L140.978 111.487C140.978 111.611 140.975 111.734 140.968 111.858L140.992 114.467C140.998 114.344 141.002 114.22 141.001 114.097Z" fill="#6EBA6E"/>
<path d="M108.979 103.774L119.862 110.143L140.968 111.858C141.126 108.948 139.325 106.008 135.522 103.782C128.21 99.5034 116.325 99.5033 108.979 103.774Z" fill="#E4E8F4"/>
<path d="M104.11 119.271L104.133 121.881L117.441 114.143L117.418 111.534L104.11 119.271Z" fill="#F34858"/>
<path d="M98.6499 111.578L98.6733 114.187C98.6811 116.972 100.499 119.754 104.133 121.881L104.11 119.271C100.476 117.145 98.6577 114.363 98.6499 111.578Z" fill="#FA5168"/>
<path d="M104.183 103.789C96.8372 108.06 96.7984 114.993 104.11 119.271L117.418 111.534L104.183 103.789Z" fill="#F9607F"/>
<path d="M108.892 119.264C116.203 123.542 128.089 123.542 135.448 119.264C137.944 117.813 139.604 116.053 140.401 114.181L120.416 112.564L108.892 119.264Z" fill="#75CA75"/>
<path d="M108.892 119.264L108.916 121.873C116.227 126.152 128.113 126.152 135.471 121.873C137.968 120.422 139.628 118.663 140.427 116.767L140.404 114.158C139.604 116.053 137.944 117.813 135.448 119.264C128.089 123.542 116.203 123.542 108.892 119.264Z" fill="#68AF68"/>
</svg>
