<?xml version="1.0" encoding="utf-8"?>
<!-- Generator: Adobe Illustrator 27.7.0, SVG Export Plug-In . SVG Version: 6.00 Build 0)  -->
<svg version="1.1" id="Layer_1" xmlns="http://www.w3.org/2000/svg" xmlns:xlink="http://www.w3.org/1999/xlink" x="0px" y="0px"
	 viewBox="0 0 612 318.01" style="enable-background:new 0 0 612 318.01;" xml:space="preserve">
<style type="text/css">
	.st0{opacity:0;fill:#5CBA47;}
	.st1{fill:#FFFFFF;}
	.st2{fill:#EA0029;}
</style>
<g>
	<rect x="185.64" y="41.73" class="st0" width="498.49" height="229.35"/>
	<g>
		<path class="st1" d="M204.58,156.15c0.26-27.81-5.85-43.38-11.15-51.02c1.81-2.38,2.92-3.85,3-3.92c0.53-0.53,1.45-1.37,3.34-1.64
			c0.52-3.67,1.89-8.03,1.89-8.03s-3.67,2.64-7.09,4.12c0.26,1.85-0.22,2.97-0.68,3.65c-0.07,0.1-0.92,1.23-2.33,3.1
			c-2.29-2.7-5.04-5.18-8.98-7.46c-0.95-0.54-1.96-1.06-3.05-1.55c0.07-1.5-0.45-2.9-1.43-3.9c-0.04-0.86-0.77-1.95-1.64-2.27l0,0
			c-0.91-0.24-2.27,0.18-2.94,0.81c-1.48,0.21-2.91,0.98-3.96,2.16c-3.24-0.69-6.93-1.2-11.15-1.46c-0.5-2.05-1.83-3.55-3.48-4.36
			c-0.42-0.89-1.66-1.79-2.72-1.85l0,0h0c0,0,0,0,0,0s0,0,0,0c-1.06,0.06-2.3,0.96-2.72,1.85c-1.64,0.81-2.97,2.31-3.47,4.36
			c-4.23,0.26-7.92,0.77-11.16,1.46c-1.05-1.17-2.47-1.95-3.96-2.16c-0.67-0.63-2.02-1.06-2.93-0.81l-0.01,0
			c-0.87,0.33-1.6,1.41-1.64,2.27c-0.99,1-1.5,2.41-1.43,3.9c-1.09,0.5-2.11,1.01-3.06,1.55c-3.95,2.28-6.45,4.42-8.81,7.36
			c-1.27-1.69-2.04-2.72-2.11-2.81c-0.47-0.67-0.94-1.8-0.68-3.64c-3.42-1.48-7.09-4.12-7.09-4.12s1.37,4.35,1.89,8.02
			c1.89,0.26,2.81,1.1,3.34,1.64c0.07,0.07,1.05,1.35,2.65,3.47c-5.32,7.59-11.52,23.29-11.26,51.28
			c0.03,2.59-1.08,26.83,6.82,43.18c0.89,1.65,3.26,6.05,7.58,10.11c3.58,3.38,7.81,5.75,12.6,7.02c0.14,0.04,0.44,0.11,0.58,0.15
			c5.94,1.62,11.05,0.69,13.11-0.5l-0.3,0.74c-0.08,0.19-0.2,0.5-0.26,0.66c-1.11,3.01-0.36,6.12,3.7,6.59
			c1.07,0.12,2.27,0.17,3.68,0.82c0.98,0.46,2.08,1.21,3.29,2.46c0.51,0.53,1.56,1.88,2.08,2.93l0,0l0,0v0
			c0.52-1.05,1.57-2.4,2.07-2.93c1.21-1.25,2.31-2,3.29-2.46c1.4-0.66,2.6-0.7,3.67-0.82c4.06-0.47,4.82-3.57,3.7-6.58
			c-0.06-0.17-0.19-0.48-0.27-0.68c-0.08-0.18-0.3-0.73-0.3-0.73c2.82,1.64,11.48,2.9,19.79-2.37c5.69-3.61,9.85-7.7,13.19-14.27
			C205.67,183.1,204.61,158.37,204.58,156.15z M167.88,133.73c-0.11,0.16-0.2,0.31-0.58,0.54c-0.41,0.25-0.88,0.34-1.36,0.32
			c-0.64-0.03-0.99-0.22-1.31-0.67c-0.94-1.32-1.54-2.63-2.52-4.97c-0.86-2.05-0.71-1.72-1.98-4.82c-0.61-1.48-1.68-3.81-2.31-4.63
			c-0.95-1.26-2.68-2.52-3.27-2.77c-0.76-0.31-1.82-0.57-2.95-0.63c-2.01-0.11-4.02,0.17-4.87,0.39c-0.67,0.18-1.85,0.58-2.44,1.29
			c-0.08,0.11-0.36,0.46-0.74,0.63c-0.87,0.41-1.08,0.38-2.21,1.21c-1.83,1.34-1.55,3.43-0.59,4.24c0.01,0.01,0.03,0.02,0.05,0.02
			c-0.03-0.53,0.03-1.01,0.11-0.98c0.1,0.03,1,0.63,2.39,0.44c1.01-0.14,1.65,1.4,1.65,1.4l0.17-0.45c0,0,0.32,0.97,0.6,1.19
			c0.05-0.06,0.14-0.17,0.15-0.23c0.31,0.38,0.8,0.63,0.84,1.26c-0.02,0.56-0.25,1.09-0.98,1.76c-0.27,0.25-1.88,1.57-3.59,3.32
			c-0.89,0.9-1.33,1.46-2.23,2.44c-0.46,0.5-0.89,0.81-1.34,0.83c-0.07,0-0.14,0-0.2,0c-0.53,0-0.95-0.29-1.12-0.5
			c-0.18-0.23-8.87-11.71-13.03-17.22c7.54-7.36,20.05-8.57,23.17-8.35c0.73,0.06,1.56,0.64,0.64,1.83
			c0.67,0.31,3.21,0.08,4.16-0.81c0.95,0.89,3.48,1.12,4.16,0.81c-0.92-1.2-0.09-1.78,0.64-1.83c3.09-0.22,14.98,0.34,23.28,8.53
			C176.22,122.7,170.8,129.5,167.88,133.73z"/>
		<g>
			<path class="st2" d="M202.9,148.54c-2.33,1.88-4.53,3.78-11.77,7.94l-1.89,1.02l0.01-1.36c0-0.15,0.52-18.52-8.41-34.36
				c-0.56,0.75-2.44,3.14-4.37,5.6c1.14-0.13,2.3,0.17,3.34,1.2c1.85,1.81,4.86,6.18,6.61,10.69c0.95,2.83,1.7,6.7,1.5,10.01l0,0
				c0,0-1.08,18.71-3.22,36.63c-1.94,16.28-3.01,18.42-3.01,18.42c-1.24-1.5-1.76-3.41-2.05-4.5l-0.18,0.16c0,0-1.14-1.63-1.82-4.83
				c-0.78-3.65-0.91-10.18-0.83-13.33l0,0.02c0,0,0.05-0.92-0.72-2.5c-0.36-0.75-0.64-1.48-0.83-2.28c0-0.01-0.01-0.03-0.01-0.03
				c-1.17-5.01-3.46-6.41-4.72-7.97c-1.52-1.87-2.63-3.82-3.31-5.43c-0.04,0.03-0.07,0.06-0.12,0.1c-0.84,0.8-1.46,1.61-1.48,2.06
				c0.28,2.92,0.55,5.01,0.12,6.49c-0.18-0.09-0.46-0.38-0.62-0.5c0.2,1.93-0.72,4.17-0.14,5.95l-1.14-0.15
				c0.05,0.13,0.09,0.23,0.12,0.28c0.16,0.22,0.31,0.35,0.58,0.5c0.05,0.03,0.28,0.14,0.37,0.18c0.1,0.04,0.39,0.15,1.18,0.41
				c0.66-1.46,0.15-2.86-0.5-3.64c-0.55-0.66,0.11-1.63,1.24-1.13c1.46,0.64,3.04,1.56,4.71,3.14c2.39,2.27,3.09,4.46,2.58,4.89
				c-0.39,0.34-0.69,0.26-1.16,0.1c0,0.08-0.01,0.17-0.04,0.25c-0.13,0.43-0.49,0.74-1.03,0.89l-0.05,0.09
				c-0.25,0.36-0.67,0.49-1.39,0.47c-0.62-0.01-1.3-0.37-1.4-0.42c-0.13-0.06-0.28-0.16-0.47-0.34c-0.14,0.11-0.28,0.22-0.42,0.34
				c1.89,2.55,5.51,6.75,8.1,11.36c1.85,3.3,2.71,6.05,2.71,6.05s-0.99,0.32-2.28,0.03c0.46,1.32,0.7,2.48,0.61,3.37
				c-1,0.03-2.31-0.09-3.67-0.86c0.04,0.21,0.08,0.43,0.11,0.64c1.16,0.84,2.46,1.79,3.03,2.19c-5.67,2.66-13.89,1.44-14.05,1.42
				c-0.39-0.05-0.75-0.11-1.06-0.15c-0.06,0.14-0.13,0.33-0.2,0.52c0.56,1.32,1.85,4.38,2.13,4.99c3.6,1.65,6.96,2.73,12.12,1.87
				c0,0,0.88-0.08,3.08-0.83c2.26-0.76,6.5-3.24,9.75-6.3c4.05-3.8,6.51-7.8,7.31-9.37c6.28-12.26,7.31-30.46,7.31-37.81
				c0-2.41,0-3.71,0-3.82C203.13,154.44,202.99,150.4,202.9,148.54z"/>
			<path class="st2" d="M141.7,213c0.25-0.67,1.38-3.39,1.96-4.77c-0.08-0.24-0.16-0.48-0.22-0.71c-0.78,0.13-1.57,0.25-2.36,0.33
				c-0.53,0.05-8.35,1.26-14.02-1.41c0.69-0.48,1.99-1.55,3.74-2.68c0.02-0.12,0.04-0.23,0.06-0.35c-1.36,0.76-2.67,0.89-3.67,0.85
				c-0.08-0.9,0.15-2.05,0.61-3.37c-1.29,0.29-2.28-0.03-2.28-0.03s0.86-2.75,2.71-6.05c1.73-3.08,4.14-6.19,6.21-8.77
				c0.21-1.02,1.01-1.87,1.09-1.96c0.05-0.06,0.3-0.32,0.34-0.37c-0.24-0.2-0.46-0.39-0.67-0.55c-0.23,0.25-0.41,0.36-0.56,0.43
				c-0.65,0.3-1.05,0.4-1.4,0.42c-0.73,0.03-1.14-0.11-1.39-0.47l-0.05-0.09c-0.53-0.14-0.9-0.45-1.03-0.88
				c-0.03-0.09-0.04-0.18-0.04-0.27c-0.4,0.13-0.68,0.16-1.04-0.14c-0.5-0.43,0.2-2.62,2.58-4.89c1.67-1.59,3.25-2.51,4.71-3.15
				c1.13-0.5,1.79,0.47,1.24,1.13c-0.66,0.79-1.16,2.19-0.5,3.66c0.69-0.23,0.95-0.34,1.06-0.38c0.27-0.11,0.59-0.2,0.94-0.66
				c0.03-0.04,0.07-0.13,0.11-0.25l-1,0.11c0.51-1.26-0.28-4.32,0.24-6.31c-0.13,0.09-0.48,0.33-0.68,0.39
				c-0.36-1.81-0.31-4.68-0.17-6.08c-0.03-0.36-0.53-1-1.23-1.71c-0.56,1.43-1.53,3.16-3.17,5.18c-1.26,1.56-3.55,2.97-4.72,7.97
				c0,0.01-0.01,0.02-0.01,0.03c-0.2,0.79-0.47,1.53-0.83,2.28c-0.77,1.58-0.72,2.51-0.72,2.51l0-0.02
				c0.08,3.16-0.06,9.69-0.83,13.33c-0.68,3.2-1.82,4.83-1.82,4.83l-0.18-0.16c-0.29,1.09-0.81,3-2.05,4.5c0,0-1.07-2.13-3.01-18.42
				c-2.14-17.92-3.22-36.63-3.22-36.63l0.01,0c-0.2-3.31,0.54-7.18,1.49-10.01c1.75-4.51,4.76-8.88,6.61-10.69
				c1.15-1.13,2.44-1.38,3.68-1.15c-0.35-0.47-0.73-0.98-0.73-0.98c-1.23-1.63-2.65-3.43-3.87-5.04
				c-8.75,15.42-8.54,33.82-8.54,33.97l0.01,1.96l-1.54-0.82c-6.89-3.91-9.88-6.27-12.12-8.13c-0.09,1.87-0.28,8.21-0.28,8.21
				c-0.01,0.11,0,1.44,0,3.85c0,7.35,1.32,25.41,7.32,37.81c0.84,1.54,3.08,5.69,7.13,9.49c3.07,2.89,6.66,4.95,10.63,6.22
				c0.23,0.07,0.69,0.23,0.92,0.3c4.59,1.46,9.58,1.15,14.48-1.3L141.7,213z"/>
			<path class="st2" d="M145.42,217.66c0.11-2.16,0.45-5.4,0.92-8.25c-0.72,0.7-1.31,1.03-1.36,1.03c-0.1-0.01-0.23-0.12-0.37-0.3
				c-1.37,3.35-3.29,8.06-3.31,8.1C142.22,217.48,143.64,216.92,145.42,217.66z"/>
			<path class="st2" d="M158.73,219.83c0.1-2.28-0.82-8.4-1.39-11.89c-0.06-0.09-0.13-0.19-0.19-0.28
				c-0.11-0.15-0.23-0.31-0.33-0.48c-0.2,0.7-0.45,1.44-0.78,2.17c-0.39,0.86-1.01,1.76-1.13,1.74c-0.1-0.01-1.74-1.17-2.8-3.45
				c-1.05,2.24-2.67,3.38-2.77,3.39c-0.12,0.01-0.73-0.89-1.12-1.75c-0.18-0.39-0.33-0.78-0.46-1.17
				c-0.54,3.66-1.34,9.54-1.24,11.71c-3.4-2.24-5.46,0-4.76,1.56c0.07,0.14,0.14,0.26,0.23,0.37c0.41,0.54,0.94,0.83,1.69,0.89
				c1.09,0.07,2.54,0.19,4.18,0.95c1.5,0.7,3.12,1.87,4.77,3.92c1.64-2.05,3.27-3.22,4.76-3.92c1.64-0.77,3.09-0.88,4.19-0.95
				c0.75-0.06,1.27-0.39,1.69-0.89c0.09-0.11,0.16-0.24,0.23-0.37C164.19,219.83,162.13,217.59,158.73,219.83z"/>
			<path class="st2" d="M159.94,210.44c-0.05,0-0.53-0.27-1.13-0.81c0.47,2.52,0.9,5.67,1.01,8.04c1.78-0.74,3.2-0.19,4.12,0.58
				c-0.02-0.05-2.07-5.33-3.33-8.54C160.3,210.12,160.01,210.45,159.94,210.44z"/>
		</g>
		<g>
			<path d="M147.04,142.52L147.04,142.52C147.03,142.52,147.04,142.52,147.04,142.52"/>
		</g>
		<g>
			<path d="M145.16,143.33L145.16,143.33C145.15,143.33,145.16,143.33,145.16,143.33"/>
		</g>
		<path d="M175.88,152.36c-0.24,1.21-0.67,1.73-1.76,2.49c-0.56-1.81-0.91-3.24,1.64-8.55c-1.75,5.21-0.99,6.94-0.99,6.94
			S175.47,152.95,175.88,152.36z M173.07,148.72c0,0-0.61-1.17,0.95-5.7c-2.86,4.31-1.61,7.31-1.61,7.31s1.5-0.75,1.89-2.37
			C173.87,148.51,173.07,148.72,173.07,148.72z M183.29,141.02c-0.47,4.57-0.84,5.5-1.32,6.3c-0.4-0.28-0.74-1.21-0.74-1.21
			c-0.14,0.83,0.05,2.1,0.76,2.77C182.95,147.68,183.62,145.14,183.29,141.02z M182.39,137.97c-0.73,5.11-1.54,6.27-2.1,7.14
			c-0.41-0.31-0.79-1.57-0.79-1.57c-0.2,0.92-0.04,2.35,0.72,3.13C181.34,145.38,182.56,142.62,182.39,137.97z M178.56,142.91
			c-0.48-1.4-0.37-2.76-0.37-2.76c-0.69,1.99-0.48,3.64,0.22,4.47c1.18-1.22,2.88-5.02,2.66-8.55
			C180.37,140.3,179.17,142.08,178.56,142.91z M176.72,140c-0.34-1.43-0.16-3.58-0.16-3.58c-0.88,1.93-0.77,4.55-0.14,5.44
			c1.29-1.11,3.08-4.4,3.2-7.94C178.51,138.06,177.42,139.23,176.72,140z M182.94,148.63c-0.07,1.06,0.85,1.72,0.85,1.72
			s1.49-2.13,0.91-5.82c-0.31,3.44-1.07,4.63-1.07,4.63S183.04,148.88,182.94,148.63z M184.68,150.21
			c-0.03,0.93,0.81,1.49,0.81,1.49s1.23-1.92,0.6-5.15c-0.15,3.04-0.87,4.17-0.87,4.17S184.77,150.43,184.68,150.21z M122.4,147.46
			c-0.48-0.79-0.86-1.73-1.32-6.3c-0.32,4.13,0.35,6.66,1.3,7.85c0.71-0.67,0.91-1.94,0.76-2.77
			C123.14,146.25,122.8,147.18,122.4,147.46z M124.08,145.26c-0.57-0.87-1.38-2.04-2.1-7.14c-0.17,4.65,1.05,7.41,2.17,8.71
			c0.76-0.78,0.92-2.21,0.72-3.13C124.87,143.69,124.49,144.94,124.08,145.26z M125.82,143.06c-0.62-0.83-1.82-2.61-2.52-6.84
			c-0.22,3.53,1.48,7.34,2.66,8.55c0.71-0.84,0.92-2.48,0.23-4.47C126.18,140.3,126.3,141.66,125.82,143.06z M127.65,140.15
			c-0.69-0.77-1.79-1.93-2.9-6.09c0.12,3.54,1.9,6.83,3.2,7.95c0.62-0.9,0.74-3.52-0.14-5.44
			C127.81,136.56,127.99,138.71,127.65,140.15z M120.74,149.31c0,0-0.76-1.19-1.07-4.63c-0.58,3.69,0.91,5.82,0.91,5.82
			s0.92-0.66,0.85-1.72C121.33,149.03,120.74,149.31,120.74,149.31z M119.16,150.86c0,0-0.73-1.13-0.87-4.17
			c-0.64,3.23,0.59,5.15,0.59,5.15s0.84-0.56,0.81-1.49C119.6,150.57,119.16,150.86,119.16,150.86z M129.6,153.39
			c0,0-0.7-0.29-1.11-0.88c0.24,1.21,0.67,1.73,1.76,2.49c0.56-1.81,0.91-3.24-1.64-8.55C130.36,151.66,129.6,153.39,129.6,153.39z
			 M131.3,148.87c0,0-0.8-0.21-1.23-0.76c0.39,1.63,1.88,2.37,1.88,2.37s1.25-3-1.61-7.31C131.91,147.7,131.3,148.87,131.3,148.87z
			 M144.11,170.86c0.29-2.35-0.99-4.38-1.2-5.35c-0.25,0.28-0.27,1.06-0.27,1.06c-0.84-0.9-1.05-2.47-1.23-3.02
			c-0.19,1.61-0.76,2.41-0.96,3.19c0.35-0.04,0.67-0.14,1.03-0.37C141.91,168.33,143.54,168.76,144.11,170.86z M161.2,166.72
			c0,0-0.01-0.78-0.27-1.06c-0.2,0.96-1.48,2.99-1.19,5.35c0.58-2.1,2.2-2.54,2.63-4.49c0.35,0.23,0.67,0.34,1.03,0.37
			c-0.2-0.78-0.77-1.57-0.96-3.18C162.25,164.24,162.04,165.83,161.2,166.72z M148.56,164.39c-0.25-0.79-0.67-3.46-1.69-4.61
			C146.46,161.72,147.72,163.57,148.56,164.39z M155.01,166.98c0.45-1.1,1.42-2.16,1.39-5.66
			C155.35,162.37,154.91,165.65,155.01,166.98z M152.95,168.33c0.54-1.41,0.5-3.17-0.09-3.92
			C152.39,165.92,152.37,167.25,152.95,168.33z M151.38,164.13c0.53-1.61,0.4-3.57-0.28-4.42
			C150.63,161.35,150.66,162.86,151.38,164.13z M162.61,149.78c-0.97,1.31-1.25,4.28-1.55,5.27
			C161.41,154.74,163.19,150.52,162.61,149.78z M162.69,145.01c-0.02-0.05,1.62-2.84,0.7-4.4
			C162.33,140.85,162.72,145.02,162.69,145.01z M158.03,151.86c0.01-0.03,2.52-2.43,2.44-5.46c-0.71,2.04-2.43,2.9-2.44,2.9
			c0,0-0.95-0.59-1.38-1.91C156.32,150.45,158.06,151.87,158.03,151.86z M163,148.39c0.68-1.07,1.61-2.61,0.84-3.61
			C163.48,145.77,163.3,146.93,163,148.39z M155.14,160.29c0.44-1.01,1.56-2.9,1.32-5.1C155.5,156.02,155.05,158.98,155.14,160.29z
			 M158.77,157.05c1.49-1.85,2.28-3.97,1.63-6.15C159.07,152.98,159.03,155.1,158.77,157.05z M155.52,150.59
			c-0.41,1.47-1.06,2.44-2.16,3.54c-0.46-0.43-0.92-0.93-1.55-2.19c-0.25,2.44,1.15,3.87,1.95,4.4
			C154.26,155.92,155.89,153.61,155.52,150.59z M148.99,156.79c-0.31-0.08-1.79-1.46-2.24-2.32c0.22,1.38,2.12,4.1,3.03,4.66
			c0.3-0.49,1.4-2.69,0.43-6.19C149.81,155.05,149.38,156.12,148.99,156.79z M140.17,140.13c-0.19-1.21,1.31-2.32,0.8-4.28
			C139.47,137.54,139.76,139.13,140.17,140.13z M143.2,154.49c0.85,1.42,1.5,2.07,2.17,2.75c-1.05-1.6-1.89-4.55-2.93-5.35
			C142.35,152.33,142.72,153.68,143.2,154.49z M142.47,147.9c-0.57,2.46,1.88,4.82,1.9,4.86
			C144.37,152.79,144.37,149.84,142.47,147.9z M144.21,143.28c-0.03,1.04-0.02,2.01-0.27,3.15c-0.7-0.17-1.03-0.64-1.54-1.08
			c0.42,1.4,2.14,3,2.41,3.41C145.07,146.86,145.14,144.56,144.21,143.28z M143.13,136.92c0.68-2.46,2.07-3.87,2.55-5.3
			C143.21,133.37,142.7,136.06,143.13,136.92z M141.01,147.72c-0.33-2.09-0.2-3.49-1.22-5.33
			C139.46,144.6,140.79,147.4,141.01,147.72z M147.17,139.58c-1.66,2.07,0.9,4.65,0.89,4.68
			C148.05,144.24,148.26,140.35,147.17,139.58z M148.4,133.94c-2.47,1.85-1.29,3.58-0.86,4.53
			C148.05,136.66,148.25,136.17,148.4,133.94z M149.84,150.55c0.42-0.92,1.62-2.68,1-5.61c-0.22,2.2-1.62,3.18-1.62,3.18
			c0,0-0.79-0.44-1.42-1.77C148,149.03,149,149.81,149.84,150.55z M162.39,134.24c-0.18,1.38,1.43,4.54,1.49,4.79
			C163.91,138.8,164.8,136.17,162.39,134.24z M159.06,128.73c-0.22,1.19,1.69,2.98,1.68,2.99
			C160.74,131.72,161,129.45,159.06,128.73z M161.85,137.78c-0.56,2.62-1.7,3.61-1.7,3.61c0,0-0.9-0.73-1.68-1.74
			c-0.05,2.12,1.76,4.17,1.74,4.15C160.19,143.78,162.42,142.01,161.85,137.78z M156.59,132.9c-0.99,1.07-0.06,3.2,0.51,5.12
			C157.62,137.08,158.25,133.91,156.59,132.9z M157.44,129.9c-0.01-0.94-0.3-2.58-2.43-2.89
			C154.88,128.11,156.75,128.78,157.44,129.9z M155.1,125.89c0.49,0.5,2.05,0.86,2.93,1.68
			C157.91,126.23,156.54,125.39,155.1,125.89z M152.96,131.98c-1.5,1.62-0.58,2.99-0.58,2.98
			C152.38,134.94,154.21,132.98,152.96,131.98z M155.21,147.56c0,0,1.9-1.77,2.07-5.41c-1.07,1.79-2.24,2.81-2.24,2.8
			c0,0-1.01-0.69-1.85-1.71C153.2,145.56,155.23,147.57,155.21,147.56z M152.41,137.55c-1.68,2.52,0,5.14-0.01,5.13
			C152.39,142.67,153.56,139.18,152.41,137.55z M152.98,119.55c0.46,0.46,1.93,1.09,2.75,1.85
			C155.62,120.14,154.52,119.47,152.98,119.55z M153.75,121.01c-0.86-1.02-2.02-1.39-2.6-1.48
			C151.84,120.38,152.56,121.09,153.75,121.01z M156.79,123.59c-0.06-0.28-0.76-1.25-2.24-1.57c0.4,0.38,0.65,1.06,0.79,1.31
			c-0.29,0.15-1.07,0.23-1.33,0.28C154.55,123.99,155.55,124.07,156.79,123.59z M143.52,119.93c-0.13,0.08-0.25,0.5,0.22,0.52
			c0.4,0.01,0.48-0.43,0.48-0.43S143.72,119.81,143.52,119.93z M156.36,94.77c-0.47-0.34-0.77-0.59-1.26-0.92
			c-0.43,0.29-0.91,0.69-1.23,0.95c0.43,0.32,0.75,0.57,1.21,0.91C155.58,95.34,155.81,95.16,156.36,94.77z M148.5,118.86
			c0,0,0.17,0.3,0.1,0.81c-0.07,0.51-0.3,0.98-1.05,1.16c-0.79,0.19-1.63-0.31-1.66-1.15c-0.01-0.22,0.05-0.5,0.15-0.69
			c-0.27,0.03-0.28,0.22-0.54,0.55c-0.16,0.2-0.42,0.18-0.78,0.42c0-0.49,0.53-1.26,1.14-1.53c0.89-0.4,3.98-0.54,6.17,0.6
			c-0.77-0.14-1.44-0.09-2.17-0.13C148.97,118.85,148.5,118.86,148.5,118.86z M148.1,118.87c-0.1-0.06-0.78-0.05-0.86,0.09
			c-0.08,0.14,0.42,0.36,0.58,0.42c0.1,0.04,0.24-0.02,0.31-0.16C148.21,119.08,148.19,118.92,148.1,118.87z M158.33,100.83
			c-6.05-0.33-17.87,0.3-23.69,1.9c0,0-0.61-1.51-1.13-2.05c-1.55-1.66-2.18,0.14-2.19,0.35c1.95,0.11,2.29,1.11,2.29,1.11
			c-0.46,0.85-0.81,1.12-1.88,1.87c-0.34,0.24-1.59,1.01-3.31,1.16c-3.66,0.17-2.66-3.63-0.45-5.19c-0.29,0.34-1.6,2.34-0.78,3.36
			c0.92,1.14,4.29,0.21,5.11-0.81c-0.45-0.43-1.27-0.55-2.47-0.44c0.06-0.6,0.33-2.15,2.09-3.64c0.64,0.15,2.42,1.11,3.04,2.63
			c5.34-1.43,15.13-1.84,15.6-1.86c-0.11-0.92-0.44-4.43-0.45-4.64c-0.05-0.58,0.33-0.84,0.7-1.07c0.41,0.71,0.79,1.04,1.69,1.37
			c-0.35,0.42-0.68,0.6-1.09,0.92c0.06,0.7,0.12,1.98,0.14,2.49c0.87-0.38,2.09-0.89,3.56-1.24c0.53-0.12,1.19-0.2,1.62-0.15
			c0.52,0.06,1.13,0.33,1.42,0.6c0.25,0.23,0.57,0.62,0.58,1.12C158.74,99.48,158.56,100.24,158.33,100.83z M157.09,98.56
			c-0.76-1.24-3.56-0.12-5.34,0.62c1.04-0.01,1.91-0.04,3.02-0.02c0.44,0.01,1.6,0.02,2.38,0.04
			C157.21,98.97,157.24,98.81,157.09,98.56z M131.86,105.1c-0.35-0.11-0.67-0.21-1.08-0.33c-0.28,0.4-0.57,0.93-0.76,1.27
			c0.53,0.17,0.92,0.3,1.5,0.47c0.22-0.36,0.36-0.58,0.55-0.87c0.34,0.11,0.66,0.21,1.06,0.34c0.32-0.5,0.46-0.73,0.82-1.26
			c-0.58-0.18-0.96-0.31-1.55-0.48C132.21,104.5,132.02,104.82,131.86,105.1z M176.56,100.59c1.2-0.1,2.3,0.19,2.82-0.36
			c-0.75-0.22-1.51-0.42-1.76-0.79c0.32-0.26,0.78,0.1,1.01,0.29c0.17-0.16,0.25-0.23,0.45-0.41c-0.78-0.64-1.99-0.26-2.26,0.39
			c0.22,0.11,0.56,0.24,0.68,0.39C177.24,100.19,176.76,100.45,176.56,100.59z M175.87,102.82c-0.48,1.13-0.91,2.27-1.47,3.29
			c0.34,0.14,0.79-0.15,1.1-0.34c1.48-0.91,2.55-3.41,3.13-4.9c0.01-0.05-0.87,0.18-1.33,0.38
			C176.43,101.64,176.27,101.87,175.87,102.82z M164.65,103.35c0.37,0.37,0.64,0.65,1.04,1.05c0.56-0.3,0.81-0.45,1.42-0.76
			c-0.4-0.4-0.66-0.68-1.09-1.07C165.55,102.79,165,103.13,164.65,103.35z M174.67,102.18c-0.24,0.82-0.85,1.32-1.23,1.82
			c-2.07-0.8-6.64-1.96-9.15-2.21c-0.68,0.75-1.7,1.75-2.77,2c-1.56-0.19-2.57-0.6-3.65-1.06c0.61,0.04,0.79,0.03,1.21,0.03
			c1.54-0.05,2.91-0.53,3.91-1.15c-2.18-0.33-2.7-0.93-1.64-2.32c0.48-0.63,1.28-1.77,2.44-1.48c0.9,0.23,1.13,1.52,1.03,2.5
			c2.55,0.31,5.82,1.19,8.3,2.04c0.17-0.71-0.29-1.07-0.59-1.58c0.38-0.39,0.93-0.86,1.37-1.15
			C174.55,99.98,174.91,101.39,174.67,102.18z M162.61,98.93c-0.03,0.01-0.43,0.24-0.65,0.69c0.2,0.3,0.58,0.42,1.17,0.51
			c0.08,0.01,0.22,0.02,0.31,0.03C163.71,99.53,163.13,98.75,162.61,98.93z M135.36,104.11c0.5,0.22,0.88,0.39,1.42,0.63
			c0.39-0.46,0.56-0.68,0.99-1.17c-0.55-0.24-0.91-0.41-1.48-0.63C135.95,103.3,135.59,103.8,135.36,104.11z M197.77,199.44
			c-3.34,6.57-7.5,10.67-13.19,14.27c-8.31,5.27-16.97,4.01-19.79,2.37c0,0,0.23,0.55,0.3,0.73c0.08,0.2,0.21,0.51,0.27,0.68
			c1.12,3,0.36,6.11-3.7,6.58c-1.07,0.12-2.27,0.17-3.67,0.82c-0.98,0.46-2.08,1.21-3.29,2.46c-0.5,0.53-1.56,1.88-2.07,2.93v0l0,0
			l0,0c-0.52-1.05-1.57-2.4-2.08-2.93c-1.2-1.25-2.3-2-3.29-2.46c-1.4-0.66-2.6-0.7-3.68-0.82c-4.06-0.47-4.8-3.58-3.7-6.59
			c0.06-0.17,0.18-0.47,0.26-0.66l0.3-0.74c-2.06,1.2-7.17,2.12-13.11,0.5c-0.14-0.04-0.44-0.11-0.58-0.15
			c-4.79-1.26-9.02-3.64-12.6-7.02c-4.32-4.06-6.69-8.45-7.58-10.11c-7.9-16.34-6.79-40.59-6.82-43.18
			c-0.26-27.99,5.94-43.69,11.26-51.28c-1.6-2.11-2.58-3.39-2.65-3.47c-0.53-0.53-1.45-1.37-3.34-1.64
			c-0.52-3.67-1.89-8.02-1.89-8.02s3.67,2.64,7.09,4.12c-0.26,1.85,0.22,2.97,0.68,3.64c0.06,0.09,0.84,1.12,2.11,2.81
			c2.35-2.94,4.86-5.07,8.81-7.36c0.95-0.54,1.96-1.06,3.06-1.55c-0.07-1.5,0.44-2.9,1.43-3.9c0.04-0.86,0.76-1.94,1.64-2.27l0.01,0
			c0.91-0.24,2.27,0.18,2.93,0.81c1.49,0.21,2.91,0.98,3.96,2.16c3.24-0.69,6.93-1.2,11.16-1.46c0.5-2.05,1.83-3.55,3.47-4.36
			c0.42-0.89,1.66-1.79,2.72-1.85c0,0,0,0,0,0s0,0,0,0h0c1.06,0.06,2.3,0.96,2.72,1.85c1.65,0.81,2.97,2.31,3.48,4.36
			c4.23,0.26,7.92,0.77,11.15,1.46c1.05-1.17,2.47-1.95,3.96-2.16c0.67-0.63,2.03-1.06,2.94-0.81l0,0c0.87,0.32,1.6,1.41,1.64,2.27
			c0.98,1,1.5,2.41,1.43,3.9c1.09,0.5,2.11,1.01,3.05,1.55c3.95,2.28,6.69,4.76,8.98,7.46c1.41-1.86,2.26-3,2.33-3.1
			c0.47-0.67,0.94-1.8,0.68-3.65c3.42-1.48,7.09-4.12,7.09-4.12s-1.37,4.35-1.89,8.03c-1.89,0.26-2.81,1.1-3.34,1.64
			c-0.08,0.08-1.19,1.54-3,3.92c5.29,7.65,11.41,23.22,11.15,51.02C204.61,158.37,205.67,183.1,197.77,199.44z M195.28,111.54
			c-3.34,0.72-5.46,0.67-6.71,0.63c-0.86,1.82-1.53,3.52-1.48,6.63c-1.37-0.41-2.07-0.82-2.8-1.57c-0.95,1.27-1.49,1.97-2.49,3.3
			c8.79,15.69,8.78,30.16,8.94,34.24c6.84-3.89,11.16-7.56,12.03-8.29C201.96,131.98,199.72,121.02,195.28,111.54z M181.35,155.26
			c-0.21,1.67-0.21,3.09,0.21,4.62c0.8-1.04,1.32-2.01,1.91-3.82c0,1.45,0.43,3.07,0.74,3.72c1.05-1.53,1.65-7.66,1.65-7.66
			s0.03,0.15,0.57,0.34c0.56-2.19,0.25-6.69-0.21-8.81c-0.81-3.73-2.27-8.25-6.83-13.63c-2.35-2.77-4.33-1.51-6.31,0.64
			c-3.19,3.47-3.88,5.01-7.7,5.72c-0.04,0-0.05,0.01-0.01,0c-0.38,0.07-0.1,0.25,0.65,0.24c4.61-0.08,6.05-3.13,7.43-4.66
			c0.92-1.01,2.1-1.93,3.08-1.36c0.37,0.22,1.62,1.68,0.33,5.28c0-0.82-0.31-1.54-0.48-1.72c-0.6,2.39-1.4,4.31-2.37,5.94
			c-0.13-0.4-0.21-0.76-0.29-1.27c-0.45,2.91-3.07,5.95-3.44,10.11c-0.27-0.45-0.51-0.75-0.53-1.82
			c-1.97,3.64-4.01,10.16-2.74,13.43c-0.06-3.33,1.99-8.11,3.05-9.62c-1.35,4.27-2.92,9.56-1.57,12.74
			c0.09-2.72,1.65-7.17,2.78-9.02c-1.87,7.02-2.64,10.6-0.56,13.31c-0.36-2.62,0.71-6.62,2.17-9.88
			c-0.97,5.48-2.35,10.26,0.21,12.67c-0.37-3.59,0.99-8.36,1.74-10.05c-0.84,5.29-1.57,10.4,0.14,12.94c0-1.83,0.33-3.72,0.7-5.5
			c0.45-2.32,1.13-4.54,1.13-4.54s-0.54,3.7-0.83,8.2c-0.05,0.75-0.07,1.51-0.05,2.27c0.02,0.92,0.09,1.85,0.28,2.76
			c0.15,0.77,0.38,1.58,0.8,2.27c0.47-5.97,1.16-11.13,1.96-13.53c0,0-0.68,5.59-1.13,14.15c-0.02,0.31-0.03,0.61-0.05,0.91
			c-0.56,12.3,1.1,16.24,1.62,17.41c0,0-0.11-0.23-0.16-1.81c-0.04-1.32-0.05-1.23,0.1-2.75c0.05-0.44-1.09-2.7-0.93-5.74
			c0.09-1.83,0.22-3.64,0.37-5.42c0.14-1.62,0.29-3.2,0.46-4.71c0.19-1.38,0.32-2.7,0.51-4.1c0.27-1.99,0.66-3.96,1.02-5.93
			c0.28-1.56,0.13-0.19,0.1,0.19c-0.14,1.77-0.47,5.64-0.78,9.63c-0.21,2.97-0.87,8.86-0.74,11.71c0.12,2.47,0.83,3.55,0.82,3.92
			c-0.14,4.79,0.34,6.73,1.18,8.54c0,0,0.49-1.71,0.87-3.86c-0.08,0.13-0.24,0.36-0.48,0.43c-0.6-1.56-0.91-4.29-0.51-7.1
			c0.07-0.5-0.67-1.13-0.62-3.39c0.09-3.53,0.56-7.05,1-10.56c0.15-1.17,0.31-2.31,0.48-3.39c0.11-0.7,0.21-1.39,0.32-2.08
			c0.15-1.11,0.36-2.22,0.59-3.32c0.04-0.18,0.07-0.35,0.11-0.51c0,0.01-0.03,0.81-0.11,1.88c-0.39,4.73-1.46,16.82-1.47,17.78
			c-0.04,2.37,0.6,3.08,0.56,3.51c-0.15,1.71-0.09,4.87,0.15,5.65c0.22-0.7,0.36-1.99,0.36-1.99s0.67-4.9,1.45-11.88
			c0.12-1.08,0.23-2.15,0.35-3.22c0.11-1.01,0.21-2.05,0.32-3.11c0.11-1.24,0.24-2.49,0.35-3.73c0.05-0.53,0.1-1.07,0.14-1.62
			c0.29-3.28,0.62-6.99,0.9-10.26c0-0.01,0.44-5.32,0.54-6.92c-0.14-0.11-0.26-0.19-0.26-0.19s-0.6,6.56-2.35,8.88
			c-0.47-0.43-1.04-2.89-1-3.71c-0.39,1.3-1.99,3.05-1.99,3.05s-0.55-1.3-0.48-3.45c-0.54,0.78-1,1.37-1.81,1.8
			c-0.33-0.73-0.72-1.58-0.68-3.62c-0.29,0.37-0.77,0.86-1.48,1.28c-0.21-0.5-1.39-2.36,0.73-9.22c-0.84,6.34-0.34,7.07-0.17,7.59
			c0.36-0.15,0.71-0.42,0.97-0.63c0.08-1.16,0.28-2.62,0.65-4.52c-0.31,5.04,0.08,6.62,0.47,7.6
			C179.72,158.38,180.42,157.45,181.35,155.26z M165.88,157.41c0.5-6.51,1.62-10.45,2.51-13.82
			C164.94,147.34,165.44,156.05,165.88,157.41z M166.52,143.19c1.09-3.28,0.17-4.93-0.46-5.27
			C166.04,139.43,166.45,140.13,166.52,143.19z M169.31,145.9c0.85-3.01,1.34-4.82,1.34-7.29
			C169.88,139.48,169.22,142.72,169.31,145.9z M172.29,139.46c0.27-1.08,0.3-2.51,0.12-3.64c-0.48,1.12-1.06,3.52-0.94,5.73
			C171.75,140.9,172.11,140.2,172.29,139.46z M164.39,164.08c0-0.06,0-0.12,0.04-0.17c0,0,0.03-0.02,0.04-0.03
			c0.03-0.01,0.05-0.02,0.05-0.02c0.09,0,0.21,0.07,0.43,0.2c0.12,0.08,0.27,0.17,0.45,0.27c-0.26-0.57-0.31-1.43-0.37-2.39
			c-0.06-0.98-0.09-1.99-0.39-2.97c0,0.01-0.06-0.1-0.07-0.13c-0.17,0.48-0.5,0.93-0.86,1.39c-0.5,0.66-1.02,1.34-1.16,2.25
			l-0.03,0.18l-0.14-0.13c0.26,0.24-0.72-0.88-0.73-0.9c-0.38,1.43-2.83,4.53-3.4,5.17v0c-0.08,0.11-1.02,1.5-1.38,4.96
			c-0.34,3.27,0,5.29,0,5.29l0.87-0.94c0,0,0.04,0.91-0.07,1.96c-0.08,0.81-0.34,1.46-0.34,1.46s1.71,0.28,3.05-1.32l0.24,0.63
			c0.22,0.63,0.38,1.37-0.11,1.76c-0.08,0.06-0.9,0.78-0.8,1.5c0.04,0.25,0.18,0.49,0.48,0.7l0.03,0.02l0,0.04
			c0.03,0.4,0.33,0.62,0.53,0.71c-0.07-0.33-0.03-0.54,0.02-0.67c0.18-0.47,0.51-0.59,0.76-0.61c0.2-0.01,0.39,0.05,0.39,0.05
			s0.21,1.99,0.38,2.81c0.15,0.72,0.34,1.65,0.45,2.68c0.02,0.23,0.05,0.46,0.07,0.69c0.08,0.68,0.47,0.74,0.82,0.8
			c0.19,0.03,0.64,0,0.84-0.02l0.03,0.01l-0.05,0.02c-0.52,0.14-0.48,0.35-0.47,0.42c0.06,0.31,0.24,0.68,0.05,1.31l0.08,0.07
			c0.78-0.43,0.78-1.15,0.69-1.78l-0.01-0.05l0.05-0.03c0.59-0.35,0.45-1.53-0.4-3.34c-0.4-0.85-0.56-2.27-0.31-2.4
			c0.02-0.01,0.03-0.02,0.05-0.02c0.13-0.03,0.3-0.01,0.7,0.58c0.28,0.41,0.56,0.75,0.91,1.19c0.34,0.42,0.57,0.8,0.56,1.15
			c0,0.13-0.04,0.22-0.11,0.28c-0.06,0.05-0.14,0.07-0.25,0.08c-0.17,0.01-0.39-0.01-0.55-0.04c0.19,0.2,0.91,1.02,1.12,0.77
			c0.54-0.62,0.05,0.38,1,0.48c0.61,0.03,1.05-0.38,1.08-1.12c0-0.26-0.04-0.43-0.08-0.66c-0.13-0.7-0.67-1.4-0.93-1.67l-0.21-0.22
			c-1.58-1.75-1.45-2.13-1.35-2.3c0.15-0.28,0.3-0.36,0.71-0.36c0.62-0.01,1.29,0.08,1.33,0.08c0.64,0.12,1.7,0.29,1.66,0.63
			c-0.01,0.06-0.08,0.15-0.17,0.19c-0.22,0.09-0.59,0.22-0.64,0.14c0.06,0.09,0.28,0.27,0.6,0.42c0.27,0.12,1.36,0.43,1.69-0.08
			l0.11-0.23c0.2,0,0.73-0.08,0.84-0.45c0.1-0.34-0.34-0.81-0.8-1.04c-0.37-0.19-1.46-0.62-2.35-0.89c-0.36-0.11-0.8-0.19-1.14-0.29
			l-1.91-0.5c-0.05-0.01-1.04-0.33-1.42-0.5c-0.19-0.08-0.33-0.15-0.41-0.19c-0.32-0.18-0.57-0.37-0.81-0.7
			c-0.21-0.29-0.42-1.07-0.64-1.92c0.23,0.13,0.81,0.52,1.51,0.62c-0.06-0.28-0.11-1.23-0.06-1.72c0.3-3.15,0.36-4.96,0.36-4.96
			s0.55,0.56,0.63,0.65c0.1-0.54-0.09-1.86-0.2-3.18c0-0.01,0-0.02,0-0.03C164.93,166.83,164.68,165.36,164.39,164.08z
			 M166.66,179.09l1.48,0.39c0.22,0.06,0.46,0.12,0.71,0.17c0.25-0.7,0.38-1.43,0.35-2.16c-0.03-0.82,1.85,0.91,3.09,2.16
			c0.53,0.53,0.62,0.3,0.32-0.11c-1.25-1.72-3.72-3.33-4.42-3.77c-1.19-0.74-1.79-0.56-1.38,0.1
			C167.28,176.63,167.17,177.83,166.66,179.09z M168.87,191.36c1.41,1.76,3.64,5.07,4.49,5.96c1.84,1.92,2.63,2.14,4.03,2.22
			c-0.45-1.32-0.94-2.59-3.08-6c-1.14-1.81-3.03-4.69-4.96-6.87c0.01,0.33-0.03,0.66-0.13,0.98c-0.03,0.07-0.07,0.14-0.1,0.21
			c-0.13,0.22-0.3,0.42-0.51,0.56c-0.31,0.22-0.7,0.31-1.08,0.28c-0.39-0.04-0.71-0.19-0.94-0.44c-0.22,0.03-0.45-0.04-0.68-0.17
			c0.08,0.67-0.04,1.18-0.36,1.52c0,0.41-0.09,1.24-0.73,1.88c0.06,0.09,0.1,0.14,0.1,0.14c0.46,0.82,0.26,1.23,0.04,1.49
			c-0.2,0.23-2.43,2.71-2.92,3.15c-0.59,0.53-1.23-0.07-1.23-0.07l-0.36-0.31c0,0-0.57,0.57-1.03,1.03
			c0.04,0.04,0.08,0.08,0.12,0.11c0,0,0,0,0,0c0.73,0.66,1.6,1.15,2.5,1.54c0.81,0.35,3.18,1.23,4.77,1.88
			c-0.38-1.18-0.82-2.52-1.28-3.84c0.41,0.56,1.56,2.59,2.54,4.39c-0.07-0.03,0.12,0.06,0.06,0.03c1.27,0.58,2.98,1.43,4.26,2.21
			c-0.1-0.45-0.19-0.75-0.19-0.75s-1.18-1.22-1.99-2.36c-1.63-2.34-2.68-4.77-3.19-6.4c1.84,2.78,2.31,3.56,3.04,4.54
			c2.32,3.12,4.79,4.48,5.75,4.5c-0.34-1.74-0.95-2.12-0.95-2.12s-1.14-0.96-2.38-2.62c0.29,0.4,0.57,0.78-0.06-0.08
			c-0.48-0.65-0.29-0.39-0.04-0.06C171.32,196.43,170.05,194.24,168.87,191.36z M162.52,206.66c3.15,0.39,9.88,0.31,12.3-0.64
			c-0.91-0.74-4.76-3.19-10.63-5.55c-1.21-0.52-2.78-1.08-3.84-1.85c-0.65-0.47-1.1-0.81-1.75-1.41c-1.94-1.78-7.03-7.09-7.93-8.07
			l-3.38,3.11c0,0,8.96,8.74,11.21,9.97c2.88,1.57,11.14,3.44,11.14,3.44s-6.33-0.48-11.14-2.42c-2.89-1.17-12.06-10.2-12.06-10.2
			l-2.21,2.05c1.13,1.25,3.59,4.01,7.58,7.25C154.59,204.61,157.96,206.09,162.52,206.66z M152.81,204.66
			c0.02,1.71,1.4,3.45,1.76,3.74c0,0,0.53-0.65,0.78-2.33C154.18,205.55,153.37,205.04,152.81,204.66z M137.53,193.61
			c-0.51,1.63-1.56,4.06-3.19,6.4c-0.8,1.15-2,2.35-2,2.35s-0.06,0.21-0.13,0.55l-0.25,0.14l1.34-0.74
			c0.22-0.11,0.44-0.22,0.66-0.33c0.88-0.48,1.86-0.92,2.83-1.34c0.96-1.73,2.1-3.77,2.46-4.31c-0.11,0.42-0.33,1.58-1.36,3.86
			l0.73-0.29c1.52-0.6,2.84-1.07,3.47-1.37c1.06-0.48,1.54-0.88,1.95-1.19c0.08-0.06,0.23-0.2,0.43-0.39
			c0.03,0.03-1.08-1.09-1.08-1.09l-0.37,0.31c0,0-0.63,0.6-1.22,0.07c-0.49-0.45-2.73-2.93-2.92-3.16c-0.22-0.26-0.47-0.7,0.05-1.49
			c0-0.01,0.01-0.02,0.03-0.04c-0.7-0.64-0.79-1.51-0.79-1.93c-0.32-0.35-0.44-0.86-0.36-1.52c-0.22,0.13-0.45,0.2-0.67,0.17
			c-0.23,0.25-0.55,0.4-0.93,0.44c-0.07,0-0.11,0-0.14,0c-0.38,0-0.73-0.1-1-0.32c-0.31-0.26-0.31-0.23-0.55-0.7
			c-0.01-0.03-0.03-0.06-0.04-0.09c-1.29,1.35-2.49,3.08-4.21,5.83c-2.14,3.41-2.65,4.65-3.1,5.97c1.41-0.08,2.2-0.3,4.03-2.22
			c0.85-0.9,3.08-4.2,4.49-5.96c-1.19,2.92-2.48,5.12-3.56,6.6c-1.26,1.72-2.52,2.76-2.52,2.76s-0.53,0.34-0.87,2.07
			c0.95-0.02,3.43-1.37,5.75-4.5C135.22,197.17,135.69,196.39,137.53,193.61z M136.25,184.34c-0.67,0.72-1.21,1.53-1.21,2.55
			c0.02,0.74,0.47,1.15,1.07,1.12c0.95-0.1,0.46-1.11,1-0.48c0.22,0.25,0.93-0.57,1.12-0.77c-0.41,0.06-1,0.13-0.9-0.47
			c0.07-0.45,0.4-0.82,0.67-1.16c0.25-0.31,1.03-1.78,1.53-1.6c0.24,0.17,0.09,1.55-0.31,2.4c-0.85,1.81-0.99,3-0.4,3.34l0.05,0.03
			l-0.01,0.05c-0.08,0.64-0.09,1.35,0.7,1.78l0.07-0.07c-0.19-0.63-0.01-1.01,0.05-1.31c0.01-0.07,0.05-0.27-0.47-0.42l-0.05-0.02
			l0.03-0.01c0.2,0.02,0.65,0.05,0.84,0.02c0.35-0.06,0.75-0.12,0.82-0.8c0.03-0.23,0.05-0.46,0.07-0.69
			c0.11-1.03,0.3-1.96,0.45-2.68c0.17-0.82,0.39-2.81,0.39-2.81s0.2-0.06,0.39-0.05c0.25,0.02,0.58,0.14,0.76,0.61
			c0.05,0.13,0.09,0.34,0.02,0.67c0.2-0.1,0.5-0.31,0.53-0.71l0-0.04l0.03-0.02c0.31-0.21,0.45-0.45,0.48-0.7
			c0.11-0.72-0.72-1.44-0.79-1.5c-0.5-0.39-0.33-1.13-0.11-1.76l0.28-0.76c0.25,0.31,0.58,0.62,0.97,0.83
			c1.15,0.81,2.3,0.62,2.3,0.62s-0.26-0.64-0.34-1.46c-0.11-1.05-0.08-1.96-0.08-1.96l0.87,0.94c0,0,0.52-1.73,0.18-5
			c-0.39-3.78-1.19-5.26-1.36-5.79c-0.27-0.85-0.75-1.69-0.75-1.69s-0.07,0.45-0.69,0.98c-0.73-0.91-2.02-2.71-2.34-3.93
			c-0.19,0.36-0.48,0.67-0.73,0.9l-0.14,0.13l-0.03-0.18c-0.14-0.91-0.66-1.59-1.17-2.25c-0.35-0.46-0.69-0.91-0.86-1.39
			c-0.3,0.98-0.36,2.07-0.42,3.05c-0.06,0.96-0.11,1.82-0.37,2.39c0.18-0.1,0.33-0.2,0.45-0.27c0.22-0.14,0.33-0.21,0.42-0.2
			l0.07,0.01l0.03,0.03c0.04,0.04,0.04,0.11,0.04,0.16c-0.29,1.29-0.55,2.78-0.62,3.67c-0.11,1.32-0.01,2.47,0.1,3.01
			c0.08-0.09,0.98-0.56,0.98-0.56s-0.58,1.89-0.28,5.04c0.05,0.5-0.01,1.44-0.06,1.72c0.6-0.08,1.1-0.38,1.38-0.54
			c-0.23,0.84-0.43,1.61-0.64,1.9c-0.78,1.07-2.43,1.34-3.65,1.65c-1.5,0.39-3,0.71-4.39,1.41c-0.46,0.23-0.9,0.7-0.8,1.04
			c0.11,0.36,0.64,0.45,0.84,0.45l0.11,0.23c0.34,0.51,1.43,0.2,1.7,0.08c0.31-0.15,0.53-0.33,0.59-0.42
			c-0.06,0.09-0.42-0.04-0.64-0.14c-0.08-0.03-0.16-0.13-0.16-0.19c-0.07-0.64,2.6-0.72,2.99-0.71c0.42,0.01,0.56,0.09,0.71,0.36
			C137.7,182.2,137.84,182.59,136.25,184.34z M137.02,175.83c0.41-0.66-0.19-0.84-1.38-0.1c-0.7,0.44-3.17,2.05-4.42,3.77
			c-0.3,0.41-0.2,0.64,0.32,0.11c1.24-1.25,3.12-2.98,3.09-2.16c-0.03,0.73,0.1,1.46,0.36,2.18c0.2-0.04,0.39-0.09,0.56-0.14
			l1.62-0.43C136.67,177.79,136.55,176.58,137.02,175.83z M134.32,151.08c1.06,1.51,3.1,6.3,3.05,9.62
			c1.27-3.28-0.77-9.8-2.75-13.43c-0.02,1.06-0.25,1.37-0.53,1.82c-0.37-4.17-2.98-7.2-3.44-10.11c-0.08,0.51-0.17,0.87-0.29,1.28
			c-0.96-1.63-1.76-3.55-2.36-5.94c-0.17,0.19-0.48,0.9-0.48,1.72c-1.3-3.6-0.04-5.07,0.33-5.28c0.99-0.57,2.17,0.34,3.08,1.36
			c1.38,1.53,2.82,4.58,7.43,4.66c0.75,0.01,1.04-0.17,0.65-0.24c0.04,0.01,0.03,0-0.01,0c-3.83-0.7-4.51-2.24-7.7-5.72
			c-1.99-2.16-3.96-3.41-6.31-0.64c-4.56,5.38-6.02,9.9-6.83,13.63c-0.46,2.12-0.78,6.62-0.21,8.81c0.54-0.19,0.57-0.34,0.57-0.34
			s0.6,6.13,1.65,7.66c0.31-0.65,0.74-2.27,0.74-3.71c0.59,1.81,1.11,2.78,1.91,3.82c0.42-1.54,0.42-2.96,0.22-4.62
			c0.92,2.19,1.62,3.12,2.12,3.47c0.39-0.97,0.79-2.56,0.47-7.6c0.37,1.9,0.57,3.36,0.65,4.52c0.26,0.22,0.62,0.48,0.97,0.63
			c0.17-0.51,0.67-1.25-0.17-7.59c2.12,6.86,0.94,8.72,0.73,9.22c-0.72-0.42-1.19-0.9-1.48-1.28c0.03,2.04-0.36,2.89-0.68,3.62
			c-0.81-0.42-1.27-1.02-1.81-1.79c0.07,2.15-0.48,3.44-0.48,3.44s-1.6-1.76-1.99-3.05c0.04,0.82-0.53,3.28-1,3.71
			c-1.75-2.31-2.35-8.88-2.35-8.88s-0.12,0.08-0.26,0.19c0.1,1.6,0.3,4.08,0.53,6.89c0,0.01,0,0.02,0,0.03
			c0.28,3.27,0.61,6.98,0.9,10.26c0.69,7.87,1.57,15.73,2.61,23.56c0,0,0.14,1.29,0.36,1.99c0.25-0.78,0.31-3.94,0.16-5.65
			c-0.04-0.43,0.6-1.14,0.56-3.51c-0.01-0.96-1.1-13.05-1.47-17.78c-0.05-0.59-0.12-1.87-0.12-1.88c0.03,0.15,0.07,0.32,0.11,0.5
			c0.37,1.79,0.65,3.6,0.92,5.4c0.16,1.07,0.32,2.22,0.48,3.39c0.49,3.49,0.91,7.04,0.99,10.56c0.06,2.26-0.69,2.89-0.62,3.39
			c0.4,2.81,0.09,5.54-0.51,7.1c-0.24-0.08-0.4-0.31-0.48-0.43c0.38,2.15,0.88,3.86,0.88,3.86c0.83-1.8,1.31-3.74,1.17-8.54
			c-0.01-0.37,0.7-1.46,0.82-3.92c0.03-0.73-0.1-3.05-0.3-5.93c-0.36-5.14-0.81-10.27-1.21-15.41c-0.02-0.24-0.07-0.86-0.07-0.9
			c0.06,0.22,0.11,0.46,0.17,0.71c1.45,6.59,2.02,13.46,2.36,20.15c0.16,3.04-0.98,5.3-0.93,5.74c0.16,1.51,0.14,1.42,0.1,2.74
			c-0.05,1.58-0.16,1.81-0.16,1.81c0.51-1.17,2.18-5.11,1.62-17.41c-0.01-0.3-0.03-0.6-0.05-0.91c-0.45-8.56-1.13-14.15-1.13-14.15
			c0.79,2.39,1.48,7.55,1.95,13.53c0.06-0.08,0.11-0.19,0.17-0.31c0.86-2.28,1.01-4.57,0.85-6.98c-0.29-4.5-0.82-8.19-0.82-8.18
			c0,0,0.1,0.33,0.12,0.37c0.16,0.5,0.56,1.83,1.01,4.15c0.32,1.6,0.54,3.21,0.67,4.83c0.02,0.23,0.03,0.45,0.03,0.67l0,0
			c1.71-2.55,0.98-7.65,0.14-12.94c0.75,1.69,2.11,6.46,1.74,10.05c2.56-2.41,1.17-7.19,0.2-12.67c1.46,3.26,2.53,7.26,2.17,9.88
			c2.08-2.71,1.31-6.29-0.56-13.31c1.13,1.85,2.69,6.29,2.78,9.02C137.24,160.65,135.67,155.36,134.32,151.08z M157.4,166.63
			c0-0.02,1.1-1.05,1.5-4.51c0.22,0.26,0.61,0.51,0.72,1c0.7-0.85,2.09-5.49,2.24-7.07c0.46,0.2,0.05,0.1,0.58,0.36
			c0.37-0.67,1.18-3.32,1.52-6.97c0.17,0.05,0.47,0.05,0.59,0.2c0.24-1.67,0.49-4.36,0.56-6.24c0.07-1.61,0.02-4.95-0.67-6.86
			c-0.69-1.9-1.01-2.93-2.11-4.68c0,0-0.4,0.19-0.59,0.46c-0.3-0.92-1.15-3.16-1.56-3.97c-1.05-2.04-1.55-3.37-2.64-4.06
			c0.5,0.03,0.69,0.14,1.31,0.11c-0.71-0.67-0.98-1.13-1.79-1.75c0.27-0.18,0.73-0.16,1.48-0.03c-1.08-0.98-1.44-2.48-4.22-3.53
			c0.49-0.09,0.87,0.08,1.54,0.06c-0.35-0.54-1.2-1.44-2.58-1.85c-2.84-0.56-6.77-0.65-8.6,1.52c-0.13,0.15-0.62,0.25-1.07,0.42
			c-0.31,0.11-0.44,0.21-0.53,0.27c-0.32,0.23-0.38,0.56,0.23,1.42c-0.8-0.11-1-0.88-1.15-0.8c-0.29,0.19-0.55,0.42-0.84,0.86
			c-0.26,0.4-0.5,1.24-0.44,1.6c0.09,0.08,0.76,0.38,0.9-0.41c0.05-0.27,1.29-0.39,1.72-0.39c0.62,0,1.2,0.15,1.98,0.11
			c-0.28,0.1-1.16,0.36-1.48,0.45c-0.35,0.1-0.38,0.48-0.05,0.5c0.36,0.04,0.52-0.12,0.87-0.2c0.16,0.1,0,0.48,0.13,0.71
			c2.29-0.53,2.46,1.93,4.9,1.45c-1.15-0.9-2.13-2.4-3.03-2.85c2.41,0.38,3.71,2.54,6.32,2.65c-0.09-0.25-0.09-0.25-0.32-0.7
			c0.89,0,1.52,0.68,1.79,0.66c-0.34,0.36-1.08,0.65-2.08,0.78c0.18,0.33,1.15,0.4,1.48,0.46c-0.53,0.47-1.13,0.7-2.31,0.47
			c-0.38,0.36-0.9,1.17-2.6,2.2c0.03-0.42,0.03-0.42,0.09-0.81c-1.12,0.65-1.85,1.83-2.69,2.15c0.25-0.41,0.45-1.14,0.64-1.51
			c-2.93,2.66-5.74,5.21-6.79,7.13c-1.18,2.14-1.55,4.36-1.4,8.01c0.11,1.96,0.95,7.5,1.09,8.59c0.23-0.1,0.4-0.19,0.6-0.26
			c0.7,4.06,2.81,9.77,3.91,11.63c0.2-0.45,0.32-0.64,0.64-0.87c0.17,1.09,0.75,2.32,1.65,3.11c-0.03-0.73,0.29-1.16,0.37-1.42
			c0.24,0.79,0.1,3.23,1.51,4.59c-0.08-0.67,0.16-1.24,0.36-2.15c0.23,0.78,0.29,1.77,0.67,2.56c0.44,0.93,0.99,1.85,1.5,2.1
			c-0.06-1.93,0.23-1.83,0.31-2.62c0.03,0.17,0.76,0.86,1.11,3.29c1.43-1.09,1.98-4.69,1.97-4.68c0,0,0.41,0.36,0.71,1.35
			c1.24-1.29,1.63-3,1.99-4.3C157.47,165.3,157.51,166.18,157.4,166.63z M158.83,185.62c1.72-0.02,2.16,0.01,2.83-0.11
			c-0.05-0.2-0.09-0.38-0.11-0.55c-0.02-0.12-0.03-0.26-0.05-0.4c-0.01,0-0.03,0.01-0.04,0.01c-0.59,0.14-1.71,0.48-3.24,0.21
			c-0.73-0.15-0.76-0.17-1.33-0.33c-0.52-0.15-1.34,0.7-1.98,1.38c-0.55,0.58-1.27,1.4-1.59,1.74c-0.06,0.06-0.05,0.12,0.01,0.18
			c0.59,0.53,7.65,6.99,8.09,7.39c0.11,0.1,0.19,0.11,0.33-0.03c0.32-0.32,0.78-0.82,1.24-1.28c0,0-6.98-6.57-7.09-6.67
			c-0.11-0.11-0.12-0.24-0.07-0.3c0.05-0.06,0.36-0.37,0.41-0.43c0.05-0.06,0.22-0.07,0.32,0.04c0.1,0.11,2.29,2.15,2.29,2.15
			l3.01,2.68l1.89,1.68c0.27-0.28,0.23-0.22,0.31-0.31c0.28-0.31,0.21-0.52-0.75-1.45c-0.27-0.26-4.89-4.88-4.89-4.88
			C157.93,185.8,158.28,185.62,158.83,185.62z M147.94,187.1c-0.11,0.1-7.09,6.67-7.09,6.67c0.45,0.45,0.92,0.95,1.23,1.27
			c0.14,0.14,0.22,0.13,0.33,0.03c0.44-0.4,7.5-6.86,8.09-7.39c0.06-0.06,0.07-0.12,0.01-0.17c-0.32-0.34-1.04-1.17-1.59-1.75
			c-0.64-0.68-1.46-1.54-1.98-1.38c-0.57,0.17-0.6,0.18-1.33,0.33c-1.53,0.27-2.65-0.07-3.25-0.21c-0.05-0.01-0.1-0.03-0.15-0.05
			c-0.02,0.17-0.04,0.34-0.06,0.49c-0.02,0.14-0.06,0.3-0.09,0.47c0.73,0.15,1.13,0.11,2.94,0.14c0.55,0,0.9,0.18,0.42,0.73
			c0,0-4.62,4.62-4.89,4.88c-0.97,0.91-1.03,1.13-0.75,1.44c0.08,0.08,0.04,0.03,0.31,0.31l1.89-1.68l3.01-2.68
			c0,0,2.19-2.04,2.29-2.16c0.1-0.11,0.26-0.1,0.32-0.04c0.05,0.06,0.36,0.37,0.41,0.43C148.06,186.86,148.05,186.99,147.94,187.1z
			 M148.62,170.61c0,0,0.01-0.42-0.25-0.95c-0.14-0.28-0.61-0.64-0.83-0.91c-0.19-0.23-0.22-0.36-0.22-0.36
			c-0.06,0.26,0.06,0.9,0.14,1.15c0.08,0.29,0.28,0.59,0.61,0.79C148.43,170.56,148.62,170.61,148.62,170.61z M148.56,184.02
			c0,0,0.52,0.5,0.62,0.6c0.11-0.72,0.46-3.11,0.32-3.35C148.68,182.82,148.57,183.88,148.56,184.02z M145.74,183.86
			c0.27-0.1,0.93-0.4,1.29-0.49c0.08-0.02,0.22-0.05,0.27-0.05l0,0c0.2-0.72,0.54-1.83,0.77-2.34
			C147.87,180.92,146.09,183.37,145.74,183.86z M150.94,186.44c-0.03-0.95-0.08-1.99-0.14-2.44c-0.3,0.43-0.5,1.06-0.63,1.65
			C150.25,185.72,150.86,186.36,150.94,186.44z M151.4,180.12c0,0-0.17-1.21-1.08-1.61C150.36,179.39,151.4,180.12,151.4,180.12z
			 M152.12,178.11c0,0,0-0.01,0.01-0.03C152.13,178.08,152.13,178.1,152.12,178.11c0.01,0,0.14-0.33,0.65-0.7
			c0.33-0.24,2.31-1.43,2.69-1.96c0.38-0.52,0.54-1.23,0.54-1.23s-0.36,0.57-1.14,1.02c-0.66,0.38-2.22,1.35-2.5,1.82
			c-0.14,0.24-0.2,0.44-0.21,0.6c-0.02-0.13-0.05-0.29-0.13-0.45c-0.48-1-1.91-1.41-2.77-2.4c-0.56-0.64-0.58-0.91-0.58-0.91
			c-0.02,0.67,0.11,1.17,0.38,1.53c0.25,0.33,0.96,0.95,1.91,1.57C151.92,177.64,152.12,178.11,152.12,178.11z M151.19,174.53
			c0.01-1.57-1.71-1.75-2.11-3.31C148.88,173.41,150.4,173.45,151.19,174.53z M151.99,180.78c0,0,0.22-0.09,0.71-0.39
			c0.45-0.27,0.82-0.56,1.04-0.98c0.24-0.45,0.2-0.83,0.16-1.09c0,0-0.1,0.41-0.67,0.94c-0.25,0.22-0.59,0.56-0.78,0.8
			C152.14,180.44,151.99,180.78,151.99,180.78z M153.49,181.71c0.16,0.94,0.28,3.13,0.31,3.84c0,0,0,0,0-0.01
			c0.25-0.25,0.52-0.53,0.78-0.79C154.55,184.42,154.24,182.68,153.49,181.71z M152.09,187.43c0.04-0.05,0.57-0.68,0.84-0.96
			c0.01-0.01,0.03-0.03,0.05-0.05c-0.17-1.2-0.45-2.72-0.84-3.29C152.05,183.7,152.06,185.82,152.09,187.43z M152.1,188.08
			c0,0.52,0.02,0.94,0.02,1.14c0.04-0.05,0.55-0.59,0.55-0.59S152.24,188.24,152.1,188.08z M152.46,189.95
			c0.98,1.03,2.3,2.41,3.17,3.25c0.56-0.55,0.91-0.89,0.91-0.89l-3.38-3.11C153.02,189.36,152.78,189.61,152.46,189.95z M156.46,194
			c0.74,0.72,1.55,1.54,2.2,2.19c0.38-0.41,0.7-0.76,0.95-1.04l-2.21-2.05C157.39,193.09,157.04,193.44,156.46,194z M157.12,183.53
			c-0.35-0.47-1.29-1.71-2.1-2.44c0.55,1.31,0.8,2.13,0.88,2.45l0,0c0.05-0.03,0.09-0.06,0.14-0.08c0.13-0.06,0.28-0.1,0.43-0.09
			c0.14,0,0.29,0.05,0.47,0.1C156.93,183.47,157.05,183.51,157.12,183.53z M156.3,170.79c-0.44,0.7-0.8,1.1-1.36,1.59
			c0.18-0.51,0.23-1.08,0.23-1.09c-0.27,0.54-0.9,1.31-1.31,1.71c-1.01,1.01-1.2,1.98-1.2,1.98s0.27-0.36,1.49-1.08
			C155.43,173.15,155.9,171.99,156.3,170.79z M140.51,157.1c-0.01,1.23,0.86,2.93,2.03,3.6C141.84,158.83,141.3,158.22,140.51,157.1
			z M165.94,134.59c0.48,0.03,0.95-0.06,1.36-0.32c0.38-0.23,0.46-0.38,0.58-0.54c2.92-4.23,8.34-11.03,12.4-16.39
			c-8.3-8.2-20.19-8.76-23.28-8.53c-0.73,0.06-1.56,0.64-0.64,1.83c-0.67,0.31-3.21,0.08-4.16-0.81c-0.95,0.89-3.49,1.12-4.16,0.81
			c0.92-1.2,0.09-1.78-0.64-1.83c-3.12-0.22-15.63,0.99-23.17,8.35c4.16,5.5,12.85,16.99,13.03,17.22c0.17,0.21,0.59,0.5,1.12,0.5
			c0.07,0,0.14,0,0.2,0c0.46-0.02,0.88-0.33,1.34-0.83c0.9-0.98,1.34-1.53,2.23-2.44c1.71-1.75,3.32-3.07,3.59-3.32
			c0.72-0.67,0.95-1.2,0.98-1.76c-0.04-0.63-0.54-0.87-0.84-1.26c-0.02,0.06-0.11,0.16-0.15,0.23c-0.28-0.22-0.6-1.19-0.6-1.19
			l-0.17,0.45c0,0-0.64-1.54-1.65-1.4c-1.39,0.19-2.29-0.41-2.39-0.44c-0.09-0.03-0.14,0.45-0.11,0.98c-0.02,0-0.04-0.01-0.05-0.02
			c-0.96-0.81-1.24-2.9,0.59-4.24c1.13-0.83,1.34-0.8,2.21-1.21c0.37-0.17,0.65-0.53,0.74-0.63c0.59-0.71,1.77-1.12,2.44-1.29
			c0.85-0.22,2.86-0.5,4.87-0.39c1.13,0.06,2.19,0.32,2.95,0.63c0.59,0.25,2.32,1.51,3.27,2.77c0.63,0.82,1.71,3.15,2.31,4.63
			c1.27,3.1,1.12,2.76,1.98,4.82c0.98,2.35,1.58,3.65,2.52,4.97C164.95,134.37,165.31,134.55,165.94,134.59z M180.9,116.52
			c0.28-0.37,0.56-0.75,0.84-1.12c-3.8-3.36-9.43-6.75-15.61-8.09c-4.18-0.9-7.51-0.98-9.61-0.95c-1.72,0.03-2.83,0.69-2.83,1.76
			c-1.07-0.2-1.36-1.54-1.5-1.79c-0.1,0.56-0.63,1.66-1.49,1.79c0-1.07-1.11-1.74-2.83-1.76c-2.1-0.03-5.43,0.05-9.61,0.95
			c-6.3,1.37-11.73,4.46-15.52,7.87c0.28,0.36,0.56,0.74,0.84,1.11c3.41-3.2,7.95-5.74,12.79-7.16c4.01-1.17,8.94-1.59,11.22-1.49
			c2.02,0.09,2.3,1.24,2.07,1.87c0.9,0.09,2.25-0.69,2.54-1.22c0.21,0.4,1.44,1.3,2.55,1.22c-0.24-0.63,0.05-1.77,2.07-1.87
			c2.27-0.1,7.2,0.32,11.22,1.49C172.75,110.52,177.49,113.38,180.9,116.52z M183.17,112.42c0.42,1.48,0.88,3.13,2.13,4.12
			c0.17,0.14,0.36,0.26,0.57,0.37l0.03,0.02c-0.03-2.83,0.93-4.36,1.67-6.02c0,0,0,0,0,0c0,0,0-0.01,0-0.02
			c1.05,0.15,2.43,0.54,5.25,0.03c-2.67-1.8-2.1-3.82-4.08-6.02c-0.21-0.24-0.45-0.48-0.73-0.72c-0.71-0.5-1.23-0.68-1.62-0.69
			c-0.5-0.02-0.77,0.24-0.92,0.4c-0.26,0.28-3.04,3.27-4.87,5.32C182.25,109.18,182.68,110.69,183.17,112.42z M185,102.54
			c-1.86-1.84-4.83-3.88-8.38-5.43c-9.27-4.07-21.04-4.09-24.41-4.09c0,0,0-0.01-0.01-0.01c0,0-0.01,0.01-0.01,0.01
			c-3.36,0-15.13,0.02-24.41,4.09c-3.55,1.56-6.52,3.6-8.38,5.43c0,0,4.2,4.71,5.29,5.98c0.57,0.67,0.76,1.23,0.42,2.24
			c6.44-4.32,13.77-6.48,26.83-6.56l0.59-0.01c12.83,0.12,20.38,2.29,26.76,6.57c-0.33-1.01-0.15-1.57,0.42-2.24
			C180.8,107.24,185,102.54,185,102.54z M118.93,103.91C118.92,103.9,118.92,103.9,118.93,103.91c-0.27-0.3-0.93-0.87-2.54,0.28
			c-2.88,2.49-1.95,4.75-4.91,6.74c1.06,0.19,1.91,0.25,2.62,0.25c0.48,0,0.89-0.03,1.26-0.07c0.54-0.06,0.98-0.15,1.38-0.21
			c0,0,0,0,0.01,0c0.74,1.66,1.68,3.18,1.66,6.01c3.46-1.83,2.04-7.75,5.27-7.68C121.86,107.19,119.23,104.24,118.93,103.91z
			 M121.17,115.83c2.53,3.38,4.45,5.93,4.83,6.44c0.89,1.21,3.92,4.86,3.9,4.39c-0.02-0.28-1.87-2.86-3.05-4.46
			c-1.71-2.31-3.5-4.71-5.24-7.03C121.44,115.41,121.3,115.63,121.17,115.83z M133.71,138.76c0,2.47,0.49,4.28,1.34,7.29
			C135.15,142.87,134.49,139.62,133.71,138.76z M131.96,135.97c-0.18,1.14-0.15,2.57,0.11,3.64c0.19,0.74,0.54,1.43,0.82,2.09
			C133.02,139.48,132.44,137.08,131.96,135.97z M138.49,157.56c0.44-1.36,0.93-10.07-2.51-13.81
			C136.87,147.11,138,151.05,138.49,157.56z M129.01,206.08c2.42,0.94,9.16,1.03,12.3,0.64c4.02-0.5,7.11-1.71,9.69-3.54
			c-0.67-0.58-1.5-1.33-2.35-2.14c-1.35,1.09-2.56,1.96-3.32,2.26c-4.81,1.94-11.14,2.43-11.14,2.43s8.26-1.87,11.14-3.44
			c0.54-0.29,1.48-1.03,2.58-1.96c-1.06-1.03-2.11-2.06-2.9-2.84c-0.53,0.47-0.95,0.79-1.52,1.2c-1.06,0.76-2.63,1.32-3.84,1.85
			C133.77,202.89,129.92,205.34,129.01,206.08z M148.69,206.07c0.25,0.78,0.68,1.8,0.97,2.31c0,0,1.55-1.26,2.02-4.14
			c-0.3,0.24-0.78,0.63-1.19,0.88C149.78,205.53,149.14,205.86,148.69,206.07z M178.79,122.09c0.36-0.5,2.12-2.84,4.48-5.98
			c-0.17-0.2-0.34-0.42-0.47-0.63c-1.63,2.17-3.28,4.39-4.87,6.54c-1.18,1.6-3.03,4.18-3.05,4.46
			C174.87,126.94,177.91,123.29,178.79,122.09z M192.43,106.45c-0.27,0.36-0.85,1.13-0.85,1.13c0.73,1.33,1.52,2.71,3.61,3.8
			C194.35,109.69,193.44,108.05,192.43,106.45z M190.5,105.31c0.06,0.1,0.32,0.56,0.39,0.67c4.81-6.39,9.21-12.24,9.21-12.24
			s-1.86,1.32-4.54,2.57c0.27,1.44-0.64,3.25-0.99,3.69C194.42,100.18,192.83,102.24,190.5,105.31z M113.89,103.47
			c0.23,0.31,0.47,0.62,0.72,0.95c3.58-4.59,8.36-7.87,14.14-10.04c-0.45-0.68-1.1-2.19,0.59-3.84c0,0,0,0,0,0
			c2.5,0.31,3.12,1.82,3.28,2.6c4.5-1.22,9.83-1.96,15.78-2.18c0.21-4.11,3.12-5.1,3.12-5.1s0.05-0.77,0.67-1.04c0,0,0.01,0,0.01,0
			c0.62,0.27,0.68,1.04,0.68,1.04s2.91,0.99,3.12,5.1c5.95,0.21,11.28,0.96,15.78,2.18c0.15-0.78,0.78-2.28,3.27-2.6c0,0,0,0,0.01,0
			c1.68,1.65,1.04,3.16,0.59,3.84c5.77,2.17,10.71,5.57,14.3,10.17c0.25-0.34,0.5-0.67,0.74-0.98c-3.35-4.15-8.04-7.49-13.05-9.56
			c0.54-1.62,0.01-3-0.95-3.98c0-0.66-0.39-1.23-0.8-1.45c0,0-0.01,0-0.01,0c-0.48-0.06-1.2,0.16-1.69,0.67
			c-1.45,0.21-2.87,0.96-3.65,2.5c-3.72-0.9-7.92-1.49-13.28-1.77c-0.13-2.46-1.56-3.99-3.32-4.86c-0.36-0.87-1.11-1.34-1.74-1.5
			c-0.64,0.15-1.38,0.63-1.74,1.5c-1.76,0.87-3.19,2.39-3.32,4.86c-5.36,0.28-9.56,0.87-13.28,1.77c-0.78-1.54-2.2-2.29-3.65-2.5
			c-0.49-0.5-1.2-0.73-1.68-0.67h0c-0.41,0.22-0.8,0.8-0.8,1.46c-0.96,0.98-1.5,2.35-0.95,3.98
			C121.72,96.09,117.24,99.3,113.89,103.47z M113.6,105.76c0.15-0.27,0.29-0.48,0.42-0.63c-2.18-2.86-3.65-4.77-3.79-4.95
			c-0.35-0.44-1.26-2.24-0.99-3.69c-2.69-1.25-4.54-2.57-4.54-2.57S108.91,99.53,113.6,105.76z M109.11,111.45
			c0.41-0.24,1.79-1.11,2.64-2.3c0.43-0.61,0.75-1.19,1.02-1.73c-0.03-0.04-0.91-1.17-0.91-1.17
			C110.87,107.93,109.95,109.67,109.11,111.45z M101.58,146.49c0.86,0.73,5.19,4.4,12.02,8.29c0.16-4.08,0.28-18.78,9.06-34.47
			c-1-1.33-1.45-1.92-2.4-3.19c-0.73,0.76-1.64,1.28-3,1.69c0.06-3.11-0.62-4.82-1.48-6.63c-1.25,0.03-3.37,0.08-6.71-0.63
			C104.64,121.02,102.4,131.98,101.58,146.49z M141.65,213.13l0.06-0.13c0.25-0.67,1.38-3.39,1.96-4.77
			c-0.08-0.24-0.16-0.48-0.22-0.71c-0.78,0.13-1.57,0.25-2.36,0.33c-0.53,0.05-8.35,1.26-14.02-1.41c0.69-0.48,1.99-1.55,3.74-2.68
			c0.02-0.12,0.04-0.23,0.06-0.35c-1.36,0.76-2.67,0.89-3.67,0.85c-0.08-0.9,0.15-2.05,0.61-3.37c-1.29,0.29-2.28-0.03-2.28-0.03
			s0.86-2.75,2.71-6.05c1.73-3.08,4.14-6.19,6.21-8.77c0.21-1.02,1.01-1.87,1.09-1.96c0.05-0.06,0.3-0.32,0.34-0.37
			c-0.24-0.2-0.46-0.39-0.67-0.55c-0.23,0.25-0.41,0.36-0.56,0.43c-0.65,0.3-1.05,0.4-1.4,0.42c-0.73,0.03-1.14-0.11-1.39-0.47
			l-0.05-0.09c-0.53-0.14-0.9-0.45-1.03-0.88c-0.03-0.09-0.04-0.18-0.04-0.27c-0.4,0.13-0.68,0.16-1.04-0.14
			c-0.5-0.43,0.2-2.62,2.58-4.89c1.67-1.59,3.25-2.51,4.71-3.15c1.13-0.5,1.79,0.47,1.24,1.13c-0.66,0.79-1.16,2.19-0.5,3.66
			c0.69-0.23,0.95-0.34,1.06-0.38c0.27-0.11,0.59-0.2,0.94-0.66c0.03-0.04,0.07-0.13,0.11-0.25l-1,0.11
			c0.51-1.26-0.28-4.32,0.24-6.31c-0.13,0.09-0.48,0.33-0.68,0.39c-0.36-1.81-0.31-4.68-0.17-6.08c-0.03-0.36-0.53-1-1.23-1.71
			c-0.56,1.43-1.53,3.16-3.17,5.18c-1.26,1.56-3.55,2.97-4.72,7.97c0,0.01-0.01,0.02-0.01,0.03c-0.2,0.79-0.47,1.53-0.83,2.28
			c-0.77,1.58-0.72,2.51-0.72,2.51l0-0.02c0.08,3.16-0.06,9.69-0.83,13.33c-0.68,3.2-1.82,4.83-1.82,4.83l-0.18-0.16
			c-0.29,1.09-0.81,3-2.05,4.5c0,0-1.07-2.13-3.01-18.42c-2.14-17.92-3.22-36.63-3.22-36.63l0.01,0c-0.2-3.31,0.54-7.18,1.49-10.01
			c1.75-4.51,4.76-8.88,6.61-10.69c1.15-1.13,2.44-1.38,3.68-1.15c-0.35-0.47-0.73-0.98-0.73-0.98c-1.23-1.63-2.65-3.43-3.87-5.04
			c-8.75,15.42-8.54,33.82-8.54,33.97l0.01,1.96l-1.54-0.82c-6.89-3.91-9.88-6.27-12.12-8.13c-0.09,1.87-0.28,8.21-0.28,8.21
			c-0.01,0.11,0,1.44,0,3.85c0,7.35,1.32,25.41,7.32,37.81c0.84,1.54,3.08,5.69,7.13,9.49c3.07,2.89,6.66,4.95,10.63,6.22
			c0.23,0.07,0.69,0.23,0.92,0.3C131.76,215.89,136.75,215.59,141.65,213.13z M141.31,218.25c0.91-0.77,2.33-1.32,4.12-0.58
			c0.11-2.16,0.45-5.4,0.92-8.25c-0.72,0.7-1.31,1.03-1.36,1.03c-0.1-0.01-0.23-0.12-0.37-0.3
			C143.25,213.49,141.33,218.2,141.31,218.25z M158.73,219.83c0.1-2.28-0.82-8.4-1.39-11.89c-0.06-0.09-0.13-0.19-0.19-0.28
			c-0.11-0.15-0.23-0.31-0.33-0.48c-0.2,0.7-0.45,1.44-0.78,2.17c-0.39,0.86-1.01,1.76-1.13,1.74c-0.1-0.01-1.74-1.17-2.8-3.45
			c-1.05,2.24-2.67,3.38-2.77,3.39c-0.12,0.01-0.73-0.89-1.12-1.75c-0.18-0.39-0.33-0.78-0.46-1.17c-0.54,3.66-1.34,9.54-1.24,11.71
			c-3.4-2.24-5.46,0-4.76,1.56c0.07,0.14,0.14,0.26,0.23,0.37c0.41,0.54,0.94,0.83,1.69,0.89c1.09,0.07,2.54,0.19,4.18,0.95
			c1.5,0.7,3.12,1.87,4.77,3.92c1.64-2.05,3.27-3.22,4.76-3.92c1.64-0.77,3.09-0.88,4.19-0.95c0.75-0.06,1.27-0.39,1.69-0.89
			c0.09-0.11,0.16-0.24,0.23-0.37C164.19,219.83,162.13,217.59,158.73,219.83z M163.94,218.25c-0.02-0.05-2.07-5.33-3.33-8.54
			c-0.31,0.42-0.6,0.74-0.67,0.74c-0.05,0-0.53-0.27-1.13-0.81c0.47,2.52,0.9,5.67,1.01,8.04
			C161.6,216.92,163.02,217.48,163.94,218.25z M203.17,156.91c-0.03-2.47-0.17-6.51-0.27-8.37c-2.33,1.88-4.53,3.78-11.77,7.94
			l-1.89,1.02l0.01-1.36c0-0.15,0.52-18.52-8.41-34.36c-0.56,0.75-2.44,3.14-4.37,5.6c1.14-0.13,2.3,0.17,3.34,1.2
			c1.85,1.81,4.86,6.18,6.61,10.69c0.95,2.83,1.7,6.7,1.5,10.01l0,0c0,0-1.08,18.71-3.22,36.63c-1.94,16.28-3.01,18.42-3.01,18.42
			c-1.24-1.5-1.76-3.41-2.05-4.5l-0.18,0.16c0,0-1.14-1.63-1.82-4.83c-0.78-3.65-0.91-10.18-0.83-13.33l0,0.02
			c0,0,0.05-0.92-0.72-2.5c-0.36-0.75-0.64-1.48-0.83-2.28c0-0.01-0.01-0.03-0.01-0.03c-1.17-5.01-3.46-6.41-4.72-7.97
			c-1.52-1.87-2.63-3.82-3.31-5.43c-0.04,0.03-0.07,0.06-0.12,0.1c-0.84,0.8-1.46,1.61-1.48,2.06c0.28,2.92,0.55,5.01,0.12,6.49
			c-0.18-0.09-0.46-0.38-0.62-0.5c0.2,1.93-0.72,4.17-0.14,5.95l-1.14-0.15c0.05,0.13,0.09,0.23,0.12,0.28
			c0.16,0.22,0.31,0.35,0.58,0.5c0.05,0.03,0.28,0.14,0.37,0.18c0.1,0.04,0.39,0.15,1.18,0.41c0.66-1.46,0.15-2.86-0.5-3.64
			c-0.55-0.66,0.11-1.63,1.24-1.13c1.46,0.64,3.04,1.56,4.71,3.14c2.39,2.27,3.09,4.46,2.58,4.89c-0.39,0.34-0.69,0.26-1.16,0.1
			c0,0.08-0.01,0.17-0.04,0.25c-0.13,0.43-0.49,0.74-1.03,0.89l-0.05,0.09c-0.25,0.36-0.67,0.49-1.39,0.47
			c-0.62-0.01-1.3-0.37-1.4-0.42c-0.13-0.06-0.28-0.16-0.47-0.34c-0.14,0.11-0.28,0.22-0.42,0.34c1.89,2.55,5.51,6.75,8.1,11.36
			c1.85,3.3,2.71,6.05,2.71,6.05s-0.99,0.32-2.28,0.03c0.46,1.32,0.7,2.48,0.61,3.37c-1,0.03-2.31-0.09-3.67-0.86
			c0.04,0.21,0.08,0.43,0.11,0.64c1.16,0.84,2.46,1.79,3.03,2.19c-5.67,2.66-13.89,1.44-14.05,1.42c-0.39-0.05-0.75-0.11-1.06-0.15
			c-0.06,0.14-0.13,0.33-0.2,0.52c0.56,1.32,1.85,4.38,2.13,4.99c3.6,1.65,6.96,2.73,12.12,1.87c0,0,0.88-0.08,3.08-0.83
			c2.26-0.76,6.5-3.24,9.75-6.3c4.05-3.8,6.51-7.8,7.31-9.37c6.28-12.26,7.31-30.46,7.31-37.81
			C203.16,158.32,203.17,157.02,203.17,156.91z"/>
	</g>
	<g>
		<g>
			<path d="M226.33,169.03h6.27c2.6,0,4.46,0.93,5.48,3.11c0.82,1.72,0.9,5.79,0.9,6.44c0,4.35-0.39,6.86-1.24,8.22
				c-1.1,1.75-3.16,2.63-6.72,2.63h-4.69V169.03z M228.93,187.16h2.46c3.61,0,4.94-1.36,4.94-6.1v-4.12c0-4.12-1.27-5.65-3.98-5.65
				h-3.42V187.16z"/>
			<path d="M243.53,189.42v-20.39h10.51v2.26h-7.91v6.55h7.34v2.26h-7.34v7.06h8.08v2.26H243.53z"/>
			<path d="M257.98,189.42v-20.39h6.04c2.74,0,5.68,1.02,5.68,5.82c0,4.63-3.61,5.59-5.7,5.59h-3.42v8.98H257.98z M260.58,178.18
				h2.85c1.07,0,3.61-0.28,3.61-3.47c0-3.11-2.31-3.42-2.88-3.42h-3.59V178.18z"/>
			<path d="M276.54,169.03h3.31l6.64,20.39h-2.91l-1.47-4.86h-7.88l-1.53,4.86h-2.63L276.54,169.03z M278.12,171.43h-0.06
				l-3.19,10.87h6.52L278.12,171.43z"/>
			<path d="M291.73,180.05v9.38h-2.6v-20.39h7.03c3.61,0,4.89,2.54,4.89,5.08c0,2.4-1.33,4.24-3.73,4.66v0.06
				c2.34,0.37,3.19,1.16,3.33,5.25c0.03,0.88,0.31,4.07,0.71,5.34h-2.71c-0.73-1.41-0.56-4.07-0.79-6.78c-0.2-2.48-2.2-2.6-3.08-2.6
				H291.73z M291.73,177.79h3.9c1.86,0,2.77-1.61,2.77-3.39c0-1.47-0.73-3.11-2.74-3.11h-3.93V177.79z"/>
			<path d="M316.33,169.03v2.26h-5.36v18.13h-2.6v-18.13H303v-2.26H316.33z"/>
			<path d="M321.47,189.42h-2.43v-20.39h4.21l5.14,17.11h0.06l5.2-17.11h4.29v20.39h-2.6v-18.13h-0.06l-5.7,18.13h-2.46l-5.59-18.13
				h-0.06V189.42z"/>
			<path d="M342.54,189.42v-20.39h10.51v2.26h-7.91v6.55h7.34v2.26h-7.34v7.06h8.08v2.26H342.54z"/>
			<path d="M370.78,169.03v20.39h-3.56l-8.05-17.68h-0.06v17.68h-2.31v-20.39h3.67l7.93,17.45h0.06v-17.45H370.78z"/>
			<path d="M386.93,169.03v2.26h-5.36v18.13h-2.6v-18.13h-5.37v-2.26H386.93z"/>
			<path d="M395.79,181.97v-6.69c0-4.07,2.09-6.67,6.41-6.67c4.32,0,6.41,2.6,6.41,6.67v6.69c0,5.65-2.09,7.88-6.41,7.88
				C397.89,189.85,395.79,187.62,395.79,181.97z M405.96,182.08v-6.89c0-4.26-2.94-4.41-3.76-4.41s-3.75,0.14-3.75,4.41v6.89
				c0,4.46,1.3,5.59,3.75,5.59S405.96,186.54,405.96,182.08z"/>
			<path d="M412.93,189.42v-20.39h10.11v2.26h-7.51v6.55h7.12v2.26h-7.12v9.32H412.93z"/>
			<path d="M432.11,189.42v-20.39h2.6v8.81h7.14v-8.81h2.6v20.39h-2.6v-9.32h-7.14v9.32H432.11z"/>
			<path d="M449.19,189.42v-20.39h10.51v2.26h-7.91v6.55h7.34v2.26h-7.34v7.06h8.08v2.26H449.19z"/>
			<path d="M467.92,169.03h3.31l6.64,20.39h-2.91l-1.47-4.86h-7.88l-1.53,4.86h-2.63L467.92,169.03z M469.5,171.43h-0.06
				l-3.19,10.87h6.52L469.5,171.43z"/>
			<path d="M480.57,189.42v-20.39h2.6v18.13h7.48v2.26H480.57z"/>
			<path d="M502.85,169.03v2.26h-5.37v18.13h-2.6v-18.13h-5.37v-2.26H502.85z"/>
			<path d="M505.71,189.42v-20.39h2.6v8.81h7.14v-8.81h2.6v20.39h-2.6v-9.32h-7.14v9.32H505.71z"/>
		</g>
		<g>
			<g>
				<path d="M236.26,128.54c0.45,0,0.83-0.16,1.15-0.48c0.32-0.32,0.48-0.7,0.48-1.15c0-0.45-0.16-0.83-0.48-1.15
					c-0.32-0.32-0.7-0.48-1.15-0.48c-0.45,0-0.83,0.16-1.15,0.48c-0.32,0.32-0.48,0.7-0.48,1.15c0,0.45,0.16,0.83,0.48,1.15
					C235.43,128.39,235.81,128.54,236.26,128.54z"/>
				<path d="M230.86,128.54c0.45,0,0.83-0.16,1.15-0.48c0.32-0.32,0.48-0.7,0.48-1.15c0-0.45-0.16-0.83-0.48-1.15
					c-0.32-0.32-0.7-0.48-1.15-0.48c-0.45,0-0.83,0.16-1.15,0.48c-0.32,0.32-0.48,0.7-0.48,1.15c0,0.45,0.16,0.83,0.48,1.15
					C230.03,128.39,230.41,128.54,230.86,128.54z"/>
				<path d="M379.91,122.95v22.75h-2.15h-8.6h0h-8.6h-8.6c-0.02,0-0.03,0.01-0.05,0.01v-0.01h-2.15v-13.81l-1.34,0.05
					c-2.29,0.1-4.32,0.41-6.09,0.93s-3.32,1.17-4.66,1.93c-1.34,0.77-2.48,1.62-3.42,2.56c-0.94,0.94-1.71,1.89-2.32,2.84v-4.73
					h-2.48v10.23h-2.87h-8.6h-8.6h-8.6h-8.6h-0.81c-0.35,0-0.64-0.04-0.88-0.12c-0.24-0.08-0.45-0.2-0.64-0.36
					c-0.16-0.1-0.3-0.25-0.43-0.46c-0.13-0.21-0.25-0.54-0.38-1c-0.13-0.46-0.24-1.07-0.34-1.82c-0.1-0.75-0.19-1.73-0.29-2.94
					c-0.35-4.91-2.63-7.36-6.83-7.36c-1.02,0-1.96,0.17-2.82,0.5c-0.86,0.34-1.59,0.73-2.2,1.17l1.53,1.96
					c1.18-0.77,2.33-1.15,3.44-1.15c0.48,0,0.96,0.05,1.43,0.14s0.92,0.31,1.34,0.64c0.41,0.33,0.76,0.84,1.05,1.5
					c0.29,0.67,0.48,1.6,0.57,2.77c0.1,1.62,0.23,2.96,0.41,3.99c0.18,1.04,0.42,1.87,0.74,2.51h-12.52h0h-8.6h-8.6h-8.6h-8.6h-1.58
					c-0.38,0-0.57-0.22-0.57-0.67v-14.1c-0.8,0.22-1.85,0.6-3.15,1.12c-1.31,0.53-2.59,1.23-3.85,2.13
					c-1.26,0.89-2.35,1.98-3.27,3.27c-0.92,1.29-1.39,2.81-1.39,4.56c0,0.67,0.09,1.36,0.28,2.08c0.19,0.72,0.56,1.39,1.1,2.01
					c0.55,0.62,1.32,1.16,2.32,1.6c1,0.45,2.31,0.72,3.94,0.81l0.19-2.49c-1.85-0.16-3.2-0.52-4.06-1.07
					c-0.86-0.56-1.29-1.54-1.29-2.94c0-1.02,0.24-1.93,0.72-2.72c0.48-0.8,1.06-1.5,1.73-2.1c0.67-0.6,1.4-1.12,2.17-1.55
					c0.77-0.43,1.44-0.79,2.02-1.08l0.05,10.46c0,1.02,0.25,1.8,0.75,2.34c0.5,0.54,1.16,0.81,1.97,0.81h1.91h8.6h8.6h8.6h8.6h0
					h17.63h8.6h8.6h8.6h8.6h25.33v-0.01c0.02,0,0.03,0.01,0.05,0.01h8.6h8.6h0h8.6h4.64v-25.23H379.91z M347.27,145.7h-15.2
					c0.19-0.67,0.55-1.58,1.08-2.75c0.53-1.16,1.37-2.32,2.52-3.49c1.15-1.16,2.66-2.21,4.53-3.13c1.87-0.92,4.23-1.51,7.07-1.77
					V145.7z"/>
			</g>
			<path d="M386.21,123.1h2.49v25.09h-2.49V123.1z"/>
			<path d="M411.25,148.19h-2.63c-0.83,0-1.76-0.11-2.8-0.33c-1.04-0.22-2.01-0.59-2.91-1.1c-0.91-0.51-1.67-1.19-2.3-2.03
				c-0.62-0.84-0.93-1.89-0.93-3.13c0-1.15,0.22-2.19,0.67-3.13c0.45-0.94,1.02-1.78,1.72-2.53c0.7-0.75,1.49-1.41,2.37-1.98
				c0.88-0.57,1.74-1.06,2.6-1.46c0.86-0.4,1.66-0.72,2.41-0.96c0.75-0.24,1.34-0.41,1.79-0.5V148.19z M408.77,145.61v-11.09
				c-0.57,0.26-1.24,0.59-2.01,1c-0.76,0.42-1.48,0.92-2.15,1.51c-0.67,0.59-1.24,1.27-1.72,2.03c-0.48,0.77-0.72,1.62-0.72,2.58
				c0,0.73,0.21,1.35,0.62,1.86c0.41,0.51,0.94,0.92,1.58,1.24c0.64,0.32,1.32,0.54,2.06,0.67c0.73,0.13,1.42,0.19,2.05,0.19H408.77
				z M406.19,126.92c0,0.45-0.16,0.83-0.48,1.15c-0.32,0.32-0.7,0.48-1.15,0.48c-0.45,0-0.83-0.16-1.15-0.48
				c-0.32-0.32-0.48-0.7-0.48-1.15c0-0.45,0.16-0.83,0.48-1.15c0.32-0.32,0.7-0.48,1.15-0.48c0.45,0,0.83,0.16,1.15,0.48
				C406.03,126.09,406.19,126.47,406.19,126.92z M411.59,126.92c0,0.45-0.16,0.83-0.48,1.15c-0.32,0.32-0.7,0.48-1.15,0.48
				c-0.45,0-0.83-0.16-1.15-0.48c-0.32-0.32-0.48-0.7-0.48-1.15c0-0.45,0.16-0.83,0.48-1.15s0.7-0.48,1.15-0.48
				c0.45,0,0.83,0.16,1.15,0.48S411.59,126.47,411.59,126.92z"/>
			<g>
				<path d="M492.52,129.52c-0.48-0.27-0.72-0.72-0.72-1.33c0-0.42,0.13-0.71,0.38-0.87c0.25-0.16,0.59-0.24,1-0.24
					c0.64,0,1.32,0.16,2.06,0.48l0.48-1.21c-0.86-0.35-1.72-0.53-2.58-0.53c-0.64,0-1.23,0.18-1.77,0.53
					c-0.54,0.35-0.81,0.97-0.81,1.84c0,0.39,0.06,0.76,0.19,1.11c0.13,0.35,0.25,0.56,0.38,0.63h-2.06v1.24h6.4v-1.24h-1.19
					C493.59,129.93,493,129.79,492.52,129.52z"/>
				<path d="M492.24,145.7h-4.78h-8.6h-8.6h0h-7.05h-8.6H446h-8.6h-8.6h-8.6h0h-2.15v-12.23h-2.49v15.82c0,0.86-0.03,1.69-0.1,2.49
					c-0.06,0.8-0.23,1.5-0.5,2.13c-0.27,0.62-0.68,1.12-1.22,1.51c-0.54,0.38-1.27,0.57-2.2,0.57v2.49c1.47,0,2.63-0.28,3.49-0.84
					c0.86-0.56,1.51-1.28,1.96-2.17c0.45-0.89,0.73-1.88,0.86-2.96c0.13-1.08,0.19-2.15,0.19-3.2v-1.1h2.15h0h8.6h8.6h8.6h8.6h8.6
					h7.05h0h8.6h8.6h7.26v-14.72h-2.48V145.7z"/>
			</g>
			<path d="M498.59,123.1h2.49v25.09h-2.49V123.1z"/>
			<path d="M504.33,133.95c0.64-0.54,1.45-1.05,2.44-1.53c0.99-0.48,2.17-0.72,3.54-0.72c1.27,0,2.39,0.26,3.35,0.79
				c0.95,0.53,1.75,1.22,2.37,2.08c0.63,0.86,1.1,1.84,1.41,2.94c0.31,1.1,0.47,2.22,0.47,3.37c0,0.86-0.07,1.69-0.21,2.49
				c-0.14,0.8-0.31,1.51-0.52,2.15c-0.2,0.64-0.41,1.19-0.63,1.65c-0.22,0.46-0.39,0.8-0.52,1.03h-11.84v-2.48h10.28
				c0.19-0.48,0.4-1.12,0.62-1.91c0.22-0.8,0.33-1.77,0.33-2.92c0-0.89-0.12-1.74-0.36-2.56c-0.24-0.81-0.57-1.52-1-2.13
				c-0.43-0.6-0.97-1.09-1.62-1.46c-0.65-0.37-1.38-0.55-2.17-0.55c-0.67,0-1.35,0.12-2.05,0.36c-0.7,0.24-1.5,0.68-2.39,1.31
				L504.33,133.95z"/>
		</g>
	</g>
</g>
</svg>
