<svg width="24" height="24" viewBox="0 0 24 24" fill="none" xmlns="http://www.w3.org/2000/svg">
<path d="M14.4 16.75C14.4 16.253 13.997 15.85 13.5 15.85H10.5C10.003 15.85 9.6 16.253 9.6 16.75C9.6 17.247 10.003 17.65 10.5 17.65H13.5C13.997 17.65 14.4 17.247 14.4 16.75ZM17.4 11.75C17.4 11.253 16.997 10.85 16.5 10.85H7.5C7.00295 10.85 6.6 11.253 6.6 11.75C6.6 12.247 7.00295 12.65 7.5 12.65H16.5C16.997 12.65 17.4 12.247 17.4 11.75ZM20.4 6.75C20.4 6.25295 19.997 5.85 19.5 5.85H4.5C4.00295 5.85 3.6 6.25295 3.6 6.75C3.6 7.24705 4.00295 7.65 4.5 7.65H19.5C19.997 7.65 20.4 7.24705 20.4 6.75Z" fill="#555770" stroke="#555770" stroke-width="0.3"/>
</svg>
