<svg width="12" height="12" viewBox="0 0 12 12" fill="none" xmlns="http://www.w3.org/2000/svg">
<path d="M6 0C7.5913 0 9.11742 0.632141 10.2426 1.75736C11.3679 2.88258 12 4.4087 12 6C12 7.5913 11.3679 9.11742 10.2426 10.2426C9.11742 11.3679 7.5913 12 6 12C4.4087 12 2.88258 11.3679 1.75736 10.2426C0.632141 9.11742 0 7.5913 0 6C0 4.4087 0.632141 2.88258 1.75736 1.75736C2.88258 0.632141 4.4087 0 6 0ZM6.89994 3.68374C7.34562 3.68374 7.70731 3.37433 7.70731 2.91579C7.70731 2.45725 7.34476 2.14785 6.89994 2.14785C6.45425 2.14785 6.09428 2.45725 6.09428 2.91579C6.09428 3.37433 6.45425 3.68374 6.89994 3.68374ZM7.05678 8.50653C7.05678 8.41483 7.08849 8.17656 7.07049 8.04114L6.36597 8.85194C6.22027 9.00536 6.03771 9.11163 5.952 9.08335C5.91312 9.06904 5.88062 9.04133 5.86035 9.00519C5.84008 8.96905 5.83337 8.92686 5.84144 8.88622L7.01564 5.17677C7.11164 4.70623 6.84765 4.27684 6.28798 4.22198C5.69745 4.22198 4.82837 4.82108 4.29955 5.58132C4.29955 5.67217 4.28241 5.89844 4.30041 6.03385L5.00407 5.2222C5.14978 5.07049 5.31948 4.96336 5.40519 4.9925C5.44741 5.00766 5.48201 5.03876 5.50156 5.07914C5.52111 5.11953 5.52405 5.16596 5.50975 5.20849L4.34583 8.89993C4.21127 9.3319 4.46582 9.7553 5.08292 9.8513C5.99143 9.8513 6.52796 9.26677 7.05764 8.50653H7.05678Z" fill="#505050"/>
</svg>
