<svg width="18" height="18" viewBox="0 0 18 18" fill="none" xmlns="http://www.w3.org/2000/svg">
<path d="M10.2002 2L6.1002 6.2C5.9002 6.5 5.7002 6.9 5.7002 7.3V14.8C5.7002 15.6 6.4002 16.3 7.2002 16.3H13.3002C13.9002 16.3 14.4002 15.9 14.7002 15.4L17.1002 9.7C17.7002 8.2 16.6002 6.6 15.1002 6.6H11.5002L12.2002 3.2C12.3002 2.8 12.2002 2.4 11.9002 2.2C11.4002 1.6 10.7002 1.6 10.2002 2Z" stroke="#4EAF51" stroke-width="1.5" stroke-linejoin="round"/>
<path d="M2.2002 16.3C3.0002 16.3 3.7002 15.6 3.7002 14.8V11.8V8.60001C3.7002 7.80001 3.1002 7.10001 2.2002 7.10001C1.4002 7.10001 0.700195 7.80001 0.700195 8.60001V14.8C0.800195 15.6 1.4002 16.3 2.2002 16.3Z" stroke="#4EAF51" stroke-width="1.5" stroke-linejoin="round"/>
</svg>
