<?xml version="1.0" encoding="UTF-8"?>
<svg id="Layer_1" data-name="Layer 1" xmlns="http://www.w3.org/2000/svg" xmlns:xlink="http://www.w3.org/1999/xlink" version="1.1" viewBox="0 0 346 78">
  <defs>
    <style>
      .cls-1 {
        fill: #24a2a5;
      }

      .cls-1, .cls-2, .cls-3, .cls-4, .cls-5, .cls-6, .cls-7, .cls-8, .cls-9, .cls-10, .cls-11, .cls-12, .cls-13 {
        stroke-width: 0px;
      }

      .cls-2 {
        fill: #575e77;
      }

      .cls-3 {
        fill: #414042;
      }

      .cls-4 {
        fill: #026b97;
      }

      .cls-14 {
        clip-path: url(#clippath);
      }

      .cls-5 {
        fill: none;
      }

      .cls-6 {
        fill: #ea4d2a;
      }

      .cls-7 {
        fill: #4b5eab;
      }

      .cls-8 {
        fill: #1b75bc;
      }

      .cls-15 {
        clip-path: url(#clippath-1);
      }

      .cls-16 {
        clip-path: url(#clippath-3);
      }

      .cls-17 {
        clip-path: url(#clippath-2);
      }

      .cls-9 {
        fill: #7f7f7f;
      }

      .cls-10 {
        fill: #2bb673;
      }

      .cls-11 {
        fill: #43c0d2;
      }

      .cls-12 {
        fill: #fff;
      }

      .cls-13 {
        fill: #553b8a;
      }
    </style>
    <clipPath id="clippath">
      <rect class="cls-5" width="346" height="78"/>
    </clipPath>
    <clipPath id="clippath-1">
      <rect class="cls-5" x="1" y="1" width="345" height="77"/>
    </clipPath>
    <clipPath id="clippath-2">
      <rect class="cls-5" x="1" y="1" width="345" height="77"/>
    </clipPath>
    <clipPath id="clippath-3">
      <rect class="cls-5" x="1" y="1" width="345" height="77"/>
    </clipPath>
  </defs>
  <g class="cls-14">
    <g class="cls-15">
      <g class="cls-17">
        <g class="cls-16">
          <g>
            <path class="cls-12" d="M93.6,35.9c-1.9-.7-3-1.2-3.2-1.5-.3-.2-.4-.5-.4-.7,0-.9.7-1.4,2-1.4s3.8.6,5.9,1.9v-3.9c-1.7-.9-3.6-1.3-5.7-1.3s-4,.5-5.3,1.5c-1.4,1-2,2.3-2,3.9s.3,2.1,1.1,2.9c.7.9,2,1.7,3.9,2.4,1.9.7,3,1.3,3.4,1.6.3.3.5.6.5,1,0,.9-.9,1.3-2.7,1.3s-3.5-.5-5.7-1.5v3.9c1.9.9,4,1.3,6.4,1.3s4.1-.5,5.4-1.5c1.3-1,1.9-2.4,1.9-4.2s-.4-2.2-1.2-3.2c-.8-1-2.1-1.8-4-2.6Z"/>
            <path class="cls-3" d="M117.9,29.4h5.3v3.8h-5.3v-3.8Z"/>
            <path class="cls-12" d="M150.1,42.5v-8.1c0-3.6-2.5-5.4-7.5-5.4s-5.4.7-7.7,2.2v4.5c2-2,4.2-2.9,6.5-2.9s3.2,1,3.1,2.9c-5,1.5-8.1,2.7-9.1,3.6-1,.9-1.5,2.2-1.5,3.7s.5,2.2,1.4,3c1,.9,2.1,1.3,3.5,1.3,2,0,3.9-.7,5.8-2,.3,1.3,1.4,2,3.1,2s3.4-.5,5.2-1.6v-3.1c-.9.7-1.6,1-2.1,1-.6,0-.9-.4-.9-1.2ZM144.5,42.8c-1,.9-2,1.3-3.1,1.3s-.9-.2-1.3-.6c-.3-.4-.5-.8-.5-1.3,0-.8.3-1.5,1-2,.7-.5,2-1.1,3.8-1.8v4.3Z"/>
            <path class="cls-12" d="M161.7,23.9h-.7l-7.4,8.3v1.1h2.5v7.6c0,2.2.6,3.8,1.8,4.9,1.2,1.1,2.9,1.7,5.1,1.7s3.4-.4,5.2-1.1v-4c-1.3.7-2.6,1-3.7,1s-1.5-.3-2-.8c-.5-.5-.7-1.2-.7-2.1v-7.3h6.5v-3.8h-6.5v-5.5h0Z"/>
            <path class="cls-12" d="M186.3,31.8c-1.8-1.8-4-2.7-6.7-2.7s-5,.9-6.7,2.6c-1.8,1.7-2.6,4-2.6,6.6s.9,5,2.8,6.6c1.9,1.7,4.4,2.5,7.5,2.5s5.8-.8,7.9-2.3v-3.5c-2.3,1.7-4.5,2.5-6.6,2.5s-3.1-.4-4.1-1.3c-1-.9-1.6-2.1-1.7-3.7h12.8c.1-3.1-.7-5.5-2.5-7.4ZM176.1,36.2c.3-2.6,1.6-3.8,3.9-3.8s3.6,1.3,3.9,3.8h-7.7Z"/>
            <path class="cls-12" d="M225.5,29.4l-4,9.1-3.8-9.1h-2.7s-6.9,0-6.9,0h0s-8.2,0-8.2,0c-2.6,0-4.6.7-5.9,1.9-1.4,1.3-2,2.8-2,4.5s.5,2.6,1.4,3.6c.9,1,2.1,1.6,3.6,1.9-2.2.5-3.2,1.4-3.2,2.7s.7,1.9,2.1,2.3c-3.2.8-4.7,2.3-4.7,4.5s.8,2.8,2.4,3.7c1.6.9,4,1.4,7.1,1.4s5.4-.5,7-1.5c1.6-1,2.4-2.5,2.4-4.4s-.5-2.3-1.4-3.4c-.9-1.1-2.6-1.7-5-1.9s-3.8-.4-4.1-.6c-.3-.2-.5-.4-.5-.8s.1-.6.4-.8c.3-.2,1.4-.4,3.4-.6,2-.2,3.5-.9,4.6-2.1,1-1.2,1.5-2.4,1.5-3.8s-.3-1.9-.9-2.9h5.6l5.2,11-5.2,11.3h6l11.9-26.1h-5.8ZM200.5,48.4c2.9,0,4.4.6,4.4,1.9s-.4,1.1-1.1,1.6c-.7.4-1.7.7-2.9.7-3,0-4.6-.7-4.6-2.1s.4-1.1,1.1-1.5c.7-.4,1.8-.6,3.1-.6ZM202.7,38.1c-.6.7-1.4,1-2.3,1s-1.6-.3-2.3-.9c-.6-.6-1-1.4-1-2.2s.3-1.7.9-2.3c.6-.6,1.4-.9,2.3-.9s1.7.3,2.3.9c.6.6.9,1.3.9,2.1,0,.9-.3,1.7-.9,2.4Z"/>
            <path class="cls-12" d="M111.1,43.3c-.9,0-1.5-.3-2-.8-.5-.5-.7-1.2-.7-2.1v-7.3h.3s5.6,0,5.6,0h.2v-3.8h-6.2v-5.5h-.7l-7.4,8.3v1.1h2.5v7.6c0,2.2.6,3.8,1.8,4.9,1.2,1.1,2.9,1.7,5.1,1.7s3.4-.4,5.2-1.1v-4c-1.3.7-2.6,1-3.7,1Z"/>
            <path class="cls-12" d="M129.2,29c-2.2,0-4,1.8-5.7,5.4v-1c0,0,0-4.1,0-4.1h-.3s-5.3,0-5.3,0v3.8h0v13.9h5.6v-7.6c0-.3.4-1.2,1.3-2.8.9-1.6,2-2.4,3.3-2.4s1.9.4,3.3,1.3l1.5-4.9c-1.4-1.1-2.7-1.6-3.7-1.6Z"/>
            <path class="cls-12" d="M277.8,29.8h14.8l-9.2,14h9.2v3.2h-15.2l9.1-14h-8.7v-3.2Z"/>
            <path class="cls-12" d="M310.2,38.7h-12.2c0,1.6.6,2.9,1.7,3.9,1,1,2.3,1.5,4,1.5s4.3-.7,6.2-2.1v3.3c-1.1.7-2.1,1.2-3.1,1.5-1,.3-2.2.4-3.6.4s-3.4-.4-4.6-1.2c-1.2-.8-2.1-1.8-2.8-3.2-.7-1.3-1.1-2.9-1.1-4.6,0-2.6.7-4.7,2.2-6.4,1.5-1.6,3.4-2.5,5.8-2.5s4.1.8,5.5,2.4c1.4,1.6,2.1,3.7,2.1,6.4v.4h0ZM298.1,36.6h8.7c0-1.4-.5-2.4-1.2-3.1-.7-.7-1.7-1.1-2.9-1.1s-2.2.4-3,1.1c-.8.7-1.3,1.8-1.5,3.1Z"/>
            <path class="cls-12" d="M317.6,29.8v3.9l.2-.3c1.7-2.7,3.3-4,5-4s2.6.7,4,1.9l-1.8,3c-1.2-1.1-2.3-1.7-3.3-1.7s-2.1.5-2.9,1.6c-.8,1.1-1.2,2.3-1.2,3.7v9h-3.4v-17.2h3.4Z"/>
            <path class="cls-12" d="M336.5,29.7c2.6,0,4.8.8,6.6,2.5,1.7,1.7,2.6,3.8,2.6,6.4s-.9,4.5-2.6,6.2c-1.8,1.6-4,2.5-6.7,2.5s-4.8-.8-6.5-2.5c-1.7-1.7-2.6-3.7-2.6-6.2s.9-4.6,2.6-6.3c1.8-1.7,4-2.5,6.6-2.5ZM336.3,32.8c-1.6,0-3,.5-4,1.6-1,1.1-1.6,2.4-1.6,4.1s.5,3,1.6,4c1.1,1,2.5,1.6,4.2,1.6s3.1-.5,4.1-1.6c1.1-1.1,1.6-2.4,1.6-4.1s-.6-3-1.7-4.1c-1.1-1.1-2.5-1.6-4.2-1.6Z"/>
            <path class="cls-12" d="M264.8,44.5c-.2-.2-.4-.3-.5-.6-.1-.2-.2-.5-.3-.8,0-.3-.1-1-.1-1.9v-4.6h-1.8v-.2l3.9-3.8v2.2h2.8c-1.6-6.6-7.6-11.5-14.7-11.5s-14.3,6-15.1,13.6c.2-.3.4-.6.7-.8,1-1,2.2-1.5,3.7-1.5s1.5.1,2.3.4v-5.6h2.1v15.9h-4.4c-1.3,0-2.3-.3-3.2-1,2.3,5.3,7.7,9.1,13.9,9.1s10.8-3.2,13.3-7.9c0,0-.1,0-.2,0-1,0-1.8-.3-2.4-.8ZM259.6,43.8c-1.1,1-2.4,1.5-4.1,1.5s-2.9-.5-4-1.5c-1.1-1-1.6-2.3-1.6-3.8s.5-2.8,1.6-3.8c1.1-1,2.4-1.5,4-1.5s2.9.5,4,1.5c1.1,1,1.6,2.3,1.6,3.9,0,1.5-.5,2.7-1.6,3.7Z"/>
            <path class="cls-12" d="M255.5,36.5c-1,0-1.8.3-2.5,1-.6.7-1,1.5-1,2.5s.3,1.8,1,2.4c.7.6,1.5.9,2.5.9s1.9-.3,2.5-1c.6-.6,1-1.5,1-2.4s-.3-1.8-1-2.5c-.7-.7-1.5-1-2.6-1Z"/>
            <path class="cls-12" d="M245.7,43.3v-6.6c-.7-.3-1.3-.5-2-.5-1,0-1.9.3-2.5,1-.6.7-.9,1.6-.9,2.7s.3,1.9.8,2.5c.3.3.7.6,1,.7.4.1,1,.2,1.9.2h1.6Z"/>
            <path class="cls-12" d="M266,41.6c0,1.2.5,1.8,1.5,1.8s.5,0,.8,0c.6-1.6.9-3.3.9-5.2s0-1.1-.1-1.6h-3.1v5.1Z"/>
            <path class="cls-9" d="M61.7,23.3c-5.3-6.3-13.1-10-21.4-10s-5.9.5-8.7,1.4l-.4-1.2c2.9-1,6-1.4,9.1-1.4,8.7,0,16.9,3.8,22.5,10.5l-1,.8Z"/>
            <path class="cls-2" d="M15.2,55.7l-.5-.4,7.1-8.8.5.4-7.1,8.8Z"/>
            <path class="cls-2" d="M32.2,58.7c-5.3-2.1-9.3-6.4-11.2-11.7l1.3-.4c1.7,5,5.5,9,10.4,10.9l-.5,1.2Z"/>
            <path class="cls-2" d="M46.9,58.7l-.5-1.2c6.9-2.8,11.4-9.4,11.4-16.8s-.2-2.9-.5-4.3l1.3-.3c.4,1.5.6,3.1.6,4.6,0,8-4.8,15.1-12.3,18Z"/>
            <path class="cls-2" d="M23.4,32.2l-1.2-.6c2.6-4.9,7.1-8.4,12.5-9.8l.3,1.3c-5,1.3-9.2,4.6-11.6,9.1Z"/>
            <path class="cls-2" d="M39.6,69.7c-5.5,0-10.8-1.5-15.4-4.3-3.8-2.4-7.1-5.6-9.5-9.4-2.9-4.6-4.4-9.9-4.4-15.3s.3-4.8.9-7.2l1.3.3c-.6,2.2-.9,4.5-.9,6.8,0,5.2,1.4,10.2,4.2,14.6,2.3,3.6,5.4,6.7,9.1,9,4.4,2.7,9.5,4.2,14.7,4.2s7.4-.7,10.9-2.2l.5,1.2c-3.6,1.5-7.4,2.3-11.4,2.3Z"/>
            <path class="cls-2" d="M63.7,58.6l-1-.8c2.2-3,3.8-6.3,4.8-9.8.6-2.2.9-4.5.9-6.8,0-5.2-1.4-10.2-4.2-14.6-2.3-3.6-5.4-6.7-9.1-9-4.4-2.7-9.5-4.2-14.7-4.2s-7.4.7-10.9,2.2l-.5-1.2c3.6-1.5,7.4-2.3,11.4-2.3s10.8,1.5,15.4,4.3c3.8,2.4,7.1,5.6,9.5,9.4,2.9,4.6,4.4,9.8,4.4,15.3s-.3,4.8-.9,7.2c-1,3.8-2.6,7.2-5,10.3Z"/>
            <path class="cls-2" d="M50.6,26.5l-.6-.3,5.7-9.6.6.3-5.7,9.6Z"/>
            <path class="cls-2" d="M62.1,57.3l-6.7-8.7,11.5-.7v.7c0,0-10.3.6-10.3.6l5.9,7.8-.5.4Z"/>
            <path class="cls-2" d="M40,40.5l-.5-.4,10.5-14.5-2.8-12.1h.6c0-.1,2.9,12.3,2.9,12.3l-10.7,14.7Z"/>
            <path class="cls-2" d="M22.8,47.3l-11.5-.7v-.7s11.4.6,11.4.6l15.8-5.8-15.1-8.7.3-.6,16.3,9.4-17.2,6.3Z"/>
            <path class="cls-2" d="M31.4,14.1l.6-.2,2.8,9.2-.6.2-2.8-9.2Z"/>
            <path class="cls-2" d="M2.3,1003"/>
            <path class="cls-2" d="M2.3,1003"/>
            <path class="cls-2" d="M2.3,1003"/>
            <path class="cls-2" d="M2.3,1003"/>
            <path class="cls-2" d="M24.3,32.5l-11.3-.6v-.6s11.3.5,11.3.5v.7Z"/>
            <path class="cls-2" d="M22.6,33l-6.9-9.3.5-.4,6.8,9.3-.5.4Z"/>
            <path class="cls-2" d="M38.9,41.3l.6-.3,11.6,25.8-.6.3-11.6-25.8Z"/>
            <path class="cls-2" d="M2.3,1003"/>
            <path class="cls-1" d="M55.1,26c0,2.6-2.2,4.8-4.8,4.8s-4.8-2.2-4.8-4.8,2.2-4.8,4.8-4.8c2.7,0,4.8,2.2,4.8,4.8Z"/>
            <path class="cls-11" d="M62.8,36.4c0,2.7-2.2,4.8-4.8,4.8s-4.8-2.1-4.8-4.8,2.2-4.8,4.8-4.8,4.8,2.1,4.8,4.8Z"/>
            <path class="cls-10" d="M60.9,48.9c0,2.6-2.2,4.8-4.8,4.8s-4.8-2.1-4.8-4.8,2.2-4.8,4.8-4.8c2.7,0,4.8,2.2,4.8,4.8Z"/>
            <path class="cls-13" d="M37.9,58c0,2.6-2.2,4.8-4.8,4.8s-4.8-2.1-4.8-4.8,2.2-4.8,4.8-4.8,4.8,2.2,4.8,4.8Z"/>
            <path class="cls-6" d="M51.1,58c0,2.6-2.2,4.8-4.8,4.8s-4.8-2.1-4.8-4.8,2.2-4.8,4.8-4.8,4.8,2.1,4.8,4.8Z"/>
            <path class="cls-4" d="M26.9,46.7c0,2.6-2.2,4.8-4.8,4.8s-4.8-2.1-4.8-4.8,2.2-4.8,4.8-4.8,4.8,2.1,4.8,4.8Z"/>
            <path class="cls-7" d="M27.9,31.9c0,2.6-2.2,4.8-4.8,4.8s-4.8-2.1-4.8-4.8,2.2-4.8,4.8-4.8,4.8,2.2,4.8,4.8Z"/>
            <path class="cls-8" d="M39.1,23.3c0,2.7-2.2,4.8-4.8,4.8s-4.8-2.1-4.8-4.8,2.2-4.8,4.8-4.8c2.7,0,4.8,2.1,4.8,4.8Z"/>
            <path class="cls-7" d="M15.4,31.6c0,1.4-1.1,2.5-2.5,2.5s-2.5-1.1-2.5-2.5,1.1-2.5,2.5-2.5c1.4,0,2.5,1.1,2.5,2.5Z"/>
            <path class="cls-7" d="M19,23.5c0,1.6-1.3,2.9-2.9,2.9s-2.9-1.3-2.9-2.9,1.3-2.9,2.9-2.9c1.6,0,2.9,1.3,2.9,2.9Z"/>
            <path class="cls-8" d="M34.6,14.1c0,1.6-1.3,2.9-2.9,2.9s-3-1.3-3-2.9,1.3-2.9,3-2.9,2.9,1.3,2.9,2.9Z"/>
            <path class="cls-1" d="M51.2,13.8c0,1.6-1.3,2.9-2.9,2.9s-2.9-1.3-2.9-2.9,1.3-2.9,2.9-2.9,2.9,1.3,2.9,2.9Z"/>
            <path class="cls-1" d="M58.6,17c0,1.6-1.3,2.9-3,2.9s-2.9-1.3-2.9-2.9,1.3-2.9,2.9-2.9,3,1.3,3,2.9Z"/>
            <path class="cls-1" d="M64.5,22.4c0,1.6-1.3,2.9-3,2.9s-2.9-1.3-2.9-2.9,1.3-2.9,2.9-2.9c1.6,0,3,1.3,3,2.9Z"/>
            <path class="cls-10" d="M70.8,48.4c0,1.6-1.3,2.9-3,2.9s-2.9-1.3-2.9-2.9,1.3-2.9,2.9-2.9,3,1.3,3,2.9Z"/>
            <path class="cls-10" d="M66.1,58c0,1.6-1.3,2.9-2.9,2.9s-3-1.3-3-2.9,1.3-2.9,3-2.9,2.9,1.3,2.9,2.9Z"/>
            <path class="cls-6" d="M53.6,66.9c0,1.6-1.3,2.9-2.9,2.9s-2.9-1.3-2.9-2.9,1.3-2.9,2.9-2.9,2.9,1.3,2.9,2.9Z"/>
            <path class="cls-13" d="M36.5,68.2c0,1.6-1.3,2.9-3,2.9s-2.9-1.3-2.9-2.9,1.3-2.9,2.9-2.9,3,1.3,3,2.9Z"/>
            <path class="cls-13" d="M28.7,65.6c0,1.6-1.3,2.9-2.9,2.9s-3-1.3-3-2.9,1.3-2.9,3-2.9,2.9,1.3,2.9,2.9Z"/>
            <path class="cls-7" d="M16,31.7c0,1.6-1.3,2.9-3,2.9s-2.9-1.3-2.9-2.9,1.3-2.9,2.9-2.9c1.6,0,3,1.3,3,2.9Z"/>
            <path class="cls-4" d="M14.5,46.2c0,1.6-1.3,2.9-3,2.9s-2.9-1.3-2.9-2.9,1.3-2.9,2.9-2.9,3,1.3,3,2.9Z"/>
            <path class="cls-4" d="M18.1,54.9c0,1.6-1.3,2.9-2.9,2.9s-2.9-1.3-2.9-2.9,1.3-2.9,2.9-2.9c1.6,0,2.9,1.3,2.9,2.9Z"/>
            <path class="cls-7" d="M39.1,31.6c-5.2,0-9.4,4.2-9.4,9.3s4.2,9.3,9.4,9.3,9.4-4.2,9.4-9.3-4.2-9.3-9.4-9.3ZM38.7,45.8c-.8,0-1.6-.2-2.2-.4-.2,0-.3-.1-.5-.2l.9-1.6c.1,0,.3.1.5.2.5.1,1,.2,1.5.2,1,0,1.5-.4,1.5-1s-.5-.9-1.6-1.3c-1.6-.6-2.7-1.4-2.7-2.8s1.4-2.9,3.7-2.9,1.7.2,2.3.4l-.9,1.6c-.4-.1-.9-.2-1.5-.2-.9,0-1.4.4-1.4.9s.5.9,1.8,1.3c1.7.6,2.5,1.5,2.5,2.9,0,1.6-1.2,3-3.9,3Z"/>
            <path class="cls-12" d="M40.1,40c-1.3-.5-1.8-.7-1.8-1.3s.5-.9,1.4-.9,1.1.1,1.5.2l.9-1.6c-.6-.2-1.3-.4-2.3-.4-2.3,0-3.7,1.3-3.7,2.9s1,2.3,2.7,2.8c1.2.4,1.6.8,1.6,1.3s-.5,1-1.5,1-1,0-1.5-.2c-.2,0-.3-.1-.5-.2l-.9,1.6c.1,0,.3.1.5.2.6.2,1.4.4,2.2.4,2.7,0,3.9-1.4,3.9-3s-.8-2.3-2.5-2.9Z"/>
            <path class="cls-2" d="M16.8,70.7c-.1,0-.3,0-.4-.1-6.7-5-11.6-12.2-13.8-20.2,0-.3.1-.7.5-.8.3-.1.7.1.8.5,2.1,7.7,6.9,14.7,13.4,19.5.3.2.3.6.1.9-.1.2-.3.3-.5.3Z"/>
            <path class="cls-2" d="M39.1,78c-.4,0-.7-.3-.7-.7s.3-.7.7-.7c16.9,0,31.9-11.9,35.6-28.3,0-.3.4-.6.8-.5.4,0,.6.4.5.8-3.8,17-19.3,29.3-36.9,29.3Z"/>
            <path class="cls-2" d="M75,32c-.3,0-.6-.2-.6-.5-2.8-11-10.8-20.1-21.4-24.5-.3-.1-.5-.5-.4-.9.1-.3.5-.5.9-.4,11,4.5,19.3,14,22.2,25.4,0,.3-.1.7-.5.8,0,0-.1,0-.2,0Z"/>
            <path class="cls-2" d="M2,41.2c-.4,0-.7-.3-.7-.7,0-7.9,2.4-15.5,7.1-21.9,3.7-5.1,8.7-9.3,14.5-12,.3-.2.7,0,.9.3.2.3,0,.7-.3.9-5.5,2.6-10.4,6.6-14,11.6-4.5,6.2-6.8,13.5-6.8,21.1s-.3.7-.7.7Z"/>
          </g>
        </g>
      </g>
    </g>
  </g>
</svg>