<?xml version="1.0" encoding="UTF-8"?>
<svg version="1.1" id="Layer_1" xmlns="http://www.w3.org/2000/svg" xmlns:xlink="http://www.w3.org/1999/xlink" x="0px" y="0px"
	 width="100%" viewBox="0 0 3290 726" enable-background="new 0 0 3290 726" xml:space="preserve">
<path fill="#000000" opacity="1.000000" stroke="none" 
	d="
M3290.604980,531.699158 
	C3291.000000,595.663025 3290.965576,659.326172 3291.094971,722.988953 
	C3291.101807,726.389282 3290.456787,727.095154 3287.011230,727.094849 
	C2193.073486,726.997864 1099.135620,726.997375 5.197743,727.106140 
	C1.448994,727.106506 0.913744,726.162720 0.915099,722.698181 
	C1.008627,483.545166 1.010497,244.392059 0.901403,5.239017 
	C0.899744,1.603336 1.684171,0.906487 5.260554,0.906799 
	C1099.031738,1.002160 2192.802979,1.002630 3286.574219,0.896354 
	C3290.491455,0.895974 3291.093018,1.960320 3291.086914,5.573780 
	C3290.969482,75.736595 3291.000000,145.899673 3291.000000,216.531342 
	C3288.424072,219.146805 3285.312988,218.595856 3282.367188,218.598434 
	C3240.886230,218.634857 3199.405518,218.622269 3157.924561,218.622482 
	C3087.457031,218.622833 3016.989746,218.621109 2946.522217,218.624329 
	C2937.636230,218.624741 2937.624023,218.635590 2937.623779,227.322769 
	C2937.620117,325.444153 2937.620117,423.565521 2937.623779,521.686890 
	C2937.624023,530.364563 2937.636230,530.375366 2946.532227,530.375610 
	C3057.980713,530.378174 3169.429443,530.372620 3280.877930,530.399963 
	C3284.006104,530.400696 3287.228516,529.875061 3290.604980,531.699158 
z"/>
<path fill="#FFFFFF" opacity="1.000000" stroke="none" 
	d="
M3291.000000,531.531372 
	C3174.552734,532.000000 3058.105225,531.961365 2941.658203,532.132629 
	C2936.675293,532.139954 2935.881836,530.774109 2935.888428,526.150208 
	C2936.034668,424.862946 2936.030029,323.575317 2935.895508,222.287979 
	C2935.889893,217.994843 2936.765381,216.878372 2941.220459,216.883987 
	C3057.500977,217.030472 3173.781738,217.000000 3290.531250,217.000000 
	C3291.000000,244.020889 3291.000000,271.041779 3291.000000,298.531342 
	C3288.239014,301.215149 3284.951660,300.526520 3281.851562,300.528229 
	C3213.705566,300.565796 3145.559326,300.556244 3077.413330,300.557709 
	C3075.414062,300.557770 3073.411865,300.492523 3071.416016,300.610596 
	C3065.347168,300.969635 3061.842041,304.363922 3061.620850,310.353851 
	C3061.430420,315.513519 3061.404785,320.687500 3061.637451,325.845703 
	C3061.883789,331.320190 3064.623779,333.989868 3070.063965,334.374359 
	C3072.058838,334.515320 3074.061523,334.441772 3076.060791,334.441864 
	C3128.878174,334.444031 3181.695557,334.439423 3234.512939,334.446350 
	C3245.868408,334.447845 3246.649170,335.665314 3241.698975,345.989197 
	C3231.687988,366.867706 3222.087646,387.938416 3212.384033,408.958679 
	C3210.052979,414.007782 3206.859375,415.646240 3201.546631,415.629700 
	C3160.059570,415.500427 3118.572021,415.552429 3077.084473,415.558746 
	C3074.918945,415.559082 3072.747314,415.461884 3070.589600,415.670380 
	C3065.440186,416.167908 3061.978271,419.557037 3061.666748,424.707428 
	C3061.375000,429.528412 3061.399902,434.373932 3061.650879,439.196686 
	C3061.919922,444.369751 3065.355957,447.812500 3070.470703,448.328064 
	C3072.627930,448.545471 3074.799805,448.440948 3076.965332,448.441040 
	C3145.111328,448.444000 3213.257568,448.436493 3281.403564,448.465424 
	C3284.367432,448.466705 3287.423584,447.960846 3290.621338,449.714905 
	C3291.000000,477.020905 3291.000000,504.041779 3291.000000,531.531372 
z"/>
<path fill="#000000" opacity="1.000000" stroke="none" 
	d="
M3291.000000,449.531342 
	C3217.692871,450.000000 3144.385742,450.000336 3071.078613,449.999481 
	C3064.312988,449.999390 3060.001953,445.605957 3060.000244,438.717834 
	C3059.999268,434.719269 3060.000000,430.720703 3060.000000,426.722137 
	C3060.000000,417.636993 3063.612793,414.000000 3072.637695,414.000000 
	C3116.455322,414.000000 3160.272949,413.959137 3204.090332,414.085358 
	C3207.254150,414.094452 3208.690430,413.272797 3210.040283,410.318909 
	C3217.849854,393.231689 3226.254150,376.411591 3233.837402,359.227509 
	C3237.182129,351.647766 3241.599854,344.509155 3243.989014,336.000000 
	C3241.997559,336.000000 3240.218750,336.000000 3238.439941,336.000000 
	C3182.293457,336.000000 3126.146729,336.000519 3070.000244,335.999329 
	C3063.458496,335.999176 3060.006348,332.619080 3060.000977,326.214325 
	C3059.996826,321.382721 3060.000000,316.551117 3060.000000,311.719513 
	C3060.000000,302.635101 3063.612549,299.000000 3072.640381,299.000000 
	C3145.114502,299.000000 3217.588379,299.000000 3290.531250,299.000000 
	C3291.000000,349.020905 3291.000000,399.041779 3291.000000,449.531342 
z"/>
<path fill="#FFFFFF" opacity="1.000000" stroke="none" 
	d="
M1876.000000,444.000000 
	C1876.000000,369.673340 1876.038818,295.846649 1875.897339,222.020264 
	C1875.889404,217.892776 1876.810669,216.870209 1880.992065,216.891144 
	C1918.321167,217.077957 1955.651855,217.075027 1992.980957,216.894119 
	C1997.113159,216.874069 1998.114136,217.816772 1998.105591,221.993256 
	C1997.958862,294.319733 1997.999756,366.646606 1998.000732,438.973389 
	C1998.000732,445.488434 2002.432251,449.996735 2008.839233,449.999023 
	C2018.671753,450.002594 2028.504150,450.003967 2038.336670,449.998505 
	C2044.368774,449.995178 2048.998535,445.350647 2048.998779,439.297455 
	C2049.000732,366.970673 2049.039307,294.643829 2048.899414,222.317307 
	C2048.891113,218.086044 2049.670410,216.846527 2054.195312,216.874039 
	C2091.024170,217.097992 2127.854980,217.076065 2164.684082,216.896362 
	C2168.920654,216.875671 2170.132812,217.678207 2170.122070,222.196548 
	C2169.948975,294.522919 2169.999268,366.849823 2170.000977,439.176605 
	C2170.000977,445.423035 2174.496582,449.999603 2180.616699,449.999878 
	C2190.782471,450.000336 2200.947998,450.009796 2211.113770,449.994812 
	C2214.822021,449.989319 2219.758789,445.245331 2219.988525,441.475616 
	C2220.059082,440.313354 2220.000000,439.143158 2220.000000,437.976593 
	C2220.000000,365.983124 2220.041016,293.989563 2219.894531,221.996384 
	C2219.885986,217.825348 2220.878662,216.873825 2225.016113,216.893814 
	C2262.511963,217.075043 2300.009033,217.062820 2337.504883,216.903030 
	C2341.263184,216.887009 2342.095703,217.807556 2342.090820,221.517334 
	C2341.974365,311.509033 2341.988037,401.500885 2342.022461,491.492737 
	C2342.025146,498.846008 2338.835938,505.138275 2334.639160,510.522766 
	C2325.596924,522.123779 2313.336182,528.617737 2298.762451,531.087708 
	C2290.830811,532.431885 2282.925049,531.954773 2275.012695,531.958862 
	C2159.189941,532.018738 2043.366455,532.192200 1927.544800,531.821777 
	C1906.837891,531.755554 1889.930786,522.627502 1879.610596,503.894043 
	C1877.279907,499.663361 1875.957764,494.635284 1875.978516,489.494385 
	C1876.039062,474.496460 1876.000000,459.498169 1876.000000,444.000000 
z"/>
<path fill="#FFFFFF" opacity="1.000000" stroke="none" 
	d="
M1179.000000,532.000000 
	C1159.337769,532.000000 1140.174927,531.919617 1121.013916,532.078003 
	C1117.767456,532.104797 1116.900513,531.278320 1116.920654,528.002136 
	C1117.067993,504.175232 1117.002808,480.346985 1116.997925,456.519165 
	C1116.996704,450.737457 1112.347412,446.003571 1106.655518,446.002869 
	C1063.665527,445.997589 1020.675476,445.998840 977.685486,446.001373 
	C971.908020,446.001709 967.015259,450.896484 967.009460,456.789703 
	C966.986511,480.284271 966.894958,503.779724 967.102295,527.272461 
	C967.137268,531.237061 966.052002,532.105652 962.215942,532.090515 
	C924.391968,531.940674 886.566895,531.934998 848.743042,532.097290 
	C844.816711,532.114136 843.904602,531.101135 843.909729,527.232117 
	C844.026917,438.919403 844.006836,350.606506 843.993225,262.293640 
	C843.990967,247.849396 851.249695,237.376083 862.210632,229.002579 
	C873.899963,220.072556 887.474182,217.023285 901.862732,217.017975 
	C996.340820,216.983109 1090.819946,216.762375 1185.296143,217.198227 
	C1204.453369,217.286606 1221.503296,224.267914 1233.140503,240.732956 
	C1237.603638,247.047745 1239.944702,254.337158 1239.951294,262.063843 
	C1240.027710,350.709900 1239.980835,439.356049 1240.075073,528.002075 
	C1240.078613,531.274475 1239.234009,532.105774 1235.986450,532.078186 
	C1217.158813,531.918274 1198.328979,532.000000 1179.000000,532.000000 
z"/>
<path fill="#FFFFFF" opacity="1.000000" stroke="none" 
	d="
M1504.000000,217.000000 
	C1597.651733,217.000000 1690.804321,216.786621 1783.954102,217.207123 
	C1799.737061,217.278366 1814.440552,222.663544 1825.941528,234.458832 
	C1833.746216,242.463394 1837.923462,252.166138 1837.940552,263.265289 
	C1838.054932,337.753113 1838.129517,412.241638 1837.895752,486.728912 
	C1837.846436,502.472321 1829.871582,514.393433 1816.685181,522.677917 
	C1805.694946,529.582642 1793.506714,532.054871 1780.579102,532.045654 
	C1669.430298,531.966248 1558.281372,531.954468 1447.132935,532.138428 
	C1441.745972,532.147339 1440.684448,530.609253 1440.877075,525.617432 
	C1441.281738,515.134766 1440.987427,504.625519 1441.002808,494.127228 
	C1441.027100,477.524292 1444.389893,461.602173 1451.824951,446.770752 
	C1457.555908,435.338867 1465.276367,425.159760 1473.233276,415.134125 
	C1481.810913,404.326233 1492.388550,396.084259 1504.251587,389.430634 
	C1509.535034,386.467316 1515.351929,384.452362 1520.941284,382.040955 
	C1521.526367,381.788483 1522.267700,381.887726 1522.840820,381.619385 
	C1526.084351,380.100433 1529.888916,378.586609 1529.847900,374.448273 
	C1529.807129,370.329590 1526.069214,368.563263 1522.731201,367.367371 
	C1505.745239,361.281799 1490.793091,351.986328 1478.994751,338.346527 
	C1461.191162,317.764191 1446.340454,295.327423 1442.163574,267.724945 
	C1439.752441,251.791733 1441.211914,235.587158 1440.953247,219.503494 
	C1440.895386,215.911057 1443.321533,217.040314 1445.008911,217.035507 
	C1464.505859,216.979904 1484.002930,217.000015 1504.000000,217.000000 
z"/>
<path fill="#FFFFFF" opacity="1.000000" stroke="none" 
	d="
M2746.000000,532.000000 
	C2679.008789,532.000000 2612.517578,531.957581 2546.026611,532.102417 
	C2541.910889,532.111389 2540.847412,531.210510 2540.887939,527.013855 
	C2541.118652,503.019257 2541.112305,479.020233 2540.892334,455.025421 
	C2540.854492,450.900909 2541.800049,449.885223 2545.987061,449.893707 
	C2618.644043,450.041168 2691.301025,450.000305 2763.958252,449.999420 
	C2770.466309,449.999329 2774.993896,445.559082 2774.999512,439.176758 
	C2775.002686,435.510590 2775.000000,431.844391 2775.000000,428.178223 
	C2774.999756,418.949951 2771.014404,415.000000 2761.703125,415.000000 
	C2704.377441,415.000000 2647.051270,415.095764 2589.726074,414.923950 
	C2577.391602,414.886963 2566.471191,410.312012 2556.894531,402.435822 
	C2545.761475,393.279663 2540.676025,381.826813 2540.860596,367.228821 
	C2541.295166,332.905518 2541.628418,298.557190 2540.766357,264.250031 
	C2540.240479,243.308655 2555.411621,226.143555 2575.075684,220.066376 
	C2581.437012,218.100479 2588.006104,216.989502 2594.727295,216.990433 
	C2694.047607,217.004288 2793.367676,217.029190 2892.687744,216.899689 
	C2896.928955,216.894165 2898.179443,217.681915 2898.128174,222.200745 
	C2897.855469,246.194489 2897.914307,270.193573 2898.088379,294.189148 
	C2898.115723,297.972137 2897.314209,299.108521 2893.298584,299.100861 
	C2820.641846,298.962463 2747.984619,298.999847 2675.327637,299.000275 
	C2668.206055,299.000305 2664.000488,303.284821 2664.000244,310.537445 
	C2663.999756,328.868347 2664.096436,347.200317 2663.899414,365.529114 
	C2663.868652,368.384399 2665.303955,369.625366 2667.285645,369.549194 
	C2670.170654,369.438293 2673.230713,373.464813 2676.000488,369.124512 
	C2687.085205,351.753571 2703.679932,342.699310 2723.169189,337.976868 
	C2735.160156,335.071350 2747.335205,334.536591 2759.606445,333.808563 
	C2787.535156,332.151611 2815.461670,332.885101 2843.361328,333.240417 
	C2864.093506,333.504517 2882.030029,341.261139 2893.355713,359.970612 
	C2896.456543,365.092896 2897.943848,371.023010 2897.957520,377.056061 
	C2898.041748,414.384277 2898.334717,451.717255 2897.838135,489.039032 
	C2897.634277,504.371887 2889.645996,516.002563 2876.458984,523.869385 
	C2865.999268,530.109131 2854.597412,532.163208 2842.487305,532.077026 
	C2810.492920,531.849487 2778.495850,532.000000 2746.000000,532.000000 
z"/>
<path fill="#FFFFFF" opacity="1.000000" stroke="none" 
	d="
M2381.000000,443.000000 
	C2381.000000,369.004272 2381.039307,295.508453 2380.896484,222.012985 
	C2380.888428,217.871841 2381.832031,216.871414 2385.999756,216.891983 
	C2423.496582,217.076828 2460.995117,217.061325 2498.492188,216.904785 
	C2502.224854,216.889206 2503.096436,217.769440 2503.092285,221.504944 
	C2502.976807,323.498901 2502.977051,425.493073 2503.091064,527.487000 
	C2503.095215,531.205933 2502.249512,532.112061 2498.500244,532.096313 
	C2460.836426,531.937927 2423.171631,531.938965 2385.507812,532.095276 
	C2381.775391,532.110718 2380.879150,531.233765 2380.902832,527.494568 
	C2381.081299,499.497314 2381.000000,471.498383 2381.000000,443.000000 
z"/>
<path fill="#FFFFFF" opacity="1.000000" stroke="none" 
	d="
M1397.890625,532.000000 
	C1359.243164,532.000000 1321.085327,531.917053 1282.929199,532.115234 
	C1278.634399,532.137573 1277.900269,530.933167 1277.905029,526.918335 
	C1278.025635,425.276855 1278.029175,323.635193 1277.895508,221.993729 
	C1277.890015,217.820755 1278.883301,216.874969 1283.017090,216.894150 
	C1321.506714,217.072983 1359.997925,217.059128 1398.487793,216.905670 
	C1402.208252,216.890839 1403.234375,217.735703 1403.100220,221.502075 
	C1402.786133,230.322052 1402.933350,239.161407 1403.012817,247.991852 
	C1403.233765,272.507721 1396.476318,294.865387 1382.485474,315.023712 
	C1375.519165,325.060791 1368.753418,335.204315 1359.840576,343.761139 
	C1349.038086,354.131989 1336.420898,361.406403 1322.687012,366.987671 
	C1322.094604,367.228424 1321.463623,367.373016 1320.868164,367.607330 
	C1317.601685,368.892853 1314.065308,370.599030 1314.186401,374.424164 
	C1314.315674,378.513702 1317.742798,380.555054 1321.498901,381.869080 
	C1338.716675,387.892578 1354.510986,396.473206 1366.642456,410.311035 
	C1381.054321,426.750061 1393.848145,444.351135 1399.519409,466.019135 
	C1401.498291,473.579895 1402.634277,481.357697 1402.886841,489.122284 
	C1403.303711,501.938873 1402.805420,514.783630 1403.115356,527.606262 
	C1403.211670,531.589294 1401.878540,532.596069 1397.890625,532.000000 
z"/>
<path fill="#E13B8C" opacity="1.000000" stroke="none" 
	d="
M171.312988,699.713135 
	C162.490967,705.781433 153.664001,711.971863 143.437286,712.626160 
	C132.626968,713.317810 121.102379,705.497253 121.063110,691.826355 
	C120.908134,637.875793 121.228310,583.922729 120.816704,529.974915 
	C120.729004,518.481079 127.135101,508.774902 138.810760,505.886414 
	C149.347702,503.279602 159.713257,499.979919 170.554550,496.938416 
	C174.094879,498.617950 173.499329,501.710480 173.534729,504.432404 
	C173.720673,518.738342 173.611084,533.045654 173.593079,547.352661 
	C173.552231,579.809021 173.403183,612.266968 173.662262,644.721313 
	C173.775070,658.854736 173.603836,672.980957 173.562408,687.110291 
	C173.550217,691.270264 173.458664,695.442749 171.312988,699.713135 
z"/>
<path fill="#E03B8D" opacity="1.000000" stroke="none" 
	d="
M163.359711,227.913849 
	C153.123138,225.331360 143.205200,222.813354 133.485550,219.680161 
	C126.794662,217.523315 121.002617,208.393967 121.001976,201.290848 
	C120.997047,146.650345 121.246826,92.008003 120.844490,37.370464 
	C120.728333,21.595497 136.254410,9.085080 153.786880,17.551470 
	C157.680725,19.431801 161.716843,21.346468 165.672241,24.008965 
	C166.856277,25.342163 166.727554,26.681747 166.628708,28.011003 
	C165.188492,47.382332 165.608276,66.804817 165.689163,86.186371 
	C165.749359,100.605904 166.164352,115.055878 166.321396,129.485840 
	C166.451355,141.425430 165.670227,153.387573 165.552063,165.338043 
	C165.371399,183.609863 165.915894,201.886383 165.467102,220.159988 
	C165.402924,222.772690 165.888199,225.550598 163.359711,227.913849 
z"/>
<path fill="#E34284" opacity="1.000000" stroke="none" 
	d="
M171.407562,700.058044 
	C172.893143,690.090820 172.034576,679.913574 172.249954,669.839478 
	C172.388519,663.358215 172.209000,656.738342 172.156372,650.211731 
	C171.841003,611.088623 172.000000,571.961731 172.000000,532.836060 
	C172.000000,522.905334 172.010864,512.974609 171.990097,503.043945 
	C171.986313,501.232330 172.293076,499.362854 171.122314,497.282654 
	C184.564896,492.499146 198.238281,488.325897 212.557617,484.930328 
	C215.230637,486.711029 214.932007,489.326416 215.000381,491.785187 
	C215.708191,517.238037 216.095230,542.715942 215.312073,568.149597 
	C214.631470,590.253235 215.661041,612.308044 215.484726,634.382996 
	C215.377502,647.809570 214.649139,661.230469 215.105637,674.663452 
	C215.134476,675.512024 214.882889,676.304810 214.245087,677.443237 
	C200.167221,685.686340 186.087692,693.067810 171.407562,700.058044 
z"/>
<path fill="#EA516E" opacity="1.000000" stroke="none" 
	d="
M296.715515,460.526489 
	C308.308685,456.778381 319.608704,453.364594 330.928497,450.017609 
	C334.648438,448.917694 338.419617,447.990967 342.568848,446.937836 
	C346.550171,450.313324 345.933289,454.833984 345.840027,459.040253 
	C345.512360,473.825134 345.145630,488.601685 346.179871,503.375519 
	C346.494446,507.869568 345.330750,512.289062 345.448792,516.804871 
	C345.886292,533.543335 346.710693,550.304321 345.953064,567.025085 
	C345.448181,578.166870 346.116730,589.283386 345.578888,600.398743 
	C345.462585,602.802795 345.957458,605.016113 347.029480,607.604248 
	C335.826355,614.014587 324.545746,619.994995 313.250793,625.948242 
	C308.104279,628.660889 302.929504,631.319946 297.402100,634.062195 
	C295.149963,632.247009 295.490356,629.809448 295.517242,627.533997 
	C295.726959,609.764832 295.549988,591.994873 295.778137,574.223694 
	C295.948334,560.966675 295.478760,547.685120 295.595490,534.425964 
	C295.728394,519.329285 295.614441,504.226471 296.017731,489.121735 
	C296.232819,481.065979 295.883392,472.900116 295.925720,464.781036 
	C295.932678,463.447418 295.767334,462.122467 296.715515,460.526489 
z"/>
<path fill="#E94E72" opacity="1.000000" stroke="none" 
	d="
M272.615112,80.964111 
	C284.687622,85.797119 295.356537,92.433334 306.540558,98.062958 
	C308.858917,99.229935 311.083344,100.583504 313.675262,102.008911 
	C316.809906,108.300575 316.265839,114.955467 316.023041,121.276497 
	C315.223755,142.082657 315.661530,162.878052 315.763367,183.675339 
	C315.819580,195.152817 315.439819,206.622330 315.555969,218.100266 
	C315.710968,233.413956 315.609802,248.730438 315.579926,264.045654 
	C315.575104,266.524902 315.841919,269.061005 314.302338,271.754272 
	C302.647125,268.912109 291.322998,265.725403 280.009827,262.500214 
	C277.551727,261.799469 275.133026,260.960724 272.348419,260.009338 
	C270.106293,257.765625 270.431183,255.177155 270.427429,252.715866 
	C270.388580,227.249100 270.336914,201.782043 270.425537,176.315521 
	C270.526764,147.217880 270.413513,118.120689 270.437500,89.023346 
	C270.439758,86.268723 269.837585,83.294510 272.615112,80.964111 
z"/>
<path fill="#E6497A" opacity="1.000000" stroke="none" 
	d="
M272.937317,80.635132 
	C272.802734,81.334442 272.245514,81.714409 272.236176,82.107353 
	C271.948883,94.242844 271.527618,106.392807 272.483185,118.501122 
	C272.659546,120.735832 272.088470,122.720291 272.119476,124.789307 
	C272.323547,138.406845 271.210999,152.037338 272.662964,165.651321 
	C272.988708,168.705704 272.039062,171.873276 272.032806,174.989456 
	C271.976593,202.965561 272.000000,230.941818 272.000336,259.375610 
	C258.781372,256.143005 245.562042,252.452805 232.146179,248.435089 
	C230.886169,240.677094 231.375061,233.176300 231.395355,225.735153 
	C231.407516,221.274277 231.698425,216.757935 231.448486,212.298950 
	C230.674576,198.492661 231.789078,184.695419 231.450089,170.904327 
	C231.042038,154.303299 231.489838,137.700821 230.824631,121.087959 
	C230.516586,113.394371 231.059601,105.523293 231.240265,97.737442 
	C231.401764,90.776810 231.418015,83.798676 231.137451,76.829483 
	C230.916901,71.351295 231.109924,65.893997 232.719101,60.203354 
	C245.299133,65.061073 256.624390,72.078552 268.499847,78.020325 
	C269.945282,78.743530 271.347748,79.552589 272.937317,80.635132 
z"/>
<path fill="#E34086" opacity="1.000000" stroke="none" 
	d="
M163.157410,228.441238 
	C164.163406,226.154358 163.889847,223.967087 164.024124,221.814224 
	C164.888504,207.955551 164.302521,194.054611 164.260803,180.213913 
	C164.229630,169.875473 164.900299,159.478195 164.154556,149.090698 
	C163.689560,142.613632 165.091782,136.020401 164.899155,129.501663 
	C164.620544,120.072945 165.510269,110.579170 164.736725,101.269081 
	C163.787582,89.845428 164.424728,78.479958 164.094467,67.097588 
	C163.910370,60.753464 165.304535,54.326920 164.774078,48.039890 
	C164.255463,41.893272 163.888245,35.896946 164.933807,29.800423 
	C165.212387,28.175964 165.218155,26.509861 165.938019,24.563297 
	C177.115005,30.062243 188.232758,35.956696 199.674683,42.008911 
	C201.537430,44.163982 201.574326,46.520863 201.471085,48.853729 
	C200.676254,66.815689 202.212692,84.750641 201.823273,102.733955 
	C201.319489,125.997871 201.189377,149.293839 201.555374,172.570419 
	C201.869034,192.517990 201.531860,212.464188 201.855209,232.408722 
	C201.888016,234.432373 201.658951,236.398315 200.326416,238.518799 
	C189.188736,235.829651 178.352158,232.908630 167.593857,229.723206 
	C166.175812,229.303314 164.739197,229.205948 163.157410,228.441238 
z"/>
<path fill="#ED5865" opacity="1.000000" stroke="none" 
	d="
M347.433594,607.900513 
	C344.716888,607.262573 343.855927,605.678406 343.946960,603.119263 
	C344.127655,598.037903 344.019318,592.945557 343.995758,587.857849 
	C343.954590,578.966858 345.041962,570.033325 344.652557,561.243652 
	C344.355865,554.546570 344.350098,547.714111 344.446381,541.130737 
	C344.614868,529.606628 342.225586,517.992188 344.912964,506.517212 
	C345.553589,503.781525 343.839935,501.330780 343.999573,498.651184 
	C344.807343,485.092712 343.108490,471.503296 344.659363,457.926971 
	C345.036591,454.624603 343.650879,451.120819 343.023071,447.300110 
	C354.729858,442.438934 367.079498,439.941162 378.999084,436.015533 
	C382.049713,435.010864 385.161560,434.192047 388.622803,433.227539 
	C390.429932,434.614777 390.291321,436.498016 390.469818,438.311920 
	C391.561249,449.404968 390.294464,460.564087 391.042847,471.604889 
	C391.753357,482.087097 389.728943,492.431458 391.071259,502.975342 
	C392.039948,510.584290 390.711182,518.494324 390.903595,526.332886 
	C391.351593,544.582642 390.131073,562.862854 391.621307,581.111023 
	C391.702576,582.106384 391.776184,583.106140 391.221130,584.456482 
	C376.584015,592.474548 362.169189,600.115112 347.433594,607.900513 
z"/>
<path fill="#EB536B" opacity="1.000000" stroke="none" 
	d="
M314.169952,272.439697 
	C313.978210,215.767746 313.989105,159.422882 313.999725,102.622391 
	C327.571167,109.201485 341.142853,116.236206 354.882019,123.582428 
	C355.744568,125.297470 355.636230,126.800934 355.632660,128.302078 
	C355.534882,169.430618 355.734772,210.560226 355.379639,251.687180 
	C355.309174,259.847382 355.949951,267.992737 355.545410,276.147125 
	C355.422668,278.620911 355.688660,281.201935 353.354004,283.513824 
	C340.124786,280.145233 327.248688,276.455994 314.169952,272.439697 
z"/>
<path fill="#8C4DEB" opacity="1.000000" stroke="none" 
	d="
M140.580902,459.705078 
	C139.573120,462.969788 138.032639,465.859985 137.116837,468.936157 
	C135.772217,473.452728 132.700668,475.567474 128.336929,475.955872 
	C123.879974,476.352539 121.465080,473.675293 119.953110,469.797729 
	C114.794426,456.567841 108.292313,444.094971 100.166611,432.375946 
	C86.669876,412.910675 69.614746,397.395905 49.472931,385.178467 
	C41.125572,380.115173 32.358116,375.856171 23.133781,372.532410 
	C19.383017,371.180939 15.977010,369.137115 15.980321,364.249695 
	C15.983518,359.531525 18.517912,356.681549 22.631277,355.117981 
	C35.460308,350.241272 47.517624,343.972382 58.770718,336.073364 
	C79.919395,321.228302 96.901619,302.726776 109.552422,280.126465 
	C113.385460,273.278839 116.564331,266.193756 119.388794,258.954803 
	C121.130157,254.491806 123.984116,251.383881 128.418655,251.224899 
	C132.805420,251.067612 135.793762,254.219162 137.189102,258.518921 
	C137.386047,259.125793 137.705017,259.693024 137.900574,260.641815 
	C132.693436,267.324982 126.855095,273.041901 121.941116,279.562317 
	C106.705681,299.778564 97.793205,322.653137 95.618111,347.676056 
	C93.539825,371.585205 97.726799,394.708344 108.160645,416.642914 
	C116.016151,433.157104 126.611832,447.407684 140.580902,459.705078 
z"/>
<path fill="#E44480" opacity="1.000000" stroke="none" 
	d="
M200.345673,239.007095 
	C200.457779,222.524063 199.870468,206.206818 200.150284,189.908539 
	C200.376968,176.706009 199.814011,163.512482 200.322998,150.286438 
	C200.676849,141.092041 199.618164,131.678009 200.194580,122.446785 
	C200.925186,110.746231 200.914398,98.980309 200.594772,87.386749 
	C200.187515,72.615410 200.478439,57.843105 199.999237,42.624222 
	C210.902481,47.866676 221.806122,53.566689 232.872589,59.572758 
	C233.023544,71.040848 233.545868,82.237724 232.820892,93.353241 
	C232.296021,101.400780 233.443878,109.381989 232.299637,117.503746 
	C231.287613,124.687172 232.884811,132.206314 232.955795,139.580856 
	C233.102493,154.818634 233.404984,170.073044 232.869995,185.293442 
	C232.452911,197.159210 234.032211,209.022232 233.278900,220.730164 
	C232.707855,229.605652 234.618835,238.565506 232.118698,247.716568 
	C221.394577,245.605865 210.970993,242.643906 200.345673,239.007095 
z"/>
<path fill="#ED5864" opacity="1.000000" stroke="none" 
	d="
M353.396667,283.905334 
	C353.880951,281.293945 354.039642,278.682800 354.027374,276.003479 
	C353.967072,262.843781 354.000000,249.683670 354.000000,236.523697 
	C354.000000,214.746918 354.000000,192.970154 354.000000,171.193375 
	C354.000000,157.640579 353.987000,144.087769 354.014435,130.535034 
	C354.018433,128.566101 353.635193,126.527054 354.880432,124.284927 
	C366.290100,129.707550 377.529327,135.523865 388.773285,141.331070 
	C390.071198,142.001389 391.395203,142.621170 392.874329,143.575226 
	C393.846191,145.058151 393.819397,146.382401 393.806244,147.728729 
	C393.360291,193.360092 393.742401,238.992752 393.576691,284.624512 
	C393.564880,287.883026 394.247620,291.358521 391.366180,294.501038 
	C378.598206,291.214661 366.195312,287.595459 353.396667,283.905334 
z"/>
<path fill="#E84C76" opacity="1.000000" stroke="none" 
	d="
M296.613770,460.104858 
	C298.730316,469.480560 296.045746,478.859924 297.755371,488.301300 
	C298.745575,493.769684 297.106689,499.670929 297.045288,505.381622 
	C296.902893,518.623596 296.637115,531.881104 297.109650,545.107727 
	C297.521027,556.623169 297.000946,568.104980 297.001343,579.601624 
	C297.002014,597.457947 297.009796,615.314270 297.025574,633.645752 
	C286.609192,639.745483 276.181824,645.369934 265.392700,651.048828 
	C262.551880,647.541870 263.142731,643.407532 263.247589,639.525391 
	C263.615845,625.895386 263.020782,612.284668 262.833344,598.666260 
	C262.776031,594.502258 263.677032,590.403137 263.522949,586.217407 
	C262.751862,565.273743 263.663361,544.320679 263.129822,523.359802 
	C262.852448,512.462891 262.629120,501.479614 263.212219,490.511627 
	C263.561035,483.950104 262.739410,477.289551 263.727478,470.289917 
	C273.569061,466.136505 283.691498,464.088928 293.497650,460.992920 
	C294.415680,460.703094 295.317291,460.361206 296.613770,460.104858 
z"/>
<path fill="#F87044" opacity="1.000000" stroke="none" 
	d="
M541.783569,389.316284 
	C546.846619,386.986084 552.088562,385.873047 556.230286,382.288757 
	C570.138428,370.252686 567.038330,348.757385 549.359009,340.909973 
	C547.247803,338.525360 547.388062,335.810516 547.460815,333.157776 
	C547.830383,319.677704 546.550842,306.132843 547.655151,292.737640 
	C548.905090,277.575928 546.375122,262.502289 547.862793,247.376923 
	C548.327759,242.649292 547.294556,237.760086 547.447205,232.925980 
	C547.515259,230.772110 547.309448,228.577286 548.706543,226.223389 
	C555.260010,229.004868 561.484802,232.132507 567.875488,235.572266 
	C570.077209,239.147980 570.662720,242.999680 570.117371,246.466095 
	C568.803711,254.817856 570.421265,263.075439 570.066467,271.368805 
	C569.505493,284.480408 570.096191,297.601440 569.759338,310.730591 
	C569.474854,321.817444 570.162964,333.057739 569.607971,344.087738 
	C568.837158,359.408966 570.966980,374.585236 570.033813,389.941071 
	C569.369629,400.870880 568.738586,412.124176 570.283325,423.199554 
	C570.907104,427.671692 570.132019,432.172485 570.016113,436.652588 
	C569.689758,449.273041 569.443604,461.891663 569.503784,474.514984 
	C569.528992,479.794708 571.315002,485.071869 569.272827,490.734009 
	C561.010498,496.461090 552.086426,500.155579 543.362427,504.974548 
	C540.401062,499.873322 541.183838,494.148376 540.991699,488.617340 
	C540.624084,478.033203 541.156799,467.424225 540.820557,456.844147 
	C540.366455,442.557587 540.243042,428.288879 541.310120,414.038330 
	C541.917297,405.930756 539.614136,397.807922 541.783569,389.316284 
z"/>
<path fill="#F97340" opacity="1.000000" stroke="none" 
	d="
M569.408020,491.058594 
	C568.306335,479.081970 567.259644,467.024872 568.371338,455.002960 
	C568.625427,452.255707 567.951050,449.811279 568.038330,447.235291 
	C568.237549,441.356476 568.635437,435.484711 568.887756,429.607269 
	C569.008667,426.792328 569.341492,423.958313 568.562317,421.170837 
	C566.878906,415.149353 569.506653,409.114166 568.523926,403.068634 
	C568.321228,401.821503 568.992432,400.457214 568.967834,399.152435 
	C568.677551,383.789093 567.783997,368.411957 568.200867,353.069702 
	C568.459961,343.532806 568.688232,333.831329 568.338562,324.463776 
	C567.934570,313.640656 569.306396,302.876892 568.412292,292.008606 
	C567.737488,283.804871 568.067383,275.248413 568.785889,266.860413 
	C569.020752,264.119629 568.112000,261.300995 568.034668,258.509460 
	C567.834106,251.270309 569.332153,244.027618 568.029297,236.334534 
	C576.285706,240.028625 584.529968,244.172836 592.942444,248.635010 
	C591.478271,254.287781 591.553650,259.773041 591.561890,265.273224 
	C591.601074,291.419525 591.485413,317.566345 591.602295,343.712189 
	C591.763062,379.664032 591.496460,415.615143 591.571045,451.566650 
	C591.586548,459.037689 592.619751,466.504608 591.595093,473.983612 
	C591.348206,475.785217 591.586060,477.661530 590.308228,479.713837 
	C583.418030,483.990845 576.814331,487.902771 569.408020,491.058594 
z"/>
<path fill="#FA763C" opacity="1.000000" stroke="none" 
	d="
M590.407349,480.058899 
	C590.027649,453.234375 589.922913,426.352631 590.096558,399.472626 
	C590.123047,395.365112 589.995239,391.265930 589.995850,387.162903 
	C590.002625,343.958496 590.003723,300.754089 589.992004,257.549683 
	C589.991150,254.540192 589.762390,251.497391 592.772461,249.123505 
	C599.709473,252.867203 607.162415,255.195053 613.679688,260.011597 
	C615.856079,262.634186 615.608093,265.525787 615.579041,268.341644 
	C615.352112,290.322876 615.168579,312.316406 615.353210,334.285370 
	C615.707397,376.430573 615.305359,418.573181 615.616089,460.715485 
	C615.629578,462.546783 615.763062,464.380585 615.217590,466.651917 
	C606.957031,471.407013 598.865173,475.704620 590.407349,480.058899 
z"/>
<path fill="#EF5D5E" opacity="1.000000" stroke="none" 
	d="
M391.350708,584.795166 
	C389.830109,576.812134 388.867981,568.788147 389.232819,560.639648 
	C389.470673,555.327148 389.097137,549.982910 389.432922,544.680481 
	C389.804169,538.818054 388.524048,532.983032 389.673523,527.079102 
	C390.186523,524.444275 388.882080,521.504395 389.070007,518.748535 
	C389.724091,509.156189 388.683350,499.522308 389.300354,490.023254 
	C389.791351,482.463623 389.939575,474.821167 389.567261,467.419678 
	C389.271820,461.546997 390.088440,455.686096 389.538055,449.753510 
	C389.066925,444.675568 388.352356,439.307129 389.000183,433.611755 
	C399.699524,430.109680 410.398743,427.052094 421.497559,423.973267 
	C425.474915,424.012268 425.260681,426.712982 425.039795,428.946198 
	C424.332428,436.098267 425.418121,443.217316 425.272247,450.320831 
	C425.040436,461.609924 424.491364,472.883026 425.125977,484.176392 
	C425.488373,490.625153 424.247284,497.081543 425.294006,503.551880 
	C425.770844,506.499603 425.566010,509.530365 425.082825,512.505798 
	C424.869446,513.819763 424.503082,515.137817 424.577271,516.461304 
	C425.486816,532.683533 423.846710,548.991150 426.156311,565.606689 
	C425.579376,567.686096 423.969910,568.007446 422.727814,568.658569 
	C412.408905,574.068054 402.049683,579.400513 391.350708,584.795166 
z"/>
<path fill="#E6497A" opacity="1.000000" stroke="none" 
	d="
M263.563232,469.944458 
	C264.872986,478.038635 264.316681,486.208771 264.570740,494.347870 
	C264.779755,501.043488 264.340698,507.720428 264.779816,514.451416 
	C265.562653,526.451355 265.000000,538.538940 265.000000,550.589905 
	C265.000000,563.305969 265.476471,576.045898 264.841522,588.730164 
	C264.376495,598.020447 264.184387,607.418640 264.479797,616.572388 
	C264.841492,627.778870 264.049011,639.009766 265.021790,650.648132 
	C256.944153,655.403015 248.857315,659.702881 240.408676,664.056641 
	C236.265427,661.269836 237.057877,657.036133 236.812378,653.177246 
	C235.969070,639.920532 236.926819,626.646973 236.496429,613.378845 
	C236.033142,599.096619 236.394867,584.802368 236.484924,570.515747 
	C236.632614,547.084290 235.918304,523.650574 236.867950,500.216705 
	C237.081467,494.947784 236.357224,489.606079 236.446320,484.285583 
	C236.482407,482.131592 236.330307,479.942169 237.746719,477.570190 
	C246.388000,474.773956 254.774887,472.380463 263.563232,469.944458 
z"/>
<path fill="#EF5D5E" opacity="1.000000" stroke="none" 
	d="
M391.390930,294.914062 
	C391.884277,292.288666 392.027802,289.671356 392.025665,286.988068 
	C391.989746,242.020752 392.001892,197.053375 391.995026,152.086014 
	C391.994629,149.591110 391.835175,147.085327 392.981842,144.308838 
	C402.185913,148.587189 411.332062,153.284958 420.472900,157.992935 
	C421.898682,158.727310 423.300476,159.508347 424.877502,160.576691 
	C426.187256,164.926193 426.157257,169.082306 425.894379,173.189758 
	C425.372437,181.345367 425.059204,189.484238 426.117584,197.613373 
	C426.685364,201.974274 425.327789,206.204758 425.437897,210.552521 
	C425.787170,224.343292 426.735474,238.131332 426.135132,251.931915 
	C425.413422,268.522705 425.965302,285.110657 426.000427,301.699921 
	C426.002197,302.543213 425.902740,303.358154 425.275635,304.482422 
	C413.927032,301.553680 402.853912,298.273956 391.390930,294.914062 
z"/>
<path fill="#E5467E" opacity="1.000000" stroke="none" 
	d="
M237.623688,477.228394 
	C238.000748,514.900391 237.906693,552.633728 238.063431,590.366028 
	C238.104507,600.256409 237.809006,610.129456 238.550552,620.076294 
	C239.065414,626.982483 237.608139,634.327332 238.163330,641.393494 
	C238.738434,648.713379 237.249313,656.195984 239.887695,663.738281 
	C231.598694,668.658752 223.150528,673.207031 214.350632,677.794067 
	C211.277603,668.398438 215.408279,658.778259 213.165649,649.244385 
	C212.488083,646.364014 213.870148,643.052307 213.965652,639.927734 
	C214.403549,625.599060 213.093857,611.293701 213.736038,596.923828 
	C214.041397,590.091064 212.297806,582.978394 213.156967,576.121887 
	C214.655090,564.166077 213.948685,552.226868 213.891266,540.297974 
	C213.825333,526.594849 214.477020,512.886902 213.320206,499.159027 
	C212.950729,494.774384 213.400391,490.160400 212.978638,485.266663 
	C220.747864,481.356781 229.224045,480.049347 237.623688,477.228394 
z"/>
<path fill="#FD7B35" opacity="1.000000" stroke="none" 
	d="
M635.620361,272.108093 
	C646.700806,277.309662 654.561523,286.069580 662.971863,294.643433 
	C663.070374,312.545135 662.487854,330.118042 662.917786,347.738037 
	C663.227722,360.442078 663.630066,373.245575 662.787048,386.027771 
	C661.911865,399.297028 662.597412,412.633118 662.532104,425.939758 
	C662.518188,428.776489 662.530212,431.599976 661.248474,434.703064 
	C653.761475,443.466492 645.599121,450.751038 635.398193,456.061981 
	C632.429504,454.290436 632.678040,451.605469 632.818909,448.910370 
	C633.600464,433.962067 633.236877,419.012482 633.156311,404.054871 
	C633.111816,395.785095 632.982605,387.484344 633.209106,379.187531 
	C633.640076,363.399048 633.122742,347.575928 633.164673,331.784241 
	C633.213440,313.493866 633.133606,295.188171 633.543518,276.894104 
	C633.581055,275.219940 633.860596,273.564941 635.620361,272.108093 
z"/>
<path fill="#F66C49" opacity="1.000000" stroke="none" 
	d="
M541.553284,388.942047 
	C542.650818,390.241638 543.044495,391.627319 543.008484,393.184052 
	C542.648438,408.742554 542.048584,424.302643 542.081421,439.861084 
	C542.112488,454.583801 542.327332,469.314484 542.694519,484.039703 
	C542.861023,490.715881 543.584290,497.468109 543.026733,504.657776 
	C531.614807,511.086426 520.191650,517.044312 508.402191,523.061035 
	C506.281677,521.487244 506.061035,519.295105 506.106323,517.141174 
	C506.885223,480.099518 506.162628,443.054108 506.429077,406.011597 
	C506.444519,403.864105 506.269623,401.669464 507.684082,399.287109 
	C518.820251,394.906464 530.048645,392.155243 541.553284,388.942047 
z"/>
<path fill="#FC7938" opacity="1.000000" stroke="none" 
	d="
M635.881775,271.577087 
	C634.836548,273.846222 634.993286,276.025055 634.994873,278.189606 
	C635.004944,292.176819 635.000000,306.164062 635.000000,320.151276 
	C635.000000,338.215851 635.486816,356.299072 634.797363,374.337280 
	C634.445740,383.536163 635.014099,392.727020 634.514160,401.952698 
	C634.119934,409.225983 635.212952,416.858826 634.854065,424.273315 
	C634.431702,432.998901 636.255737,441.777283 634.108765,450.470825 
	C633.749756,451.924530 634.624390,453.682922 634.983459,455.710022 
	C629.944092,460.520996 623.342224,462.294922 617.481812,466.013611 
	C616.937622,466.171509 616.753784,466.304504 616.293579,466.636353 
	C615.857666,466.887146 615.697998,466.939087 615.293640,467.050201 
	C613.724426,464.995605 614.001465,462.633148 614.001343,460.316498 
	C613.999451,421.385590 614.249084,382.452209 613.866577,343.525055 
	C613.730286,329.661407 613.892090,315.781250 613.702637,301.916901 
	C613.517273,288.346405 613.606384,274.692841 614.000061,260.625000 
	C621.240112,263.867004 628.480042,267.566620 635.881775,271.577087 
z"/>
<path fill="#F46750" opacity="1.000000" stroke="none" 
	d="
M507.557068,398.934753 
	C507.971954,433.658661 507.985626,468.431763 508.000366,503.204895 
	C508.003052,509.564850 508.010223,515.924805 508.025635,522.702271 
	C499.137421,529.331421 488.772980,532.891785 479.348328,538.818359 
	C476.061554,536.627686 476.221191,533.331116 476.184906,530.220093 
	C476.032196,517.113159 476.735504,504.007019 476.489746,490.903778 
	C476.147888,472.674866 475.945587,454.438812 476.013275,436.215759 
	C476.040771,428.806274 475.026337,421.307190 476.515625,413.891388 
	C476.940247,411.776978 476.892395,409.573761 478.697327,407.490417 
	C488.386292,404.440247 497.771240,401.712097 507.557068,398.934753 
z"/>
<path fill="#F56A4C" opacity="1.000000" stroke="none" 
	d="
M496.644928,198.949432 
	C507.276672,202.816589 516.344482,208.862564 526.263306,213.899506 
	C527.007507,221.944748 526.930481,229.764999 526.806458,237.526840 
	C526.352844,265.915802 526.831848,294.302338 526.544067,322.687469 
	C526.508972,326.154114 527.615417,329.610718 526.306824,333.454529 
	C516.094482,331.134583 506.186920,328.435547 496.081909,325.396545 
	C494.955780,323.069794 494.447662,320.975555 494.543274,318.787384 
	C494.970001,309.017395 493.994995,299.212982 495.297668,289.463776 
	C495.832184,285.463501 494.802368,281.520721 494.707245,277.560425 
	C494.336609,262.131195 494.500458,246.702637 494.925598,231.268112 
	C495.102539,224.846069 495.740631,218.401917 494.912628,211.916824 
	C494.363281,207.614456 493.220703,203.010330 496.644928,198.949432 
z"/>
<path fill="#F16159" opacity="1.000000" stroke="none" 
	d="
M425.396088,304.904602 
	C424.506348,295.351013 423.278259,285.910950 424.849670,276.362762 
	C425.394470,273.052582 424.007446,269.472473 424.061279,266.024353 
	C424.214539,256.214294 425.072418,246.397964 424.820557,236.605515 
	C424.678619,231.087143 424.436768,225.502533 424.202301,219.980087 
	C423.599091,205.770081 423.556915,191.496307 424.233582,177.292938 
	C424.480408,172.112106 422.870239,166.788132 424.986389,161.291870 
	C433.811157,163.977554 441.274353,169.667953 449.933838,173.631058 
	C451.257721,178.456299 449.553131,182.861099 449.602997,187.311203 
	C449.757324,201.088181 449.062622,214.856842 450.237671,228.650497 
	C451.065704,238.370834 449.452301,248.172104 449.887177,257.974060 
	C450.540100,272.691711 449.315857,287.438629 450.408173,302.164246 
	C450.623596,305.068665 451.089996,308.201904 448.364441,310.907898 
	C440.567200,309.066803 433.179596,307.021301 425.396088,304.904602 
z"/>
<path fill="#F46651" opacity="1.000000" stroke="none" 
	d="
M496.954742,198.627167 
	C494.761047,202.994080 495.416382,207.619308 496.349396,211.503159 
	C497.826874,217.653473 496.851288,223.763199 496.631683,229.641083 
	C496.118988,243.364532 495.432037,257.130219 496.262024,270.777557 
	C496.945038,282.007629 496.067535,293.181610 496.509460,304.389160 
	C496.771088,311.024841 496.004150,317.833710 496.167664,324.817902 
	C487.822723,322.766357 479.760956,320.476105 471.350250,318.009613 
	C468.672516,314.637543 468.965515,310.736084 468.940491,307.241821 
	C468.902588,301.953186 468.190033,296.600647 469.247314,291.319519 
	C469.312561,290.993561 469.384888,290.654114 469.356964,290.327942 
	C468.289764,277.879089 469.446014,265.420471 469.216980,252.964188 
	C469.076965,245.350525 468.932495,237.737228 469.355225,230.090271 
	C470.023773,217.997086 468.888062,205.872314 468.827728,193.754608 
	C468.813446,190.880615 469.092438,188.109650 470.713104,185.193024 
	C479.626129,189.354523 488.215820,193.829895 496.954742,198.627167 
z"/>
<path fill="#F16159" opacity="1.000000" stroke="none" 
	d="
M426.470703,566.019287 
	C424.659058,564.969421 423.920868,563.429565 424.045502,561.723511 
	C424.781586,551.647095 421.288879,541.601990 423.940491,531.498047 
	C424.808594,528.190125 422.553131,524.976685 423.028534,521.653137 
	C424.434967,511.819977 423.667419,501.910095 423.696930,492.069794 
	C423.716187,485.647003 424.179474,479.129120 423.233490,472.629120 
	C422.599823,468.274933 422.666351,463.751587 423.671234,459.255890 
	C425.160187,452.594513 423.028320,445.863678 423.372894,439.103577 
	C423.537781,435.868774 422.717438,432.587250 423.721100,429.301819 
	C424.260193,427.537170 424.383423,425.647217 422.239380,424.132080 
	C429.337494,421.649750 436.777771,419.347473 444.609985,417.106384 
	C447.076416,419.373199 446.567139,422.157745 446.574799,424.758789 
	C446.631561,444.057770 446.401062,463.359619 446.658386,482.655365 
	C446.948761,504.429932 446.288147,526.198792 446.582855,547.970703 
	C446.616272,550.440857 446.897614,552.986755 445.314178,555.703613 
	C439.344116,560.090881 433.088806,563.038513 426.470703,566.019287 
z"/>
<path fill="#F26355" opacity="1.000000" stroke="none" 
	d="
M470.869934,184.568634 
	C469.068024,192.483444 471.100677,200.205734 470.433472,207.946411 
	C469.811523,215.162308 471.446625,222.799377 470.894257,230.202789 
	C469.930420,243.121048 472.193054,256.100311 470.645813,268.851501 
	C469.540253,277.962646 472.101929,286.811127 470.330292,295.971405 
	C469.034729,302.670319 470.670898,309.936279 471.000793,317.391418 
	C463.452789,315.813202 455.904266,313.793030 448.155273,311.442596 
	C449.798035,306.947754 449.227600,302.606354 448.562561,298.372467 
	C447.884308,294.054382 447.842346,289.859314 448.579437,285.540955 
	C449.076721,282.627563 449.292847,279.515594 448.835754,276.618561 
	C447.552948,268.488800 449.527283,260.252716 448.456177,252.342087 
	C447.173798,242.871140 449.229431,233.664307 448.488098,224.188889 
	C447.200348,207.730515 446.924500,191.012909 449.793640,174.222565 
	C457.435608,176.453278 463.480865,181.531815 470.869934,184.568634 
z"/>
<path fill="#F76E47" opacity="1.000000" stroke="none" 
	d="
M526.351318,334.009796 
	C523.766968,302.952393 525.571228,272.027771 525.020264,241.128128 
	C524.899719,234.367416 525.003113,227.602753 524.998657,220.839920 
	C524.997375,218.844864 524.850281,216.826492 526.254761,214.605743 
	C534.311157,216.997055 540.953552,222.236588 548.869507,225.566284 
	C549.023560,263.890991 549.011841,301.904724 549.000977,340.376038 
	C541.567993,338.617706 534.134277,336.401825 526.351318,334.009796 
z"/>
<path fill="#FE7F30" opacity="1.000000" stroke="none" 
	d="
M661.357178,434.969421 
	C661.027344,419.304596 660.505188,403.473877 661.177673,387.694061 
	C661.630432,377.069183 660.622009,366.492950 661.124268,355.936859 
	C661.754761,342.687103 660.456299,329.486023 660.918152,316.252045 
	C661.100342,311.032379 662.572266,305.810974 661.059937,300.527130 
	C660.546692,298.733978 661.281311,296.912628 662.794556,295.177490 
	C673.330811,306.820007 680.257324,320.418060 684.157776,335.544891 
	C687.527527,348.613831 688.694275,361.720551 687.248596,375.346863 
	C685.180420,394.840302 678.051758,412.018890 667.006653,427.858490 
	C665.335449,430.255096 663.456238,432.506622 661.357178,434.969421 
z"/>
<path fill="#F36454" opacity="1.000000" stroke="none" 
	d="
M478.613953,407.106079 
	C478.193756,414.160126 477.498199,421.069275 477.635406,428.218323 
	C477.779755,435.740173 477.971100,443.412872 477.206116,451.032318 
	C476.754150,455.534424 478.113251,460.182373 478.056885,464.849701 
	C477.895325,478.227875 478.148804,491.611481 477.950439,504.988678 
	C477.803284,514.911316 477.471252,524.828430 478.038269,534.744080 
	C478.102814,535.872803 478.596771,536.976929 478.944214,538.470825 
	C473.271881,541.896423 467.546997,544.943665 461.462830,548.021545 
	C457.155396,547.331299 457.616455,544.033020 457.597351,541.426941 
	C457.534058,532.790588 457.751831,524.149902 457.741394,515.513489 
	C457.705109,485.443878 457.379730,455.374878 457.496216,425.304657 
	C457.510986,421.484924 457.432922,417.652710 458.737640,413.543274 
	C465.128052,410.241333 471.965912,409.548706 478.613953,407.106079 
z"/>
<path fill="#955BEE" opacity="1.000000" stroke="none" 
	d="
M149.037415,442.662720 
	C148.357971,447.155945 145.026138,449.962219 143.364929,453.938599 
	C140.600082,454.146545 139.105423,452.463348 137.620880,450.933960 
	C117.668587,430.378937 105.247040,405.994751 100.952682,377.648346 
	C97.048294,351.876068 101.577293,327.222778 112.417374,303.785706 
	C118.161591,291.366272 126.169319,280.256836 135.580490,270.241699 
	C136.731659,269.016663 138.040466,268.005219 139.990219,267.243469 
	C142.243912,270.801605 144.118927,274.481232 146.021530,278.525940 
	C146.585342,281.072693 144.955124,282.224426 143.775620,283.546906 
	C127.055725,302.293610 117.709709,324.155945 115.161568,349.171722 
	C112.276192,377.498108 120.217789,402.752075 135.719910,426.064850 
	C139.599503,431.899200 145.138000,436.390991 149.037415,442.662720 
z"/>
<path fill="#A26EF2" opacity="1.000000" stroke="none" 
	d="
M165.241074,420.779236 
	C162.270111,424.669830 159.498917,428.223724 156.415131,431.912537 
	C152.637955,432.446960 151.127274,429.634552 149.477249,427.585083 
	C134.931427,409.517822 125.884377,389.188660 124.641983,365.757996 
	C123.277191,340.019012 130.345764,316.850922 145.905106,296.292023 
	C147.710846,293.906067 149.579971,291.559998 152.650284,289.971497 
	C156.305740,294.365723 159.570312,298.840576 162.971909,303.633545 
	C158.430527,309.760986 154.149719,315.787781 151.086441,322.674133 
	C136.829254,354.724609 140.327499,384.726410 161.143265,412.847443 
	C162.874207,415.185852 165.523514,417.057922 165.241074,420.779236 
z"/>
<path fill="#F26355" opacity="1.000000" stroke="none" 
	d="
M458.608185,413.097931 
	C460.264984,415.754120 458.964050,418.339630 458.971741,420.926605 
	C459.025543,439.028992 458.699249,457.138855 459.134583,475.230927 
	C459.335754,483.592987 459.495392,492.033234 459.529633,500.340363 
	C459.586609,514.180359 459.432617,528.082458 458.991302,541.949768 
	C458.926361,543.991455 459.123169,545.930420 460.786865,547.818665 
	C456.288422,551.270569 450.934784,553.450745 445.407623,556.058350 
	C445.027954,510.103973 445.014374,464.093414 445.001343,417.625214 
	C449.406189,415.787811 453.810455,414.408051 458.608185,413.097931 
z"/>
<path fill="#B185F6" opacity="1.000000" stroke="none" 
	d="
M170.704590,313.884338 
	C176.188858,317.480591 180.438049,321.938568 184.924194,326.578674 
	C185.758743,329.331421 183.962540,330.933594 182.965698,332.736084 
	C171.948730,352.657196 173.171570,371.999176 185.557251,390.864075 
	C186.889297,392.892944 188.969360,394.605255 188.252747,397.783081 
	C184.315811,403.129974 178.465149,405.908295 174.352936,410.974854 
	C164.322403,399.821106 157.682159,387.100769 155.123245,372.254852 
	C151.656677,352.143127 156.492783,334.011261 167.414139,317.181580 
	C168.218552,315.941986 168.886078,314.545105 170.704590,313.884338 
z"/>
<path fill="#A978F4" opacity="1.000000" stroke="none" 
	d="
M171.056580,313.602203 
	C164.108765,323.575775 159.224884,334.104553 156.835144,345.830017 
	C152.583221,366.692383 157.391113,385.510223 169.338562,402.745575 
	C171.047562,405.210968 172.782486,407.592438 173.903519,410.777527 
	C170.573425,413.763824 168.306259,417.453217 165.358261,420.972656 
	C163.863312,416.768219 160.259720,414.079742 157.752747,410.664337 
	C148.496078,398.053406 143.792465,383.900909 141.895645,368.466003 
	C139.281982,347.198334 145.319061,328.289429 156.265503,310.483856 
	C157.857269,307.894714 159.900253,305.816864 162.795471,304.098267 
	C165.742401,307.051849 168.375839,310.152069 171.056580,313.602203 
z"/>
<path fill="#9054ED" opacity="1.000000" stroke="none" 
	d="
M140.217255,266.823425 
	C130.587616,277.302399 121.858719,288.243835 115.434273,300.917450 
	C109.707420,312.214905 105.606018,324.102264 103.120407,336.459137 
	C101.393715,345.043152 100.500298,353.823822 101.015137,362.637268 
	C102.036003,380.113403 105.331566,396.989716 112.890533,413.012970 
	C119.335548,426.674896 127.898514,438.710541 138.176147,449.634125 
	C139.530426,451.073517 141.171829,452.242706 142.864624,453.819794 
	C142.360611,455.830872 141.672211,457.559174 140.909042,459.641968 
	C138.372833,459.668060 136.674774,458.122864 134.961212,456.488647 
	C118.867943,441.140686 107.583534,422.617523 100.588860,401.730286 
	C94.755508,384.310944 92.351379,366.049774 94.174751,347.727417 
	C96.267113,326.702209 102.832069,306.935516 114.029297,288.791107 
	C119.470108,279.974609 126.212944,272.263092 133.001221,264.552582 
	C134.183090,263.210114 135.288651,261.648224 137.500031,261.045319 
	C138.809021,262.751404 140.164993,264.343933 140.217255,266.823425 
z"/>
<path fill="#BA91F9" opacity="1.000000" stroke="none" 
	d="
M188.392303,398.058044 
	C187.845947,396.229248 186.904800,394.717194 185.757553,393.256226 
	C171.092621,374.580780 169.918228,347.642578 184.898560,327.204773 
	C189.803741,329.315796 193.509842,333.173248 197.913239,336.569855 
	C199.411255,338.979645 198.061783,340.732697 197.214783,342.446930 
	C190.233032,356.577148 191.215744,369.944427 200.893585,382.533081 
	C202.005035,383.978790 203.258789,385.396332 202.259491,387.786011 
	C197.607590,391.408813 193.176117,394.704468 188.392303,398.058044 
z"/>
<path fill="#9C66F0" opacity="1.000000" stroke="none" 
	d="
M152.911621,289.576965 
	C140.969528,302.921753 132.874161,318.040802 128.729874,335.349609 
	C121.061562,367.376709 128.161484,396.227783 147.137314,422.593384 
	C149.561142,425.961121 152.185257,429.174652 155.793671,431.902893 
	C155.728088,434.398499 153.824387,435.849731 152.418030,437.914276 
	C148.211517,437.472137 146.551132,434.048462 144.447205,431.527039 
	C126.512840,410.033478 117.028877,385.312164 117.766708,357.197479 
	C118.452919,331.049896 127.496658,307.841461 144.179077,287.654907 
	C145.343414,286.246002 146.564728,284.871857 148.655121,283.973267 
	C150.291611,285.681580 151.536850,287.472351 152.911621,289.576965 
z"/>
<path fill="#C5A1FC" opacity="1.000000" stroke="none" 
	d="
M202.399841,388.053802 
	C202.094086,386.562714 201.633286,385.290497 200.585220,384.041229 
	C189.754913,371.131592 188.608185,357.107635 195.922211,342.153412 
	C196.648880,340.667694 197.278763,339.134644 197.996185,337.255157 
	C205.843567,340.620361 212.712479,346.071228 220.954407,349.617188 
	C220.715836,352.191376 218.621613,353.417358 217.837250,355.451813 
	C215.762833,360.832428 218.246704,367.126373 223.508560,369.835358 
	C225.519577,370.870667 228.092850,371.035858 229.158829,373.767761 
	C220.086716,378.367615 211.154053,382.670380 202.399841,388.053802 
z"/>
<path fill="#9961EF" opacity="1.000000" stroke="none" 
	d="
M149.022293,283.547119 
	C138.790024,295.802887 130.243347,308.737549 125.109581,323.732147 
	C122.254295,332.071808 121.067116,340.691620 119.801537,349.397247 
	C117.815643,363.057739 119.633652,376.170929 123.233315,389.183319 
	C127.916344,406.111938 136.288223,421.044403 148.350174,433.869354 
	C149.483551,435.074432 150.480057,436.408173 151.822678,437.866516 
	C151.888763,439.911499 150.949142,441.409546 149.426666,442.908569 
	C140.873230,435.733765 134.259094,427.094727 128.847092,417.563477 
	C123.090187,407.424774 118.589005,396.733490 116.040077,385.307709 
	C110.778351,361.721558 112.662239,338.758545 121.804314,316.325500 
	C127.446991,302.479401 135.213226,290.113892 145.905487,279.200073 
	C147.032150,280.328461 148.015167,281.765930 149.022293,283.547119 
z"/>
<path fill="#CEADFE" opacity="1.000000" stroke="none" 
	d="
M229.288849,374.054138 
	C227.935730,372.423370 226.005203,372.300201 224.347061,371.631409 
	C214.799866,367.780457 212.901077,357.264587 220.789917,350.096893 
	C225.823120,351.867706 230.524216,353.818848 235.251678,355.703888 
	C239.228928,357.289825 241.230560,360.645874 240.816284,364.426605 
	C240.285904,369.266907 236.894699,372.253906 231.502289,373.022278 
	C230.937088,373.176208 230.751266,373.308716 230.286148,373.639221 
	C229.848251,373.888733 229.689651,373.940247 229.288849,374.054138 
z"/>
<path fill="#FA763C" opacity="1.000000" stroke="none" 
	d="
M616.280518,466.862671 
	C616.156921,466.537964 616.374023,466.316864 616.895020,466.105225 
	C616.928894,466.322418 616.736328,466.606293 616.280518,466.862671 
z"/>
<path fill="#C5A1FC" opacity="1.000000" stroke="none" 
	d="
M230.275330,373.881470 
	C230.152115,373.541748 230.371338,373.319092 230.893707,373.106445 
	C230.929886,373.337708 230.736847,373.631714 230.275330,373.881470 
z"/>
<path fill="#000000" opacity="1.000000" stroke="none" 
	d="
M967.000000,309.444214 
	C967.975708,302.888000 972.241333,299.000763 977.978760,299.000610 
	C1020.633118,298.999481 1063.287476,298.999481 1105.941772,299.000549 
	C1112.441040,299.000732 1116.997437,303.450653 1116.998901,309.804169 
	C1117.002319,324.799835 1117.006592,339.795502 1116.996338,354.791168 
	C1116.992798,359.792328 1112.928467,363.948761 1107.811279,363.979095 
	C1096.481567,364.046265 1085.124512,363.502289 1073.826904,364.107788 
	C1052.911865,365.228729 1032.342407,368.193268 1013.303772,377.928406 
	C999.305847,385.085999 988.322510,395.371338 979.895447,408.533997 
	C978.047607,411.420288 969.476440,412.387115 967.462036,409.717804 
	C966.708618,408.719513 967.016174,406.842407 967.015259,405.365906 
	C966.995178,373.541779 967.000000,341.717682 967.000000,309.444214 
z"/>
<path fill="#000000" opacity="1.000000" stroke="none" 
	d="
M1565.000000,409.000000 
	C1565.000000,375.847229 1564.996338,343.194489 1565.002686,310.541718 
	C1565.004150,303.222565 1569.203247,299.000305 1576.438110,299.000214 
	C1618.253662,298.999756 1660.069092,298.999512 1701.884644,299.000458 
	C1708.651611,299.000610 1713.999634,304.441406 1713.999756,311.322449 
	C1714.000244,353.637756 1714.001099,395.953064 1713.998779,438.268372 
	C1713.998535,444.358093 1708.370850,449.998291 1702.293335,449.998657 
	C1659.978027,450.001129 1617.662720,450.002411 1575.347412,449.997131 
	C1569.652832,449.996429 1565.006226,445.266754 1565.002075,439.487152 
	C1564.994751,429.491425 1565.000000,419.495728 1565.000000,409.000000 
z"/>
</svg>