<?xml version="1.0" encoding="UTF-8"?>
<svg version="1.1" id="Layer_1" xmlns="http://www.w3.org/2000/svg" xmlns:xlink="http://www.w3.org/1999/xlink" x="0px" y="0px"
	 width="100%" viewBox="0 0 3284 724" enable-background="new 0 0 3284 724" xml:space="preserve">
<path fill="#000000" opacity="1.000000" stroke="none" 
	d="
M3284.632324,529.667603 
	C3285.000000,593.663025 3284.965576,657.326172 3285.094971,720.988953 
	C3285.101807,724.389343 3284.456787,725.095154 3281.011230,725.094849 
	C2189.073486,724.997864 1097.135620,724.997375 5.197816,725.106140 
	C1.449250,725.106506 0.913724,724.162964 0.915084,720.698242 
	C1.008636,482.211884 1.010539,243.725449 0.901408,5.239063 
	C0.899744,1.603510 1.683997,0.906476 5.260507,0.906788 
	C1097.031616,1.002164 2188.802734,1.002635 3280.573975,0.896361 
	C3284.490967,0.895979 3285.093018,1.959899 3285.087158,5.573683 
	C3284.969482,75.403198 3285.000000,145.232971 3285.000000,215.531342 
	C3283.564209,217.641464 3281.683838,218.069397 3279.598145,218.090271 
	C3276.932129,218.116943 3274.266357,218.136581 3271.600342,218.136627 
	C3162.291504,218.138428 3052.982666,218.136673 2943.673828,218.139420 
	C2933.148193,218.139679 2933.139160,218.147690 2933.138916,228.538422 
	C2933.135986,325.016815 2933.134766,421.495178 2933.140137,517.973572 
	C2933.140625,527.846863 2933.154053,527.859131 2943.185791,527.859619 
	C3053.494385,527.864563 3163.803223,527.850586 3274.111816,527.908875 
	C3277.514648,527.910645 3281.152832,526.965149 3284.632324,529.667603 
z"/>
<path fill="#191919" opacity="1.000000" stroke="none" 
	d="
M3285.000000,529.531372 
	C3169.525146,530.000000 3054.050049,530.000244 2938.575195,529.999573 
	C2931.002930,529.999512 2931.000488,529.996399 2931.000488,522.436890 
	C2931.000000,422.625183 2930.999512,322.813507 2931.000977,223.001816 
	C2931.000977,216.006836 2931.007080,216.001495 2938.137451,216.001434 
	C3053.445801,216.000366 3168.754150,216.000778 3284.531250,216.000412 
	C3285.000000,243.020889 3285.000000,270.041779 3285.000000,297.531342 
	C3282.523926,300.783966 3279.180420,300.080963 3276.093018,300.084320 
	C3233.604004,300.130432 3191.114990,300.110992 3148.625977,300.113953 
	C3121.966309,300.115845 3095.306396,300.088440 3068.646729,300.128357 
	C3058.756836,300.143188 3056.185059,302.743042 3056.119873,312.550568 
	C3056.102051,315.216461 3056.099854,317.882599 3056.121338,320.548431 
	C3056.196777,329.988892 3058.061035,331.812073 3067.697998,331.880127 
	C3070.030762,331.896606 3072.363525,331.886108 3074.696289,331.886200 
	C3126.016357,331.888214 3177.336426,331.874359 3228.656494,331.895538 
	C3239.712402,331.900116 3241.122314,334.180267 3236.336914,344.232239 
	C3226.461670,364.976318 3216.996094,385.911713 3207.217285,406.701385 
	C3204.652100,412.154999 3201.128418,414.216553 3195.174805,414.194885 
	C3154.019287,414.045105 3112.863037,414.106018 3071.707031,414.116119 
	C3069.374756,414.116699 3067.035889,414.016998 3064.712158,414.233612 
	C3059.886963,414.683380 3056.617188,417.756714 3056.271240,422.512024 
	C3055.908447,427.495941 3055.917969,432.512634 3056.263672,437.497406 
	C3056.590820,442.212952 3059.899658,445.325653 3064.705322,445.766876 
	C3067.195312,445.995483 3069.701172,445.883423 3072.199951,445.883606 
	C3139.849121,445.888062 3207.498291,445.872711 3275.147461,445.925720 
	C3278.229004,445.928131 3281.532471,445.112244 3284.648682,447.683777 
	C3285.000000,475.020905 3285.000000,502.041779 3285.000000,529.531372 
z"/>
<path fill="#000000" opacity="1.000000" stroke="none" 
	d="
M3285.000000,447.531342 
	C3212.026855,448.000336 3139.053467,448.002106 3066.080322,447.999146 
	C3057.946533,447.998810 3054.009766,444.025146 3054.000732,435.840271 
	C3053.996338,432.008331 3053.997314,428.176422 3054.000488,424.344482 
	C3054.007568,415.815796 3057.831787,412.001709 3066.396729,412.001190 
	C3109.547607,411.998566 3152.698486,411.933716 3195.848633,412.098022 
	C3200.382324,412.115265 3202.860107,411.032867 3204.857666,406.611938 
	C3214.994873,384.175842 3225.630859,361.965637 3235.910400,339.592926 
	C3238.402588,334.168854 3238.086426,334.004669 3232.182617,334.004150 
	C3176.703125,333.999146 3121.222656,333.855988 3065.744873,334.176361 
	C3058.428467,334.218567 3052.883057,329.839966 3053.909424,322.074951 
	C3054.428711,318.145081 3053.995850,314.089874 3054.000977,310.091339 
	C3054.010986,301.932617 3057.949463,298.001038 3066.142578,298.000702 
	C3138.782471,297.997711 3211.422607,297.999054 3284.531250,297.999542 
	C3285.000000,347.687561 3285.000000,397.375122 3285.000000,447.531342 
z"/>
<path fill="#191919" opacity="1.000000" stroke="none" 
	d="
M2216.000000,408.000000 
	C2216.000000,346.000305 2215.999023,284.500641 2216.000732,223.000961 
	C2216.000977,216.006836 2216.007568,216.001831 2223.141357,216.001480 
	C2259.307861,215.999710 2295.474854,216.096634 2331.640137,215.890015 
	C2336.654785,215.861374 2338.121826,217.155548 2338.112549,222.283859 
	C2337.955322,308.949768 2337.724854,395.617615 2338.208496,482.281128 
	C2338.318604,502.012817 2325.460693,518.275513 2308.716309,524.967896 
	C2299.933594,528.478149 2290.881836,530.017029 2281.467529,530.015137 
	C2163.134766,529.992004 2044.802002,530.101746 1926.469482,529.902039 
	C1906.194458,529.867798 1889.242432,522.222229 1877.751465,504.601196 
	C1873.285645,497.752991 1872.122681,489.947357 1872.107544,482.196777 
	C1871.938843,395.197571 1872.028442,308.197876 1871.918945,221.198471 
	C1871.913452,216.900864 1873.438965,215.915970 1877.432495,215.929214 
	C1914.265259,216.051178 1951.098999,216.085526 1987.931152,215.898193 
	C1992.757080,215.873642 1994.108643,217.258850 1994.098877,222.074387 
	C1993.955078,293.240387 1993.999268,364.406769 1994.001099,435.573059 
	C1994.001343,444.153137 1997.812134,447.994751 2006.320679,447.999878 
	C2015.153931,448.005219 2023.987305,448.006073 2032.820557,447.999603 
	C2041.022583,447.993561 2044.997803,444.060272 2044.998169,435.931366 
	C2045.001343,364.931732 2044.999268,293.932098 2045.001099,222.932480 
	C2045.001343,216.012161 2045.008667,216.002853 2051.710449,216.002258 
	C2087.710205,215.998993 2123.710938,216.104034 2159.709229,215.884247 
	C2164.831543,215.852982 2166.118896,217.332092 2166.107666,222.353424 
	C2165.949463,293.352692 2165.999512,364.352417 2166.000977,435.352051 
	C2166.001221,445.067780 2168.963135,448.000366 2178.756592,448.001129 
	C2186.923096,448.001740 2195.089844,448.003387 2203.256348,448.000610 
	C2212.247803,447.997528 2215.995850,444.321289 2215.999268,435.500092 
	C2216.002686,426.500061 2216.000000,417.500031 2216.000000,408.000000 
z"/>
<path fill="#772EE5" opacity="1.000000" stroke="none" 
	d="
M1027.000000,216.000549 
	C1080.989014,216.000717 1134.483765,215.546432 1187.963867,216.239487 
	C1207.546143,216.493240 1230.885376,229.558777 1236.257324,251.459671 
	C1236.700073,253.264740 1236.976929,254.980652 1236.977417,256.753387 
	C1237.002808,346.234894 1236.971680,435.716461 1237.093262,525.197815 
	C1237.098633,529.181763 1235.999268,530.102356 1232.137695,530.087341 
	C1194.812622,529.941650 1157.486572,529.933655 1120.161499,530.095459 
	C1116.116821,530.112976 1114.848877,529.280640 1114.891846,524.994080 
	C1115.123779,501.834503 1115.006958,478.671387 1114.998169,455.509491 
	C1114.995972,449.640259 1109.348022,444.004242 1103.466553,444.003387 
	C1060.975342,443.997040 1018.484070,443.998840 975.992859,444.001434 
	C970.456299,444.001770 965.010925,449.484833 965.006836,455.132721 
	C964.990051,478.461243 964.913147,501.790405 965.086182,525.117615 
	C965.114624,528.940979 964.244385,530.116638 960.217163,530.098938 
	C922.392395,529.932129 884.566162,529.927612 846.741516,530.103760 
	C842.635620,530.122864 841.918579,528.818604 841.922791,525.077881 
	C842.020935,437.596039 841.911621,350.113922 842.065125,262.632263 
	C842.099792,242.882065 854.129639,228.721100 871.233398,221.064850 
	C880.369263,216.975357 890.017090,215.863815 900.027466,215.912979 
	C942.184082,216.120071 984.342346,216.000549 1027.000000,216.000549 
z"/>
<path fill="#262626" opacity="1.000000" stroke="none" 
	d="
M1823.263428,512.233398 
	C1811.518555,524.478210 1797.005249,529.865417 1780.863647,529.894775 
	C1668.730225,530.098755 1556.596191,530.003174 1444.462402,530.000610 
	C1438.008789,530.000427 1438.003662,529.987976 1438.000244,523.352600 
	C1437.995483,513.855408 1438.054688,504.357788 1437.988647,494.861023 
	C1437.784424,465.461273 1448.685669,440.422913 1466.670410,417.568207 
	C1481.174316,399.136841 1499.416138,386.780548 1521.217163,379.128143 
	C1524.308350,378.043121 1526.858032,376.556915 1526.833008,373.042480 
	C1526.807617,369.461334 1524.392700,367.395355 1521.188843,366.185242 
	C1509.461060,361.755463 1498.388672,356.130859 1488.520264,348.299255 
	C1480.123657,341.635742 1472.867798,333.826080 1466.810547,325.066315 
	C1457.748535,311.960876 1448.411255,298.987701 1443.603882,283.423187 
	C1439.639893,270.589172 1438.343506,257.452911 1438.030762,244.156876 
	C1437.854492,236.663223 1438.215088,229.153366 1437.915405,221.667557 
	C1437.744751,217.404785 1438.873413,215.582184 1443.453003,215.915543 
	C1448.590942,216.289551 1453.777100,216.001236 1458.942261,216.001236 
	C1566.577393,216.001221 1674.213257,215.822571 1781.847290,216.164093 
	C1801.480103,216.226364 1818.001343,224.144958 1828.954834,241.435516 
	C1832.243530,246.626831 1833.991943,252.261887 1833.992798,258.401215 
	C1834.003662,334.712219 1833.990601,411.023224 1834.011475,487.334229 
	C1834.014160,497.072968 1829.650635,504.887390 1823.263428,512.233398 
z"/>
<path fill="#191919" opacity="1.000000" stroke="none" 
	d="
M2638.000000,448.001221 
	C2678.327393,448.001160 2718.154541,448.003754 2757.981934,447.998749 
	C2766.082031,447.997711 2769.990479,444.008789 2769.999268,435.773346 
	C2770.002441,432.773804 2770.000977,429.774231 2770.000000,426.774689 
	C2769.996338,417.727905 2765.348389,413.001190 2756.439941,413.000916 
	C2699.281982,412.999115 2642.121338,413.312622 2584.967529,412.832428 
	C2564.634033,412.661591 2549.188721,402.668091 2539.359619,384.638123 
	C2536.935547,380.191589 2536.037354,375.216675 2536.030029,370.191376 
	C2535.974854,333.030426 2535.664062,295.864899 2536.157715,258.710449 
	C2536.369629,242.761887 2545.216309,231.245880 2558.921875,223.609604 
	C2568.211182,218.434052 2578.172607,215.900742 2589.002686,215.916473 
	C2687.654053,216.059845 2786.305908,216.000198 2884.957520,216.001572 
	C2891.993896,216.001663 2891.998291,216.007812 2891.999023,223.097580 
	C2892.001465,245.427521 2892.001709,267.757446 2891.999023,290.087402 
	C2891.998047,296.989319 2891.992188,296.998413 2885.274658,296.998627 
	C2814.118896,297.000885 2742.962891,296.999573 2671.807129,297.000580 
	C2663.450928,297.000702 2659.009277,301.385254 2659.003662,309.681305 
	C2658.991699,327.178650 2659.019043,344.676025 2658.979736,362.173309 
	C2658.973877,364.823822 2659.024658,367.322083 2662.361572,367.864441 
	C2665.596924,368.390228 2668.682373,370.462555 2671.608154,366.232269 
	C2685.344238,346.373108 2705.613525,337.748810 2728.564941,334.024078 
	C2739.921631,332.181030 2751.361084,331.906250 2762.846924,331.960052 
	C2789.842041,332.086517 2816.868652,331.214264 2843.824707,332.249908 
	C2865.388672,333.078400 2886.111816,346.528961 2891.387939,367.557373 
	C2891.971191,369.881989 2891.989990,372.166199 2891.990723,374.486053 
	C2892.003662,410.980499 2891.405762,447.488403 2892.230713,483.964203 
	C2892.698730,504.674835 2878.709473,519.456604 2862.652588,525.902710 
	C2855.335205,528.840454 2847.594482,529.986389 2839.723389,529.987854 
	C2740.905029,530.006287 2642.086670,530.000305 2543.268311,529.999329 
	C2536.004150,529.999207 2536.001221,529.994629 2536.000732,522.628967 
	C2535.999023,499.799103 2536.122070,476.968048 2535.900146,454.140350 
	C2535.854248,449.403351 2537.106934,447.862640 2542.016357,447.894653 
	C2573.843018,448.102539 2605.671875,448.001251 2638.000000,448.001221 
z"/>
<path fill="#191919" opacity="1.000000" stroke="none" 
	d="
M2376.000000,485.000000 
	C2376.000000,397.339233 2375.999512,310.178467 2376.000977,223.017700 
	C2376.000977,216.006958 2376.007324,216.001877 2383.123535,216.001526 
	C2419.287842,215.999710 2455.452393,216.094009 2491.615723,215.892334 
	C2496.590576,215.864594 2498.121338,217.092575 2498.113525,222.258865 
	C2497.960449,322.751831 2497.960693,423.245148 2498.113525,523.738098 
	C2498.121338,528.899475 2496.599121,530.135864 2491.619141,530.108337 
	C2455.122559,529.906860 2418.624268,529.918884 2382.127686,530.098511 
	C2377.392334,530.121826 2375.763428,528.919006 2375.889648,523.994690 
	C2376.218262,511.170593 2376.000000,498.332489 2376.000000,485.000000 
z"/>
<path fill="#772EE5" opacity="1.000000" stroke="none" 
	d="
M1395.728149,460.395874 
	C1398.640991,470.946167 1400.284790,481.244263 1400.055664,491.859741 
	C1399.807495,503.350769 1399.922119,514.852234 1400.054810,526.347046 
	C1400.086426,529.088562 1399.423950,530.067810 1396.487183,530.060852 
	C1357.499634,529.967712 1318.511597,529.949524 1279.524170,530.082153 
	C1275.979004,530.094177 1275.959106,528.459290 1275.966309,525.860962 
	C1276.026001,504.201263 1276.000000,482.541290 1276.000000,460.881409 
	C1276.000000,381.239685 1276.040894,301.597900 1275.894653,221.956451 
	C1275.886230,217.359665 1276.661499,215.831558 1281.707397,215.864822 
	C1319.527344,216.114258 1357.349731,216.062439 1395.170654,215.908371 
	C1399.100586,215.892380 1400.197876,216.908981 1400.095093,220.838058 
	C1399.816162,231.494095 1400.079346,242.162949 1399.982300,252.825394 
	C1399.799072,272.955200 1393.804321,291.397583 1383.114014,308.295837 
	C1375.851807,319.774963 1368.251343,331.078766 1358.647583,340.792969 
	C1347.903442,351.660675 1334.930664,359.163666 1320.901489,364.961853 
	C1319.399048,365.582764 1317.956177,366.384064 1316.410889,366.857239 
	C1313.059570,367.883362 1311.724731,370.117706 1311.996704,373.504089 
	C1312.259277,376.771576 1314.275146,378.094147 1317.212036,379.137970 
	C1335.174194,385.522156 1351.704956,394.326233 1364.419312,408.969391 
	C1377.657837,424.216370 1389.571411,440.327209 1395.728149,460.395874 
z"/>
<path fill="#F87044" opacity="1.000000" stroke="none" 
	d="
M572.400513,487.397095 
	C562.258301,494.339325 551.179016,499.053192 540.408813,505.062317 
	C537.370789,504.255035 536.650085,502.019501 536.540283,499.631165 
	C535.617493,479.550232 535.721741,459.476929 536.364868,439.378387 
	C536.585510,432.482819 536.010864,425.487457 536.046692,418.531830 
	C536.096130,408.951752 535.009644,399.319519 537.681091,389.506042 
	C539.954529,387.941040 542.145447,387.467987 544.366943,386.966156 
	C555.867920,384.368256 564.582886,373.543152 563.943787,362.195526 
	C563.350525,351.662079 555.929260,341.728180 544.630188,339.091919 
	C542.567261,338.610626 540.585510,338.087585 538.346924,337.005981 
	C536.051697,335.108398 535.876892,332.805084 535.916748,330.431610 
	C536.378357,302.882385 535.443909,275.328094 536.082825,247.786850 
	C536.244324,240.824219 535.600647,233.897400 535.975952,226.952621 
	C536.092041,224.804382 535.780701,222.599579 537.626587,220.455017 
	C549.575439,226.202820 561.150574,232.238388 572.887085,238.583649 
	C574.271423,241.031540 574.162842,243.392456 574.110229,245.716064 
	C573.805725,259.179993 574.330627,272.641571 574.148376,286.106781 
	C573.822021,310.214874 574.110779,334.325073 574.108459,358.434387 
	C574.104553,398.400085 574.127014,438.365784 574.093201,478.331451 
	C574.090759,481.273865 574.669678,484.392212 572.400513,487.397095 
z"/>
<path fill="#FA743E" opacity="1.000000" stroke="none" 
	d="
M572.779663,487.897095 
	C571.542175,479.235626 572.048279,470.574860 572.029663,461.926636 
	C571.956970,428.183350 572.000000,394.439819 572.000000,360.696381 
	C572.000000,344.637878 572.609924,328.549408 571.823853,312.529480 
	C571.077637,297.321960 572.674133,282.179932 571.722412,266.929016 
	C571.168640,258.056519 570.817505,248.693222 572.878906,239.282990 
	C583.133667,242.621780 591.877991,249.025162 601.875488,253.571854 
	C604.822388,257.001556 604.340698,260.797943 603.790100,264.359467 
	C602.991089,269.527649 602.946899,274.578796 603.837280,279.736298 
	C604.430542,283.172577 604.591125,286.816315 603.911987,290.191925 
	C602.742981,296.001831 603.310364,301.865509 603.587524,307.551758 
	C603.946228,314.910767 603.003906,322.146790 603.118469,329.437042 
	C603.358887,344.739655 602.683899,360.053680 603.223145,375.338226 
	C603.616638,386.488708 602.527588,397.606171 603.159851,408.731232 
	C603.949951,422.634064 604.194275,436.558350 603.952209,450.464264 
	C603.831848,457.375183 604.008545,464.326111 603.176025,471.669922 
	C593.088257,477.379395 583.129456,482.649780 572.779663,487.897095 
z"/>
<path fill="#E03A8E" opacity="1.000000" stroke="none" 
	d="
M156.249329,706.414368 
	C148.519211,712.244385 140.391235,712.815796 132.461227,708.631653 
	C125.085182,704.739807 120.910637,698.488953 120.932625,689.534058 
	C121.066315,635.087585 121.184319,580.639343 120.802429,526.195190 
	C120.744194,517.891907 128.301559,507.957550 135.336761,506.009949 
	C141.266571,504.368347 147.180374,502.668884 153.500580,500.973267 
	C157.300980,501.597168 157.014999,504.342590 157.055649,506.744781 
	C157.221634,516.554565 157.119125,526.366333 157.124832,536.177307 
	C157.135284,554.136658 157.317749,572.098572 157.068100,590.054626 
	C156.853424,605.494263 157.161621,620.927368 157.193832,636.362610 
	C157.238861,657.939270 156.948547,679.515015 157.129318,701.091248 
	C157.143188,702.747925 157.234146,704.428284 156.249329,706.414368 
z"/>
<path fill="#8C4EEB" opacity="1.000000" stroke="none" 
	d="
M140.439087,458.357788 
	C138.999390,462.628235 137.622269,466.619354 135.813232,470.404053 
	C134.327469,473.512390 131.796585,475.286591 128.022903,475.041748 
	C124.181412,474.792511 121.378273,473.143372 120.040039,469.577484 
	C114.171494,453.939850 106.391174,439.360870 96.024055,426.242462 
	C83.392921,410.259186 68.895790,396.329224 51.354790,385.696533 
	C41.736347,379.866180 31.721445,374.965210 21.240311,370.913696 
	C17.766539,369.570923 15.926975,366.675415 15.998873,362.780060 
	C16.080090,358.379730 18.749516,355.602020 22.442898,354.338989 
	C32.218140,350.996033 41.170322,346.053894 50.076096,340.981567 
	C66.745911,331.487000 80.294838,318.418365 92.643364,303.926270 
	C101.377350,293.676178 108.365005,282.342896 114.250153,270.297241 
	C116.314384,266.072205 118.397842,261.795044 119.813240,257.332581 
	C121.105270,253.259140 123.654182,251.266907 127.570305,251.067169 
	C131.613876,250.860931 134.813065,252.453232 136.277481,256.625824 
	C136.809372,258.141357 138.140320,259.356598 138.029434,261.515686 
	C138.253540,265.754242 135.198715,267.766693 133.042709,270.080444 
	C123.997955,279.787018 116.280739,290.439911 110.730797,302.452271 
	C93.695351,339.324036 93.307556,376.406433 109.982437,413.578735 
	C116.616791,428.368286 126.015083,441.150726 137.567413,452.428497 
	C139.124496,453.948517 140.719223,455.484222 140.439087,458.357788 
z"/>
<path fill="#E03A8E" opacity="1.000000" stroke="none" 
	d="
M155.345154,225.495514 
	C148.820038,223.933121 142.605835,222.138977 136.469696,220.108902 
	C126.013824,216.649689 120.999619,209.695328 120.999573,198.964279 
	C120.999367,144.875900 121.322662,90.784271 120.779770,36.701332 
	C120.638115,22.589510 136.404419,9.459637 152.023087,16.999279 
	C152.906876,17.425919 153.798996,17.835327 154.864517,18.569178 
	C157.033600,21.020498 157.119019,23.665886 157.118851,26.369864 
	C157.117813,44.020340 157.205658,61.671268 157.083771,79.321159 
	C156.959915,97.259705 157.663040,115.205170 157.494720,133.117340 
	C157.329041,150.749146 157.328384,168.390991 157.085403,186.026291 
	C156.936310,196.846405 157.217819,207.669998 157.090607,218.491638 
	C157.063675,220.782974 157.447067,223.208664 155.345154,225.495514 
z"/>
<path fill="#E44382" opacity="1.000000" stroke="none" 
	d="
M186.666855,35.486107 
	C199.442352,41.724861 211.885834,48.281757 224.649658,55.003426 
	C225.443024,60.970280 225.051559,66.780746 225.071579,72.585152 
	C225.172119,101.724258 225.087234,130.863892 225.126602,160.003265 
	C225.160324,184.960388 225.081680,209.917343 225.082718,234.874390 
	C225.082855,238.169052 225.446091,241.614105 222.394745,244.561005 
	C214.935440,243.779739 208.347916,240.991241 201.492020,239.174881 
	C197.427368,238.098007 193.393585,236.904724 189.152039,235.439621 
	C186.564163,232.907959 185.759491,230.070633 185.968597,226.955795 
	C186.959503,212.194809 185.466995,197.441147 186.141632,182.640137 
	C186.675568,170.925888 185.806534,159.067764 186.045654,147.304520 
	C186.430511,128.371292 185.938141,109.441177 185.793793,90.528435 
	C185.663177,73.412086 186.876755,56.288067 185.711945,39.180649 
	C185.630615,37.986034 185.730042,36.856743 186.666855,35.486107 
z"/>
<path fill="#EA516F" opacity="1.000000" stroke="none" 
	d="
M293.599274,92.091278 
	C303.823486,96.888206 313.608673,101.883743 323.385315,106.895866 
	C326.835846,108.664818 330.265625,110.474319 333.872986,112.575699 
	C335.871460,114.878334 336.110443,117.314362 336.115692,119.874420 
	C336.185699,154.024445 336.080200,188.174377 336.048584,222.324265 
	C336.034424,237.630981 336.291382,252.937225 336.091980,268.243591 
	C336.053101,271.227722 336.297577,274.313721 333.384399,276.880951 
	C325.815552,276.240936 319.253632,273.183380 312.289307,271.567108 
	C306.327209,270.183411 300.549286,268.006256 294.345337,266.006470 
	C291.392944,263.513031 291.902740,260.378387 291.898346,257.433716 
	C291.855255,228.652252 292.084503,199.868774 291.812439,171.089798 
	C291.578369,146.331223 292.544922,121.570610 291.568451,96.816963 
	C291.500122,95.084579 291.760193,93.498886 293.599274,92.091278 
z"/>
<path fill="#EC5667" opacity="1.000000" stroke="none" 
	d="
M333.159546,277.445709 
	C334.755798,261.216217 334.240936,245.299835 333.371246,229.368332 
	C333.192719,226.097855 333.964935,222.786407 333.970093,219.493332 
	C334.024963,184.274948 334.013702,149.056458 334.030853,113.362045 
	C345.320862,118.729080 356.602356,124.568649 367.878754,130.418060 
	C370.045959,131.542252 372.193085,132.705139 374.674683,134.008820 
	C377.910187,136.950409 378.133118,140.500153 378.145477,144.250595 
	C378.248840,175.616135 377.744720,206.986084 378.244385,238.344864 
	C378.498077,254.267838 377.431549,270.183838 378.372131,286.095032 
	C378.443024,287.294281 378.280853,288.408661 377.311340,289.781677 
	C365.529907,286.844910 354.100250,283.561035 342.663727,280.301422 
	C339.572296,279.420288 336.459930,278.612671 333.159546,277.445709 
z"/>
<path fill="#E23E88" opacity="1.000000" stroke="none" 
	d="
M186.673676,35.009224 
	C189.073318,49.037884 188.006454,62.916031 187.362885,76.820274 
	C187.059387,83.377113 188.301910,89.922989 188.148590,96.572136 
	C187.870590,108.627930 186.978317,120.719978 188.844910,132.785751 
	C189.360367,136.117676 188.059128,139.688461 188.043777,143.151657 
	C187.954468,163.296280 187.478134,183.460678 188.217804,203.578491 
	C188.593735,213.803085 186.519470,224.093567 188.964188,234.680786 
	C182.641266,234.357086 176.787537,231.842316 170.684494,230.269257 
	C165.683121,228.980148 160.752197,227.417618 155.394592,225.904846 
	C155.006409,157.168121 155.013687,88.502846 155.031372,19.361588 
	C165.930618,23.318399 175.784302,29.781055 186.673676,35.009224 
z"/>
<path fill="#E74B77" opacity="1.000000" stroke="none" 
	d="
M248.714569,473.517883 
	C260.589600,469.404510 272.218964,465.782776 284.493103,462.969971 
	C287.971619,463.219482 287.995178,465.675934 287.990967,467.744720 
	C287.954712,485.563232 288.055023,503.380615 287.826202,521.202026 
	C287.679352,532.641296 287.394592,544.183960 288.558533,555.611572 
	C288.940369,559.360901 288.003571,562.890564 288.135620,566.536377 
	C288.816101,585.322754 287.645905,604.117859 288.523041,622.920776 
	C288.752563,627.840515 289.318665,633.289185 286.266052,638.428894 
	C274.580719,644.804871 263.163361,650.783264 251.423523,656.904663 
	C248.495834,657.103149 248.310059,655.040466 248.044418,653.304077 
	C247.137634,647.376587 247.028671,641.440857 247.227539,635.417297 
	C247.472977,627.982910 247.274185,620.514771 247.269958,613.067993 
	C247.266174,606.427429 247.022537,599.812805 247.643829,593.176941 
	C248.156128,587.705017 248.262238,582.180725 247.571701,576.726807 
	C247.169189,573.547546 247.164291,570.499084 247.581894,567.320923 
	C248.604095,559.541565 247.385849,551.736877 247.356552,543.938599 
	C247.347351,541.487122 246.695663,538.942383 246.999451,536.494385 
	C248.834000,521.711487 247.498184,506.950195 247.031921,492.172394 
	C246.839050,486.059601 247.810303,479.959930 248.714569,473.517883 
z"/>
<path fill="#E6477C" opacity="1.000000" stroke="none" 
	d="
M222.345413,245.007172 
	C223.792145,225.240265 222.248550,205.610947 222.639343,186.021927 
	C223.349701,150.414536 222.588516,114.817604 222.959045,79.218536 
	C223.012573,74.075867 223.259933,68.929108 222.604874,63.760056 
	C222.264145,61.071362 222.579285,58.092358 224.778076,55.466469 
	C235.984329,60.971867 246.998642,66.775543 258.200073,72.851936 
	C261.619141,78.537674 259.882843,84.532913 259.922791,90.158310 
	C260.299957,143.259628 260.138611,196.363541 260.092682,249.466690 
	C260.090973,251.445312 260.232178,253.506531 258.356049,255.485657 
	C246.229721,252.282928 234.459824,248.732056 222.345413,245.007172 
z"/>
<path fill="#EF5C60" opacity="1.000000" stroke="none" 
	d="
M377.164490,290.447998 
	C375.445984,277.712067 375.607697,265.306610 376.700195,252.868500 
	C376.970825,249.787308 376.043121,246.620483 376.034576,243.492004 
	C375.970917,220.198273 375.647797,196.896500 376.163696,173.614029 
	C376.387573,163.509933 375.441223,153.444824 376.007294,143.363403 
	C376.167572,140.509277 375.790436,137.731293 375.023743,134.577744 
	C389.235382,141.532944 403.470856,148.898407 417.873962,156.574890 
	C420.842865,159.926971 421.172913,163.612701 421.159607,167.547455 
	C421.017242,209.638397 421.195709,251.729630 421.098846,293.820679 
	C421.092834,296.432007 421.596985,299.198486 419.354248,301.816803 
	C411.538727,301.101715 404.656250,298.126617 397.487244,296.189056 
	C390.782562,294.376984 384.073792,292.579987 377.164490,290.447998 
z"/>
<path fill="#E84C76" opacity="1.000000" stroke="none" 
	d="
M258.395081,255.904953 
	C257.999756,202.031509 258.062073,148.229050 257.921753,94.427124 
	C257.904083,87.655174 257.499542,80.893005 258.297852,73.630287 
	C269.694458,79.010597 281.000671,84.898666 292.313263,90.774414 
	C292.746094,90.999222 293.240601,91.105339 293.874023,91.576462 
	C292.308014,94.286819 294.012970,96.712776 294.001282,99.125801 
	C293.908966,118.173370 293.846771,137.222015 293.713226,156.267883 
	C293.626068,168.695175 293.907227,181.160690 293.966888,193.607498 
	C294.080872,217.376923 294.000122,241.147278 294.000488,265.375061 
	C282.264038,262.547333 270.527313,259.261719 258.395081,255.904953 
z"/>
<path fill="#E23E88" opacity="1.000000" stroke="none" 
	d="
M156.349976,706.793945 
	C155.235001,704.434998 154.964218,701.992737 154.973236,699.463379 
	C155.027298,684.307251 155.000092,669.150696 155.000076,653.994324 
	C155.000061,639.238037 155.000015,624.481750 155.000000,609.725464 
	C154.999985,575.648926 155.007080,541.572449 154.981720,507.495941 
	C154.980255,505.524384 155.380844,503.490082 154.171112,501.272644 
	C163.795166,497.313690 173.985291,494.671112 184.562912,491.932953 
	C187.513763,493.284973 187.724915,495.754486 188.068909,498.283722 
	C188.881958,504.261597 188.157135,510.222839 188.141693,516.192200 
	C188.076218,541.500854 187.925034,566.811707 188.189606,592.117737 
	C188.335678,606.089172 187.364136,620.072021 188.199280,634.014709 
	C189.173996,650.287415 187.660599,666.520935 188.099579,682.771545 
	C188.182144,685.827576 187.993134,688.786926 185.274414,691.445923 
	C175.566864,696.806458 166.134354,701.780457 156.349976,706.793945 
z"/>
<path fill="#E94F71" opacity="1.000000" stroke="none" 
	d="
M286.345184,638.787781 
	C285.998718,625.248657 285.549957,611.651550 286.129639,598.098511 
	C286.680908,585.210388 286.277893,572.296936 286.359192,559.445129 
	C286.433929,547.632935 287.282074,535.578918 285.280243,523.712830 
	C284.857391,521.206482 285.948822,518.483521 285.960602,515.858582 
	C286.033783,499.568298 286.009155,483.277527 285.974426,466.987000 
	C285.972015,465.854492 285.626007,464.722687 285.168335,463.269196 
	C295.304840,458.729248 306.340912,456.547119 316.976349,453.064423 
	C318.346497,452.615784 319.773438,452.340515 321.570740,451.936951 
	C324.439209,453.606781 324.055115,456.252533 324.074921,458.695312 
	C324.166626,470.001465 323.804565,481.318146 324.197510,492.612244 
	C324.657898,505.846008 324.617767,519.096741 324.492493,532.307190 
	C324.374451,544.759216 324.067047,557.226990 324.230560,569.680115 
	C324.421936,584.259033 323.978577,598.829529 324.107269,613.403870 
	C324.125336,615.451904 323.777252,617.368530 322.263184,619.440369 
	C310.230438,626.138672 298.461365,632.443848 286.345184,638.787781 
z"/>
<path fill="#E44382" opacity="1.000000" stroke="none" 
	d="
M185.349731,691.793274 
	C186.816666,681.313416 185.816696,670.698486 186.069702,660.126526 
	C186.164703,656.156738 186.267502,652.201416 186.539902,648.228760 
	C186.967056,641.998840 186.074738,635.689880 185.995438,629.411133 
	C185.888794,620.969055 185.717484,612.506226 186.206650,604.089050 
	C186.401352,600.738831 185.936157,597.503052 185.947662,594.209045 
	C186.041153,567.442322 185.871231,540.674133 186.086731,513.908813 
	C186.143982,506.801178 186.523026,499.736145 184.990967,492.306641 
	C195.715195,488.603149 206.466995,485.325012 217.610046,482.106537 
	C219.562607,483.292114 219.683807,484.949463 219.575119,486.640106 
	C218.646805,501.081421 219.670959,515.536560 219.391434,529.954346 
	C219.108383,544.554993 220.006409,559.159119 219.075607,573.736572 
	C218.712845,579.417847 219.400574,585.053894 219.896835,590.623596 
	C220.785263,600.594849 219.634918,610.538147 219.459320,620.405457 
	C219.194122,635.306946 220.980499,650.221313 219.329514,665.097534 
	C219.052261,667.595886 220.409775,669.986633 219.871063,672.954468 
	C208.480255,679.516479 197.090179,685.635315 185.349731,691.793274 
z"/>
<path fill="#F16158" opacity="1.000000" stroke="none" 
	d="
M419.158813,302.445679 
	C418.974335,270.026550 418.988159,237.933304 418.998749,205.840057 
	C419.002930,193.098801 418.961670,180.357361 419.025726,167.616425 
	C419.042542,164.276733 418.881805,160.985703 418.050354,157.314545 
	C432.949982,164.696518 447.858337,172.507126 462.934540,180.633057 
	C465.077484,186.391449 465.568512,191.903046 464.450775,197.647217 
	C463.718781,201.409119 463.777588,205.323807 464.429626,209.098419 
	C464.974487,212.252136 465.207794,215.393066 465.070801,218.543915 
	C464.572937,229.994614 464.335846,241.517120 464.606079,252.901093 
	C465.029144,270.724426 464.779480,288.540283 465.067047,306.355469 
	C465.111755,309.126404 465.659332,312.071655 463.334137,314.833069 
	C451.666962,311.927063 440.375885,308.742157 429.086487,305.551178 
	C425.840393,304.633667 422.599274,303.698608 419.158813,302.445679 
z"/>
<path fill="#E5467D" opacity="1.000000" stroke="none" 
	d="
M220.163879,673.236816 
	C214.988007,668.837341 217.662216,663.060181 217.742477,657.890503 
	C217.821777,652.780945 217.115585,647.753113 217.148575,642.675903 
	C217.190430,636.236633 216.653824,629.757996 217.761368,623.385254 
	C218.276291,620.422363 217.020691,617.800842 217.034348,614.999939 
	C217.077042,606.246094 218.667633,597.505737 217.750320,588.763611 
	C217.003296,581.644409 217.121307,574.567078 217.271103,567.445007 
	C217.522034,555.513855 217.298843,543.567932 217.306305,531.641968 
	C217.314087,519.197815 217.714142,506.682251 216.688904,494.258698 
	C216.357925,490.247955 218.400772,486.815887 218.000320,482.572937 
	C228.073761,479.126984 238.146194,476.087738 248.609909,473.107971 
	C250.322739,476.871704 250.683960,480.849884 249.717346,484.477478 
	C248.300186,489.796021 248.990936,495.131012 249.327942,500.266632 
	C250.080078,511.728485 250.004456,523.072205 249.217773,534.531067 
	C248.634155,543.031921 250.160370,551.659668 249.893524,560.204224 
	C249.430099,575.043213 249.923904,589.882935 249.371979,604.736877 
	C249.027664,614.003479 248.791351,623.463440 249.491135,632.902100 
	C249.991211,639.647278 249.517517,646.661011 250.021194,653.549500 
	C250.092361,654.522827 250.384171,655.479980 250.837433,656.746216 
	C240.886520,662.390503 230.671997,667.733276 220.163879,673.236816 
z"/>
<path fill="#EC546A" opacity="1.000000" stroke="none" 
	d="
M322.349976,619.794312 
	C321.994202,564.169312 321.988861,508.505066 321.975464,452.364929 
	C333.575195,448.501434 345.182983,445.113892 357.122833,441.512512 
	C362.334503,442.898254 361.818481,447.309143 361.804077,450.850616 
	C361.756226,462.609619 361.319580,474.354187 361.392639,486.132233 
	C361.504913,504.227081 360.841644,522.343994 361.197479,540.441284 
	C361.556702,558.711853 360.378632,576.982483 361.453857,595.242310 
	C361.535919,596.635437 361.192963,597.867798 360.257202,599.439575 
	C347.566650,606.474487 335.133545,613.114807 322.349976,619.794312 
z"/>
<path fill="#FB7839" opacity="1.000000" stroke="none" 
	d="
M603.372192,471.959229 
	C601.618103,466.817200 600.786133,461.637665 601.578857,455.968231 
	C602.445496,449.769867 601.608521,443.351379 601.836609,437.040497 
	C602.067078,430.662750 600.338379,424.288971 601.807007,417.934021 
	C602.518921,414.853485 600.855225,412.061737 600.986511,409.051666 
	C601.832214,389.665955 600.762695,370.270782 601.430603,350.859528 
	C601.781799,340.652496 600.778198,330.318451 601.499146,320.049286 
	C602.211792,309.896545 600.276062,299.737061 601.916016,289.573273 
	C602.713074,284.633057 601.162903,279.649902 601.105530,274.698730 
	C601.028870,268.076752 601.681519,261.446320 602.031250,254.351898 
	C611.802795,258.950104 621.564209,264.015930 631.597534,269.339874 
	C632.542725,272.697205 632.244263,275.819550 632.307861,278.950836 
	C632.631775,294.901062 631.933899,310.842316 632.228455,326.795349 
	C632.460999,339.388428 633.602905,352.034119 632.759521,364.558624 
	C632.032776,375.351105 632.982117,386.079834 632.348083,396.863190 
	C631.679321,408.236847 631.987183,419.738922 632.906189,431.169708 
	C633.292236,435.970947 633.269653,440.795685 632.275696,445.584686 
	C631.588928,448.893860 632.566406,452.193787 632.861633,455.941650 
	C623.149353,461.528717 613.423401,466.669098 603.372192,471.959229 
z"/>
<path fill="#EE5963" opacity="1.000000" stroke="none" 
	d="
M360.351257,599.794067 
	C358.363556,584.582764 359.267090,569.326843 359.443207,554.047119 
	C359.542175,545.460754 359.084656,536.784363 359.035522,528.150879 
	C358.923157,508.402039 358.912933,488.651550 359.042389,468.902954 
	C359.095062,460.872894 360.227112,452.842529 358.953369,444.822235 
	C358.802185,443.870361 358.326813,442.969940 357.728302,441.672180 
	C369.373505,437.875000 381.292114,434.451294 393.606506,431.097351 
	C397.291809,432.888000 397.111298,436.021881 397.089203,439.007416 
	C396.964874,455.793488 397.155823,472.578979 397.137634,489.364807 
	C397.107697,516.964050 397.147430,544.563293 397.108276,572.162537 
	C397.104309,574.950378 397.554535,577.866455 395.336609,580.721619 
	C383.595642,587.328857 372.149170,593.541443 360.351257,599.794067 
z"/>
<path fill="#F46651" opacity="1.000000" stroke="none" 
	d="
M463.159180,315.444092 
	C462.891693,295.984558 462.789398,276.854889 462.775330,257.725159 
	C462.768066,247.855118 462.684784,237.975983 463.066101,228.117599 
	C463.401886,219.436234 461.592407,210.837479 462.142212,202.234329 
	C462.583984,195.321426 462.471283,188.438629 462.839264,181.245041 
	C473.888855,185.362793 483.655579,191.786819 494.178833,196.725098 
	C497.093536,198.092896 499.873871,199.747025 502.882080,201.581680 
	C504.698517,208.023895 505.348785,214.449219 504.788513,220.576889 
	C504.103546,228.068069 504.689056,235.468628 504.547699,242.901993 
	C504.131073,264.805756 503.995972,286.714020 504.102386,308.622681 
	C504.116943,311.615936 504.343262,314.569519 504.788208,317.547821 
	C505.219666,320.436066 505.747070,323.534424 503.332672,326.507812 
	C491.198669,323.500824 479.373688,320.244537 467.623871,316.736389 
	C466.196167,316.310120 464.755554,316.193573 463.159180,315.444092 
z"/>
<path fill="#F46651" opacity="1.000000" stroke="none" 
	d="
M501.275696,525.428711 
	C490.804321,531.205444 480.601715,536.550659 470.419830,541.935059 
	C468.139648,543.140808 465.932220,544.484131 463.342834,545.798828 
	C460.876160,544.398010 460.911652,542.159302 460.945526,540.006470 
	C461.097290,530.364319 459.933685,520.718323 460.233124,511.136932 
	C460.506897,502.376404 460.273651,493.606903 460.727661,484.846497 
	C461.044617,478.730652 460.784210,472.606445 460.268921,466.447235 
	C459.414642,456.236664 459.906189,445.937531 460.592957,435.701843 
	C460.983673,429.878448 460.711060,424.067352 460.914795,418.254974 
	C460.995117,415.962433 460.585358,413.543243 462.661804,411.250732 
	C475.234131,406.826599 487.649017,403.239502 500.561584,399.932312 
	C503.091583,401.293884 503.073456,403.521454 503.079254,405.681824 
	C503.181030,443.574432 503.152161,481.467072 503.110687,519.359741 
	C503.108429,521.404846 502.792786,523.326050 501.275696,525.428711 
z"/>
<path fill="#FD7C34" opacity="1.000000" stroke="none" 
	d="
M633.162170,456.231262 
	C628.195374,453.061462 629.843079,448.190125 630.360657,443.995941 
	C631.280334,436.542908 630.894165,429.191895 630.197266,421.797729 
	C630.072632,420.475555 629.962646,419.138458 630.016113,417.815155 
	C630.495361,405.947601 631.162903,393.944519 630.445007,382.228577 
	C629.774048,371.279419 630.982422,360.447510 630.532715,349.530518 
	C629.800781,331.759460 629.359863,313.852448 630.462280,295.962250 
	C630.932007,288.339569 630.155273,280.488586 630.400818,272.730560 
	C630.433655,271.694611 630.322021,270.764038 631.527710,269.816132 
	C642.676086,275.350250 652.195679,282.703888 660.021484,292.546875 
	C661.235046,300.931732 662.321716,308.993011 661.243164,317.120667 
	C660.617371,321.836395 661.883972,326.384064 662.024353,331.031067 
	C662.364929,342.304230 662.071533,353.609680 661.708801,364.827972 
	C661.355713,375.745911 662.527222,386.669495 661.235718,397.582703 
	C660.394714,404.688995 661.346924,411.855408 661.904358,418.978760 
	C662.283936,423.829071 662.009521,428.585114 660.146362,433.602844 
	C652.474792,442.903534 643.700317,450.382446 633.162170,456.231262 
z"/>
<path fill="#F05D5D" opacity="1.000000" stroke="none" 
	d="
M395.407898,581.059570 
	C395.028046,543.303589 395.013336,505.490997 395.000488,467.678406 
	C394.997192,457.903442 394.988281,448.128448 395.008881,438.353546 
	C395.013458,436.179016 395.013153,434.020294 394.082153,431.566650 
	C403.522400,427.095764 413.795776,425.447327 423.508331,421.994781 
	C424.414429,421.672699 425.323792,421.359802 426.615906,421.104462 
	C428.487122,422.328339 429.876587,423.716034 429.839447,425.662354 
	C429.725342,431.638275 431.354340,437.549438 430.422119,443.547974 
	C430.011322,446.191193 430.131622,448.864624 430.132629,451.526978 
	C430.146118,486.991516 430.081360,522.456055 430.160400,557.920593 
	C430.163727,559.404297 430.452454,560.930603 429.312775,562.708374 
	C428.513336,564.226746 427.529724,564.641235 426.461456,565.183289 
	C416.198639,570.390381 405.994568,575.713196 395.407898,581.059570 
z"/>
<path fill="#F16158" opacity="1.000000" stroke="none" 
	d="
M429.407898,563.058838 
	C428.203949,560.393860 427.970184,557.619141 427.973419,554.767578 
	C428.014008,519.212891 427.864502,483.657288 428.096466,448.104126 
	C428.153564,439.356812 428.504669,430.650299 427.023773,421.576172 
	C438.719421,417.772369 450.438629,414.378418 462.557983,410.935974 
	C463.017883,421.525818 462.636169,432.143188 462.204468,442.777039 
	C461.709503,454.968597 462.908569,467.218842 462.932617,479.444427 
	C462.956299,491.472931 461.689667,503.544983 462.375885,515.518433 
	C462.938690,525.337769 462.644287,535.124329 462.995911,545.375610 
	C451.920837,551.556519 440.847351,557.279480 429.407898,563.058838 
z"/>
<path fill="#F66B4A" opacity="1.000000" stroke="none" 
	d="
M501.350586,525.812622 
	C500.993317,484.175354 500.987183,442.504639 500.971680,400.357635 
	C513.046509,396.263123 525.130676,392.644897 537.608398,389.096985 
	C539.223694,396.582947 537.226196,404.015228 538.039612,411.409546 
	C539.016479,420.289368 538.823425,429.333740 538.522095,438.072083 
	C537.955078,454.516296 538.401306,470.941162 538.067383,487.367279 
	C537.951172,493.080200 538.088196,498.862671 539.897705,504.782196 
	C530.938354,509.976868 521.821960,514.819763 512.725708,519.700439 
	C509.028320,521.684326 505.375061,523.750488 501.350586,525.812622 
z"/>
<path fill="#F66B4A" opacity="1.000000" stroke="none" 
	d="
M503.383545,326.912079 
	C501.479706,307.286652 502.005066,287.702942 502.042877,268.132324 
	C502.062164,258.137054 503.347382,248.078537 502.571777,238.165085 
	C501.718628,227.261398 503.799713,216.386292 502.076691,205.545593 
	C501.933197,204.642578 502.483398,203.629257 502.879791,202.280380 
	C514.743042,207.383896 526.135681,213.451263 537.676636,220.010315 
	C538.000366,258.750763 538.000427,297.334290 538.001221,336.375671 
	C526.447754,334.047272 515.019775,330.822357 503.383545,326.912079 
z"/>
<path fill="#975EEE" opacity="1.000000" stroke="none" 
	d="
M154.031738,433.664551 
	C151.654144,438.270142 149.193756,442.496704 146.423889,446.883575 
	C142.908875,448.767578 141.061691,446.370361 139.331009,444.520782 
	C124.765663,428.955017 114.000427,411.137817 108.887054,390.336945 
	C99.385818,351.686432 106.295746,316.132446 130.245193,284.207153 
	C133.519058,279.842987 136.305008,274.537628 142.646118,272.842651 
	C145.637772,277.359528 148.229782,281.827820 150.964600,286.623352 
	C150.839355,288.862335 149.693756,290.282623 148.496246,291.689178 
	C134.349060,308.306030 126.331108,327.630493 124.219666,349.210449 
	C121.958771,372.317780 127.462646,393.769501 139.437195,413.681244 
	C143.666245,420.713470 149.618698,426.380676 154.031738,433.664551 
z"/>
<path fill="#FE7F2F" opacity="1.000000" stroke="none" 
	d="
M660.422607,433.906311 
	C659.306030,433.326569 658.760986,432.302673 659.104797,431.374542 
	C660.785278,426.838135 660.339111,421.965057 659.629700,417.633575 
	C657.784729,406.368134 660.673767,395.172089 659.171692,383.963135 
	C658.627930,379.904846 658.475708,375.660248 659.625732,371.572693 
	C661.191162,366.008423 659.609802,360.365936 659.528625,354.831177 
	C659.422485,347.603058 660.342651,340.414154 659.663818,333.100800 
	C658.632812,321.994141 659.133057,310.744385 659.010254,299.555115 
	C658.988464,297.572083 658.774414,295.548309 659.879761,293.282593 
	C669.443726,301.888092 675.366394,313.120087 679.862122,325.042572 
	C684.609436,337.632416 687.356323,350.784576 686.945496,364.318726 
	C686.208069,388.614471 678.817078,410.648376 663.648071,429.868225 
	C662.643433,431.141205 661.704895,432.466461 660.422607,433.906311 
z"/>
<path fill="#9257ED" opacity="1.000000" stroke="none" 
	d="
M143.018738,272.524292 
	C124.983124,290.421082 113.677811,311.542542 108.995331,336.295288 
	C103.423119,365.751465 108.211922,393.565948 122.941673,419.421997 
	C128.793976,429.694855 135.545761,439.709961 145.767120,446.983826 
	C144.391525,450.736359 142.668686,454.428894 140.754593,458.423920 
	C133.799286,451.450897 126.662949,444.484985 120.872101,436.373322 
	C107.879646,418.173767 99.958710,397.956543 96.957413,375.774933 
	C93.612587,351.054504 97.483582,327.354645 107.376472,304.670197 
	C112.843414,292.134460 120.417130,280.755219 129.850189,270.784271 
	C132.465500,268.019867 134.277573,264.497375 137.835297,262.157959 
	C139.696747,265.315186 141.344223,268.736267 143.018738,272.524292 
z"/>
<path fill="#A16DF1" opacity="1.000000" stroke="none" 
	d="
M154.427780,433.902161 
	C149.824127,432.165253 147.284134,428.250336 144.704254,424.829376 
	C127.978271,402.650757 119.596497,377.672852 122.136414,349.788757 
	C124.189758,327.246368 132.474457,307.017303 147.527298,289.825867 
	C148.381775,288.850006 149.493561,288.099426 150.796509,287.097290 
	C153.737320,290.695435 156.367203,294.440277 159.022339,298.538940 
	C159.870651,301.409637 158.136307,302.945923 156.824112,304.625793 
	C144.910736,319.877380 138.882935,337.547821 138.398148,356.523621 
	C137.857132,377.700745 144.168503,397.250305 157.469360,414.182831 
	C159.313828,416.530884 161.535858,418.594513 163.026917,421.662689 
	C160.326126,425.946564 157.533585,429.853668 154.427780,433.902161 
z"/>
<path fill="#AF81F5" opacity="1.000000" stroke="none" 
	d="
M165.477951,306.789246 
	C169.833344,311.117859 173.840271,315.223053 177.977341,319.639709 
	C178.386032,322.080353 177.450439,323.811279 176.308624,325.481567 
	C162.658142,345.450317 163.082687,375.591309 178.374863,395.450226 
	C179.765076,397.255554 181.623581,398.829773 182.072281,401.660156 
	C177.983017,406.289429 173.851120,410.535706 169.413223,414.910767 
	C166.041031,416.577301 164.470291,414.353821 162.889664,412.454956 
	C152.259430,399.684753 145.804749,385.002289 144.197388,368.510223 
	C142.231018,348.334381 146.216629,329.371613 157.748215,312.361572 
	C159.559708,309.689453 160.980988,306.340240 165.477951,306.789246 
z"/>
<path fill="#C4A0FC" opacity="1.000000" stroke="none" 
	d="
M191.631836,331.951416 
	C202.327911,338.578186 212.507889,345.457367 223.837753,350.341003 
	C227.082535,351.739624 230.442932,352.871338 233.679443,354.287476 
	C237.381302,355.907196 240.131851,358.083466 240.117493,362.851868 
	C240.103516,367.487427 237.872681,370.132538 233.930801,371.546204 
	C220.633804,376.315002 208.455261,383.181702 196.402435,391.050537 
	C193.774033,390.970856 192.564636,389.326355 191.346573,387.744568 
	C179.856949,372.823853 177.504791,353.329590 187.442261,335.795837 
	C188.350113,334.193970 189.324005,332.634094 191.631836,331.951416 
z"/>
<path fill="#B488F7" opacity="1.000000" stroke="none" 
	d="
M191.916138,331.573334 
	C180.228317,349.170074 179.729553,370.145813 193.487534,387.208679 
	C194.316895,388.237244 194.980301,389.399628 195.882233,390.803650 
	C191.611191,394.663269 187.178864,398.218994 182.430725,401.908936 
	C171.856979,392.802765 166.716537,380.948273 165.065018,367.537781 
	C163.453461,354.451782 165.275574,341.808380 171.162292,329.850403 
	C172.874573,326.372162 175.529404,323.594940 177.843597,320.165710 
	C182.669083,323.719391 187.230667,327.487671 191.916138,331.573334 
z"/>
<path fill="#A673F3" opacity="1.000000" stroke="none" 
	d="
M165.817505,306.675293 
	C160.057602,309.216217 158.474838,314.944580 155.883423,319.533356 
	C139.155518,349.154663 143.415176,387.710876 165.967316,413.308228 
	C166.589081,414.013947 167.588333,414.387085 168.759399,414.977448 
	C167.317047,417.285065 165.526871,419.530487 163.427704,421.907715 
	C158.153305,420.558807 156.253967,415.928650 153.677917,412.267761 
	C143.331879,397.564911 137.550949,381.377075 136.835052,363.122040 
	C135.884521,338.883759 142.997650,317.803619 158.885132,299.192810 
	C162.081284,300.666138 162.920258,304.432556 165.817505,306.675293 
z"/>
<path fill="#000000" opacity="1.000000" stroke="none" 
	d="
M997.262451,385.239807 
	C988.569641,391.523254 982.485962,399.726410 976.610107,408.036224 
	C973.628418,412.253052 970.854553,408.391418 968.018311,408.437164 
	C965.649353,408.475433 964.936951,406.990265 964.943298,404.567444 
	C965.028381,372.094177 964.984436,339.620636 965.020081,307.147217 
	C965.024475,303.128876 970.243469,298.018433 974.305969,298.016022 
	C1018.103516,297.990143 1061.901001,297.990112 1105.698608,298.016327 
	C1109.757812,298.018738 1114.967163,303.134827 1114.980347,307.152649 
	C1115.031494,322.639832 1115.029175,338.127380 1114.984253,353.614563 
	C1114.970947,358.175354 1109.470581,362.974213 1104.282593,362.987305 
	C1089.794434,363.023804 1075.232056,362.068726 1060.835083,363.214844 
	C1038.035645,365.029877 1016.075012,370.331665 997.262451,385.239807 
z"/>
<path fill="#000000" opacity="1.000000" stroke="none" 
	d="
M1567.541260,446.944977 
	C1562.873535,443.608643 1561.856323,439.441864 1561.883179,434.166107 
	C1562.093994,392.681519 1561.996948,351.195343 1562.002686,309.709686 
	C1562.003662,302.181549 1566.098877,298.007629 1573.503662,298.006226 
	C1615.155884,297.998413 1656.808228,297.998596 1698.460449,298.006104 
	C1705.863037,298.007416 1709.993896,302.192017 1709.994995,309.683105 
	C1710.001465,352.001831 1710.002808,394.320557 1709.993286,436.639282 
	C1709.991699,443.694916 1705.693359,447.994934 1698.641602,447.996521 
	C1656.822754,448.005798 1615.003784,448.005310 1573.184937,447.986572 
	C1571.384155,447.985748 1569.495483,448.356415 1567.541260,446.944977 
z"/>
</svg>