<svg width="24" height="23" viewBox="0 0 24 23" fill="none" xmlns="http://www.w3.org/2000/svg">
<path d="M2.81015 3.80134C2.81015 3.80134 5.2911 0.564294 8.38637 0.706062C11.4816 0.847831 12.5685 3.44692 13.6554 4.62832C14.7423 5.80972 17.2233 6.9675 19.4916 7.51094C19.4916 7.51094 23.0358 8.52695 23.6737 11.8349C24.2408 14.7175 26.4146 24.5704 3.7789 21.7114C3.7789 21.7114 -2.81332 20.6954 1.4161 10.1337C1.4161 10.1337 2.12494 8.38518 2.10131 6.28228C2.07768 4.81734 2.55024 4.06125 2.81015 3.80134Z" fill="#D5EAF4"/>
<path d="M7.41749 9.99188C10.3275 9.99188 12.6865 7.78095 12.6865 5.05362C12.6865 2.32629 10.3275 0.115356 7.41749 0.115356C4.50747 0.115356 2.14844 2.32629 2.14844 5.05362C2.14844 7.78095 4.50747 9.99188 7.41749 9.99188Z" fill="#D5EAF4"/>
<path d="M11.5174 3.94309C11.4937 4.7937 11.3992 5.64431 11.0684 6.44767C10.5486 7.67632 9.57985 8.33791 8.28031 8.31428C6.93351 8.31428 5.96476 7.62907 5.46857 6.40041C5.09052 5.45529 4.97238 4.46291 5.06689 3.4469C5.09052 3.0216 5.13778 2.57267 5.25592 2.17099C5.72848 0.446141 7.24068 -0.120932 8.58748 0.0208364C10.336 0.186233 11.3756 1.29675 11.4937 3.04523C11.4701 3.35239 11.4937 3.63593 11.5174 3.94309Z" fill="#2A3883"/>
<path d="M15.038 13.0163C15.0144 12.2365 14.6836 11.5986 14.022 11.1733C12.9351 10.5117 11.8246 9.87374 10.6904 9.21216C10.2415 10.6298 9.81618 11.9766 9.36725 13.3707C9.13097 12.6619 8.89469 12.0475 8.68204 11.4332C8.63478 11.2914 8.65841 11.1733 8.72929 11.0551C8.89469 10.7244 9.13097 10.4881 9.22548 10.1337C9.31999 9.85012 9.06009 9.42481 8.77655 9.35393C8.49301 9.28304 8.20948 9.28304 7.92594 9.3303C7.45338 9.37755 7.19347 9.7556 7.31161 10.2045C7.35886 10.3699 7.45338 10.5117 7.54789 10.6298C7.92594 11.0551 7.85506 11.5041 7.64241 11.9766C7.50064 12.2838 7.40612 12.6146 7.31161 12.9218C7.26435 13.0399 7.2171 13.1817 7.16985 13.2998C7.14622 13.2998 7.14622 13.2998 7.12259 13.2998C6.69728 11.9766 6.27198 10.6298 5.84667 9.30667C5.79942 9.30667 5.77579 9.30667 5.75216 9.3303C4.66527 9.94463 3.57838 10.5353 2.51512 11.1497C2.04256 11.4332 1.68814 11.8585 1.57 12.4256C1.47548 12.78 1.42823 13.158 1.42823 13.5361C1.4046 14.6466 1.42823 15.7808 1.42823 16.8913C1.42823 16.9622 1.42823 17.0567 1.42823 17.1276C1.8299 17.1276 2.25521 17.1276 2.65689 17.1276H14.4709C14.6836 17.1276 14.8726 17.1276 15.0852 17.1276C15.0616 15.7335 15.0616 14.3631 15.038 13.0163Z" fill="#2A3883"/>
<path d="M13.4236 12.2806C13.4236 12.0916 13.4236 11.9262 13.4236 11.7844C13.4236 11.1229 13.8489 10.6739 14.5105 10.6503C15.2194 10.6267 15.9282 10.6267 16.637 10.6503C17.2986 10.6503 17.7239 11.0992 17.7476 11.7608C17.7476 11.9262 17.7476 12.0916 17.7476 12.2806C18.4328 12.2806 19.0707 12.3043 19.7087 12.2806C20.4884 12.2334 21.0319 12.7532 21.0082 13.5802C20.961 14.5725 21.0082 15.5649 21.0082 16.5573C21.0082 17.2661 20.5593 17.7151 19.8505 17.7151C17.0151 17.7151 14.1797 17.7151 11.368 17.7151C10.6591 17.7151 10.2102 17.2661 10.2102 16.5809C10.2102 15.5413 10.2102 14.5017 10.2102 13.462C10.2102 12.7532 10.6591 12.3279 11.368 12.3043C12.0296 12.2806 12.7148 12.2806 13.4236 12.2806ZM14.5105 12.257C15.243 12.257 15.9282 12.257 16.637 12.257C16.637 12.068 16.637 11.9262 16.637 11.7608C15.9046 11.7608 15.2194 11.7608 14.5105 11.7608C14.5105 11.9262 14.5105 12.0916 14.5105 12.257ZM15.5738 16.6046C15.9046 16.6046 16.1172 16.3919 16.1408 16.0847C16.1408 15.7539 15.9046 15.5177 15.5974 15.5177C15.2902 15.5177 15.054 15.7539 15.054 16.0611C15.0303 16.3919 15.243 16.6046 15.5738 16.6046Z" fill="#877DBB"/>
<path d="M10.1866 17.5261C10.4702 18.0459 10.8955 18.2349 11.4389 18.2349C14.2034 18.2349 16.9915 18.2349 19.756 18.2349C20.2994 18.2349 20.7247 18.0459 20.9847 17.4552C20.9847 18.1877 21.0319 18.8729 20.961 19.5345C20.9138 20.0543 20.394 20.3851 19.8269 20.3851C18.4092 20.3851 16.9915 20.3851 15.5738 20.3851C14.2034 20.3851 12.833 20.3615 11.4389 20.3851C10.6592 20.4087 10.1158 19.8653 10.163 19.1328C10.2103 18.613 10.1866 18.0695 10.1866 17.5261Z" fill="#877DBB"/>
<path d="M15.5737 16.6046C15.2429 16.6046 15.0303 16.3919 15.0303 16.0611C15.0303 15.754 15.2666 15.5177 15.5737 15.5177C15.9045 15.5177 16.1408 15.754 16.1172 16.0848C16.1408 16.3919 15.9045 16.6046 15.5737 16.6046Z" fill="white"/>
</svg>
