<svg width="32" height="32" viewBox="0 0 32 32" fill="none" xmlns="http://www.w3.org/2000/svg">
    <g filter="url(#filter0_b_5394_45337)">
        <rect width="32" height="32" rx="4" fill="#F1F1F5" />
    </g>
    <g clip-path="url(#clip0_5394_45337)">
        <path
            d="M23.0703 11.0391H22.5234V8.92969C22.5234 7.31426 21.2092 6 19.5938 6H12.4062C10.7908 6 9.47656 7.31426 9.47656 8.92969V11.0391H8.92969C7.31426 11.0391 6 12.3533 6 13.9688V18.6562C6 20.2717 7.31426 21.5859 8.92969 21.5859H9.47656V24.2422C9.47656 25.2114 10.2651 26 11.2344 26H20.7656C21.7349 26 22.5234 25.2114 22.5234 24.2422V21.5859H23.0703C24.6857 21.5859 26 20.2717 26 18.6562V13.9688C26 12.3533 24.6857 11.0391 23.0703 11.0391ZM10.6484 8.92969C10.6484 7.96043 11.437 7.17188 12.4062 7.17188H19.5938C20.563 7.17188 21.3516 7.96043 21.3516 8.92969V11.0391H10.6484V8.92969ZM21.3516 24.2422C21.3516 24.5653 21.0887 24.8281 20.7656 24.8281H11.2344C10.9113 24.8281 10.6484 24.5653 10.6484 24.2422V18.4609H21.3516V24.2422ZM24.8281 18.6562C24.8281 19.6255 24.0396 20.4141 23.0703 20.4141H22.5234V18.4609H22.875C23.1986 18.4609 23.4609 18.1986 23.4609 17.875C23.4609 17.5514 23.1986 17.2891 22.875 17.2891H9.125C8.80141 17.2891 8.53906 17.5514 8.53906 17.875C8.53906 18.1986 8.80141 18.4609 9.125 18.4609H9.47656V20.4141H8.92969C7.96043 20.4141 7.17188 19.6255 7.17188 18.6562V13.9688C7.17188 12.9995 7.96043 12.2109 8.92969 12.2109H23.0703C24.0396 12.2109 24.8281 12.9995 24.8281 13.9688V18.6562Z"
            fill="#28293D" />
        <path
            d="M17.5625 19.7891H14.4375C14.1139 19.7891 13.8516 20.0514 13.8516 20.375C13.8516 20.6986 14.1139 20.9609 14.4375 20.9609H17.5625C17.8861 20.9609 18.1484 20.6986 18.1484 20.375C18.1484 20.0514 17.8861 19.7891 17.5625 19.7891Z"
            fill="#28293D" />
        <path
            d="M17.5625 22.2891H14.4375C14.1139 22.2891 13.8516 22.5514 13.8516 22.875C13.8516 23.1986 14.1139 23.4609 14.4375 23.4609H17.5625C17.8861 23.4609 18.1484 23.1986 18.1484 22.875C18.1484 22.5514 17.8861 22.2891 17.5625 22.2891Z"
            fill="#28293D" />
        <path
            d="M11 13.5391H9.125C8.80141 13.5391 8.53906 13.8014 8.53906 14.125C8.53906 14.4486 8.80141 14.7109 9.125 14.7109H11C11.3236 14.7109 11.5859 14.4486 11.5859 14.125C11.5859 13.8014 11.3236 13.5391 11 13.5391Z"
            fill="#28293D" />
    </g>
    <defs>
        <filter id="filter0_b_5394_45337" x="-97.3" y="-97.3" width="226.6" height="226.6"
            filterUnits="userSpaceOnUse" color-interpolation-filters="sRGB">
            <feFlood flood-opacity="0" result="BackgroundImageFix" />
            <feGaussianBlur in="BackgroundImageFix" stdDeviation="48.65" />
            <feComposite in2="SourceAlpha" operator="in" result="effect1_backgroundBlur_5394_45337" />
            <feBlend mode="normal" in="SourceGraphic" in2="effect1_backgroundBlur_5394_45337"
                result="shape" />
        </filter>
        <clipPath id="clip0_5394_45337">
            <rect width="20" height="20" fill="white" transform="translate(6 6)" />
        </clipPath>
    </defs>
</svg>
    