<svg width="266" height="242" viewBox="0 0 266 242" fill="none" xmlns="http://www.w3.org/2000/svg">
    <g filter="url(#filter0_d_2361_9618)">
        <rect x="4" width="258" height="234" rx="12" fill="#EFF1FA" shape-rendering="crispEdges" />
        <path
            d="M57.4609 26.8516H54.5312V25.1641H57.4609C57.9401 25.1641 58.3281 25.0859 58.625 24.9297C58.9271 24.7682 59.1484 24.5495 59.2891 24.2734C59.4297 23.9922 59.5 23.6719 59.5 23.3125C59.5 22.9635 59.4297 22.638 59.2891 22.3359C59.1484 22.0339 58.9271 21.7891 58.625 21.6016C58.3281 21.4141 57.9401 21.3203 57.4609 21.3203H55.2344V31H53.0859V19.625H57.4609C58.3464 19.625 59.1016 19.7839 59.7266 20.1016C60.3568 20.4141 60.8359 20.849 61.1641 21.4062C61.4974 21.9583 61.6641 22.5885 61.6641 23.2969C61.6641 24.0312 61.4974 24.6641 61.1641 25.1953C60.8359 25.7266 60.3568 26.1354 59.7266 26.4219C59.1016 26.7083 58.3464 26.8516 57.4609 26.8516ZM65.2578 24.2734V31H63.1953V22.5469H65.1484L65.2578 24.2734ZM67.8281 22.4922L67.7969 24.4141C67.6823 24.3932 67.5521 24.3776 67.4062 24.3672C67.2656 24.3568 67.1328 24.3516 67.0078 24.3516C66.6901 24.3516 66.4115 24.3958 66.1719 24.4844C65.9323 24.5677 65.7318 24.6901 65.5703 24.8516C65.4141 25.013 65.2943 25.2109 65.2109 25.4453C65.1276 25.6745 65.0807 25.9349 65.0703 26.2266L64.625 26.1719C64.625 25.6354 64.6797 25.138 64.7891 24.6797C64.8984 24.2214 65.0573 23.8203 65.2656 23.4766C65.474 23.1328 65.7344 22.8672 66.0469 22.6797C66.3646 22.487 66.7292 22.3906 67.1406 22.3906C67.2552 22.3906 67.3776 22.401 67.5078 22.4219C67.6432 22.4375 67.75 22.4609 67.8281 22.4922ZM68.375 26.8594V26.6953C68.375 26.0755 68.4635 25.5052 68.6406 24.9844C68.8177 24.4583 69.0755 24.0026 69.4141 23.6172C69.7526 23.2318 70.1667 22.9323 70.6562 22.7188C71.1458 22.5 71.7031 22.3906 72.3281 22.3906C72.9635 22.3906 73.526 22.5 74.0156 22.7188C74.5104 22.9323 74.9271 23.2318 75.2656 23.6172C75.6042 24.0026 75.862 24.4583 76.0391 24.9844C76.2161 25.5052 76.3047 26.0755 76.3047 26.6953V26.8594C76.3047 27.474 76.2161 28.0443 76.0391 28.5703C75.862 29.0911 75.6042 29.5469 75.2656 29.9375C74.9271 30.3229 74.513 30.6224 74.0234 30.8359C73.5339 31.0495 72.974 31.1562 72.3438 31.1562C71.7188 31.1562 71.1589 31.0495 70.6641 30.8359C70.1693 30.6224 69.7526 30.3229 69.4141 29.9375C69.0755 29.5469 68.8177 29.0911 68.6406 28.5703C68.4635 28.0443 68.375 27.474 68.375 26.8594ZM70.4375 26.6953V26.8594C70.4375 27.2292 70.474 27.5755 70.5469 27.8984C70.6198 28.2214 70.7318 28.5052 70.8828 28.75C71.0339 28.9948 71.2292 29.1875 71.4688 29.3281C71.7135 29.4635 72.0052 29.5312 72.3438 29.5312C72.6771 29.5312 72.9635 29.4635 73.2031 29.3281C73.4427 29.1875 73.638 28.9948 73.7891 28.75C73.9453 28.5052 74.0599 28.2214 74.1328 27.8984C74.2057 27.5755 74.2422 27.2292 74.2422 26.8594V26.6953C74.2422 26.3307 74.2057 25.9896 74.1328 25.6719C74.0599 25.349 73.9453 25.0651 73.7891 24.8203C73.638 24.5703 73.4401 24.375 73.1953 24.2344C72.9557 24.0885 72.6667 24.0156 72.3281 24.0156C71.9948 24.0156 71.7083 24.0885 71.4688 24.2344C71.2292 24.375 71.0339 24.5703 70.8828 24.8203C70.7318 25.0651 70.6198 25.349 70.5469 25.6719C70.474 25.9896 70.4375 26.3307 70.4375 26.6953ZM77.9062 22.5469H79.9844V31.625C79.9844 32.224 79.875 32.7318 79.6562 33.1484C79.4427 33.5651 79.1328 33.8802 78.7266 34.0938C78.3203 34.3073 77.8229 34.4141 77.2344 34.4141C77.0521 34.4141 76.8698 34.4036 76.6875 34.3828C76.5052 34.362 76.3255 34.3281 76.1484 34.2812L76.1562 32.6875C76.2708 32.7083 76.388 32.724 76.5078 32.7344C76.6276 32.75 76.7474 32.7578 76.8672 32.7578C77.0911 32.7578 77.2786 32.7188 77.4297 32.6406C77.5859 32.5625 77.7031 32.4401 77.7812 32.2734C77.8646 32.1068 77.9062 31.8906 77.9062 31.625V22.5469ZM77.7344 20.3359C77.7344 20.0286 77.8385 19.7734 78.0469 19.5703C78.2604 19.3672 78.5469 19.2656 78.9062 19.2656C79.2656 19.2656 79.5495 19.3672 79.7578 19.5703C79.9714 19.7734 80.0781 20.0286 80.0781 20.3359C80.0781 20.638 79.9714 20.8906 79.7578 21.0938C79.5495 21.2969 79.2656 21.3984 78.9062 21.3984C78.5469 21.3984 78.2604 21.2969 78.0469 21.0938C77.8385 20.8906 77.7344 20.638 77.7344 20.3359ZM85.6953 31.1562C85.0547 31.1562 84.4792 31.0521 83.9688 30.8438C83.4583 30.6354 83.0234 30.3464 82.6641 29.9766C82.3099 29.6016 82.0365 29.1667 81.8438 28.6719C81.6562 28.1719 81.5625 27.6354 81.5625 27.0625V26.75C81.5625 26.099 81.6562 25.5078 81.8438 24.9766C82.0312 24.4401 82.2969 23.9792 82.6406 23.5938C82.9844 23.2083 83.3958 22.9115 83.875 22.7031C84.3542 22.4948 84.8828 22.3906 85.4609 22.3906C86.0599 22.3906 86.5885 22.4922 87.0469 22.6953C87.5052 22.8932 87.888 23.1745 88.1953 23.5391C88.5026 23.9036 88.7344 24.3411 88.8906 24.8516C89.0469 25.3568 89.125 25.9167 89.125 26.5312V27.3984H82.5V25.9766H87.0938V25.8203C87.0833 25.4922 87.0208 25.1927 86.9062 24.9219C86.7917 24.6458 86.6146 24.4271 86.375 24.2656C86.1354 24.099 85.8255 24.0156 85.4453 24.0156C85.138 24.0156 84.8698 24.0833 84.6406 24.2188C84.4167 24.349 84.2292 24.5365 84.0781 24.7812C83.9323 25.0208 83.8229 25.3073 83.75 25.6406C83.6771 25.974 83.6406 26.3438 83.6406 26.75V27.0625C83.6406 27.4167 83.6875 27.7448 83.7812 28.0469C83.8802 28.349 84.0234 28.612 84.2109 28.8359C84.4036 29.0547 84.6328 29.2266 84.8984 29.3516C85.1693 29.4714 85.4766 29.5312 85.8203 29.5312C86.2526 29.5312 86.6432 29.4479 86.9922 29.2812C87.3464 29.1094 87.6536 28.8568 87.9141 28.5234L88.9531 29.6016C88.776 29.862 88.5365 30.112 88.2344 30.3516C87.9375 30.5911 87.5781 30.7865 87.1562 30.9375C86.7344 31.0833 86.2474 31.1562 85.6953 31.1562ZM93.9766 29.5312C94.2682 29.5312 94.5286 29.474 94.7578 29.3594C94.987 29.2448 95.1693 29.0833 95.3047 28.875C95.4453 28.6667 95.5208 28.4245 95.5312 28.1484H97.4766C97.4661 28.7214 97.3047 29.2344 96.9922 29.6875C96.6797 30.1406 96.263 30.5 95.7422 30.7656C95.2266 31.026 94.6484 31.1562 94.0078 31.1562C93.3568 31.1562 92.7891 31.0469 92.3047 30.8281C91.8203 30.6094 91.4167 30.3047 91.0938 29.9141C90.776 29.5234 90.5365 29.0703 90.375 28.5547C90.2188 28.0391 90.1406 27.487 90.1406 26.8984V26.6484C90.1406 26.0599 90.2188 25.5078 90.375 24.9922C90.5365 24.4766 90.776 24.0234 91.0938 23.6328C91.4167 23.2422 91.8203 22.9375 92.3047 22.7188C92.7891 22.5 93.3542 22.3906 94 22.3906C94.6823 22.3906 95.2812 22.5234 95.7969 22.7891C96.3177 23.0547 96.724 23.4297 97.0156 23.9141C97.3125 24.3984 97.4661 24.9688 97.4766 25.625H95.5312C95.5208 25.3229 95.4531 25.0521 95.3281 24.8125C95.2031 24.5729 95.026 24.3802 94.7969 24.2344C94.5677 24.0885 94.2891 24.0156 93.9609 24.0156C93.612 24.0156 93.3203 24.0885 93.0859 24.2344C92.8568 24.3802 92.6771 24.5807 92.5469 24.8359C92.4219 25.0859 92.3333 25.3672 92.2812 25.6797C92.2344 25.987 92.2109 26.3099 92.2109 26.6484V26.8984C92.2109 27.2422 92.2344 27.5703 92.2812 27.8828C92.3333 28.1953 92.4219 28.4766 92.5469 28.7266C92.6771 28.9714 92.8568 29.1667 93.0859 29.3125C93.3203 29.4583 93.6172 29.5312 93.9766 29.5312ZM102.852 22.5469V24.0312H98.0078V22.5469H102.852ZM99.3047 20.4688H101.375V28.5625C101.375 28.8125 101.409 29.0052 101.477 29.1406C101.544 29.276 101.646 29.3672 101.781 29.4141C101.917 29.4609 102.078 29.4844 102.266 29.4844C102.401 29.4844 102.526 29.4766 102.641 29.4609C102.755 29.4453 102.852 29.4297 102.93 29.4141L102.938 30.9609C102.766 31.0182 102.57 31.0651 102.352 31.1016C102.138 31.138 101.896 31.1562 101.625 31.1562C101.161 31.1562 100.755 31.0781 100.406 30.9219C100.057 30.7604 99.7865 30.5026 99.5938 30.1484C99.401 29.7891 99.3047 29.3151 99.3047 28.7266V20.4688ZM114.32 28.0469C114.32 27.8281 114.286 27.6328 114.219 27.4609C114.156 27.2839 114.039 27.125 113.867 26.9844C113.701 26.8385 113.464 26.6979 113.156 26.5625C112.854 26.4219 112.464 26.276 111.984 26.125C111.453 25.9583 110.958 25.7708 110.5 25.5625C110.042 25.3542 109.638 25.112 109.289 24.8359C108.945 24.5599 108.677 24.2422 108.484 23.8828C108.292 23.5182 108.195 23.0964 108.195 22.6172C108.195 22.1484 108.294 21.7214 108.492 21.3359C108.695 20.9505 108.982 20.6198 109.352 20.3438C109.721 20.0625 110.156 19.8464 110.656 19.6953C111.161 19.5443 111.719 19.4688 112.328 19.4688C113.172 19.4688 113.901 19.6224 114.516 19.9297C115.135 20.237 115.615 20.6536 115.953 21.1797C116.292 21.7057 116.461 22.2969 116.461 22.9531H114.32C114.32 22.599 114.245 22.2865 114.094 22.0156C113.948 21.7448 113.724 21.5312 113.422 21.375C113.125 21.2188 112.75 21.1406 112.297 21.1406C111.859 21.1406 111.495 21.2057 111.203 21.3359C110.917 21.4661 110.701 21.6432 110.555 21.8672C110.414 22.0911 110.344 22.3411 110.344 22.6172C110.344 22.8255 110.393 23.013 110.492 23.1797C110.591 23.3411 110.74 23.4948 110.938 23.6406C111.135 23.7812 111.38 23.9141 111.672 24.0391C111.969 24.1589 112.312 24.2786 112.703 24.3984C113.328 24.5859 113.875 24.7943 114.344 25.0234C114.818 25.2526 115.211 25.513 115.523 25.8047C115.841 26.0964 116.078 26.4245 116.234 26.7891C116.396 27.1536 116.477 27.5677 116.477 28.0312C116.477 28.5208 116.38 28.9583 116.188 29.3438C115.995 29.7292 115.719 30.0573 115.359 30.3281C115 30.599 114.568 30.8047 114.062 30.9453C113.562 31.0859 113.003 31.1562 112.383 31.1562C111.831 31.1562 111.284 31.0833 110.742 30.9375C110.206 30.7865 109.719 30.5625 109.281 30.2656C108.844 29.9635 108.495 29.5833 108.234 29.125C107.974 28.6615 107.844 28.1198 107.844 27.5H110C110 27.8594 110.057 28.1667 110.172 28.4219C110.292 28.6719 110.458 28.8776 110.672 29.0391C110.891 29.1953 111.146 29.3099 111.438 29.3828C111.729 29.4557 112.044 29.4922 112.383 29.4922C112.82 29.4922 113.18 29.4323 113.461 29.3125C113.747 29.1875 113.961 29.0156 114.102 28.7969C114.247 28.5781 114.32 28.3281 114.32 28.0469ZM123.008 28.9922V22.5469H125.086V31H123.133L123.008 28.9922ZM123.273 27.2422L123.914 27.2266C123.914 27.7943 123.852 28.3177 123.727 28.7969C123.602 29.276 123.406 29.6927 123.141 30.0469C122.88 30.3958 122.549 30.6693 122.148 30.8672C121.747 31.0599 121.273 31.1562 120.727 31.1562C120.31 31.1562 119.93 31.099 119.586 30.9844C119.242 30.8646 118.945 30.6797 118.695 30.4297C118.451 30.1745 118.26 29.849 118.125 29.4531C117.99 29.0521 117.922 28.5703 117.922 28.0078V22.5469H119.984V28.0234C119.984 28.3047 120.016 28.5391 120.078 28.7266C120.146 28.9141 120.237 29.0677 120.352 29.1875C120.471 29.3021 120.609 29.3854 120.766 29.4375C120.927 29.4844 121.099 29.5078 121.281 29.5078C121.781 29.5078 122.174 29.4089 122.461 29.2109C122.753 29.0078 122.961 28.737 123.086 28.3984C123.211 28.0547 123.273 27.6693 123.273 27.2422ZM130.383 29.5312C130.674 29.5312 130.935 29.474 131.164 29.3594C131.393 29.2448 131.576 29.0833 131.711 28.875C131.852 28.6667 131.927 28.4245 131.938 28.1484H133.883C133.872 28.7214 133.711 29.2344 133.398 29.6875C133.086 30.1406 132.669 30.5 132.148 30.7656C131.633 31.026 131.055 31.1562 130.414 31.1562C129.763 31.1562 129.195 31.0469 128.711 30.8281C128.227 30.6094 127.823 30.3047 127.5 29.9141C127.182 29.5234 126.943 29.0703 126.781 28.5547C126.625 28.0391 126.547 27.487 126.547 26.8984V26.6484C126.547 26.0599 126.625 25.5078 126.781 24.9922C126.943 24.4766 127.182 24.0234 127.5 23.6328C127.823 23.2422 128.227 22.9375 128.711 22.7188C129.195 22.5 129.76 22.3906 130.406 22.3906C131.089 22.3906 131.688 22.5234 132.203 22.7891C132.724 23.0547 133.13 23.4297 133.422 23.9141C133.719 24.3984 133.872 24.9688 133.883 25.625H131.938C131.927 25.3229 131.859 25.0521 131.734 24.8125C131.609 24.5729 131.432 24.3802 131.203 24.2344C130.974 24.0885 130.695 24.0156 130.367 24.0156C130.018 24.0156 129.727 24.0885 129.492 24.2344C129.263 24.3802 129.083 24.5807 128.953 24.8359C128.828 25.0859 128.74 25.3672 128.688 25.6797C128.641 25.987 128.617 26.3099 128.617 26.6484V26.8984C128.617 27.2422 128.641 27.5703 128.688 27.8828C128.74 28.1953 128.828 28.4766 128.953 28.7266C129.083 28.9714 129.263 29.1667 129.492 29.3125C129.727 29.4583 130.023 29.5312 130.383 29.5312ZM138.727 29.5312C139.018 29.5312 139.279 29.474 139.508 29.3594C139.737 29.2448 139.919 29.0833 140.055 28.875C140.195 28.6667 140.271 28.4245 140.281 28.1484H142.227C142.216 28.7214 142.055 29.2344 141.742 29.6875C141.43 30.1406 141.013 30.5 140.492 30.7656C139.977 31.026 139.398 31.1562 138.758 31.1562C138.107 31.1562 137.539 31.0469 137.055 30.8281C136.57 30.6094 136.167 30.3047 135.844 29.9141C135.526 29.5234 135.286 29.0703 135.125 28.5547C134.969 28.0391 134.891 27.487 134.891 26.8984V26.6484C134.891 26.0599 134.969 25.5078 135.125 24.9922C135.286 24.4766 135.526 24.0234 135.844 23.6328C136.167 23.2422 136.57 22.9375 137.055 22.7188C137.539 22.5 138.104 22.3906 138.75 22.3906C139.432 22.3906 140.031 22.5234 140.547 22.7891C141.068 23.0547 141.474 23.4297 141.766 23.9141C142.062 24.3984 142.216 24.9688 142.227 25.625H140.281C140.271 25.3229 140.203 25.0521 140.078 24.8125C139.953 24.5729 139.776 24.3802 139.547 24.2344C139.318 24.0885 139.039 24.0156 138.711 24.0156C138.362 24.0156 138.07 24.0885 137.836 24.2344C137.607 24.3802 137.427 24.5807 137.297 24.8359C137.172 25.0859 137.083 25.3672 137.031 25.6797C136.984 25.987 136.961 26.3099 136.961 26.6484V26.8984C136.961 27.2422 136.984 27.5703 137.031 27.8828C137.083 28.1953 137.172 28.4766 137.297 28.7266C137.427 28.9714 137.607 29.1667 137.836 29.3125C138.07 29.4583 138.367 29.5312 138.727 29.5312ZM147.398 31.1562C146.758 31.1562 146.182 31.0521 145.672 30.8438C145.161 30.6354 144.727 30.3464 144.367 29.9766C144.013 29.6016 143.74 29.1667 143.547 28.6719C143.359 28.1719 143.266 27.6354 143.266 27.0625V26.75C143.266 26.099 143.359 25.5078 143.547 24.9766C143.734 24.4401 144 23.9792 144.344 23.5938C144.688 23.2083 145.099 22.9115 145.578 22.7031C146.057 22.4948 146.586 22.3906 147.164 22.3906C147.763 22.3906 148.292 22.4922 148.75 22.6953C149.208 22.8932 149.591 23.1745 149.898 23.5391C150.206 23.9036 150.438 24.3411 150.594 24.8516C150.75 25.3568 150.828 25.9167 150.828 26.5312V27.3984H144.203V25.9766H148.797V25.8203C148.786 25.4922 148.724 25.1927 148.609 24.9219C148.495 24.6458 148.318 24.4271 148.078 24.2656C147.839 24.099 147.529 24.0156 147.148 24.0156C146.841 24.0156 146.573 24.0833 146.344 24.2188C146.12 24.349 145.932 24.5365 145.781 24.7812C145.635 25.0208 145.526 25.3073 145.453 25.6406C145.38 25.974 145.344 26.3438 145.344 26.75V27.0625C145.344 27.4167 145.391 27.7448 145.484 28.0469C145.583 28.349 145.727 28.612 145.914 28.8359C146.107 29.0547 146.336 29.2266 146.602 29.3516C146.872 29.4714 147.18 29.5312 147.523 29.5312C147.956 29.5312 148.346 29.4479 148.695 29.2812C149.049 29.1094 149.357 28.8568 149.617 28.5234L150.656 29.6016C150.479 29.862 150.24 30.112 149.938 30.3516C149.641 30.5911 149.281 30.7865 148.859 30.9375C148.438 31.0833 147.951 31.1562 147.398 31.1562ZM156.859 28.6875C156.859 28.5104 156.812 28.3516 156.719 28.2109C156.625 28.0703 156.448 27.9427 156.188 27.8281C155.932 27.7083 155.557 27.5964 155.062 27.4922C154.625 27.3984 154.221 27.2812 153.852 27.1406C153.482 27 153.164 26.8307 152.898 26.6328C152.633 26.4297 152.424 26.1927 152.273 25.9219C152.128 25.6458 152.055 25.3281 152.055 24.9688C152.055 24.6198 152.13 24.2917 152.281 23.9844C152.432 23.6719 152.651 23.3984 152.938 23.1641C153.224 22.9245 153.573 22.737 153.984 22.6016C154.396 22.4609 154.859 22.3906 155.375 22.3906C156.094 22.3906 156.711 22.5078 157.227 22.7422C157.747 22.9766 158.146 23.2995 158.422 23.7109C158.698 24.1172 158.836 24.5755 158.836 25.0859H156.773C156.773 24.862 156.721 24.6589 156.617 24.4766C156.518 24.2943 156.365 24.1484 156.156 24.0391C155.948 23.9245 155.685 23.8672 155.367 23.8672C155.081 23.8672 154.839 23.9141 154.641 24.0078C154.448 24.1016 154.302 24.224 154.203 24.375C154.104 24.526 154.055 24.6927 154.055 24.875C154.055 25.0104 154.081 25.1328 154.133 25.2422C154.19 25.3464 154.281 25.4427 154.406 25.5312C154.531 25.6198 154.701 25.7005 154.914 25.7734C155.133 25.8464 155.401 25.9167 155.719 25.9844C156.349 26.1094 156.898 26.276 157.367 26.4844C157.841 26.6875 158.211 26.9583 158.477 27.2969C158.742 27.6354 158.875 28.0677 158.875 28.5938C158.875 28.9688 158.794 29.3125 158.633 29.625C158.471 29.9323 158.237 30.2005 157.93 30.4297C157.622 30.6589 157.255 30.8385 156.828 30.9688C156.401 31.0938 155.919 31.1562 155.383 31.1562C154.607 31.1562 153.951 31.0182 153.414 30.7422C152.878 30.4609 152.471 30.1068 152.195 29.6797C151.919 29.2474 151.781 28.7995 151.781 28.3359H153.758C153.773 28.6641 153.862 28.9271 154.023 29.125C154.185 29.3229 154.388 29.4661 154.633 29.5547C154.883 29.638 155.146 29.6797 155.422 29.6797C155.734 29.6797 155.997 29.638 156.211 29.5547C156.424 29.4661 156.586 29.349 156.695 29.2031C156.805 29.0521 156.859 28.8802 156.859 28.6875ZM165.094 28.6875C165.094 28.5104 165.047 28.3516 164.953 28.2109C164.859 28.0703 164.682 27.9427 164.422 27.8281C164.167 27.7083 163.792 27.5964 163.297 27.4922C162.859 27.3984 162.456 27.2812 162.086 27.1406C161.716 27 161.398 26.8307 161.133 26.6328C160.867 26.4297 160.659 26.1927 160.508 25.9219C160.362 25.6458 160.289 25.3281 160.289 24.9688C160.289 24.6198 160.365 24.2917 160.516 23.9844C160.667 23.6719 160.885 23.3984 161.172 23.1641C161.458 22.9245 161.807 22.737 162.219 22.6016C162.63 22.4609 163.094 22.3906 163.609 22.3906C164.328 22.3906 164.945 22.5078 165.461 22.7422C165.982 22.9766 166.38 23.2995 166.656 23.7109C166.932 24.1172 167.07 24.5755 167.07 25.0859H165.008C165.008 24.862 164.956 24.6589 164.852 24.4766C164.753 24.2943 164.599 24.1484 164.391 24.0391C164.182 23.9245 163.919 23.8672 163.602 23.8672C163.315 23.8672 163.073 23.9141 162.875 24.0078C162.682 24.1016 162.536 24.224 162.438 24.375C162.339 24.526 162.289 24.6927 162.289 24.875C162.289 25.0104 162.315 25.1328 162.367 25.2422C162.424 25.3464 162.516 25.4427 162.641 25.5312C162.766 25.6198 162.935 25.7005 163.148 25.7734C163.367 25.8464 163.635 25.9167 163.953 25.9844C164.583 26.1094 165.133 26.276 165.602 26.4844C166.076 26.6875 166.445 26.9583 166.711 27.2969C166.977 27.6354 167.109 28.0677 167.109 28.5938C167.109 28.9688 167.029 29.3125 166.867 29.625C166.706 29.9323 166.471 30.2005 166.164 30.4297C165.857 30.6589 165.49 30.8385 165.062 30.9688C164.635 31.0938 164.154 31.1562 163.617 31.1562C162.841 31.1562 162.185 31.0182 161.648 30.7422C161.112 30.4609 160.706 30.1068 160.43 29.6797C160.154 29.2474 160.016 28.7995 160.016 28.3359H161.992C162.008 28.6641 162.096 28.9271 162.258 29.125C162.419 29.3229 162.622 29.4661 162.867 29.5547C163.117 29.638 163.38 29.6797 163.656 29.6797C163.969 29.6797 164.232 29.638 164.445 29.5547C164.659 29.4661 164.82 29.349 164.93 29.2031C165.039 29.0521 165.094 28.8802 165.094 28.6875ZM178.773 28.0469C178.773 27.8281 178.74 27.6328 178.672 27.4609C178.609 27.2839 178.492 27.125 178.32 26.9844C178.154 26.8385 177.917 26.6979 177.609 26.5625C177.307 26.4219 176.917 26.276 176.438 26.125C175.906 25.9583 175.411 25.7708 174.953 25.5625C174.495 25.3542 174.091 25.112 173.742 24.8359C173.398 24.5599 173.13 24.2422 172.938 23.8828C172.745 23.5182 172.648 23.0964 172.648 22.6172C172.648 22.1484 172.747 21.7214 172.945 21.3359C173.148 20.9505 173.435 20.6198 173.805 20.3438C174.174 20.0625 174.609 19.8464 175.109 19.6953C175.615 19.5443 176.172 19.4688 176.781 19.4688C177.625 19.4688 178.354 19.6224 178.969 19.9297C179.589 20.237 180.068 20.6536 180.406 21.1797C180.745 21.7057 180.914 22.2969 180.914 22.9531H178.773C178.773 22.599 178.698 22.2865 178.547 22.0156C178.401 21.7448 178.177 21.5312 177.875 21.375C177.578 21.2188 177.203 21.1406 176.75 21.1406C176.312 21.1406 175.948 21.2057 175.656 21.3359C175.37 21.4661 175.154 21.6432 175.008 21.8672C174.867 22.0911 174.797 22.3411 174.797 22.6172C174.797 22.8255 174.846 23.013 174.945 23.1797C175.044 23.3411 175.193 23.4948 175.391 23.6406C175.589 23.7812 175.833 23.9141 176.125 24.0391C176.422 24.1589 176.766 24.2786 177.156 24.3984C177.781 24.5859 178.328 24.7943 178.797 25.0234C179.271 25.2526 179.664 25.513 179.977 25.8047C180.294 26.0964 180.531 26.4245 180.688 26.7891C180.849 27.1536 180.93 27.5677 180.93 28.0312C180.93 28.5208 180.833 28.9583 180.641 29.3438C180.448 29.7292 180.172 30.0573 179.812 30.3281C179.453 30.599 179.021 30.8047 178.516 30.9453C178.016 31.0859 177.456 31.1562 176.836 31.1562C176.284 31.1562 175.737 31.0833 175.195 30.9375C174.659 30.7865 174.172 30.5625 173.734 30.2656C173.297 29.9635 172.948 29.5833 172.688 29.125C172.427 28.6615 172.297 28.1198 172.297 27.5H174.453C174.453 27.8594 174.51 28.1667 174.625 28.4219C174.745 28.6719 174.911 28.8776 175.125 29.0391C175.344 29.1953 175.599 29.3099 175.891 29.3828C176.182 29.4557 176.497 29.4922 176.836 29.4922C177.273 29.4922 177.633 29.4323 177.914 29.3125C178.201 29.1875 178.414 29.0156 178.555 28.7969C178.701 28.5781 178.773 28.3281 178.773 28.0469ZM185.898 29.5312C186.19 29.5312 186.451 29.474 186.68 29.3594C186.909 29.2448 187.091 29.0833 187.227 28.875C187.367 28.6667 187.443 28.4245 187.453 28.1484H189.398C189.388 28.7214 189.227 29.2344 188.914 29.6875C188.602 30.1406 188.185 30.5 187.664 30.7656C187.148 31.026 186.57 31.1562 185.93 31.1562C185.279 31.1562 184.711 31.0469 184.227 30.8281C183.742 30.6094 183.339 30.3047 183.016 29.9141C182.698 29.5234 182.458 29.0703 182.297 28.5547C182.141 28.0391 182.062 27.487 182.062 26.8984V26.6484C182.062 26.0599 182.141 25.5078 182.297 24.9922C182.458 24.4766 182.698 24.0234 183.016 23.6328C183.339 23.2422 183.742 22.9375 184.227 22.7188C184.711 22.5 185.276 22.3906 185.922 22.3906C186.604 22.3906 187.203 22.5234 187.719 22.7891C188.24 23.0547 188.646 23.4297 188.938 23.9141C189.234 24.3984 189.388 24.9688 189.398 25.625H187.453C187.443 25.3229 187.375 25.0521 187.25 24.8125C187.125 24.5729 186.948 24.3802 186.719 24.2344C186.49 24.0885 186.211 24.0156 185.883 24.0156C185.534 24.0156 185.242 24.0885 185.008 24.2344C184.779 24.3802 184.599 24.5807 184.469 24.8359C184.344 25.0859 184.255 25.3672 184.203 25.6797C184.156 25.987 184.133 26.3099 184.133 26.6484V26.8984C184.133 27.2422 184.156 27.5703 184.203 27.8828C184.255 28.1953 184.344 28.4766 184.469 28.7266C184.599 28.9714 184.779 29.1667 185.008 29.3125C185.242 29.4583 185.539 29.5312 185.898 29.5312ZM190.406 26.8594V26.6953C190.406 26.0755 190.495 25.5052 190.672 24.9844C190.849 24.4583 191.107 24.0026 191.445 23.6172C191.784 23.2318 192.198 22.9323 192.688 22.7188C193.177 22.5 193.734 22.3906 194.359 22.3906C194.995 22.3906 195.557 22.5 196.047 22.7188C196.542 22.9323 196.958 23.2318 197.297 23.6172C197.635 24.0026 197.893 24.4583 198.07 24.9844C198.247 25.5052 198.336 26.0755 198.336 26.6953V26.8594C198.336 27.474 198.247 28.0443 198.07 28.5703C197.893 29.0911 197.635 29.5469 197.297 29.9375C196.958 30.3229 196.544 30.6224 196.055 30.8359C195.565 31.0495 195.005 31.1562 194.375 31.1562C193.75 31.1562 193.19 31.0495 192.695 30.8359C192.201 30.6224 191.784 30.3229 191.445 29.9375C191.107 29.5469 190.849 29.0911 190.672 28.5703C190.495 28.0443 190.406 27.474 190.406 26.8594ZM192.469 26.6953V26.8594C192.469 27.2292 192.505 27.5755 192.578 27.8984C192.651 28.2214 192.763 28.5052 192.914 28.75C193.065 28.9948 193.26 29.1875 193.5 29.3281C193.745 29.4635 194.036 29.5312 194.375 29.5312C194.708 29.5312 194.995 29.4635 195.234 29.3281C195.474 29.1875 195.669 28.9948 195.82 28.75C195.977 28.5052 196.091 28.2214 196.164 27.8984C196.237 27.5755 196.273 27.2292 196.273 26.8594V26.6953C196.273 26.3307 196.237 25.9896 196.164 25.6719C196.091 25.349 195.977 25.0651 195.82 24.8203C195.669 24.5703 195.471 24.375 195.227 24.2344C194.987 24.0885 194.698 24.0156 194.359 24.0156C194.026 24.0156 193.74 24.0885 193.5 24.2344C193.26 24.375 193.065 24.5703 192.914 24.8203C192.763 25.0651 192.651 25.349 192.578 25.6719C192.505 25.9896 192.469 26.3307 192.469 26.6953ZM201.898 24.2734V31H199.836V22.5469H201.789L201.898 24.2734ZM204.469 22.4922L204.438 24.4141C204.323 24.3932 204.193 24.3776 204.047 24.3672C203.906 24.3568 203.773 24.3516 203.648 24.3516C203.331 24.3516 203.052 24.3958 202.812 24.4844C202.573 24.5677 202.372 24.6901 202.211 24.8516C202.055 25.013 201.935 25.2109 201.852 25.4453C201.768 25.6745 201.721 25.9349 201.711 26.2266L201.266 26.1719C201.266 25.6354 201.32 25.138 201.43 24.6797C201.539 24.2214 201.698 23.8203 201.906 23.4766C202.115 23.1328 202.375 22.8672 202.688 22.6797C203.005 22.487 203.37 22.3906 203.781 22.3906C203.896 22.3906 204.018 22.401 204.148 22.4219C204.284 22.4375 204.391 22.4609 204.469 22.4922ZM209.242 31.1562C208.602 31.1562 208.026 31.0521 207.516 30.8438C207.005 30.6354 206.57 30.3464 206.211 29.9766C205.857 29.6016 205.583 29.1667 205.391 28.6719C205.203 28.1719 205.109 27.6354 205.109 27.0625V26.75C205.109 26.099 205.203 25.5078 205.391 24.9766C205.578 24.4401 205.844 23.9792 206.188 23.5938C206.531 23.2083 206.943 22.9115 207.422 22.7031C207.901 22.4948 208.43 22.3906 209.008 22.3906C209.607 22.3906 210.135 22.4922 210.594 22.6953C211.052 22.8932 211.435 23.1745 211.742 23.5391C212.049 23.9036 212.281 24.3411 212.438 24.8516C212.594 25.3568 212.672 25.9167 212.672 26.5312V27.3984H206.047V25.9766H210.641V25.8203C210.63 25.4922 210.568 25.1927 210.453 24.9219C210.339 24.6458 210.161 24.4271 209.922 24.2656C209.682 24.099 209.372 24.0156 208.992 24.0156C208.685 24.0156 208.417 24.0833 208.188 24.2188C207.964 24.349 207.776 24.5365 207.625 24.7812C207.479 25.0208 207.37 25.3073 207.297 25.6406C207.224 25.974 207.188 26.3438 207.188 26.75V27.0625C207.188 27.4167 207.234 27.7448 207.328 28.0469C207.427 28.349 207.57 28.612 207.758 28.8359C207.951 29.0547 208.18 29.2266 208.445 29.3516C208.716 29.4714 209.023 29.5312 209.367 29.5312C209.799 29.5312 210.19 29.4479 210.539 29.2812C210.893 29.1094 211.201 28.8568 211.461 28.5234L212.5 29.6016C212.323 29.862 212.083 30.112 211.781 30.3516C211.484 30.5911 211.125 30.7865 210.703 30.9375C210.281 31.0833 209.794 31.1562 209.242 31.1562Z"
            fill="black" />
        <path opacity="0.2"
            d="M157.185 167.277C158.669 170.485 157.279 174.322 153.939 175.478C143.38 179.134 132.045 179.961 121.067 177.878C117.595 177.219 115.662 173.625 116.664 170.235C117.667 166.846 121.226 164.953 124.714 165.525C132.68 166.832 140.845 166.236 148.536 163.786C151.904 162.713 155.701 164.069 157.185 167.277Z"
            fill="#DFD6F9" />
        <path
            d="M115.201 169.781C114.108 173.142 110.481 175.012 107.245 173.589C100.269 170.523 93.8806 166.228 88.3918 160.892C81.3695 154.067 76.0073 145.72 72.7181 136.496C69.4288 127.272 68.3002 117.416 69.4192 107.687C70.5381 97.9583 73.8748 88.616 79.1723 80.3795C84.4698 72.143 91.5869 65.232 99.9754 60.1787C108.364 55.1254 117.8 52.0645 127.558 51.2318C137.315 50.3991 147.134 51.8167 156.258 55.3754C163.389 58.1571 169.947 62.1888 175.63 67.2646C178.267 69.619 178.07 73.695 175.465 76.0831C172.859 78.4712 168.833 78.2588 166.139 75.9711C161.82 72.3043 156.911 69.3698 151.606 67.3004C144.307 64.4533 136.452 63.3193 128.646 63.9854C120.84 64.6516 113.291 67.1003 106.58 71.1429C99.8695 75.1856 94.1759 80.7144 89.9379 87.3036C85.6999 93.8928 83.0305 101.367 82.1353 109.15C81.2401 116.933 82.143 124.818 84.7744 132.197C87.4059 139.576 91.6956 146.253 97.3135 151.714C101.397 155.683 106.103 158.933 111.231 161.342C114.43 162.844 116.293 166.419 115.201 169.781Z"
            fill="#774FE6" />
        <path opacity="0.5"
            d="M176.588 77.3452C179.262 75.0345 183.333 75.3133 185.366 78.2053C189.728 84.4137 192.961 91.3628 194.898 98.7342C197.379 108.174 197.668 118.056 195.743 127.624C193.817 137.193 189.729 146.194 183.791 153.94C179.153 159.989 173.484 165.146 167.06 169.184C164.067 171.065 160.205 169.748 158.632 166.583C157.059 163.417 158.378 159.608 161.323 157.653C166.021 154.533 170.183 150.651 173.632 146.152C178.383 139.955 181.654 132.754 183.194 125.1C184.734 117.445 184.503 109.539 182.519 101.987C181.078 96.5049 178.741 91.3144 175.615 86.6207C173.656 83.6787 173.913 79.6559 176.588 77.3452Z"
            fill="#8F6EEB" />
        <path
            d="M116.001 104.734H116.637V108.215H116.379C115.229 108.215 114.205 108.387 113.307 108.73C112.409 109.073 111.647 109.562 111.021 110.198C110.405 110.824 109.931 111.581 109.598 112.469C109.275 113.357 109.114 114.351 109.114 115.451V119.114C109.114 119.901 109.189 120.597 109.341 121.203C109.502 121.798 109.729 122.298 110.022 122.701C110.325 123.095 110.678 123.392 111.082 123.594C111.485 123.786 111.939 123.882 112.444 123.882C112.918 123.882 113.347 123.781 113.73 123.579C114.124 123.377 114.457 123.095 114.729 122.731C115.012 122.358 115.224 121.924 115.365 121.43C115.517 120.925 115.592 120.375 115.592 119.78C115.592 119.184 115.517 118.634 115.365 118.13C115.224 117.625 115.012 117.191 114.729 116.828C114.447 116.455 114.104 116.167 113.7 115.965C113.297 115.764 112.842 115.663 112.338 115.663C111.652 115.663 111.046 115.824 110.521 116.147C110.007 116.46 109.603 116.863 109.311 117.358C109.018 117.852 108.861 118.372 108.841 118.917L107.524 118.069C107.555 117.292 107.716 116.556 108.009 115.859C108.312 115.163 108.725 114.548 109.25 114.013C109.785 113.468 110.426 113.044 111.172 112.741C111.919 112.428 112.762 112.272 113.7 112.272C114.729 112.272 115.633 112.469 116.41 112.862C117.197 113.256 117.853 113.796 118.377 114.482C118.902 115.168 119.296 115.96 119.558 116.858C119.82 117.757 119.952 118.715 119.952 119.734C119.952 120.804 119.775 121.798 119.422 122.716C119.079 123.635 118.579 124.437 117.923 125.123C117.278 125.809 116.5 126.344 115.592 126.728C114.684 127.111 113.665 127.303 112.535 127.303C111.364 127.303 110.299 127.091 109.341 126.667C108.392 126.233 107.575 125.628 106.889 124.851C106.202 124.074 105.673 123.15 105.299 122.081C104.936 121.011 104.754 119.84 104.754 118.569V116.874C104.754 115.097 105.012 113.473 105.526 112C106.051 110.516 106.803 109.235 107.782 108.155C108.761 107.065 109.941 106.222 111.324 105.627C112.706 105.032 114.265 104.734 116.001 104.734ZM126.657 116.964L123.176 116.132L124.432 104.961H136.814V108.488H128.02L127.475 113.377C127.767 113.205 128.211 113.024 128.807 112.832C129.402 112.63 130.068 112.529 130.805 112.529C131.874 112.529 132.823 112.696 133.65 113.029C134.478 113.362 135.179 113.846 135.754 114.482C136.34 115.118 136.784 115.895 137.086 116.813C137.389 117.731 137.541 118.771 137.541 119.931C137.541 120.91 137.389 121.843 137.086 122.731C136.784 123.609 136.325 124.396 135.709 125.093C135.093 125.779 134.321 126.319 133.393 126.712C132.465 127.106 131.365 127.303 130.093 127.303C129.145 127.303 128.226 127.161 127.338 126.879C126.46 126.596 125.668 126.178 124.962 125.623C124.266 125.068 123.706 124.396 123.282 123.609C122.868 122.812 122.651 121.904 122.631 120.885H126.96C127.021 121.51 127.182 122.05 127.444 122.504C127.717 122.948 128.075 123.292 128.519 123.534C128.963 123.776 129.483 123.897 130.078 123.897C130.633 123.897 131.107 123.791 131.501 123.579C131.895 123.367 132.212 123.075 132.455 122.701C132.697 122.318 132.873 121.874 132.984 121.369C133.105 120.854 133.166 120.299 133.166 119.704C133.166 119.109 133.095 118.569 132.954 118.084C132.813 117.6 132.596 117.181 132.303 116.828C132.011 116.475 131.637 116.202 131.183 116.011C130.739 115.819 130.219 115.723 129.624 115.723C128.817 115.723 128.191 115.849 127.747 116.102C127.313 116.354 126.95 116.641 126.657 116.964ZM140.295 110.365V109.199C140.295 108.362 140.477 107.6 140.84 106.914C141.204 106.227 141.738 105.677 142.445 105.264C143.151 104.85 144.019 104.643 145.048 104.643C146.108 104.643 146.991 104.85 147.697 105.264C148.414 105.677 148.949 106.227 149.302 106.914C149.665 107.6 149.847 108.362 149.847 109.199V110.365C149.847 111.182 149.665 111.934 149.302 112.62C148.949 113.306 148.419 113.856 147.712 114.27C147.006 114.684 146.133 114.891 145.094 114.891C144.044 114.891 143.161 114.684 142.445 114.27C141.738 113.856 141.204 113.306 140.84 112.62C140.477 111.934 140.295 111.182 140.295 110.365ZM143.187 109.199V110.365C143.187 110.718 143.252 111.056 143.383 111.379C143.525 111.692 143.736 111.949 144.019 112.151C144.312 112.343 144.665 112.438 145.079 112.438C145.513 112.438 145.866 112.343 146.138 112.151C146.411 111.949 146.612 111.692 146.744 111.379C146.875 111.056 146.94 110.718 146.94 110.365V109.199C146.94 108.826 146.87 108.483 146.729 108.17C146.597 107.847 146.39 107.59 146.108 107.398C145.835 107.196 145.482 107.095 145.048 107.095C144.645 107.095 144.302 107.196 144.019 107.398C143.736 107.59 143.525 107.847 143.383 108.17C143.252 108.483 143.187 108.826 143.187 109.199ZM150.831 122.762V121.596C150.831 120.769 151.012 120.012 151.375 119.326C151.749 118.639 152.289 118.09 152.995 117.676C153.712 117.262 154.59 117.055 155.629 117.055C156.678 117.055 157.556 117.262 158.263 117.676C158.969 118.09 159.504 118.639 159.867 119.326C160.23 120.012 160.412 120.769 160.412 121.596V122.762C160.412 123.589 160.23 124.346 159.867 125.032C159.514 125.718 158.984 126.268 158.278 126.682C157.571 127.096 156.699 127.303 155.659 127.303C154.61 127.303 153.727 127.096 153.01 126.682C152.294 126.268 151.749 125.718 151.375 125.032C151.012 124.346 150.831 123.589 150.831 122.762ZM153.737 121.596V122.762C153.737 123.125 153.818 123.468 153.979 123.791C154.14 124.114 154.362 124.371 154.645 124.563C154.938 124.755 155.276 124.851 155.659 124.851C156.144 124.851 156.522 124.755 156.794 124.563C157.067 124.371 157.254 124.114 157.354 123.791C157.465 123.468 157.521 123.125 157.521 122.762V121.596C157.521 121.233 157.45 120.895 157.309 120.582C157.168 120.259 156.956 120.002 156.673 119.81C156.401 119.608 156.053 119.507 155.629 119.507C155.205 119.507 154.852 119.608 154.569 119.81C154.297 120.002 154.09 120.259 153.949 120.582C153.807 120.895 153.737 121.233 153.737 121.596ZM156.704 108.109L145.941 125.335L143.822 124.215L154.584 106.989L156.704 108.109Z"
            fill="#28293D" />
        <path
            d="M76.5059 200.084L78.2051 193.469H79.0957L78.9961 195.174L77.1797 202H76.2539L76.5059 200.084ZM75.2344 193.469L76.6113 200.031L76.7344 202H75.75L73.7754 193.469H75.2344ZM81.0234 200.014L82.3828 193.469H83.8477L81.873 202H80.8887L81.0234 200.014ZM79.4414 193.469L81.123 200.102L81.3691 202H80.4434L78.6562 195.174L78.5625 193.469H79.4414ZM86.1914 193V202H84.7852V193H86.1914ZM85.9453 198.596L85.4883 198.59C85.4922 198.152 85.5527 197.748 85.6699 197.377C85.791 197.006 85.959 196.684 86.1738 196.41C86.3926 196.133 86.6543 195.92 86.959 195.771C87.2637 195.619 87.6016 195.543 87.9727 195.543C88.2852 195.543 88.5664 195.586 88.8164 195.672C89.0703 195.758 89.2891 195.896 89.4727 196.088C89.6562 196.275 89.7949 196.521 89.8887 196.826C89.9863 197.127 90.0352 197.494 90.0352 197.928V202H88.6172V197.916C88.6172 197.611 88.5723 197.369 88.4824 197.189C88.3965 197.01 88.2695 196.881 88.1016 196.803C87.9336 196.721 87.7285 196.68 87.4863 196.68C87.2324 196.68 87.0078 196.73 86.8125 196.832C86.6211 196.934 86.4609 197.072 86.332 197.248C86.2031 197.424 86.1055 197.627 86.0391 197.857C85.9766 198.088 85.9453 198.334 85.9453 198.596ZM95.0391 200.729V197.705C95.0391 197.479 94.998 197.283 94.916 197.119C94.834 196.955 94.709 196.828 94.541 196.738C94.377 196.648 94.1699 196.604 93.9199 196.604C93.6895 196.604 93.4902 196.643 93.3223 196.721C93.1543 196.799 93.0234 196.904 92.9297 197.037C92.8359 197.17 92.7891 197.32 92.7891 197.488H91.3828C91.3828 197.238 91.4434 196.996 91.5645 196.762C91.6855 196.527 91.8613 196.318 92.0918 196.135C92.3223 195.951 92.5977 195.807 92.918 195.701C93.2383 195.596 93.5977 195.543 93.9961 195.543C94.4727 195.543 94.8945 195.623 95.2617 195.783C95.6328 195.943 95.9238 196.186 96.1348 196.51C96.3496 196.83 96.457 197.232 96.457 197.717V200.535C96.457 200.824 96.4766 201.084 96.5156 201.314C96.5586 201.541 96.6191 201.738 96.6973 201.906V202H95.25C95.1836 201.848 95.1309 201.654 95.0918 201.42C95.0566 201.182 95.0391 200.951 95.0391 200.729ZM95.2441 198.145L95.2559 199.018H94.2422C93.9805 199.018 93.75 199.043 93.5508 199.094C93.3516 199.141 93.1855 199.211 93.0527 199.305C92.9199 199.398 92.8203 199.512 92.7539 199.645C92.6875 199.777 92.6543 199.928 92.6543 200.096C92.6543 200.264 92.6934 200.418 92.7715 200.559C92.8496 200.695 92.9629 200.803 93.1113 200.881C93.2637 200.959 93.4473 200.998 93.6621 200.998C93.9512 200.998 94.2031 200.939 94.418 200.822C94.6367 200.701 94.8086 200.555 94.9336 200.383C95.0586 200.207 95.125 200.041 95.1328 199.885L95.5898 200.512C95.543 200.672 95.4629 200.844 95.3496 201.027C95.2363 201.211 95.0879 201.387 94.9043 201.555C94.7246 201.719 94.5078 201.854 94.2539 201.959C94.0039 202.064 93.7148 202.117 93.3867 202.117C92.9727 202.117 92.6035 202.035 92.2793 201.871C91.9551 201.703 91.7012 201.479 91.5176 201.197C91.334 200.912 91.2422 200.59 91.2422 200.23C91.2422 199.895 91.3047 199.598 91.4297 199.34C91.5586 199.078 91.7461 198.859 91.9922 198.684C92.2422 198.508 92.5469 198.375 92.9062 198.285C93.2656 198.191 93.6758 198.145 94.1367 198.145H95.2441ZM100.84 195.66V196.691H97.2656V195.66H100.84ZM98.2969 194.107H99.709V200.248C99.709 200.443 99.7363 200.594 99.791 200.699C99.8496 200.801 99.9297 200.869 100.031 200.904C100.133 200.939 100.252 200.957 100.389 200.957C100.486 200.957 100.58 200.951 100.67 200.939C100.76 200.928 100.832 200.916 100.887 200.904L100.893 201.982C100.775 202.018 100.639 202.049 100.482 202.076C100.33 202.104 100.154 202.117 99.9551 202.117C99.6309 202.117 99.3438 202.061 99.0938 201.947C98.8438 201.83 98.6484 201.641 98.5078 201.379C98.3672 201.117 98.2969 200.77 98.2969 200.336V194.107ZM106.43 195.66V202H105.012V195.66H106.43ZM104.918 193.996C104.918 193.781 104.988 193.604 105.129 193.463C105.273 193.318 105.473 193.246 105.727 193.246C105.977 193.246 106.174 193.318 106.318 193.463C106.463 193.604 106.535 193.781 106.535 193.996C106.535 194.207 106.463 194.383 106.318 194.523C106.174 194.664 105.977 194.734 105.727 194.734C105.473 194.734 105.273 194.664 105.129 194.523C104.988 194.383 104.918 194.207 104.918 193.996ZM111.533 200.283C111.533 200.143 111.498 200.016 111.428 199.902C111.357 199.785 111.223 199.68 111.023 199.586C110.828 199.492 110.539 199.406 110.156 199.328C109.82 199.254 109.512 199.166 109.23 199.064C108.953 198.959 108.715 198.832 108.516 198.684C108.316 198.535 108.162 198.359 108.053 198.156C107.943 197.953 107.889 197.719 107.889 197.453C107.889 197.195 107.945 196.951 108.059 196.721C108.172 196.49 108.334 196.287 108.545 196.111C108.756 195.936 109.012 195.797 109.312 195.695C109.617 195.594 109.957 195.543 110.332 195.543C110.863 195.543 111.318 195.633 111.697 195.812C112.08 195.988 112.373 196.229 112.576 196.533C112.779 196.834 112.881 197.174 112.881 197.553H111.469C111.469 197.385 111.426 197.229 111.34 197.084C111.258 196.936 111.133 196.816 110.965 196.727C110.797 196.633 110.586 196.586 110.332 196.586C110.09 196.586 109.889 196.625 109.729 196.703C109.572 196.777 109.455 196.875 109.377 196.996C109.303 197.117 109.266 197.25 109.266 197.395C109.266 197.5 109.285 197.596 109.324 197.682C109.367 197.764 109.438 197.84 109.535 197.91C109.633 197.977 109.766 198.039 109.934 198.098C110.105 198.156 110.32 198.213 110.578 198.268C111.062 198.369 111.479 198.5 111.826 198.66C112.178 198.816 112.447 199.02 112.635 199.27C112.822 199.516 112.916 199.828 112.916 200.207C112.916 200.488 112.855 200.746 112.734 200.98C112.617 201.211 112.445 201.412 112.219 201.584C111.992 201.752 111.721 201.883 111.404 201.977C111.092 202.07 110.74 202.117 110.35 202.117C109.775 202.117 109.289 202.016 108.891 201.812C108.492 201.605 108.189 201.342 107.982 201.021C107.779 200.697 107.678 200.361 107.678 200.014H109.043C109.059 200.275 109.131 200.484 109.26 200.641C109.393 200.793 109.557 200.904 109.752 200.975C109.951 201.041 110.156 201.074 110.367 201.074C110.621 201.074 110.834 201.041 111.006 200.975C111.178 200.904 111.309 200.811 111.398 200.693C111.488 200.572 111.533 200.436 111.533 200.283ZM120.715 200.729V197.705C120.715 197.479 120.674 197.283 120.592 197.119C120.51 196.955 120.385 196.828 120.217 196.738C120.053 196.648 119.846 196.604 119.596 196.604C119.365 196.604 119.166 196.643 118.998 196.721C118.83 196.799 118.699 196.904 118.605 197.037C118.512 197.17 118.465 197.32 118.465 197.488H117.059C117.059 197.238 117.119 196.996 117.24 196.762C117.361 196.527 117.537 196.318 117.768 196.135C117.998 195.951 118.273 195.807 118.594 195.701C118.914 195.596 119.273 195.543 119.672 195.543C120.148 195.543 120.57 195.623 120.938 195.783C121.309 195.943 121.6 196.186 121.811 196.51C122.025 196.83 122.133 197.232 122.133 197.717V200.535C122.133 200.824 122.152 201.084 122.191 201.314C122.234 201.541 122.295 201.738 122.373 201.906V202H120.926C120.859 201.848 120.807 201.654 120.768 201.42C120.732 201.182 120.715 200.951 120.715 200.729ZM120.92 198.145L120.932 199.018H119.918C119.656 199.018 119.426 199.043 119.227 199.094C119.027 199.141 118.861 199.211 118.729 199.305C118.596 199.398 118.496 199.512 118.43 199.645C118.363 199.777 118.33 199.928 118.33 200.096C118.33 200.264 118.369 200.418 118.447 200.559C118.525 200.695 118.639 200.803 118.787 200.881C118.939 200.959 119.123 200.998 119.338 200.998C119.627 200.998 119.879 200.939 120.094 200.822C120.312 200.701 120.484 200.555 120.609 200.383C120.734 200.207 120.801 200.041 120.809 199.885L121.266 200.512C121.219 200.672 121.139 200.844 121.025 201.027C120.912 201.211 120.764 201.387 120.58 201.555C120.4 201.719 120.184 201.854 119.93 201.959C119.68 202.064 119.391 202.117 119.062 202.117C118.648 202.117 118.279 202.035 117.955 201.871C117.631 201.703 117.377 201.479 117.193 201.197C117.01 200.912 116.918 200.59 116.918 200.23C116.918 199.895 116.98 199.598 117.105 199.34C117.234 199.078 117.422 198.859 117.668 198.684C117.918 198.508 118.223 198.375 118.582 198.285C118.941 198.191 119.352 198.145 119.812 198.145H120.92ZM130.658 195.66H131.941V201.824C131.941 202.395 131.82 202.879 131.578 203.277C131.336 203.676 130.998 203.979 130.564 204.186C130.131 204.396 129.629 204.502 129.059 204.502C128.816 204.502 128.547 204.467 128.25 204.396C127.957 204.326 127.672 204.213 127.395 204.057C127.121 203.904 126.893 203.703 126.709 203.453L127.371 202.621C127.598 202.891 127.848 203.088 128.121 203.213C128.395 203.338 128.682 203.4 128.982 203.4C129.307 203.4 129.582 203.34 129.809 203.219C130.039 203.102 130.217 202.928 130.342 202.697C130.467 202.467 130.529 202.186 130.529 201.854V197.096L130.658 195.66ZM126.352 198.9V198.777C126.352 198.297 126.41 197.859 126.527 197.465C126.645 197.066 126.812 196.725 127.031 196.439C127.25 196.15 127.516 195.93 127.828 195.777C128.141 195.621 128.494 195.543 128.889 195.543C129.299 195.543 129.648 195.617 129.938 195.766C130.23 195.914 130.475 196.127 130.67 196.404C130.865 196.678 131.018 197.006 131.127 197.389C131.24 197.768 131.324 198.189 131.379 198.654V199.047C131.328 199.5 131.242 199.914 131.121 200.289C131 200.664 130.84 200.988 130.641 201.262C130.441 201.535 130.195 201.746 129.902 201.895C129.613 202.043 129.271 202.117 128.877 202.117C128.49 202.117 128.141 202.037 127.828 201.877C127.52 201.717 127.254 201.492 127.031 201.203C126.812 200.914 126.645 200.574 126.527 200.184C126.41 199.789 126.352 199.361 126.352 198.9ZM127.764 198.777V198.9C127.764 199.189 127.791 199.459 127.846 199.709C127.904 199.959 127.992 200.18 128.109 200.371C128.23 200.559 128.383 200.707 128.566 200.816C128.754 200.922 128.975 200.975 129.229 200.975C129.561 200.975 129.832 200.904 130.043 200.764C130.258 200.623 130.422 200.434 130.535 200.195C130.652 199.953 130.734 199.684 130.781 199.387V198.326C130.758 198.096 130.709 197.881 130.635 197.682C130.564 197.482 130.469 197.309 130.348 197.16C130.227 197.008 130.074 196.891 129.891 196.809C129.707 196.723 129.49 196.68 129.24 196.68C128.986 196.68 128.766 196.734 128.578 196.844C128.391 196.953 128.236 197.104 128.115 197.295C127.998 197.486 127.91 197.709 127.852 197.963C127.793 198.217 127.764 198.488 127.764 198.777ZM133.137 198.9V198.766C133.137 198.309 133.203 197.885 133.336 197.494C133.469 197.1 133.66 196.758 133.91 196.469C134.164 196.176 134.473 195.949 134.836 195.789C135.203 195.625 135.617 195.543 136.078 195.543C136.543 195.543 136.957 195.625 137.32 195.789C137.688 195.949 137.998 196.176 138.252 196.469C138.506 196.758 138.699 197.1 138.832 197.494C138.965 197.885 139.031 198.309 139.031 198.766V198.9C139.031 199.357 138.965 199.781 138.832 200.172C138.699 200.562 138.506 200.904 138.252 201.197C137.998 201.486 137.689 201.713 137.326 201.877C136.963 202.037 136.551 202.117 136.09 202.117C135.625 202.117 135.209 202.037 134.842 201.877C134.479 201.713 134.17 201.486 133.916 201.197C133.662 200.904 133.469 200.562 133.336 200.172C133.203 199.781 133.137 199.357 133.137 198.9ZM134.549 198.766V198.9C134.549 199.186 134.578 199.455 134.637 199.709C134.695 199.963 134.787 200.186 134.912 200.377C135.037 200.568 135.197 200.719 135.393 200.828C135.588 200.938 135.82 200.992 136.09 200.992C136.352 200.992 136.578 200.938 136.77 200.828C136.965 200.719 137.125 200.568 137.25 200.377C137.375 200.186 137.467 199.963 137.525 199.709C137.588 199.455 137.619 199.186 137.619 198.9V198.766C137.619 198.484 137.588 198.219 137.525 197.969C137.467 197.715 137.373 197.49 137.244 197.295C137.119 197.1 136.959 196.947 136.764 196.838C136.572 196.725 136.344 196.668 136.078 196.668C135.812 196.668 135.582 196.725 135.387 196.838C135.195 196.947 135.037 197.1 134.912 197.295C134.787 197.49 134.695 197.715 134.637 197.969C134.578 198.219 134.549 198.484 134.549 198.766ZM139.945 198.9V198.766C139.945 198.309 140.012 197.885 140.145 197.494C140.277 197.1 140.469 196.758 140.719 196.469C140.973 196.176 141.281 195.949 141.645 195.789C142.012 195.625 142.426 195.543 142.887 195.543C143.352 195.543 143.766 195.625 144.129 195.789C144.496 195.949 144.807 196.176 145.061 196.469C145.314 196.758 145.508 197.1 145.641 197.494C145.773 197.885 145.84 198.309 145.84 198.766V198.9C145.84 199.357 145.773 199.781 145.641 200.172C145.508 200.562 145.314 200.904 145.061 201.197C144.807 201.486 144.498 201.713 144.135 201.877C143.771 202.037 143.359 202.117 142.898 202.117C142.434 202.117 142.018 202.037 141.65 201.877C141.287 201.713 140.979 201.486 140.725 201.197C140.471 200.904 140.277 200.562 140.145 200.172C140.012 199.781 139.945 199.357 139.945 198.9ZM141.357 198.766V198.9C141.357 199.186 141.387 199.455 141.445 199.709C141.504 199.963 141.596 200.186 141.721 200.377C141.846 200.568 142.006 200.719 142.201 200.828C142.396 200.938 142.629 200.992 142.898 200.992C143.16 200.992 143.387 200.938 143.578 200.828C143.773 200.719 143.934 200.568 144.059 200.377C144.184 200.186 144.275 199.963 144.334 199.709C144.396 199.455 144.428 199.186 144.428 198.9V198.766C144.428 198.484 144.396 198.219 144.334 197.969C144.275 197.715 144.182 197.49 144.053 197.295C143.928 197.1 143.768 196.947 143.572 196.838C143.381 196.725 143.152 196.668 142.887 196.668C142.621 196.668 142.391 196.725 142.195 196.838C142.004 196.947 141.846 197.1 141.721 197.295C141.596 197.49 141.504 197.715 141.445 197.969C141.387 198.219 141.357 198.484 141.357 198.766ZM150.891 200.688V193H152.309V202H151.025L150.891 200.688ZM146.766 198.9V198.777C146.766 198.297 146.822 197.859 146.936 197.465C147.049 197.066 147.213 196.725 147.428 196.439C147.643 196.15 147.904 195.93 148.213 195.777C148.521 195.621 148.869 195.543 149.256 195.543C149.639 195.543 149.975 195.617 150.264 195.766C150.553 195.914 150.799 196.127 151.002 196.404C151.205 196.678 151.367 197.006 151.488 197.389C151.609 197.768 151.695 198.189 151.746 198.654V199.047C151.695 199.5 151.609 199.914 151.488 200.289C151.367 200.664 151.205 200.988 151.002 201.262C150.799 201.535 150.551 201.746 150.258 201.895C149.969 202.043 149.631 202.117 149.244 202.117C148.861 202.117 148.516 202.037 148.207 201.877C147.902 201.717 147.643 201.492 147.428 201.203C147.213 200.914 147.049 200.574 146.936 200.184C146.822 199.789 146.766 199.361 146.766 198.9ZM148.178 198.777V198.9C148.178 199.189 148.203 199.459 148.254 199.709C148.309 199.959 148.393 200.18 148.506 200.371C148.619 200.559 148.766 200.707 148.945 200.816C149.129 200.922 149.348 200.975 149.602 200.975C149.922 200.975 150.186 200.904 150.393 200.764C150.6 200.623 150.762 200.434 150.879 200.195C151 199.953 151.082 199.684 151.125 199.387V198.326C151.102 198.096 151.053 197.881 150.979 197.682C150.908 197.482 150.812 197.309 150.691 197.16C150.57 197.008 150.42 196.891 150.24 196.809C150.064 196.723 149.855 196.68 149.613 196.68C149.355 196.68 149.137 196.734 148.957 196.844C148.777 196.953 148.629 197.104 148.512 197.295C148.398 197.486 148.314 197.709 148.26 197.963C148.205 198.217 148.178 198.488 148.178 198.777ZM160.33 200.283C160.33 200.143 160.295 200.016 160.225 199.902C160.154 199.785 160.02 199.68 159.82 199.586C159.625 199.492 159.336 199.406 158.953 199.328C158.617 199.254 158.309 199.166 158.027 199.064C157.75 198.959 157.512 198.832 157.312 198.684C157.113 198.535 156.959 198.359 156.85 198.156C156.74 197.953 156.686 197.719 156.686 197.453C156.686 197.195 156.742 196.951 156.855 196.721C156.969 196.49 157.131 196.287 157.342 196.111C157.553 195.936 157.809 195.797 158.109 195.695C158.414 195.594 158.754 195.543 159.129 195.543C159.66 195.543 160.115 195.633 160.494 195.812C160.877 195.988 161.17 196.229 161.373 196.533C161.576 196.834 161.678 197.174 161.678 197.553H160.266C160.266 197.385 160.223 197.229 160.137 197.084C160.055 196.936 159.93 196.816 159.762 196.727C159.594 196.633 159.383 196.586 159.129 196.586C158.887 196.586 158.686 196.625 158.525 196.703C158.369 196.777 158.252 196.875 158.174 196.996C158.1 197.117 158.062 197.25 158.062 197.395C158.062 197.5 158.082 197.596 158.121 197.682C158.164 197.764 158.234 197.84 158.332 197.91C158.43 197.977 158.562 198.039 158.73 198.098C158.902 198.156 159.117 198.213 159.375 198.268C159.859 198.369 160.275 198.5 160.623 198.66C160.975 198.816 161.244 199.02 161.432 199.27C161.619 199.516 161.713 199.828 161.713 200.207C161.713 200.488 161.652 200.746 161.531 200.98C161.414 201.211 161.242 201.412 161.016 201.584C160.789 201.752 160.518 201.883 160.201 201.977C159.889 202.07 159.537 202.117 159.146 202.117C158.572 202.117 158.086 202.016 157.688 201.812C157.289 201.605 156.986 201.342 156.779 201.021C156.576 200.697 156.475 200.361 156.475 200.014H157.84C157.855 200.275 157.928 200.484 158.057 200.641C158.189 200.793 158.354 200.904 158.549 200.975C158.748 201.041 158.953 201.074 159.164 201.074C159.418 201.074 159.631 201.041 159.803 200.975C159.975 200.904 160.105 200.811 160.195 200.693C160.285 200.572 160.33 200.436 160.33 200.283ZM165.539 200.992C165.77 200.992 165.977 200.947 166.16 200.857C166.348 200.764 166.498 200.635 166.611 200.471C166.729 200.307 166.793 200.117 166.805 199.902H168.135C168.127 200.312 168.006 200.686 167.771 201.021C167.537 201.357 167.227 201.625 166.84 201.824C166.453 202.02 166.025 202.117 165.557 202.117C165.072 202.117 164.65 202.035 164.291 201.871C163.932 201.703 163.633 201.473 163.395 201.18C163.156 200.887 162.977 200.549 162.855 200.166C162.738 199.783 162.68 199.373 162.68 198.936V198.73C162.68 198.293 162.738 197.883 162.855 197.5C162.977 197.113 163.156 196.773 163.395 196.48C163.633 196.188 163.932 195.959 164.291 195.795C164.65 195.627 165.07 195.543 165.551 195.543C166.059 195.543 166.504 195.645 166.887 195.848C167.27 196.047 167.57 196.326 167.789 196.686C168.012 197.041 168.127 197.455 168.135 197.928H166.805C166.793 197.693 166.734 197.482 166.629 197.295C166.527 197.104 166.383 196.951 166.195 196.838C166.012 196.725 165.791 196.668 165.533 196.668C165.248 196.668 165.012 196.727 164.824 196.844C164.637 196.957 164.49 197.113 164.385 197.312C164.279 197.508 164.203 197.729 164.156 197.975C164.113 198.217 164.092 198.469 164.092 198.73V198.936C164.092 199.197 164.113 199.451 164.156 199.697C164.199 199.943 164.273 200.164 164.379 200.359C164.488 200.551 164.637 200.705 164.824 200.822C165.012 200.936 165.25 200.992 165.539 200.992ZM168.949 198.9V198.766C168.949 198.309 169.016 197.885 169.148 197.494C169.281 197.1 169.473 196.758 169.723 196.469C169.977 196.176 170.285 195.949 170.648 195.789C171.016 195.625 171.43 195.543 171.891 195.543C172.355 195.543 172.77 195.625 173.133 195.789C173.5 195.949 173.811 196.176 174.064 196.469C174.318 196.758 174.512 197.1 174.645 197.494C174.777 197.885 174.844 198.309 174.844 198.766V198.9C174.844 199.357 174.777 199.781 174.645 200.172C174.512 200.562 174.318 200.904 174.064 201.197C173.811 201.486 173.502 201.713 173.139 201.877C172.775 202.037 172.363 202.117 171.902 202.117C171.438 202.117 171.021 202.037 170.654 201.877C170.291 201.713 169.982 201.486 169.729 201.197C169.475 200.904 169.281 200.562 169.148 200.172C169.016 199.781 168.949 199.357 168.949 198.9ZM170.361 198.766V198.9C170.361 199.186 170.391 199.455 170.449 199.709C170.508 199.963 170.6 200.186 170.725 200.377C170.85 200.568 171.01 200.719 171.205 200.828C171.4 200.938 171.633 200.992 171.902 200.992C172.164 200.992 172.391 200.938 172.582 200.828C172.777 200.719 172.938 200.568 173.062 200.377C173.188 200.186 173.279 199.963 173.338 199.709C173.4 199.455 173.432 199.186 173.432 198.9V198.766C173.432 198.484 173.4 198.219 173.338 197.969C173.279 197.715 173.186 197.49 173.057 197.295C172.932 197.1 172.771 196.947 172.576 196.838C172.385 196.725 172.156 196.668 171.891 196.668C171.625 196.668 171.395 196.725 171.199 196.838C171.008 196.947 170.85 197.1 170.725 197.295C170.6 197.49 170.508 197.715 170.449 197.969C170.391 198.219 170.361 198.484 170.361 198.766ZM177.445 196.867V202H176.033V195.66H177.381L177.445 196.867ZM179.385 195.619L179.373 196.932C179.287 196.916 179.193 196.904 179.092 196.896C178.994 196.889 178.896 196.885 178.799 196.885C178.557 196.885 178.344 196.92 178.16 196.99C177.977 197.057 177.822 197.154 177.697 197.283C177.576 197.408 177.482 197.561 177.416 197.74C177.35 197.92 177.311 198.121 177.299 198.344L176.977 198.367C176.977 197.969 177.016 197.6 177.094 197.26C177.172 196.92 177.289 196.621 177.445 196.363C177.605 196.105 177.805 195.904 178.043 195.76C178.285 195.615 178.564 195.543 178.881 195.543C178.967 195.543 179.059 195.551 179.156 195.566C179.258 195.582 179.334 195.6 179.385 195.619ZM182.947 202.117C182.479 202.117 182.055 202.041 181.676 201.889C181.301 201.732 180.98 201.516 180.715 201.238C180.453 200.961 180.252 200.635 180.111 200.26C179.971 199.885 179.9 199.48 179.9 199.047V198.812C179.9 198.316 179.973 197.867 180.117 197.465C180.262 197.062 180.463 196.719 180.721 196.434C180.979 196.145 181.283 195.924 181.635 195.771C181.986 195.619 182.367 195.543 182.777 195.543C183.23 195.543 183.627 195.619 183.967 195.771C184.307 195.924 184.588 196.139 184.811 196.416C185.037 196.689 185.205 197.016 185.314 197.395C185.428 197.773 185.484 198.191 185.484 198.648V199.252H180.586V198.238H184.09V198.127C184.082 197.873 184.031 197.635 183.938 197.412C183.848 197.189 183.709 197.01 183.521 196.873C183.334 196.736 183.084 196.668 182.771 196.668C182.537 196.668 182.328 196.719 182.145 196.82C181.965 196.918 181.814 197.061 181.693 197.248C181.572 197.436 181.479 197.662 181.412 197.928C181.35 198.189 181.318 198.484 181.318 198.812V199.047C181.318 199.324 181.355 199.582 181.43 199.82C181.508 200.055 181.621 200.26 181.77 200.436C181.918 200.611 182.098 200.75 182.309 200.852C182.52 200.949 182.76 200.998 183.029 200.998C183.369 200.998 183.672 200.93 183.938 200.793C184.203 200.656 184.434 200.463 184.629 200.213L185.373 200.934C185.236 201.133 185.059 201.324 184.84 201.508C184.621 201.688 184.354 201.834 184.037 201.947C183.725 202.061 183.361 202.117 182.947 202.117ZM189.229 199.486H187.922C187.926 199.123 187.957 198.818 188.016 198.572C188.074 198.322 188.172 198.096 188.309 197.893C188.449 197.689 188.635 197.475 188.865 197.248C189.045 197.076 189.207 196.914 189.352 196.762C189.496 196.605 189.611 196.441 189.697 196.27C189.783 196.094 189.826 195.893 189.826 195.666C189.826 195.42 189.785 195.211 189.703 195.039C189.621 194.867 189.5 194.736 189.34 194.646C189.184 194.557 188.988 194.512 188.754 194.512C188.559 194.512 188.375 194.551 188.203 194.629C188.031 194.703 187.893 194.82 187.787 194.98C187.682 195.137 187.625 195.344 187.617 195.602H186.205C186.213 195.109 186.33 194.695 186.557 194.359C186.783 194.023 187.088 193.771 187.471 193.604C187.854 193.436 188.281 193.352 188.754 193.352C189.277 193.352 189.725 193.441 190.096 193.621C190.467 193.797 190.75 194.055 190.945 194.395C191.145 194.73 191.244 195.137 191.244 195.613C191.244 195.957 191.176 196.27 191.039 196.551C190.902 196.828 190.725 197.088 190.506 197.33C190.287 197.568 190.051 197.807 189.797 198.045C189.578 198.244 189.43 198.461 189.352 198.695C189.273 198.926 189.232 199.189 189.229 199.486ZM187.805 201.314C187.805 201.104 187.877 200.926 188.021 200.781C188.166 200.633 188.363 200.559 188.613 200.559C188.863 200.559 189.061 200.633 189.205 200.781C189.35 200.926 189.422 201.104 189.422 201.314C189.422 201.525 189.35 201.705 189.205 201.854C189.061 201.998 188.863 202.07 188.613 202.07C188.363 202.07 188.166 201.998 188.021 201.854C187.877 201.705 187.805 201.525 187.805 201.314Z"
            fill="black" />
        <path d="M73.5 203.172H191.695V203.758H73.5V203.172Z" fill="black" />
    </g>
    <defs>
        <filter id="filter0_d_2361_9618" x="0" y="0" width="266" height="242"
            filterUnits="userSpaceOnUse" color-interpolation-filters="sRGB">
            <feFlood flood-opacity="0" result="BackgroundImageFix" />
            <feColorMatrix in="SourceAlpha" type="matrix"
                values="0 0 0 0 0 0 0 0 0 0 0 0 0 0 0 0 0 0 127 0" result="hardAlpha" />
            <feOffset dy="4" />
            <feGaussianBlur stdDeviation="2" />
            <feComposite in2="hardAlpha" operator="out" />
            <feColorMatrix type="matrix" values="0 0 0 0 0 0 0 0 0 0 0 0 0 0 0 0 0 0 0.25 0" />
            <feBlend mode="normal" in2="BackgroundImageFix" result="effect1_dropShadow_2361_9618" />
            <feBlend mode="normal" in="SourceGraphic" in2="effect1_dropShadow_2361_9618"
                result="shape" />
        </filter>
    </defs>
</svg>
    