<svg width="26" height="36" viewBox="0 0 26 36" fill="none" xmlns="http://www.w3.org/2000/svg">
<g filter="url(#filter0_b_2214_9357)">
<g clip-path="url(#clip0_2214_9357)">
<path d="M0 0H22C24.2091 0 26 1.79086 26 4V32C26 34.2091 24.2091 36 22 36H0V0Z" fill="white"/>
<g filter="url(#filter1_f_2214_9357)">
<circle cx="-0.785677" cy="-2.92728" r="20.0727" fill="#3CD0B5"/>
</g>
<g filter="url(#filter2_f_2214_9357)">
<circle cx="36.386" cy="-2.92728" r="20.0727" fill="#29FFFF"/>
</g>
<g filter="url(#filter3_f_2214_9357)">
<circle cx="25.978" cy="30.5273" r="20.0727" fill="#00B5B5"/>
</g>
<g filter="url(#filter4_f_2214_9357)">
<circle cx="-0.785677" cy="30.5273" r="20.0727" fill="#14B18B"/>
</g>
<g filter="url(#filter5_d_2214_9357)">
<path d="M8.89513 12.0653C8.41363 11.8254 7.88463 12.2844 8.02213 12.8223L9.03013 16.7518C9.05539 16.8506 9.10791 16.9394 9.18116 17.0073C9.2544 17.0752 9.34515 17.1191 9.44213 17.1337L14.3841 17.8702C14.5271 17.8911 14.5271 18.1071 14.3841 18.1284L9.44263 18.8645C9.34565 18.879 9.2549 18.923 9.18166 18.9908C9.10841 19.0587 9.05589 19.1476 9.03063 19.2463L8.02213 23.178C7.88463 23.7153 8.41363 24.1743 8.89513 23.9349L19.6441 18.5885C20.1186 18.3528 20.1186 17.6475 19.6441 17.4112L8.89513 12.0653Z" fill="white"/>
</g>
</g>
</g>
<defs>
<filter id="filter0_b_2214_9357" x="-97.3" y="-97.3" width="220.6" height="230.6" filterUnits="userSpaceOnUse" color-interpolation-filters="sRGB">
<feFlood flood-opacity="0" result="BackgroundImageFix"/>
<feGaussianBlur in="BackgroundImageFix" stdDeviation="48.65"/>
<feComposite in2="SourceAlpha" operator="in" result="effect1_backgroundBlur_2214_9357"/>
<feBlend mode="normal" in="SourceGraphic" in2="effect1_backgroundBlur_2214_9357" result="shape"/>
</filter>
<filter id="filter1_f_2214_9357" x="-36.0988" y="-38.2404" width="70.6262" height="70.6263" filterUnits="userSpaceOnUse" color-interpolation-filters="sRGB">
<feFlood flood-opacity="0" result="BackgroundImageFix"/>
<feBlend mode="normal" in="SourceGraphic" in2="BackgroundImageFix" result="shape"/>
<feGaussianBlur stdDeviation="7.6202" result="effect1_foregroundBlur_2214_9357"/>
</filter>
<filter id="filter2_f_2214_9357" x="1.07283" y="-38.2404" width="70.6262" height="70.6263" filterUnits="userSpaceOnUse" color-interpolation-filters="sRGB">
<feFlood flood-opacity="0" result="BackgroundImageFix"/>
<feBlend mode="normal" in="SourceGraphic" in2="BackgroundImageFix" result="shape"/>
<feGaussianBlur stdDeviation="7.6202" result="effect1_foregroundBlur_2214_9357"/>
</filter>
<filter id="filter3_f_2214_9357" x="-9.33513" y="-4.78581" width="70.6262" height="70.6263" filterUnits="userSpaceOnUse" color-interpolation-filters="sRGB">
<feFlood flood-opacity="0" result="BackgroundImageFix"/>
<feBlend mode="normal" in="SourceGraphic" in2="BackgroundImageFix" result="shape"/>
<feGaussianBlur stdDeviation="7.6202" result="effect1_foregroundBlur_2214_9357"/>
</filter>
<filter id="filter4_f_2214_9357" x="-36.0988" y="-4.78581" width="70.6262" height="70.6263" filterUnits="userSpaceOnUse" color-interpolation-filters="sRGB">
<feFlood flood-opacity="0" result="BackgroundImageFix"/>
<feBlend mode="normal" in="SourceGraphic" in2="BackgroundImageFix" result="shape"/>
<feGaussianBlur stdDeviation="7.6202" result="effect1_foregroundBlur_2214_9357"/>
</filter>
<filter id="filter5_d_2214_9357" x="0.2" y="4.2" width="27.6" height="27.6" filterUnits="userSpaceOnUse" color-interpolation-filters="sRGB">
<feFlood flood-opacity="0" result="BackgroundImageFix"/>
<feColorMatrix in="SourceAlpha" type="matrix" values="0 0 0 0 0 0 0 0 0 0 0 0 0 0 0 0 0 0 127 0" result="hardAlpha"/>
<feOffset/>
<feGaussianBlur stdDeviation="3.9"/>
<feComposite in2="hardAlpha" operator="out"/>
<feColorMatrix type="matrix" values="0 0 0 0 0 0 0 0 0 0 0 0 0 0 0 0 0 0 0.2 0"/>
<feBlend mode="normal" in2="BackgroundImageFix" result="effect1_dropShadow_2214_9357"/>
<feBlend mode="normal" in="SourceGraphic" in2="effect1_dropShadow_2214_9357" result="shape"/>
</filter>
<clipPath id="clip0_2214_9357">
<path d="M0 0H22C24.2091 0 26 1.79086 26 4V32C26 34.2091 24.2091 36 22 36H0V0Z" fill="white"/>
</clipPath>
</defs>
</svg>
