<svg width="57" height="58" viewBox="0 0 57 58" fill="none" xmlns="http://www.w3.org/2000/svg">
    <g filter="url(#filter0_d_2503_5960)">
        <path
            d="M28.5894 17.6648C28.9433 16.7083 30.2961 16.7083 30.65 17.6648L32.3127 22.158C32.424 22.4587 32.6611 22.6958 32.9618 22.8071L37.455 24.4698C38.4115 24.8237 38.4115 26.1765 37.455 26.5304L32.9618 28.1931C32.6611 28.3043 32.424 28.5414 32.3127 28.8421L30.65 33.3354C30.2961 34.2919 28.9433 34.2919 28.5894 33.3354L26.9267 28.8421C26.8155 28.5414 26.5784 28.3043 26.2777 28.1931L21.7844 26.5304C20.8279 26.1765 20.8279 24.8237 21.7844 24.4698L26.2777 22.8071C26.5784 22.6958 26.8155 22.4587 26.9267 22.158L28.5894 17.6648Z"
            fill="white" />
        <path
            d="M39.5526 14.5394C39.7886 13.9017 40.6904 13.9017 40.9264 14.5394L41.4084 15.842C41.4826 16.0425 41.6407 16.2006 41.8411 16.2748L43.1438 16.7568C43.7814 16.9927 43.7814 17.8946 43.1438 18.1305L41.8411 18.6126C41.6407 18.6868 41.4826 18.8448 41.4084 19.0453L40.9264 20.348C40.6904 20.9856 39.7886 20.9856 39.5526 20.348L39.0706 19.0453C38.9964 18.8448 38.8384 18.6868 38.6379 18.6126L37.3352 18.1305C36.6976 17.8946 36.6976 16.9927 37.3352 16.7568L38.6379 16.2748C38.8384 16.2006 38.9964 16.0425 39.0706 15.842L39.5526 14.5394Z"
            fill="white" />
        <path
            d="M39.5526 30.6522C39.7886 30.0145 40.6904 30.0145 40.9264 30.6522L41.4084 31.9548C41.4826 32.1553 41.6407 32.3134 41.8411 32.3875L43.1438 32.8696C43.7814 33.1055 43.7814 34.0074 43.1438 34.2433L41.8411 34.7254C41.6407 34.7996 41.4826 34.9576 41.4084 35.1581L40.9264 36.4608C40.6904 37.0984 39.7886 37.0984 39.5526 36.4608L39.0706 35.1581C38.9964 34.9576 38.8384 34.7996 38.6379 34.7254L37.3352 34.2433C36.6976 34.0074 36.6976 33.1055 37.3352 32.8696L38.6379 32.3875C38.8384 32.3134 38.9964 32.1553 39.0706 31.9548L39.5526 30.6522Z"
            fill="white" />
    </g>
    <defs>
        <filter id="filter0_d_2503_5960" x="0.167017" y="-6.83896" width="64.355" height="64.6779"
            filterUnits="userSpaceOnUse" color-interpolation-filters="sRGB">
            <feFlood flood-opacity="0" result="BackgroundImageFix" />
            <feColorMatrix in="SourceAlpha" type="matrix"
                values="0 0 0 0 0 0 0 0 0 0 0 0 0 0 0 0 0 0 127 0" result="hardAlpha" />
            <feOffset />
            <feGaussianBlur stdDeviation="10.45" />
            <feComposite in2="hardAlpha" operator="out" />
            <feColorMatrix type="matrix" values="0 0 0 0 1 0 0 0 0 1 0 0 0 0 1 0 0 0 1 0" />
            <feBlend mode="normal" in2="BackgroundImageFix" result="effect1_dropShadow_2503_5960" />
            <feBlend mode="normal" in="SourceGraphic" in2="effect1_dropShadow_2503_5960"
                result="shape" />
        </filter>
    </defs>
</svg>
    