<svg width="20" height="21" viewBox="0 0 20 21" fill="none" xmlns="http://www.w3.org/2000/svg">
<path d="M10 20.5C15.5228 20.5 20 16.0228 20 10.5C20 4.97715 15.5228 0.5 10 0.5C4.47715 0.5 0 4.97715 0 10.5C0 16.0228 4.47715 20.5 10 20.5Z" fill="#1DD882"/>
<path d="M19.9289 11.6959C19.4746 15.5107 16.8727 18.6662 13.3664 19.9193L4.96797 11.5209L4.64844 10.5639L4.73984 9.69824L5.27852 9.21934L6.36719 9.0998L7.06328 9.42129L8.69023 11.0471L12.9367 6.80137L14.0871 6.51074L15.0344 6.80137L19.9289 11.6959Z" fill="url(#paint0_linear_5481_60334)"/>
<path d="M12.9368 6.80136L8.69033 11.0471L7.06338 9.42011C6.78506 9.14222 6.40784 8.98613 6.01455 8.98613C5.62125 8.98613 5.24403 9.14222 4.96572 9.42011C4.68782 9.69842 4.53174 10.0756 4.53174 10.4689C4.53174 10.8622 4.68782 11.2395 4.96572 11.5178L7.54892 14.101C7.57666 14.1342 7.60595 14.1666 7.6372 14.1978C7.91701 14.4761 8.29555 14.6322 8.69013 14.6322C9.08471 14.6322 9.46325 14.4761 9.74306 14.1978C9.77431 14.1666 9.80361 14.1342 9.83134 14.101L15.0345 8.89863C15.3124 8.62032 15.4684 8.2431 15.4684 7.8498C15.4684 7.4565 15.3124 7.07928 15.0345 6.80097C14.7561 6.52313 14.3789 6.36711 13.9856 6.36719C13.5923 6.36726 13.2151 6.52342 12.9368 6.80136Z" fill="white"/>
<defs>
<linearGradient id="paint0_linear_5481_60334" x1="7.63906" y1="6.79902" x2="17.741" y2="16.9014" gradientUnits="userSpaceOnUse">
<stop stop-color="#068C46"/>
<stop offset="1" stop-color="#068C46" stop-opacity="0"/>
</linearGradient>
</defs>
</svg>
